<svg width="19" height="26" viewBox="0 0 19 26" fill="none" xmlns="http://www.w3.org/2000/svg">
<g clip-path="url(#clip0_521_6969)">
<path d="M5.7145 7.92043C4.41477 8.43422 4.39105 8.73416 4.39105 10.6328C4.39105 12.5315 5.73156 13.2266 5.73156 13.2266C5.73156 13.2266 3.43991 13.8877 2.84995 16.8714C2.25999 19.8551 3.15739 21.2911 4.00928 22.025L4.10629 27.4526H15.9465V19.8551L15.982 19.7539C16.2506 18.9899 16.4684 18.3705 16.2307 16.3289C15.9826 14.198 13.9576 12.8028 13.9576 12.8028C13.9576 12.8028 14.714 12.5315 14.714 10.6328C14.714 8.73416 14.5308 8.14331 13.231 7.62953V6.59304C13.231 6.59304 13.9576 6.51575 14.526 6.02174C15.0945 5.52774 14.9543 4.98526 14.8115 4.71402C14.5285 4.17615 12.8485 4.12392 12.8212 4.12307C12.8212 3.58058 11.9682 1.95312 9.4104 1.95312C6.85258 1.95312 6.28417 3.58057 6.28417 4.12306L6.27752 4.12584C6.15182 4.17817 4.29475 4.18139 3.83656 4.9057C3.49697 5.44253 3.72635 6.29299 4.29475 6.78699C4.86316 7.28099 5.7145 7.37795 5.7145 7.37795V7.92043Z" fill="url(#paint0_linear_521_6969)"/>
<path d="M16.3481 16.3584C16.5869 18.3195 16.3681 18.9145 16.0983 19.6483C15.7677 21.2779 12.4854 21.344 11.6205 20.479C10.8153 19.6738 10.935 18.7104 11.6201 18.085C12.4766 17.3034 13.2271 17.6514 13.5126 16.6092C13.8695 15.3065 12.9625 14.2899 12.9625 13.7688C12.9625 13.2477 13.3103 12.7266 13.8189 12.7266C14.3276 12.7266 16.0989 14.3115 16.3481 16.3584Z" fill="url(#paint1_linear_521_6969)"/>
<path d="M5.71654 13.2227C4.9113 13.2227 3.27959 13.7552 2.69417 16.6923C2.10876 19.6294 2.76348 21.2751 3.83745 22.3488C4.91142 23.4225 7.51108 24.128 8.13226 22.8856C8.66909 21.812 8.54703 20.6782 7.59544 20.2015C7.09114 19.9489 5.44783 19.6646 5.44783 17.5173C5.44783 16.4493 5.52108 15.7107 5.71654 15.1016C5.912 14.4925 6.79019 13.2227 5.71654 13.2227Z" fill="url(#paint2_linear_521_6969)"/>
</g>
<defs>
<linearGradient id="paint0_linear_521_6969" x1="9.47325" y1="0.611046" x2="9.49637" y2="35.0403" gradientUnits="userSpaceOnUse">
<stop offset="0.0052383" stop-color="#2A3340"/>
<stop offset="0.247935" stop-color="#476883"/>
<stop offset="0.389033" stop-color="#3F5B73"/>
<stop offset="0.478602" stop-color="#3D576D"/>
<stop offset="0.725466" stop-color="#2B313D"/>
</linearGradient>
<linearGradient id="paint1_linear_521_6969" x1="15.7325" y1="12.1268" x2="13.8825" y2="19.0643" gradientUnits="userSpaceOnUse">
<stop stop-color="#334354"/>
<stop offset="0.929031" stop-color="#486C89"/>
</linearGradient>
<linearGradient id="paint2_linear_521_6969" x1="3.70673" y1="11.1992" x2="6.48175" y2="21.8367" gradientUnits="userSpaceOnUse">
<stop stop-color="#334354"/>
<stop offset="1" stop-color="#486C89"/>
</linearGradient>
<clipPath id="clip0_521_6969">
<rect width="18.4998" height="25.9" fill="white" transform="translate(0 0.0996094)"/>
</clipPath>
</defs>
</svg>
