<svg width="155" height="112" viewBox="0 0 155 112" fill="none" xmlns="http://www.w3.org/2000/svg">
<g clip-path="url(#clip0_198_4564)">
<circle cx="130.01" cy="48.8166" r="24.5783" fill="#F7B7CE"/>
<path d="M111.33 32.949L153.042 57.3014L143.692 87.2794C143.072 89.2678 141.231 90.6221 139.148 90.6221L49.5188 90.6221C44.9587 90.6221 43.0085 84.8289 46.6402 82.0711L111.33 32.949Z" fill="#F7B7CE"/>
<circle cx="95.3775" cy="43.9204" r="8.93997" fill="#FFA1A8"/>
<path d="M100.218 39.1457C98.1168 40.3886 91.2862 39.4936 88.0208 38.9595C87.8985 38.9395 87.8022 38.8459 87.7889 38.7227C87.4354 35.4456 94.0893 31.5963 100.218 34.7041C106.473 37.8767 105.282 43.5872 103.792 43.5872C102.601 43.5872 100.913 40.6262 100.218 39.1457Z" fill="#2F2F35"/>
<path d="M107.288 33.701C104.103 33.9376 102.695 36.1654 102.389 37.2498C101.996 38.1375 103.613 38.1365 106.063 39.3195C108.513 40.5024 115.556 37.8408 116.168 36.3621C116.781 34.8834 113.106 35.7711 112.187 35.1797C111.269 34.5882 111.269 33.4052 107.288 33.701Z" fill="#2F2F35"/>
<circle cx="92.9505" cy="41.1288" r="0.850149" transform="rotate(2.6545 92.9505 41.1288)" fill="#2F2F35"/>
<circle cx="97.72" cy="42.3203" r="0.850149" transform="rotate(2.6545 97.72 42.3203)" fill="#2F2F35"/>
<path d="M58.8514 58.7725C57.1514 71.3525 61.5714 89.7774 67.6914 97.5974C76.3951 106.302 86.0515 101.224 89.7917 97.5974C88.3184 97.5974 88.1597 96.5125 99.3117 96.5125C113.252 96.5125 121.752 96.5125 126.852 91.0722C131.952 85.6319 132.366 55.1752 125.26 49.165C118.155 43.1548 112.232 44.8325 103.732 44.8325C101.45 44.8325 92.7007 49.165 89.257 49.165C86.7793 49.165 89.7546 44.8325 87.1667 44.8325C79.9505 44.8325 75.4768 44.92 71.7717 45.5125C68.0666 46.1051 60.5514 46.1925 58.8514 58.7725Z" fill="#266EB4"/>
<path d="M88.0928 56.3926C83.8995 63.0792 75.0368 76.9966 73.1328 79.1726" stroke="#2F2F35" stroke-width="2.04"/>
<path d="M105.432 73.3926C101.012 81.4392 90.8799 97.8726 85.7119 99.2326C84.311 100.249 80.6558 101.976 77.2422 100.757" stroke="#2F2F35" stroke-width="2.04"/>
<path d="M84.602 41.9089C82.2181 43.1009 83.0127 50.9482 83.708 54.7229C84.6018 58.8944 87.2843 63.3652 92.6483 64.5572C98.0123 65.7492 103.972 61.5772 105.164 60.6832C106.356 59.7892 106.654 59.1932 106.654 58.0013C106.654 57.0477 104.866 57.0079 103.972 57.1073C105.76 56.8093 106.058 55.9153 106.058 54.7229C106.058 53.7689 103.873 53.9283 102.78 54.1273C105.76 53.5317 105.462 51.7433 105.164 51.1473C104.926 50.6705 102.085 50.5513 100.694 50.5513C101.986 50.0546 103.793 48.8229 105.462 47.8693C107.548 46.6773 109.105 45.3906 107.272 43.2957C106.665 42.6029 104.579 42.8327 100.992 43.9949C97.9635 44.9762 96.271 45.2919 93.4641 46.602C92.7242 46.9473 90.8247 48.3693 89.8952 48.6135C89.7593 48.6492 89.6371 48.5515 89.6092 48.4138C89.3285 47.033 89.0559 45.1197 88.7743 43.9949C88.5454 43.0808 87.582 40.4189 84.602 41.9089Z" fill="#EA7E85"/>
<path d="M90.6041 56.2347C89.2486 52.3534 91.0466 48.2917 94.6887 47.0197C98.3307 45.7477 103.077 44.7599 103.674 45.8915C104.27 47.0232 105.182 47.9167 104.251 48.51L104.443 49.5149C104.443 49.5149 104.73 49.4633 104.814 49.5822C105.217 50.1535 105.754 51.5763 105.547 52.0379C105.465 52.2187 105.325 52.1597 105.202 52.2588C105.063 52.3712 105.453 53.113 105.529 53.1934C105.871 53.3419 106.145 52.9678 106.531 54.072C107.029 55.4983 107.263 55.6653 106.549 56.1155C106.094 56.4029 106.588 56.8708 107.041 56.9041C107.297 56.923 107.459 57.1045 107.481 57.1682C107.89 58.3403 108.3 58.5626 107.595 59.6128C106.89 60.663 106.711 61.1104 105.361 61.8498C104.012 62.5891 100.214 64.1835 98.6139 64.2063C97.014 64.2291 93.9563 65.833 90.6041 56.2347Z" fill="#EA7E85"/>
<path fill-rule="evenodd" clip-rule="evenodd" d="M98.1989 49.7024L104.251 48.5074L104.458 49.5139L98.4029 50.6767L98.1989 49.7024Z" fill="#2F2F35"/>
<path fill-rule="evenodd" clip-rule="evenodd" d="M99.5607 54.2069L105.228 52.2275L105.56 53.1966L99.8774 55.1329L99.5607 54.2069Z" fill="#2F2F35"/>
<path fill-rule="evenodd" clip-rule="evenodd" d="M100.996 58.0273L106.588 56.0745L107.057 56.9053L101.374 58.8417L100.996 58.0273Z" fill="#2F2F35"/>
</g>
<defs>
<clipPath id="clip0_198_4564">
<rect width="110" height="68" fill="white" transform="matrix(-1 0 0 1 155 22)"/>
</clipPath>
</defs>
</svg>
