<svg width="155" height="112" viewBox="0 0 155 112" fill="none" xmlns="http://www.w3.org/2000/svg">
<g clip-path="url(#clip0_188_3018)">
<path d="M148.52 59.4C148.52 85.7774 148.52 96.8 102.96 96.8C57.4004 96.8 57.4004 87.5423 57.4004 59.4C57.4004 31.2577 77.7983 22 102.96 22C128.122 22 148.52 33.0226 148.52 59.4Z" fill="#FF5246"/>
<path d="M54.0549 24.2084L72.8087 26.9999V29.6508L53.0312 26.5659L53.2814 24.7863C53.3339 24.4123 53.6813 24.1527 54.0549 24.2084Z" fill="white"/>
<path d="M70.4754 53.4237L74.149 26.9815C74.1825 26.7398 74.0125 26.5172 73.7705 26.4859L53.9855 23.9318C53.9448 23.9265 53.9088 23.9583 53.9088 23.9993V24.7668C53.9088 24.8353 53.961 24.8933 54.029 24.9019L72.009 27.1834C72.2282 27.2112 72.3947 27.398 72.3947 27.619V28.7274C72.3947 28.8115 72.3192 28.8754 72.2363 28.8616L53.0192 25.6501C52.7809 25.6103 52.5553 25.7706 52.5144 26.0086L48.3728 50.1103C48.3311 50.3528 48.497 50.5821 48.7403 50.6185L69.9758 53.7973C70.2173 53.8334 70.4418 53.6655 70.4754 53.4237Z" fill="#E91F3C"/>
<path d="M91.5997 51.6839C83.1313 53.0401 72.5949 58.9428 68.5153 64.3817C68.3558 64.5943 68.0158 64.5429 67.9395 64.2884C66.7069 60.1788 64.6735 53.3217 63.4249 52.406C62.1943 51.5036 52.0207 53.7436 46.1256 55.2103C45.4766 55.3717 45.0721 56.0207 45.2095 56.6752C49.3365 76.3394 57.9981 86.8675 69.1186 84.9472C78.0833 83.3992 81.9172 79.7932 83.1299 78.3506C83.2218 78.2413 83.458 78.3492 83.4285 78.4888C83.1909 79.6117 82.7442 81.7583 82.4744 83.2732C82.0936 85.4116 80.1485 94.1714 82.3141 99.9329C84.4797 105.694 110.306 105.85 114.384 99.8323C117.932 94.5969 118.178 81.7459 118.183 78.4949C118.183 78.3523 118.398 78.3175 118.453 78.4492C119.53 81.0481 121.073 82.6167 124.241 84.1756C128.815 86.426 137.987 87.3611 143.15 86.8175C143.543 86.7762 143.783 86.3815 143.658 86.0077C143.037 84.1586 141.424 79.2634 141.218 77.738C140.963 75.8436 141.563 71.8975 139.706 71.7978C137.108 71.6583 132.42 70.2496 131.874 69.4846C131.327 68.7195 129.033 62.7309 126.374 59.851C123.716 56.9711 121.861 55.4724 116.232 52.4067C110.603 49.3409 100.35 50.2826 91.5997 51.6839Z" fill="#117649"/>
<path fill-rule="evenodd" clip-rule="evenodd" d="M110.165 52.2809C108.978 53.8665 107.155 54.9677 105.028 55.1784C102.103 55.4683 99.409 53.9925 98.0054 51.6181C97.8721 51.6485 97.7355 51.6709 97.596 51.6847C95.7957 51.8631 94.1916 50.5483 94.0132 48.748C93.8348 46.9476 95.1497 45.3436 96.95 45.1652C97.1435 45.146 97.3347 45.1441 97.5222 45.1582C98.5099 42.7186 100.785 40.8959 103.585 40.6184C107.337 40.2467 110.707 42.7786 111.465 46.3857C113.021 46.398 114.35 47.5826 114.506 49.1662C114.674 50.8615 113.436 52.3719 111.741 52.5399C111.182 52.5953 110.642 52.4976 110.165 52.2809Z" fill="#F38990"/>
<path d="M100.543 43.3679C99.5681 47.2065 97.9695 46.5242 96.6534 46.9571C96.5998 46.9747 96.543 46.9343 96.5425 46.8779C96.4836 40.4904 100.951 38.6635 104.601 38.7876C110.42 38.9853 111.826 43.9125 112.016 46.5364C112.016 46.5364 111.798 46.7286 111.28 46.9132C110.763 47.0977 109.263 47.014 107.884 46.4083C107.348 46.1729 106.841 45.9901 106.177 45.451C106.145 45.4253 106.099 45.4566 106.113 45.4952C106.401 46.3335 106.681 46.4673 106.624 46.6601C106.472 47.1786 104.727 46.7616 103.82 46.3654C102.278 45.8934 100.923 44.6243 100.543 43.3679Z" fill="#2F2F35"/>
<circle cx="103.018" cy="48.7287" r="0.969972" transform="rotate(2.6545 103.018 48.7287)" fill="#2F2F35"/>
<circle cx="106.406" cy="48.8283" r="0.969972" transform="rotate(2.6545 106.406 48.8283)" fill="#2F2F35"/>
<path d="M41.2188 47.7051C41.2188 41.2369 45.8194 36.1367 51.6638 36.1367C57.5082 36.1367 64.7904 37.1318 65.0779 39.122C65.3653 41.1121 66.2244 42.9127 64.5955 43.3107L64.3682 44.9029C64.3682 44.9029 64.8041 44.9749 64.8649 45.1951C65.1569 46.2532 65.2135 48.6447 64.6866 49.2229C64.4802 49.4494 64.3089 49.289 64.0837 49.3724C63.828 49.467 64.0157 50.7712 64.0837 50.9299C64.4989 51.3279 65.0779 50.9145 65.0779 52.7546C65.0779 55.1316 65.3293 55.501 64.0837 55.7996C63.2885 55.9901 63.7623 56.9417 64.3926 57.2258C64.7497 57.3868 64.8907 57.7405 64.8907 57.8466C64.8907 59.7999 65.3653 60.3424 63.8322 61.5365C62.2991 62.7306 61.82 63.3025 59.5204 63.7005C57.2207 64.0986 50.9925 64.4966 48.6928 63.7005C46.3931 62.9045 41.2188 63.7005 41.2188 47.7051Z" fill="#F38990"/>
<path fill-rule="evenodd" clip-rule="evenodd" d="M55.3429 41.9407L64.5956 43.3053L64.3898 44.9079L55.148 43.4937L55.3429 41.9407Z" fill="#2F2F35"/>
<path fill-rule="evenodd" clip-rule="evenodd" d="M55.0409 49.3398L64.1357 49.3398L64.126 50.9513L55.0312 50.8796L55.0409 49.3398Z" fill="#2F2F35"/>
<path fill-rule="evenodd" clip-rule="evenodd" d="M55.1875 55.7598H64.1604L64.4164 57.2372L55.3216 57.1655L55.1875 55.7598Z" fill="#2F2F35"/>
<path d="M153.769 77.9295C154.257 74.0572 151.782 70.643 148.149 70.1846C144.515 69.7261 139.913 69.7506 139.584 70.9195C139.254 72.0884 138.584 73.0989 139.567 73.465L139.588 74.436C139.588 74.436 139.312 74.4449 139.257 74.572C138.996 75.1826 138.78 76.6098 139.064 76.9973C139.175 77.1491 139.294 77.0665 139.427 77.134C139.579 77.2108 139.364 77.9768 139.31 78.0665C139.022 78.2722 138.693 77.9793 138.554 79.0809C138.374 80.5039 138.19 80.7054 138.942 80.9818C139.422 81.1582 139.055 81.6908 138.642 81.8114C138.408 81.8798 138.294 82.0804 138.286 82.144C138.138 83.3134 137.802 83.6009 138.665 84.436C139.528 85.2712 139.783 85.6511 141.182 86.0698C142.582 86.4885 146.424 87.2153 147.914 86.9191C149.404 86.6229 152.561 87.5054 153.769 77.9295Z" fill="#F38990"/>
<path fill-rule="evenodd" clip-rule="evenodd" d="M145.422 73.3719L139.566 73.463L139.573 74.4386L145.426 74.3169L145.422 73.3719Z" fill="#2F2F35"/>
<path fill-rule="evenodd" clip-rule="evenodd" d="M145.051 77.8254L139.396 77.112L139.281 78.0775L144.94 78.748L145.051 77.8254Z" fill="#2F2F35"/>
<path fill-rule="evenodd" clip-rule="evenodd" d="M144.475 81.6562L138.896 80.9524L138.625 81.8168L144.285 82.4873L144.475 81.6562Z" fill="#2F2F35"/>
<path d="M45.5264 28.5593C42.6279 30.0077 41.7115 37.262 41.4094 42.0933C41.0921 45.405 41.7072 54.4367 42.1985 55.4436L47.2493 41.0679C48.1919 39.7284 50.6356 37.0825 51.119 36.0075C51.5322 35.0884 51.5655 31.2878 51.119 30.0972C50.6725 28.9065 49.1494 26.7488 45.5264 28.5593Z" fill="#F38990"/>
<path d="M84.9317 71.4512C81.4279 78.9406 80.2435 92.1289 82.8193 98.5267" stroke="#2F2F35" stroke-width="1.7" stroke-linejoin="bevel"/>
</g>
<defs>
<clipPath id="clip0_188_3018">
<rect width="114" height="68" fill="white" transform="matrix(-1 0 0 1 155 22)"/>
</clipPath>
</defs>
</svg>
