<svg width="155" height="112" viewBox="0 0 155 112" fill="none" xmlns="http://www.w3.org/2000/svg">
<g clip-path="url(#clip0_198_4535)">
<path d="M39.3258 39.9243C36.3708 31.1134 42.9267 22 52.22 22H131.234C138.746 22 144.834 28.0889 144.834 35.6V83.2C144.834 90.7111 138.746 96.8 131.234 96.8H68.1836C62.339 96.8 57.1479 93.0657 55.2895 87.5243L39.3258 39.9243Z" fill="#0063D8"/>
<ellipse cx="99.0444" cy="79.0127" rx="33.8433" ry="25.0537" fill="#51A3EC"/>
<path d="M79.8212 55.3178C73.7012 54.2978 65.8812 62.1178 65.2012 73.6778C65.2012 85.5788 66.5721 97.0092 88.6721 103.129C110.772 109.249 124.021 83.5388 125.721 79.7988C127.421 76.0588 117.561 70.9588 115.521 71.6388C113.481 72.3188 110.421 73.6778 106.341 73.6778C102.261 73.6778 97.8412 71.9788 94.4412 66.1988C91.0412 60.4188 85.9412 56.3378 79.8212 55.3178Z" fill="#A2E2FF"/>
<path d="M104.509 38.1659C104.509 42.3728 108.19 48.2067 113.244 48.2067C118.298 48.2067 124.059 43.0652 124.059 38.8584C124.059 34.6516 118.714 30.5488 113.66 30.5488C108.606 30.5488 104.509 33.9591 104.509 38.1659Z" fill="#EDDC0B"/>
<path d="M134.78 38.7968C134.78 43.0036 138.461 48.8376 143.515 48.8376C148.569 48.8376 154.33 43.6961 154.33 39.4893C154.33 35.2825 148.985 31.1797 143.931 31.1797C138.877 31.1797 134.78 34.59 134.78 38.7968Z" fill="#EDDC0B"/>
<circle cx="129.102" cy="43.1605" r="15.766" fill="#FFED0D"/>
<path d="M110.231 40.4742C123.579 43.1473 128.329 53.7008 129.035 58.6434C133.765 52.2704 148.27 36.3711 153 41.7316C160.842 50.6193 147.639 61.2813 135.972 64.1192L135.908 64.1246C132.181 64.4348 131.556 64.4869 131.242 73.5788C130.998 80.6558 132.904 88.0709 131.242 92.2498C130.236 94.7794 123.663 96.9323 121.129 96.2241C119.477 95.7623 120.089 94.242 120.089 93.3132C120.089 92.3845 121.783 73.5456 121.783 67.9031C121.783 63.1779 118.321 63.487 118.314 63.4876L118.314 63.4876C109.044 64.3224 93.5465 37.1327 110.231 40.4742Z" fill="#389935"/>
<path fill-rule="evenodd" clip-rule="evenodd" d="M137.579 49.9789C134.312 53.5719 131.464 57.6533 129.745 60.2769L129.711 60.3245C129.491 60.6109 129.133 61.1507 128.812 61.7936C128.488 62.4433 128.23 63.1429 128.161 63.762L126.594 63.5879C126.692 62.7068 127.038 61.8171 127.401 61.0896C127.684 60.5223 127.995 60.02 128.25 59.6525C128.249 59.647 128.248 59.6414 128.247 59.6358C128.206 59.415 128.143 59.0944 128.058 58.6993C127.887 57.9081 127.626 56.8229 127.265 55.6456C126.531 53.2438 124.576 50.3024 123.113 48.9182L122.482 46.6297C124.584 48.0743 128.362 52.5103 128.773 55.1844C129.074 56.1675 129.308 57.0865 129.48 57.8354C131.23 55.2693 133.671 51.9335 136.413 48.9182C138.087 47.0772 139.887 45.3406 141.723 43.9691C143.552 42.6029 146.447 40.954 149.6 40.6387L147.669 42.7243C146.096 43.0445 144.402 43.9358 142.666 45.2322C140.938 46.5234 139.213 48.1826 137.579 49.9789Z" fill="#2F2F35"/>
<ellipse cx="83.8949" cy="51.1025" rx="7.34603" ry="7.61811" fill="#FFED0D"/>
<circle cx="88.8049" cy="49.2274" r="0.808047" transform="rotate(2.6545 88.8049 49.2274)" fill="#2F2F35"/>
<path d="M75.7304 55.227C76.5759 56.2452 79.1827 57.9477 80.815 57.9477C82.4472 57.9477 84.6665 53.5313 84.9822 51.3748C84.9822 51.3748 87.9751 46.303 87.9751 45.3888C87.9751 44.4814 89.8794 46.7634 89.0631 45.3888C88.2391 44.0011 84.5223 39.9881 78.4512 43.7997C72.3794 47.6116 74.8849 54.2087 75.7304 55.227Z" fill="#2F2F35"/>
<circle cx="84.6246" cy="51.6891" r="1.63245" fill="#FFED0D"/>
<circle cx="72.3831" cy="49.2405" r="4.62528" fill="#2F2F35"/>
<ellipse cx="65.3081" cy="50.0575" rx="5.16943" ry="4.89736" fill="#2F2F35"/>
<path d="M129.121 72.3198C129.121 76.4509 126.112 82.1798 121.981 82.1798C117.85 82.1798 113.141 77.1309 113.141 72.9998C113.141 68.8688 117.51 64.8398 121.641 64.8398C125.772 64.8398 129.121 68.1888 129.121 72.3198Z" fill="#FFED0D"/>
</g>
<defs>
<clipPath id="clip0_198_4535">
<rect width="117" height="68" fill="white" transform="translate(38 22)"/>
</clipPath>
</defs>
</svg>
