<svg width="155" height="112" viewBox="0 0 155 112" fill="none" xmlns="http://www.w3.org/2000/svg">
<g clip-path="url(#clip0_198_4506)">
<path d="M44.3941 23.461C40.8581 24.005 41.7604 29.3125 42.4404 33.0525C34.3174 31.613 30.6506 32.8094 27.5909 36.5494C25.0242 39.6867 28.9312 47.0296 29.8331 48.6261C29.9449 48.824 30.1354 48.9419 30.3625 48.9525C33.1105 49.08 51.0919 49.878 51.0919 48.936C51.0919 47.916 49.3919 37.3764 49.7319 30.9164C50.0719 24.4564 48.8141 22.781 44.3941 23.461Z" fill="#F38990"/>
<path fill-rule="evenodd" clip-rule="evenodd" d="M37.1187 37.9548C37.7788 37.2322 38.7537 36.6543 39.8099 36.6543C40.3569 36.6543 40.9392 36.8374 41.4724 37.0649C42.0213 37.2991 42.5971 37.6153 43.1524 37.9522C44.0246 38.4815 44.9025 39.0976 45.5934 39.5826C45.8203 39.7419 46.3544 40.1705 46.5915 40.35C46.631 40.3799 46.6282 40.4413 46.5858 40.4667L45.3273 41.2181C45.2129 41.2864 45.0691 41.2817 44.9598 41.2054C44.8428 41.1238 44.7207 41.0382 44.5945 40.9496C43.9064 40.4668 43.0927 39.8958 42.2744 39.3992C41.7538 39.0833 41.2541 38.8119 40.8082 38.6217C40.3468 38.4249 40.0153 38.3469 39.8099 38.3469C39.3615 38.3469 38.8096 38.6134 38.3684 39.0964C37.9243 39.5825 37.7382 40.1257 37.7919 40.52C37.8606 41.0236 38.1735 41.6322 38.6676 42.2365C39.0984 42.7634 40.2586 43.6967 40.8668 44.1155C40.9233 44.1544 40.8953 44.2476 40.8266 44.2476H39.1068C38.3684 44.2476 37.9557 44.0398 37.3573 43.3079C36.7678 42.587 36.2432 41.6899 36.1149 40.7486C35.9716 39.698 36.4614 38.6743 37.1187 37.9548Z" fill="#2F2F35"/>
<path d="M69.2918 36.915C70.0209 28.4778 77.0825 22 85.5512 22H137.387C146.955 22 154.47 30.1928 153.647 39.725L150.004 81.8849C149.275 90.3222 142.213 96.8 133.744 96.8H81.9082C72.3405 96.8 64.8251 88.6072 65.6488 79.075L69.2918 36.915Z" fill="#038600"/>
<path d="M114.738 52.4312C132.433 53.5512 133.404 75.4429 131.628 88.8167C131.312 91.1912 130.486 93.4554 129.362 95.5708L125.661 102.538C125.425 102.982 124.963 103.26 124.46 103.26H80.2677C78.2205 103.26 76.4903 101.742 76.2227 99.7128L73.5977 79.7996C72.4643 85.4662 69.1777 97.6156 65.0977 100.88C59.9977 104.96 51.0433 103.26 45.0377 100.88C37.7061 97.9741 29.7377 52.5998 29.0577 48.5198C28.3777 44.4398 44.6588 48.0305 44.6588 48.0305C51.8314 49.8109 51.1903 46.9005 52.2103 50.3003C53.2303 53.7 58.9777 76.0598 58.9777 71.9798C58.9777 67.8998 65.7777 54.2998 70.1977 52.5998C74.6177 50.8998 87.8778 50.7313 114.738 52.4312Z" fill="#FEE133"/>
<path d="M110.561 97.729L108.369 65.1625C108.318 64.4189 107.679 63.8541 106.935 63.896L85.5423 65.1012C84.7746 65.1445 84.1953 65.8151 84.2643 66.581L87.0868 97.9422C87.1499 98.6433 87.7374 99.1803 88.4413 99.1803H109.204C109.991 99.1803 110.613 98.5143 110.561 97.729Z" fill="white"/>
<path fill-rule="evenodd" clip-rule="evenodd" d="M101.478 65.5208L90.5977 66.2008V63.4808L101.478 62.8008V65.5208Z" fill="#2F2F35"/>
<path d="M96.5162 100.58C101.276 98.5145 109.316 86.2963 112.742 80.4453L117.384 101.385H102.096C98.2532 101.977 91.7569 102.645 96.5162 100.58Z" fill="#FEE133"/>
<path d="M103.152 49.1032C103.121 54.0711 99.6056 58.0724 94.4465 58.0403C89.2875 58.0082 85.1303 53.9549 85.1612 48.9869C85.1921 44.019 89.3994 40.7096 94.5584 40.7417C99.7175 40.7738 103.183 44.1352 103.152 49.1032Z" fill="#F38990"/>
<circle cx="91.9592" cy="45.09" r="0.969972" transform="rotate(2.6545 91.9592 45.09)" fill="#2F2F35"/>
<path d="M103.152 46.9687C103.75 49.9586 102.607 52.5844 102.285 53.2425C102.258 53.2988 102.177 53.2905 102.16 53.2302C101.908 52.3344 100.479 48.028 95.1944 43.163C93.8278 41.905 91.7802 41.6246 91.43 41.1631C91.3978 41.1207 91.4127 41.065 91.4547 41.0323C91.8064 40.7577 93.5834 39.5772 97.2703 40.3959C101.422 41.3178 102.806 45.2388 103.152 46.9687Z" fill="#2F2F35"/>
<path d="M95.4512 100.249C105.093 96.3403 113.573 79.3058 113.256 76.5508" stroke="black" stroke-width="1.7" stroke-linejoin="bevel"/>
</g>
<defs>
<clipPath id="clip0_198_4506">
<rect width="128" height="68" fill="white" transform="matrix(-1 0 0 1 155 22)"/>
</clipPath>
</defs>
</svg>
