<svg width="46" height="26" viewBox="0 0 46 26" fill="none" xmlns="http://www.w3.org/2000/svg">
<g clip-path="url(#clip0_521_6961)">
<mask id="mask0_521_6961" style="mask-type:alpha" maskUnits="userSpaceOnUse" x="4" y="1" width="38" height="31">
<path d="M5.44759 9.85453C3.98327 9.04592 4.2976 8.55705 5.04082 7.89658C5.32086 7.64772 6.03042 7.43558 6.82069 6.82619C7.70833 6.14172 8.71922 4.83205 9.3162 4.56994C9.3162 3.63704 10.3619 2.3257 10.8779 2.01441C11.298 1.76106 12.0131 1.64613 12.5367 1.64649C14.0121 1.64748 14.7373 2.69647 14.9302 3.16675C15.9737 5.23318 17.6462 8.96543 18.1879 9.50716C18.9311 10.2503 19.4729 10.928 22.1979 10.2674C24.3778 9.73893 29.2056 9.77196 30.6094 9.85453C30.4167 9.35908 30.7745 8.36818 33.7472 8.36818C37.463 8.36818 36.6663 11.8363 38.483 11.8363C39.4463 11.8363 40.2884 10.2674 40.7839 9.85453C41.1802 9.52423 41.556 10.0195 41.556 10.2674C41.3908 12.1666 39.2536 13.3227 36.885 13.3227C34.5729 13.4053 33.3343 10.928 32.8389 10.2674C32.4425 9.73893 31.5727 9.82701 31.1874 10.2674C31.5415 13.7411 31.1874 15.4945 30.1819 18.2397L30.6094 22.53L32.5051 27.1673L33.1074 28.3073L32.2074 29.9028L31.1874 29.5074L31.5967 28.4573L29.027 23.4953L28.5561 29.0119V30.0854H26.4114L27.182 28.6399L26.9046 22.984L26.1133 19.1221C26.0127 18.631 25.5392 18.3106 25.0445 18.3917C22.5516 18.8008 20.8911 18.9015 18.4462 18.7162C18.0755 18.6881 17.7209 18.8788 17.5462 19.207L16.8415 20.5313C16.7539 20.696 16.7181 20.8834 16.7389 21.0689L16.9536 22.984L17.5525 30.0854V30.9261L15.7557 31.3841L16.2137 30.0854L15.4521 24.2117C15.4354 24.083 15.3918 23.9591 15.3241 23.8483L14.5184 22.53V18.6655L14.023 19.3507L12.3756 22.3207C12.2994 22.458 12.2595 22.6124 12.2595 22.7694V27.6342L11.9248 29.0119L10.1753 29.5074V29.0119L10.7533 27.9385V22.2408C10.7533 21.3159 12.15 16.8333 12.8931 15.4945L12.5367 11.8363C12.5367 11.8363 11.7534 8.82019 11.2879 8.40772C11.2509 8.37494 11.2016 8.36624 11.1523 8.36969C10.4298 8.42022 8.68984 9.46414 7.59433 9.90235C6.92777 10.169 6.04857 10.076 5.44759 9.85453Z" fill="url(#paint0_linear_521_6961)"/>
</mask>
<g mask="url(#mask0_521_6961)">
<path d="M5.44759 9.86094C3.98327 9.05232 4.2976 8.56346 5.04082 7.90299C5.32086 7.65413 6.03042 7.44199 6.82069 6.8326C7.70833 6.14813 8.71922 4.83845 9.3162 4.57635C9.3162 3.64345 10.2346 2.97152 10.7507 2.66024C10.9154 2.56091 11.1056 2.5157 11.2979 2.51569L12.1777 2.51563C12.6438 2.51559 13.0992 2.6558 13.4847 2.91804L13.7693 3.11168C14.1121 3.34489 14.3843 3.66581 14.5712 4.03589C15.6147 6.10232 17.6462 9.35478 18.1879 9.89651C18.9311 10.6397 19.7116 10.5571 22.4366 9.89651C24.6165 9.36803 29.2056 9.77836 30.6094 9.86094C30.4167 9.36549 30.7745 8.37459 33.7472 8.37459C37.463 8.37459 36.6663 11.8427 38.483 11.8427C39.4463 11.8427 40.2884 10.2738 40.7839 9.86094C41.1802 9.53064 41.556 10.0259 41.556 10.2738C41.3908 12.173 39.2536 13.3291 36.885 13.3291C34.5729 13.4117 33.3343 10.9344 32.8389 10.2738C32.4425 9.74533 31.5727 9.83341 31.1874 10.2738C31.5415 13.7475 31.1874 15.5009 30.1819 18.2461L30.6094 22.5365L32.5051 27.1737L33.1074 28.3138L32.2074 29.9092L31.1874 29.5138L31.5967 28.4638L29.027 23.5017L28.5561 29.0184V30.0918H26.4114L27.182 28.6464L26.9046 22.9904L26.475 20.8935C26.1731 19.4202 24.7551 18.4792 23.2612 18.6527C21.8331 18.8185 20.5854 18.8534 19.0585 18.7639C18.3161 18.7204 17.6074 19.0985 17.2581 19.755L16.9761 20.2848C16.8008 20.6143 16.7292 20.9891 16.7708 21.36L16.9536 22.9904L17.5525 30.0918V30.9325L15.7557 31.3906L16.2137 30.0918L15.4268 24.0228L14.7899 22.9806C14.6124 22.6902 14.5184 22.3563 14.5184 22.0159V18.6719L14.023 19.3571L12.4917 22.1178C12.3394 22.3924 12.2595 22.7012 12.2595 23.0152V27.6406L11.9248 29.0184L10.1753 29.5138V29.0184L10.7533 27.9449V22.2472C10.7533 21.3224 12.15 16.8397 12.8931 15.5009L12.5367 11.8427L11.2266 8.37459C10.8261 8.37459 10.6142 9.18444 9.94415 9.16022C9.27403 9.136 8.19363 9.38907 7.20195 10.2738C6.85362 10.5846 6.04857 10.0824 5.44759 9.86094Z" fill="url(#paint1_linear_521_6961)"/>
<path d="M14.5266 18.6564C13.6553 17.2377 13.1237 16.4754 12.7394 14.8105H9.07505L7.21289 30.6088C9.61568 30.789 14.4213 31.0413 14.4213 30.6088C14.4213 30.1763 14.5266 22.4608 14.5266 18.6564Z" fill="url(#paint2_linear_521_6961)"/>
<path d="M29.5479 19.6333C29.5095 19.4407 30.882 16.8086 31.2668 15.7344L35.7052 30.6012H30.6543L29.5479 27.1858L28.9707 23.6261C29.1791 22.3754 29.5864 19.8259 29.5479 19.6333Z" fill="url(#paint3_linear_521_6961)"/>
<path d="M10.9403 4.01746C10.7222 4.07557 9.94751 4.29256 9.14262 4.64631L8.79102 1.06322L15.4712 0.486328L20.4194 8.81598C20.7768 9.25583 21.2771 10.251 20.4194 10.7128C20.3912 10.7281 20.362 10.7426 20.332 10.7565C18.5018 11.6047 16.6431 9.93465 15.4805 8.28621L12.9938 4.76031L12.5339 4.18901C12.5014 4.14867 12.4837 4.09843 12.4837 4.04664V3.1856C12.4837 2.99121 12.2558 2.88671 12.1092 3.01437C11.7521 3.32537 11.2405 3.7736 11.0456 3.95842C11.0157 3.98673 10.9801 4.00687 10.9403 4.01746Z" fill="url(#paint4_linear_521_6961)"/>
<path d="M31.374 10.4555C31.0855 10.1465 30.8462 9.95492 30.5 9.80651L29.5723 6.28125L42.5537 6.96134V14.4412L34.1467 14.9357L31.374 10.4555Z" fill="url(#paint5_linear_521_6961)"/>
<path d="M11.2153 8.37156C11.3521 8.29557 12.9335 8.10715 12.6406 6.85415C12.6406 6.85415 12.4634 6.30765 11.6968 5.78015C10.5751 5.00835 8.28705 5.28679 7.29393 5.04297L2.87109 8.007L3.37269 10.4234C4.78616 10.4234 7.7316 10.2655 7.93227 10.4234C8.38005 10.7758 10.5845 9.71103 11.2153 8.37156Z" fill="url(#paint6_linear_521_6961)"/>
</g>
</g>
<defs>
<linearGradient id="paint0_linear_521_6961" x1="14.3802" y1="-2.79793" x2="21.9374" y2="31.6517" gradientUnits="userSpaceOnUse">
<stop stop-color="#619EC9"/>
<stop offset="0.614435" stop-color="#446F8E"/>
<stop offset="1"/>
</linearGradient>
<linearGradient id="paint1_linear_521_6961" x1="27.0715" y1="25.3463" x2="17.4153" y2="-3.23574" gradientUnits="userSpaceOnUse">
<stop stop-color="#2B3441"/>
<stop offset="1" stop-color="#5787A9"/>
</linearGradient>
<linearGradient id="paint2_linear_521_6961" x1="13.2716" y1="9.67057" x2="9.16904" y2="52.8885" gradientUnits="userSpaceOnUse">
<stop stop-color="#252730"/>
<stop offset="0.887188" stop-color="#5183A7"/>
<stop offset="1" stop-color="#619EC9"/>
</linearGradient>
<linearGradient id="paint3_linear_521_6961" x1="27.7983" y1="12.4" x2="43.4631" y2="42.5941" gradientUnits="userSpaceOnUse">
<stop stop-color="#5183A7"/>
<stop offset="0.553054" stop-color="#252730"/>
</linearGradient>
<linearGradient id="paint4_linear_521_6961" x1="21.399" y1="20.0359" x2="25.2266" y2="-2.18626" gradientUnits="userSpaceOnUse">
<stop stop-color="#619EC9"/>
<stop offset="0.138767" stop-color="#385B74"/>
<stop offset="1" stop-color="#252730"/>
</linearGradient>
<linearGradient id="paint5_linear_521_6961" x1="29.5723" y1="28.4331" x2="30.1682" y2="5.4649" gradientUnits="userSpaceOnUse">
<stop stop-color="#619EC9"/>
<stop offset="0.34515" stop-color="#5183A7"/>
<stop offset="1" stop-color="#252730"/>
</linearGradient>
<linearGradient id="paint6_linear_521_6961" x1="10.9996" y1="5.59279" x2="2.05863" y2="19.605" gradientUnits="userSpaceOnUse">
<stop stop-color="#5184A8" stop-opacity="0"/>
<stop offset="0.144868" stop-color="#436D8A" stop-opacity="0.740515"/>
<stop offset="0.233101" stop-color="#385B74"/>
<stop offset="0.346982" stop-color="#334E63"/>
<stop offset="0.480215" stop-color="#2F4455"/>
<stop offset="1" stop-color="#252730"/>
</linearGradient>
<clipPath id="clip0_521_6961">
<rect width="44.3996" height="25.9" fill="white" transform="translate(0.921875 0.0996094)"/>
</clipPath>
</defs>
</svg>
