<svg width="26" height="25" viewBox="0 0 26 25" fill="none" xmlns="http://www.w3.org/2000/svg">
<g clip-path="url(#clip0_131_9419)">
<rect x="0.587891" width="25" height="25" rx="12.5" fill="#77B0D9"/>
<path opacity="0.29" d="M7.71309 11.065C7.71309 7.82115 10.3419 5.19922 13.5881 5.19922C16.8343 5.19922 19.4631 7.82115 19.4631 11.065C19.4631 12.8182 18.6919 14.3865 17.4709 15.4588C19.9534 16.8278 21.6381 19.4654 21.6381 22.4992C21.6381 22.941 21.2799 26 20.8381 26H6.33809C5.89626 26 5.53809 22.941 5.53809 22.4992C5.53809 19.4592 7.22276 16.8263 9.70476 15.4587C8.48668 14.3874 7.71309 12.8161 7.71309 11.065Z" fill="white"/>
</g>
<defs>
<clipPath id="clip0_131_9419">
<rect x="0.587891" width="25" height="25" rx="12.5" fill="white"/>
</clipPath>
</defs>
</svg>
