<svg width="391" height="100" viewBox="0 0 391 100" fill="none" xmlns="http://www.w3.org/2000/svg">
<g clip-path="url(#clip0_178_1460)">
<path d="M123.637 2.14823C118.437 2.94823 119.764 10.7535 120.764 16.2535C108.818 14.1366 103.426 15.8959 98.9264 21.3959C95.1519 26.0096 100.897 36.808 102.224 39.1558C102.388 39.4468 102.668 39.6203 103.002 39.6358C107.044 39.8232 133.487 40.9969 133.487 39.6115C133.487 38.1115 130.987 22.6121 131.487 13.1121C131.987 3.61212 130.137 1.14823 123.637 2.14823Z" fill="#F38990"/>
<path fill-rule="evenodd" clip-rule="evenodd" d="M112.936 23.4594C113.907 22.3967 115.34 21.5469 116.894 21.5469C117.698 21.5469 118.554 21.8162 119.338 22.1507C120.146 22.4951 120.992 22.9601 121.809 23.4556C123.092 24.2339 124.383 25.14 125.399 25.8532C125.669 26.0433 126.545 27.0751 126.771 27.2317L124.731 28.4233C124.481 28.2503 124.213 28.0619 123.93 27.8634C122.918 27.1534 121.721 26.3138 120.518 25.5835C119.752 25.119 119.017 24.7199 118.362 24.4402C117.683 24.1506 117.196 24.0359 116.894 24.0359C116.234 24.0359 115.422 24.4279 114.774 25.1382C114.121 25.853 113.847 26.6518 113.926 27.2317C114.027 27.9723 114.487 28.8674 115.214 29.756C115.927 30.6286 118.001 32.2591 118.744 32.7135L116.244 33.9532C115.249 33.3444 114.167 32.4078 113.287 31.3316C112.42 30.2714 111.648 28.9522 111.46 27.5679C111.249 26.0229 111.969 24.5175 112.936 23.4594Z" fill="#2F2F35"/>
<path d="M160.275 21.9625C161.334 9.54248 171.724 0 184.189 0H260.423C274.482 0 285.53 12.0296 284.336 26.0375L278.921 89.5961C277.863 102.016 267.473 111.559 255.008 111.559H178.773C164.715 111.559 153.667 99.529 154.86 85.5211L160.275 21.9625Z" fill="#038600"/>
<path d="M227.088 44.7518C255.588 46.5556 254.587 84.9994 251.087 103.499L242.587 119.499H171.087L166.587 84.9994C164.921 93.3327 160.087 111.199 154.087 115.999C146.587 121.999 133.419 119.499 124.587 115.999C113.806 111.727 102.087 44.9998 101.087 38.9998C100.087 32.9998 124.03 38.2801 124.03 38.2801C134.578 40.8984 133.635 36.6184 135.135 41.618C136.635 46.6177 145.087 79.4997 145.087 73.4997C145.087 67.4997 155.087 47.4998 161.587 44.9998C168.087 42.4998 187.588 42.2519 227.088 44.7518Z" fill="#FEE133"/>
<path d="M221.088 113.5L217.588 61.5L182.088 63.5L186.588 113.5H221.088Z" fill="white"/>
<path fill-rule="evenodd" clip-rule="evenodd" d="M209.588 63L193.588 64V60L209.588 59V63Z" fill="black"/>
<path d="M210.047 39.8583C210.001 47.1641 204.832 53.0484 197.245 53.0012C189.658 52.954 183.545 46.9932 183.59 39.6874C183.636 32.3816 189.823 27.5149 197.409 27.5621C204.996 27.6092 210.092 32.5525 210.047 39.8583Z" fill="#F38990"/>
<circle cx="193.588" cy="33.9519" r="1.42643" transform="rotate(2.6545 193.588 33.9519)" fill="#2F2F35"/>
<path d="M210.047 36.7172C210.926 41.1141 209.245 44.9756 208.773 45.9434C208.732 46.0261 208.613 46.014 208.588 45.9253C208.218 44.6079 206.117 38.275 198.345 31.1205C196.335 29.2705 193.324 28.8582 192.809 28.1795C192.761 28.1171 192.783 28.0353 192.845 27.9871C193.362 27.5833 195.976 25.8473 201.398 27.0513C207.503 28.4071 209.538 34.1733 210.047 36.7172Z" fill="#2F2F35"/>
</g>
<defs>
<clipPath id="clip0_178_1460">
<rect width="390" height="100" fill="white" transform="matrix(-1 0 0 1 390.588 0)"/>
</clipPath>
</defs>
</svg>
