<svg width="164" height="120" viewBox="0 0 164 120" fill="none" xmlns="http://www.w3.org/2000/svg">
<path fill-rule="evenodd" clip-rule="evenodd" d="M163.816 34.9091C163.816 47.3855 157.271 58.3332 147.427 64.506C147.444 65.0019 147.452 65.5 147.452 66C147.452 89.7985 128.16 109.091 104.362 109.091C96.9057 109.091 89.8922 107.197 83.7756 103.865C80.7239 104.431 77.5773 104.727 74.3615 104.727C65.4808 104.727 57.1274 102.469 49.844 98.4966C44.7496 104.949 36.8574 109.091 27.9979 109.091C12.6343 109.091 0.179688 96.6363 0.179688 81.2727C0.179688 67.5836 10.0674 56.2039 23.0906 53.886C23.0894 53.7423 23.0888 53.5985 23.0888 53.4545C23.0888 25.1374 46.0444 2.18182 74.3615 2.18182C85.1128 2.18182 95.0913 5.49095 103.334 11.1463C109.708 4.28954 118.807 0 128.907 0C148.187 0 163.816 15.6293 163.816 34.9091Z" fill="#FFADCB"/>
<path d="M42.7227 34.9089C42.7227 30.089 46.63 26.1816 51.4499 26.1816H117.995C122.815 26.1816 126.723 30.089 126.723 34.9089V77.4544C126.723 82.2743 122.815 86.1816 117.995 86.1816H51.4499C46.63 86.1816 42.7227 82.2743 42.7227 77.4544V34.9089Z" fill="#71B9FF"/>
<path d="M96.7097 34.2162C96.7097 41.4419 90.8521 47.2996 83.6263 47.2996C76.4006 47.2996 70.543 41.4419 70.543 34.2162C70.543 26.9904 76.4006 21.1328 83.6263 21.1328C90.8521 21.1328 96.7097 26.9904 96.7097 34.2162Z" fill="#FFA1A8"/>
<path d="M90.7087 27.2273C87.6343 29.0463 77.638 27.7365 72.8591 26.9549C72.6802 26.9256 72.5392 26.7885 72.5198 26.6083C72.0024 21.8124 81.7402 16.179 90.7087 20.7273C99.8638 25.3701 98.12 33.7273 95.9402 33.7273C94.1964 33.7273 91.726 29.394 90.7087 27.2273Z" fill="#252730"/>
<path d="M101.057 19.2597C96.396 19.606 94.3346 22.8664 93.8865 24.4533C93.3126 25.7524 95.679 25.751 99.2641 27.4822C102.849 29.2134 113.156 25.3182 114.053 23.1542C114.949 20.9902 109.571 22.2893 108.227 21.4237C106.882 20.5581 106.882 18.8269 101.057 19.2597Z" fill="#252730"/>
<path d="M81.3058 30.4637C81.2669 31.3034 80.6789 31.9583 79.9925 31.9265C79.3061 31.8947 78.7812 31.1882 78.8201 30.3485C78.8591 29.5088 79.4471 28.8539 80.1335 28.8857C80.8199 28.9176 81.3447 29.6241 81.3058 30.4637Z" fill="#252730"/>
<path d="M88.2909 32.1053C88.2546 32.8895 87.6687 33.4993 86.9823 33.4675C86.2959 33.4357 85.7689 32.7742 85.8053 31.9901C85.8416 31.206 86.4275 30.5961 87.1139 30.6279C87.8003 30.6598 88.3273 31.3212 88.2909 32.1053Z" fill="#252730"/>
<path d="M30.1705 55.9503C27.6826 74.3608 34.1413 101.819 43.0978 113.263C55.8354 126.002 71.0572 117.483 73.4869 113.566C75.2562 111.101 73.0623 111.182 89.383 111.182C109.784 111.182 122.223 111.182 129.687 103.22C137.151 95.2583 137.756 50.6858 127.358 41.89C116.959 33.0942 108.291 35.5495 95.8515 35.5495C92.5127 35.5495 79.708 41.89 74.6683 41.89C71.0422 41.89 75.3964 35.5495 71.6091 35.5495C61.0484 35.5495 54.5013 35.6775 49.079 36.5447C43.6566 37.4119 32.6584 37.5399 30.1705 55.9503Z" fill="#266EB4"/>
<path fill-rule="evenodd" clip-rule="evenodd" d="M59.6158 70.8686C63.9688 64.1631 68.7416 56.6311 71.8075 51.7422L74.118 53.1912C71.0471 58.088 66.2663 65.6327 61.9033 72.3535C59.7222 75.7134 57.6422 78.8726 55.9309 81.3939C54.2406 83.8843 52.8583 85.8306 52.0955 86.7025L50.043 84.9066C50.6733 84.1862 51.9572 82.3923 53.6743 79.8623C55.3704 77.3633 57.439 74.2218 59.6158 70.8686Z" fill="#252730"/>
<path fill-rule="evenodd" clip-rule="evenodd" d="M80.5233 94.0588C83.8261 84.9993 86.0208 75.4563 86.2655 70L88.9961 70.1267C88.7333 75.988 86.4367 85.8354 83.0862 95.0257C81.4053 99.6366 79.4416 104.131 77.3033 107.919C75.1818 111.676 72.8194 114.863 70.2959 116.725C69.0858 117.618 66.9525 118.597 64.4643 119.246C61.9562 119.901 58.9961 120.203 55.9727 119.855L56.4194 117.037C58.9133 117.434 61.5273 117.142 63.7852 116.553C66.0629 115.959 67.8461 115.098 68.6908 114.474C70.7447 112.959 72.8747 110.179 74.9329 106.534C76.9744 102.918 78.8777 98.5729 80.5233 94.0588Z" fill="#252730"/>
<path d="M67.8563 31.271C64.3674 33.0154 65.5303 44.4997 66.5479 50.0238C67.8559 56.1288 71.7817 62.6717 79.6317 64.4161C87.4817 66.1606 96.204 60.055 97.9485 58.7466C99.6929 57.4383 100.129 56.5661 100.129 54.8216C100.129 53.4261 97.5123 53.3679 96.204 53.5133C98.8207 53.0772 99.2568 51.7688 99.2568 50.0238C99.2568 48.6278 96.0586 48.861 94.4596 49.1522C98.8207 48.2805 98.3846 45.6633 97.9485 44.791C97.5996 44.0933 93.442 43.9188 91.4068 43.9188C93.2966 43.192 95.9423 41.3894 98.3846 39.9938C101.437 38.2493 103.715 36.3663 101.032 33.3005C100.145 32.2867 97.0923 32.623 91.8429 34.3237C87.4104 35.7598 84.9334 36.2219 80.8256 38.1391C79.7428 38.6444 76.963 40.7256 75.6026 41.083C75.4037 41.1352 75.225 40.9922 75.184 40.7907C74.7734 38.7699 74.3744 35.9698 73.9623 34.3237C73.6273 32.9859 72.2174 29.0904 67.8563 31.271Z" fill="#EA7E85"/>
<path d="M76.6379 52.2332C74.6541 46.5531 77.2855 40.6089 82.6155 38.7473C87.9455 36.8858 94.892 35.4402 95.7646 37.0963C96.6371 38.7525 97.9729 40.06 96.6094 40.9284L96.8905 42.399C96.8905 42.399 97.3101 42.3234 97.433 42.4975C98.0239 43.3336 98.809 45.4158 98.5058 46.0913C98.387 46.356 98.1816 46.2697 98.0017 46.4146C97.7976 46.5792 98.3688 47.6647 98.4794 47.7824C98.9802 47.9997 99.3814 47.4522 99.9458 49.0682C100.675 51.1556 101.017 51.3999 99.973 52.0588C99.3063 52.4794 100.03 53.1642 100.692 53.213C101.067 53.2406 101.304 53.5062 101.337 53.5994C101.936 55.3148 102.535 55.64 101.503 57.177C100.471 58.7139 100.21 59.3687 98.2346 60.4507C96.2594 61.5327 90.7014 63.8661 88.36 63.8994C86.0186 63.9328 81.5438 66.28 76.6379 52.2332Z" fill="#EA7E85"/>
<path fill-rule="evenodd" clip-rule="evenodd" d="M87.7549 42.6732L96.6117 40.9245L96.9156 42.3974L88.0534 44.0991L87.7549 42.6732Z" fill="#252730"/>
<path fill-rule="evenodd" clip-rule="evenodd" d="M89.7471 49.2664L98.0414 46.3697L98.5268 47.7879L90.2105 50.6217L89.7471 49.2664Z" fill="#252730"/>
<path fill-rule="evenodd" clip-rule="evenodd" d="M91.8477 54.8574L100.031 51.9994L100.717 53.2154L92.4011 56.0492L91.8477 54.8574Z" fill="#252730"/>
</svg>
