<svg width="164" height="120" viewBox="0 0 164 120" fill="none" xmlns="http://www.w3.org/2000/svg">
<path d="M39.8703 18.8811C41.6108 8.00269 50.9957 0 62.0125 0L141.094 0C155.157 0 165.749 12.7941 163.124 26.6094L150.918 90.8527C148.908 101.434 139.659 109.091 128.888 109.091H51.7337C37.936 109.091 27.4116 96.7487 29.5915 83.1244L39.8703 18.8811Z" fill="#11A40D"/>
<path d="M24.4497 2.00574C19.5912 2.7532 20.8309 10.0459 21.7652 15.1846C10.6042 13.2067 5.566 14.8505 1.36188 19.9893C-2.16474 24.3 3.20345 34.3892 4.44277 36.5828C4.59637 36.8547 4.85815 37.0168 5.17007 37.0313C8.94594 37.2064 33.6525 38.303 33.6525 37.0086C33.6525 35.6071 31.3167 21.1257 31.7838 12.2496C32.251 3.37349 30.5228 1.07141 24.4497 2.00574Z" fill="#FFA1A8"/>
<path fill-rule="evenodd" clip-rule="evenodd" d="M14.4488 21.9197C15.3558 20.9268 16.6953 20.1328 18.1466 20.1328C18.8982 20.1328 19.6982 20.3845 20.4309 20.697C21.185 21.0187 21.9762 21.4532 22.7392 21.9162C23.9376 22.6434 25.1437 23.49 26.0931 24.1564C26.4049 24.3752 27.1388 24.9642 27.4646 25.2108C27.5188 25.2518 27.515 25.3362 27.4566 25.3711L25.7275 26.4036C25.5703 26.4974 25.3727 26.4909 25.2226 26.3861C25.0617 26.2739 24.8941 26.1563 24.7206 26.0345C23.7752 25.3712 22.6572 24.5867 21.5327 23.9044C20.8174 23.4703 20.1309 23.0974 19.5183 22.8361C18.8842 22.5656 18.4288 22.4584 18.1466 22.4584C17.5304 22.4584 16.7721 22.8246 16.1659 23.4882C15.5557 24.1562 15.3 24.9025 15.3738 25.4443C15.4682 26.1362 15.8981 26.9725 16.577 27.8028C17.1689 28.5268 18.7631 29.8091 19.5987 30.3846C19.6764 30.4381 19.6378 30.5661 19.5435 30.5661H17.1804C16.1659 30.5661 15.5988 30.2805 14.7766 29.2749C13.9666 28.2843 13.2459 27.0518 13.0695 25.7584C12.8727 24.3148 13.5457 22.9083 14.4488 21.9197Z" fill="#252730"/>
<path d="M121.107 41.8127C147.735 43.498 145.062 87.0413 143.53 96.702C142.697 101.956 140.059 108.385 137.825 113.158C135.817 117.45 131.428 119.999 126.69 119.999H72.8069C69.8724 119.999 67.4345 117.736 67.2165 114.81L64.58 79.417C63.0228 87.203 58.5069 103.896 52.9009 108.381C45.8935 113.987 32.9084 112.363 25.3383 108.381C15.7482 103.337 4.31599 42.0444 3.38167 36.4384C2.44736 30.8325 24.8178 35.766 24.8178 35.766C34.673 38.2123 33.792 34.2135 35.1935 38.8848C36.595 43.556 43.272 71.4537 44.492 68.6726C46.744 63.5389 53.8352 44.3802 59.9084 42.0444C65.9815 39.7086 84.201 39.477 121.107 41.8127Z" fill="#FCDC1C"/>
<path d="M115.367 104.052L112.355 59.3057C112.286 58.284 111.408 57.5079 110.385 57.5655L80.9916 59.2215C79.9367 59.2809 79.1408 60.2024 79.2355 61.2547L83.1137 104.345C83.2004 105.309 84.0077 106.046 84.9748 106.046H113.502C114.584 106.046 115.439 105.131 115.367 104.052Z" fill="#F7F7FA"/>
<path fill-rule="evenodd" clip-rule="evenodd" d="M107.449 66.8835L84.4023 67.133V63.3746L107.449 63.125V66.8835Z" fill="#BFBFBF"/>
<path fill-rule="evenodd" clip-rule="evenodd" d="M97.4285 74.901L84.4023 75.1506V71.3922L97.4285 71.1426V74.901Z" fill="#BFBFBF"/>
<path d="M96.069 107.97C102.608 105.132 113.657 88.344 118.363 80.3047L124.742 109.076H103.736C98.4556 109.89 89.5297 110.807 96.069 107.97Z" fill="#FCDC1C"/>
<path fill-rule="evenodd" clip-rule="evenodd" d="M113.115 91.3806C108.574 98.4186 102.156 105.927 95.1184 108.781L94.0938 106.253C100.304 103.735 106.336 96.8558 110.824 89.9019C113.045 86.4604 114.839 83.0752 116.047 80.3346C116.651 78.9628 117.099 77.7722 117.381 76.83C117.682 75.8238 117.735 75.2816 117.715 75.111L120.425 74.7988C120.514 75.5745 120.299 76.5918 119.994 77.6111C119.67 78.6944 119.176 79.9954 118.542 81.4341C117.274 84.3145 115.409 87.8262 113.115 91.3806Z" fill="#252730"/>
<path d="M105.187 37.2365C105.145 44.0625 100.315 49.5603 93.2262 49.5163C86.1376 49.4722 80.4256 43.9028 80.4681 37.0768C80.5106 30.2508 86.2914 25.7038 93.3799 25.7478C100.468 25.7919 105.23 30.4105 105.187 37.2365Z" fill="#FFA1A8"/>
<path d="M91.0175 31.0658C91.2892 31.7499 90.7902 32.5901 89.903 32.9426C89.0158 33.295 88.0762 33.0262 87.8045 32.3421C87.5328 31.6581 88.0317 30.8178 88.919 30.4654C89.8062 30.1129 90.7458 30.3818 91.0175 31.0658Z" fill="#252730"/>
<path d="M105.185 34.3049C106.006 38.4131 104.436 42.0209 103.994 42.9252C103.956 43.0025 103.845 42.9911 103.822 42.9083C103.475 41.6774 101.513 35.7604 94.251 29.0758C92.3732 27.3473 89.5598 26.962 89.0786 26.3279C89.0344 26.2696 89.0549 26.1932 89.1125 26.1482C89.5958 25.7709 92.0374 24.1489 97.1032 25.2738C102.808 26.5405 104.709 31.9281 105.185 34.3049Z" fill="#252730"/>
</svg>
