<svg width="164" height="120" viewBox="0 0 164 120" fill="none" xmlns="http://www.w3.org/2000/svg">
<path d="M90.181 0C170.707 0 159.046 66.5603 150.083 95.6988C147.54 103.968 139.687 109.091 131.035 109.091H49.3269C40.6752 109.091 32.8223 103.968 30.2787 95.6988C21.3159 66.5603 9.65549 0 90.181 0Z" fill="#FF5246"/>
<path d="M46.4126 9.09987L20.2111 1.93815L18.5083 6.92663L47.1371 12.9517L47.137 10.0488C47.137 9.60537 46.8403 9.21678 46.4126 9.09987Z" fill="white"/>
<path d="M8.93201 40.1288L17.9722 2.26319C18.3183 0.660277 19.6298 0.405269 20.473 0.605632L46.2964 6.60689C46.8219 6.72802 47.181 7.21512 47.1224 7.7512C47.0702 8.22971 46.9975 8.77866 46.9128 9.10366C46.8878 9.19954 46.7871 9.24946 46.6912 9.22475C36.8344 6.68618 30.979 5.45837 21.2635 2.96609C20.8942 2.87135 20.5225 3.12014 20.473 3.49819L20.152 5.94985C20.1388 6.05099 20.205 6.14548 20.3046 6.16751L47.0214 12.075C47.489 12.1784 47.7859 12.6392 47.6868 13.1077L40.415 47.4931C40.3414 47.8414 39.9958 48.061 39.6492 47.9799L9.40379 40.8982C9.05983 40.8177 8.84778 40.4718 8.93201 40.1288Z" fill="#E91F3C"/>
<path d="M73.198 42.937C60.9468 44.8948 45.704 53.4156 39.802 61.2669C39.5713 61.5738 39.0794 61.4996 38.9689 61.1322C37.1857 55.1998 34.2441 45.3012 32.4377 43.9794C30.6575 42.6767 15.9393 45.9103 7.41095 48.0275C6.47202 48.2606 5.88685 49.1974 6.08559 50.1422C12.0561 78.5284 24.5867 93.7263 40.6748 90.9543C53.644 88.7197 59.1904 83.5142 60.9449 81.4317C61.0778 81.2739 61.4195 81.4297 61.3768 81.6313C61.0331 83.2522 60.3868 86.3509 59.9965 88.5378C59.4456 91.6247 56.5778 105.38 59.7108 113.697C62.8438 122.014 100.206 122.238 106.106 113.552C111.258 105.965 111.652 86.4868 111.656 81.6413C111.656 81.4356 111.967 81.3812 112.045 81.5712C113.603 85.3245 115.836 87.5895 120.42 89.8404C127.037 93.089 140.307 94.4388 147.776 93.6542C148.344 93.5946 148.692 93.0248 148.51 92.4851C147.612 89.8159 145.278 82.7494 144.981 80.5474C144.612 77.8127 145.48 72.1163 142.794 71.9724C139.035 71.771 132.253 69.7375 131.462 68.6331C130.672 67.5288 127.352 58.8838 123.506 54.7266C119.66 50.5693 116.977 48.4059 108.834 43.9803C100.69 39.5548 85.8567 40.9141 73.198 42.937Z" fill="#097646"/>
<path fill-rule="evenodd" clip-rule="evenodd" d="M57.3068 91.8661C57.9436 84.3505 59.6969 76.5692 62.3206 70.9609L64.7909 72.1166C62.3458 77.3432 60.6439 84.7844 60.0243 92.0964C59.402 99.44 59.8933 106.4 61.6366 110.73L59.1066 111.749C57.1236 106.823 56.6726 99.3502 57.3068 91.8661Z" fill="#252730"/>
<path fill-rule="evenodd" clip-rule="evenodd" d="M100.054 43.8065C98.3363 46.0996 95.6993 47.6921 92.6238 47.9969C88.3911 48.4163 84.4942 46.281 82.4636 42.8457C82.2706 42.8897 82.0726 42.9222 81.8705 42.9422C79.266 43.2003 76.9454 41.2981 76.6873 38.6936C76.4292 36.0892 78.3314 33.7686 80.9359 33.5105C81.2163 33.4827 81.4933 33.48 81.7649 33.5004C83.1939 29.9712 86.4846 27.3345 90.5366 26.933C95.9648 26.3951 100.841 30.0588 101.936 35.2779C104.187 35.2965 106.108 37.01 106.335 39.3005C106.578 41.753 104.787 43.9381 102.334 44.1811C101.525 44.2613 100.744 44.12 100.054 43.8065Z" fill="#FFA1A8"/>
<path d="M86.1324 30.9154C84.7225 36.4686 82.4099 35.4816 80.5059 36.1079C80.4284 36.1333 80.3462 36.0748 80.3455 35.9933C80.2602 26.7525 86.7232 24.1095 92.0033 24.289C100.422 24.5751 102.456 31.7032 102.73 35.4992C102.73 35.4992 102.415 35.7773 101.667 36.0443C100.918 36.3113 98.7477 36.1902 96.7535 35.3139C95.9785 34.9733 95.2447 34.7089 94.2835 33.9289C94.2378 33.8918 94.1713 33.9371 94.1904 33.9928C94.6078 35.2057 95.0122 35.3993 94.9305 35.6782C94.7105 36.4283 92.1856 35.8249 90.8741 35.2518C88.643 34.569 86.6821 32.733 86.1324 30.9154Z" fill="#252730"/>
<path d="M91.1076 38.9215C91.0668 39.8009 90.4064 40.4847 89.6325 40.4488C88.8586 40.4129 88.2643 39.671 88.3051 38.7915C88.3459 37.9121 89.0063 37.2283 89.7802 37.2642C90.5541 37.3001 91.1484 38.0421 91.1076 38.9215Z" fill="#252730"/>
<path d="M96.0055 39.0791C95.9645 39.9647 95.3038 40.6535 94.5299 40.6176C93.756 40.5817 93.1619 39.8348 93.203 38.9492C93.2441 38.0636 93.9047 37.3748 94.6786 37.4107C95.4525 37.4465 96.0466 38.1935 96.0055 39.0791Z" fill="#252730"/>
<path d="M0.3125 37.1851C0.3125 27.8277 6.9682 20.4492 15.4232 20.4492C23.8783 20.4492 34.1874 21.9306 34.8293 24.7679C35.3856 27.2265 36.4881 30.252 34.1315 30.8278L33.8027 33.1311C33.8027 33.1311 34.4333 33.2354 34.5212 33.554C34.9437 35.0847 35.0256 38.5445 34.2634 39.381C33.9647 39.7086 33.7169 39.4765 33.391 39.5971C33.0212 39.734 33.2928 41.6208 33.391 41.8504C33.9917 42.4263 34.8293 41.8282 34.8293 44.4902C34.8293 47.929 35.1931 48.4635 33.391 48.8954C32.2407 49.171 32.9261 50.5477 33.838 50.9587C34.3546 51.1916 34.5586 51.7032 34.5586 51.8568C34.5586 54.6826 35.2452 55.4675 33.0273 57.195C30.8093 58.9225 30.1162 59.7498 26.7893 60.3257C23.4624 60.9015 13.8484 61.2684 11.1252 60.3257C8.40191 59.383 0.3125 60.3257 0.3125 37.1851Z" fill="#FFA1A8"/>
<path fill-rule="evenodd" clip-rule="evenodd" d="M20.7501 28.8445L34.1359 30.8187L33.8382 33.1372L20.4681 31.0913L20.7501 28.8445Z" fill="#252730"/>
<path fill-rule="evenodd" clip-rule="evenodd" d="M20.3109 39.5488L33.4682 39.5488L33.4542 41.8801L20.2969 41.7764L20.3109 39.5488Z" fill="#252730"/>
<path fill-rule="evenodd" clip-rule="evenodd" d="M20.5273 48.8359H33.5084L33.8787 50.9734L20.7214 50.8696L20.5273 48.8359Z" fill="#252730"/>
<path d="M6.5494 9.47956C2.35629 11.5749 1.38119 22.1166 0.593406 29.0592C-0.194374 36.0017 0.697996 50.9875 1.76007 49.3459L9.04192 27.5757C10.4056 25.6378 13.9409 22.2288 14.6402 20.6735C15.2381 19.3439 15.2862 13.427 14.6402 11.7044C13.9942 9.98186 11.7908 6.86036 6.5494 9.47956Z" fill="#FFA1A8"/>
<path d="M163.138 80.904C163.845 75.302 160.264 70.3627 155.008 69.6995C149.751 69.0362 143.093 69.0716 142.616 70.7627C142.14 72.4537 141.171 73.9156 142.593 74.4452L142.623 75.85C142.623 75.85 142.223 75.8629 142.144 76.0467C141.766 76.93 141.454 78.9948 141.865 79.5554C142.026 79.775 142.197 79.6554 142.391 79.7532C142.61 79.8642 142.299 80.9724 142.22 81.1022C141.803 81.3998 141.328 80.976 141.127 82.5697C140.867 84.6284 140.601 84.9198 141.688 85.3197C142.383 85.575 141.853 86.3454 141.255 86.5199C140.916 86.6188 140.75 86.9091 140.739 87.0011C140.525 88.6928 140.039 89.1088 141.288 90.317C142.536 91.5251 142.904 92.0748 144.929 92.6805C146.954 93.2862 152.513 94.3377 154.668 93.9092C156.823 93.4807 161.39 94.7574 163.138 80.904Z" fill="#FFA1A8"/>
<path fill-rule="evenodd" clip-rule="evenodd" d="M151.062 74.31L142.591 74.4419L142.6 75.8533L151.067 75.6772L151.062 74.31Z" fill="#252730"/>
<path fill-rule="evenodd" clip-rule="evenodd" d="M150.526 80.7548L142.346 79.7227L142.179 81.1195L150.367 82.0894L150.526 80.7548Z" fill="#252730"/>
<path fill-rule="evenodd" clip-rule="evenodd" d="M149.695 86.2969L141.625 85.2786L141.233 86.5292L149.421 87.4992L149.695 86.2969Z" fill="#252730"/>
</svg>
