<svg width="391" height="100" viewBox="0 0 391 100" fill="none" xmlns="http://www.w3.org/2000/svg">
<g clip-path="url(#clip0_131_9443)">
<path d="M118.848 22.8515C165.867 -9.18073 221.97 24.0315 244.073 38.5035C266.177 52.9755 278.891 89.856 251.588 103.504C224.284 117.152 213.7 132.363 177.051 132.363C140.402 132.363 118.587 113.504 110.087 103.504C101.587 93.504 71.8292 54.8837 118.848 22.8515Z" fill="#0063D8"/>
<circle opacity="0.5" cx="198.088" cy="83.5" r="36.5" fill="#A2E2FF"/>
<path d="M156.088 48.9985C147.088 47.4985 135.588 58.9985 134.588 75.9985C134.588 93.5 139.088 104.5 171.588 113.5C204.088 122.5 221.088 90.5 223.588 85C226.088 79.5 211.588 72 208.588 73C205.588 74 201.088 75.9985 195.088 75.9985C189.088 75.9985 182.588 73.5 177.588 65C172.588 56.5 165.088 50.4985 156.088 48.9985Z" fill="#A2E2FF"/>
<path d="M192.588 17.0784C192.588 23.7492 198.425 33 206.439 33C214.453 33 223.588 24.8472 223.588 18.1765C223.588 11.5057 215.113 5 207.099 5C199.085 5 192.588 10.4077 192.588 17.0784Z" fill="#EDDC0B"/>
<path d="M240.588 18.0784C240.588 24.7492 246.425 34 254.439 34C262.453 34 271.588 25.8472 271.588 19.1765C271.588 12.5057 263.113 6 255.099 6C247.085 6 240.588 11.4077 240.588 18.0784Z" fill="#EDDC0B"/>
<circle cx="231.588" cy="25" r="25" fill="#FFED0D"/>
<path d="M201.77 22.5062C222.936 26.745 230.468 43.4796 231.587 51.317C239.087 41.2114 262.088 16 269.588 24.5C282.023 38.5933 261.088 55.5 242.588 60L242.485 60.0085C236.576 60.5005 235.585 60.583 235.087 75.0001C234.7 86.2219 234.754 97.0001 235.087 101H219.087C220.34 92.3447 220.087 74.9473 220.087 66.0001C220.087 58.5073 214.598 58.9975 214.587 58.9985L214.587 58.9985C199.888 60.3222 175.313 17.2077 201.77 22.5062Z" fill="#389935"/>
<ellipse cx="166.246" cy="44.9219" rx="13.5" ry="14" fill="#FFED0D"/>
<circle cx="175.269" cy="41.474" r="1.48497" transform="rotate(2.6545 175.269 41.474)" fill="#2F2F35"/>
<path d="M152.588 52.5C153.107 53.0292 157.588 57.5 160.588 57.5C163.587 57.5 167.666 49.3839 168.246 45.4208C168.246 45.4208 173.746 36.1002 173.746 34.4202C173.746 32.7526 177.245 36.9463 175.745 34.4202C174.231 31.8699 168.745 24.4952 157.588 31.4998C146.43 38.5051 150.164 47.5604 152.588 52.5Z" fill="#2F2F35"/>
<circle cx="167.588" cy="46" r="3" fill="#FFED0D"/>
<circle cx="145.088" cy="41.5" r="8.5" fill="#2F2F35"/>
<ellipse cx="132.088" cy="43" rx="9.5" ry="9" fill="#2F2F35"/>
<path d="M228.588 74C228.588 80.0751 224.163 88.5 218.088 88.5C212.013 88.5 205.088 81.0751 205.088 75C205.088 68.9249 211.513 63 217.588 63C223.663 63 228.588 67.9249 228.588 74Z" fill="#FFED0D"/>
</g>
<defs>
<clipPath id="clip0_131_9443">
<rect width="390" height="100" fill="white" transform="translate(0.587891)"/>
</clipPath>
</defs>
</svg>
