<svg width="164" height="120" viewBox="0 0 164 120" fill="none" xmlns="http://www.w3.org/2000/svg">
<path d="M147.452 73.6364C147.452 32.9681 125.81 0 73.3587 0C20.907 0 0.179688 32.5611 0.179688 72.7273C0.179688 92.8104 16.4602 109.091 36.5433 109.091H113.597C132.295 109.091 147.452 93.9332 147.452 75.2351V73.6364Z" fill="#016ED8"/>
<path d="M83.9961 16.8629C83.9961 23.4491 89.7655 32.5828 97.6866 32.5828C105.608 32.5828 114.637 24.5333 114.637 17.947C114.637 11.3608 106.26 4.9375 98.3385 4.9375C90.4174 4.9375 83.9961 10.2767 83.9961 16.8629Z" fill="#EDDC0B"/>
<path d="M131.438 17.8512C131.438 24.4374 137.207 33.5711 145.128 33.5711C153.049 33.5711 162.078 25.5216 162.078 18.9353C162.078 12.3491 153.701 5.92578 145.78 5.92578C137.859 5.92578 131.438 11.265 131.438 17.8512Z" fill="#EDDC0B"/>
<path d="M147.26 24.6833C147.26 38.3155 136.197 49.3666 122.55 49.3666C108.903 49.3666 97.8398 38.3155 97.8398 24.6833C97.8398 11.0511 108.903 0 122.55 0C136.197 0 147.26 11.0511 147.26 24.6833Z" fill="#FFED0D"/>
<path d="M92.9685 20.477C113.889 24.6621 121.333 41.1847 122.44 48.9229C129.853 38.9452 152.587 14.0533 160 22.4456C172.291 36.3603 151.598 53.0529 133.313 57.4959L133.211 57.5043C127.371 57.99 126.391 58.0715 125.899 72.3059C125.517 83.3856 129.631 102.544 127.993 105.271C126.355 107.999 114.342 110.18 111.065 108.544C108.661 107.343 108.041 105.655 108.041 103.371C108.041 101.088 111.073 72.2539 111.073 63.4199C111.073 56.0221 105.647 56.5061 105.636 56.5071C91.1082 57.8139 66.8181 15.2456 92.9685 20.477Z" fill="#11A40D"/>
<path fill-rule="evenodd" clip-rule="evenodd" d="M135.833 35.3576C130.712 40.9827 126.249 47.3726 123.553 51.4802L123.5 51.5546C123.156 52.003 122.594 52.8481 122.091 53.8547C121.583 54.8718 121.179 55.9671 121.071 56.9364L118.615 56.6639C118.769 55.2843 119.311 53.8915 119.88 52.7526C120.324 51.8643 120.811 51.0779 121.211 50.5026C121.21 50.4939 121.208 50.4852 121.206 50.4764C121.142 50.1308 121.044 49.6288 120.91 49.0102C120.641 47.7715 120.232 46.0725 119.668 44.2294C118.533 40.523 115.54 35.996 113.259 33.7917C113.193 33.7284 113.145 33.6515 113.116 33.565L112.04 30.2649C112.007 30.1639 112.122 30.0806 112.207 30.1446C115.129 32.352 119.947 36.7028 122.03 43.5074C122.502 45.0464 122.868 46.4852 123.139 47.6578C125.881 43.6402 129.707 38.4176 134.005 33.6969C136.629 30.8146 139.449 28.0958 142.327 25.9486C145.126 23.8598 150.279 21.3827 155.121 20.8077C155.228 20.7951 155.284 20.9272 155.202 20.9964L151.753 23.9097C151.683 23.9687 151.599 24.009 151.51 24.0283C149.082 24.5525 146.475 25.9337 143.806 27.9261C141.097 29.9476 138.393 32.5452 135.833 35.3576Z" fill="#252730"/>
<path d="M51.5646 46.0363C40.9965 44.39 23.5883 52.0199 22.4141 70.6783C22.4141 89.8871 23.2911 112.361 57.0163 119.189C90.7416 126.018 116.995 87.6496 119.93 81.6131C122.866 75.5766 116.734 71.2817 113.212 72.3792C109.689 73.4768 96.2697 81.5132 89.2243 81.5132C82.1789 81.5132 76.3608 80.0051 73.7818 68.3727C71.143 56.4703 62.1327 47.6826 51.5646 46.0363Z" fill="#88C4FF"/>
<path fill-rule="evenodd" clip-rule="evenodd" d="M76.4785 75.3176C77.9531 77.4375 80.404 79.2923 85.1403 80.1793C89.7482 81.0422 95.7829 79.355 100.865 77.2937C103.365 76.2794 105.562 75.2057 107.133 74.3851C107.918 73.9752 108.545 73.6296 108.974 73.3876C109.189 73.2666 109.353 73.1716 109.463 73.1075C109.518 73.0755 109.56 73.0512 109.587 73.0352L109.616 73.0177L109.623 73.0137L109.624 73.013C109.624 73.013 109.624 73.0131 110.326 74.1824C111.029 75.3516 111.028 75.3518 111.028 75.352L111.014 75.3604L110.977 75.3823C110.945 75.4011 110.899 75.4283 110.839 75.4634C110.719 75.5334 110.543 75.6347 110.317 75.7621C109.866 76.017 109.212 76.377 108.398 76.8021C106.771 77.6515 104.494 78.7652 101.892 79.8206C96.7689 81.8986 90.0849 83.8801 84.6372 82.8599C79.3181 81.8637 76.1862 79.6768 74.2364 76.8739C72.5432 74.4399 71.8165 71.6178 71.1882 69.1779C71.118 68.9052 71.049 68.6373 70.9801 68.3752L73.6206 67.6818C73.6901 67.9458 73.7581 68.2082 73.8257 68.4688C74.4753 70.9725 75.0817 73.3097 76.4785 75.3176Z" fill="#252730"/>
<path d="M68.5722 40.3257C68.5722 46.6195 63.6469 51.7217 57.5713 51.7217C51.4956 51.7217 46.5703 46.6195 46.5703 40.3257C46.5703 34.0319 51.4956 28.9297 57.5713 28.9297C63.6469 28.9297 68.5722 34.0319 68.5722 40.3257Z" fill="#FFA1A8"/>
<path d="M66.3178 38.2986C65.9542 38.8587 65.1278 38.9684 64.472 38.5436C63.8163 38.1188 63.5795 37.3204 63.9431 36.7603C64.3068 36.2002 65.1331 36.0905 65.7889 36.5153C66.4446 36.9401 66.6814 37.7385 66.3178 38.2986Z" fill="#252730"/>
<path d="M45.3444 46.4961C46.6106 48.0194 50.5144 50.5661 52.9588 50.5661C55.4031 50.5661 58.7266 43.9597 59.1995 40.7337C59.1995 40.7337 63.6814 33.1467 63.6814 31.7791C63.6814 30.4217 66.5331 33.8354 65.3108 31.7791C64.0768 29.7033 58.5107 23.7002 49.4189 29.4019C40.3261 35.1043 44.0782 44.9729 45.3444 46.4961Z" fill="#252730"/>
<path d="M61.1129 41.2037C61.1129 42.5524 60.0181 43.6457 58.6678 43.6457C57.3174 43.6457 56.2227 42.5524 56.2227 41.2037C56.2227 39.855 57.3174 38.7617 58.6678 38.7617C60.0181 38.7617 61.1129 39.855 61.1129 41.2037Z" fill="#FFA1A8"/>
<path d="M47.2554 37.5401C47.2554 41.3614 44.1543 44.4591 40.3289 44.4591C36.5035 44.4591 33.4023 41.3614 33.4023 37.5401C33.4023 33.7188 36.5035 30.6211 40.3289 30.6211C44.1543 30.6211 47.2554 33.7188 47.2554 37.5401Z" fill="#252730"/>
<path d="M37.4789 38.7616C37.4789 42.8076 34.013 46.0876 29.7375 46.0876C25.462 46.0876 21.9961 42.8076 21.9961 38.7616C21.9961 34.7155 25.462 31.4355 29.7375 31.4355C34.013 31.4355 37.4789 34.7155 37.4789 38.7616Z" fill="#252730"/>
<path d="M107.801 81.8871C105.848 76.5883 108.227 70.9694 113.204 69.1393C118.182 67.3091 124.685 65.8438 125.53 67.3841C126.376 68.9245 127.651 70.1305 126.384 70.9667L126.671 72.3422C126.671 72.3422 127.064 72.2647 127.182 72.4261C127.75 73.2014 128.52 75.1429 128.246 75.7815C128.139 76.0317 127.944 75.9539 127.778 76.0928C127.589 76.2503 128.142 77.26 128.248 77.3687C128.722 77.5648 129.09 77.0448 129.645 78.5522C130.363 80.4995 130.689 80.7234 129.718 81.358C129.098 81.7631 129.789 82.3943 130.412 82.4297C130.764 82.4498 130.991 82.6953 131.023 82.7823C131.613 84.3824 132.181 84.6783 131.236 86.1366C130.29 87.5949 130.055 88.2134 128.217 89.2597C126.378 90.3059 121.194 92.5824 118.995 92.6504C116.796 92.7184 112.629 94.9909 107.801 81.8871Z" fill="#FFA1A8"/>
<path fill-rule="evenodd" clip-rule="evenodd" d="M118.089 72.7447L126.382 70.9647L126.691 72.3422L118.392 74.0781L118.089 72.7447Z" fill="#252730"/>
<path fill-rule="evenodd" clip-rule="evenodd" d="M120.067 78.9013L127.813 76.0532L128.291 77.3764L120.523 80.1657L120.067 78.9013Z" fill="#252730"/>
<path fill-rule="evenodd" clip-rule="evenodd" d="M122.129 84.1133L129.771 81.3034L130.435 82.4336L122.668 85.2229L122.129 84.1133Z" fill="#252730"/>
</svg>
