<svg width="119" height="76" viewBox="0 0 119 76" fill="none" xmlns="http://www.w3.org/2000/svg">
<path d="M43.3586 6.33513C37.8569 10.7105 29.8484 13.5851 25.4379 16.237C21.0274 18.889 15.9992 28.5324 16 41.6584C16.0016 68.7233 43.3586 66.3127 66.9254 69.6638C90.4922 73.0148 100.338 50.2754 102.412 47.6425C104.486 45.0095 107.481 23.4679 89.7382 8.86682C71.9949 -5.73427 50.2357 0.865987 43.3586 6.33513Z" fill="#FD655B"/>
<path d="M50.4685 29.0421C42.0204 30.3951 31.5093 36.2836 27.4394 41.7095C27.2803 41.9216 26.9411 41.8703 26.865 41.6164C25.6353 37.5167 23.6069 30.676 22.3612 29.7625C21.1336 28.8622 10.9843 31.0969 5.10333 32.56C4.45587 32.7211 4.05235 33.3685 4.18939 34.0215C8.30653 53.6385 16.9473 64.1415 28.0413 62.2258C37.3821 60.6129 42.7152 53.1247 44.2906 50.5633C44.3681 50.4373 44.599 50.5319 44.5662 50.6762C44.0955 52.7502 43.0163 57.5457 42.7218 59.199C42.3419 61.3323 42 64.5 41.8391 67.2669C41.6871 69.8799 43.7494 71.3329 43.9793 71.4864C43.9937 71.496 44.006 71.5066 44.0176 71.5195C52.2547 80.6213 74.9364 72.5334 72.8774 67.3028C72.8683 67.2796 72.8629 67.2549 72.8628 67.23C72.8587 65.7647 72.6095 62.8432 72.8629 60.6822C73.1072 58.5987 74.2122 51.0263 74.9436 48.0373C74.9728 47.9179 75.1355 47.9116 75.1786 48.0267C76.376 51.2222 79.4021 57.8261 83.032 61.456C86.6296 65.0536 96.6632 64.7633 101.898 64.0999C102.288 64.0504 102.527 63.6567 102.402 63.2837C101.783 61.4391 100.173 56.5556 99.9682 55.0338C99.7138 53.1439 100.313 49.2073 98.4602 49.1078C95.8681 48.9686 91.1915 47.5634 90.6463 46.8001C90.1011 46.0369 87.8118 40.0626 85.1598 37.1896C82.5078 34.3166 80.6577 32.8215 75.042 29.7631C69.4262 26.7047 59.1976 27.6441 50.4685 29.0421Z" fill="#004A29"/>
<path fill-rule="evenodd" clip-rule="evenodd" d="M68.9894 29.6328C67.8052 31.2134 65.9872 32.311 63.867 32.5211C60.9492 32.8102 58.2627 31.3388 56.8621 28.9712C56.729 29.0016 56.5925 29.024 56.4531 29.0378C54.6571 29.2158 53.0569 27.9041 52.8789 26.1081C52.701 24.3121 54.0127 22.7119 55.8087 22.5339C56.0012 22.5148 56.1915 22.5129 56.3781 22.5268C57.363 20.092 59.6328 18.2728 62.4277 17.9959C66.1716 17.6249 69.5345 20.1524 70.2891 23.7524C71.8411 23.7651 73.1658 24.9468 73.3224 26.5263C73.4899 28.2175 72.2548 29.7243 70.5636 29.8919C70.0049 29.9473 69.4662 29.8495 68.9894 29.6328Z" fill="#FFA59F"/>
<path d="M59.6395 21.7099C58.9097 25.2666 57.2142 24.7795 55.8917 25.2874C55.8405 25.3071 55.7833 25.2715 55.7784 25.2169C55.2675 19.4569 59.726 17.4256 63.4836 17.2253C69.4764 16.9057 71.2717 21.2358 71.6527 23.5896C71.6527 23.5896 71.4425 23.7819 70.924 23.9929C70.4056 24.2039 68.8582 24.2567 67.3988 23.8276C66.8307 23.6606 66.2958 23.5388 65.573 23.107C65.5386 23.0864 65.4981 23.1226 65.5156 23.1586C65.8707 23.8874 66.1663 23.9843 66.122 24.1629C66.0026 24.6443 64.1797 24.417 63.2201 24.1367C61.602 23.8425 60.1192 22.8122 59.6395 21.7099Z" fill="#2F2F35"/>
<circle cx="62.5364" cy="25.9208" r="0.660495" transform="rotate(2.6545 62.5364 25.9208)" fill="#2F2F35"/>
<circle cx="65.0149" cy="25.9873" r="0.660495" transform="rotate(2.6545 65.0149 25.9873)" fill="#2F2F35"/>
<path d="M0.884766 20.9481C0.884766 14.8595 5.38218 10.0586 11.0954 10.0586C16.8087 10.0586 23.9276 10.9953 24.2086 12.8687C24.4896 14.742 25.3295 16.4369 23.7371 16.8116L23.5149 18.3103C23.5149 18.3103 23.941 18.3782 24.0004 18.5855C24.2859 19.5815 24.3412 21.8326 23.8261 22.3769C23.6244 22.5901 23.4569 22.4391 23.2367 22.5176C22.9868 22.6066 23.1703 23.8343 23.2367 23.9837C23.6426 24.3584 24.2086 23.9692 24.2086 25.7014C24.2086 27.9389 24.4544 28.2866 23.2367 28.5676C22.4594 28.747 22.9226 29.6428 23.5387 29.9102C23.8878 30.0617 24.0256 30.3946 24.0256 30.4946C24.0256 32.3333 24.4896 32.8439 22.9909 33.968C21.4922 35.092 21.0238 35.6303 18.7758 36.005C16.5277 36.3797 10.4392 36.7543 8.19113 36.005C5.94307 35.2556 0.884766 36.005 0.884766 20.9481Z" fill="#FFABA5"/>
<path fill-rule="evenodd" clip-rule="evenodd" d="M14.6933 15.5226L23.7385 16.8072L23.5373 18.3158L14.5028 16.9845L14.6933 15.5226Z" fill="#2F2F35"/>
<path fill-rule="evenodd" clip-rule="evenodd" d="M14.3972 22.4883L23.2878 22.4883L23.2784 24.0052L14.3877 23.9377L14.3972 22.4883Z" fill="#2F2F35"/>
<path fill-rule="evenodd" clip-rule="evenodd" d="M14.54 28.5312H23.3116L23.5619 29.922L14.6712 29.8545L14.54 28.5312Z" fill="#2F2F35"/>
<path d="M112.489 55.2176C112.976 51.3546 110.507 47.9486 106.882 47.4912C103.257 47.0339 98.6656 47.0583 98.3373 48.2244C98.0091 49.3905 97.3406 50.3986 98.3209 50.7638L98.3419 51.7325C98.3419 51.7325 98.0661 51.7414 98.0118 51.8682C97.7509 52.4772 97.5356 53.9011 97.8189 54.2876C97.9298 54.4391 98.0482 54.3566 98.1816 54.4241C98.333 54.5006 98.1183 55.2648 98.0642 55.3543C97.7767 55.5595 97.4487 55.2673 97.3101 56.3663C97.131 57.7859 96.9472 57.9868 97.6973 58.2626C98.1761 58.4386 97.8105 58.9699 97.3982 59.0902C97.1646 59.1584 97.0505 59.3586 97.0425 59.422C96.8953 60.5886 96.56 60.8754 97.4209 61.7086C98.2818 62.5417 98.5359 62.9207 99.9322 63.3384C101.329 63.7561 105.161 64.4812 106.648 64.1857C108.134 63.8902 111.283 64.7706 112.489 55.2176Z" fill="#FFABA5"/>
<path fill-rule="evenodd" clip-rule="evenodd" d="M104.161 50.6697L98.3194 50.7606L98.3262 51.7339L104.165 51.6125L104.161 50.6697Z" fill="#2F2F35"/>
<path fill-rule="evenodd" clip-rule="evenodd" d="M103.792 55.1125L98.1511 54.4008L98.0356 55.364L103.682 56.0329L103.792 55.1125Z" fill="#2F2F35"/>
<path fill-rule="evenodd" clip-rule="evenodd" d="M103.218 58.9375L97.6525 58.2353L97.3824 59.0977L103.029 59.7666L103.218 58.9375Z" fill="#2F2F35"/>
<circle cx="104.4" cy="15.8307" r="11.6608" transform="rotate(-11.7994 104.4 15.8307)" fill="#EBEADA"/>
<circle cx="104.401" cy="15.8351" r="2.06204" transform="rotate(-11.7994 104.401 15.8351)" fill="#2F2F35"/>
<path d="M115.814 13.4452C117.131 19.7492 113.088 25.9271 106.784 27.244C102.754 28.086 98.775 26.737 96.085 24.007" stroke="#2F2F35" stroke-width="1.88924"/>
<path d="M107.846 9.51908L104.324 15.4634" stroke="#2F2F35" stroke-width="1.65309"/>
<path d="M108.271 24.2774L104.423 15.9421" stroke="#2F2F35" stroke-width="1.65309"/>
</svg>
