<svg width="391" height="100" viewBox="0 0 391 100" fill="none" xmlns="http://www.w3.org/2000/svg">
<g clip-path="url(#clip0_187_1788)">
<path d="M154.662 11.0649C125.804 8.42883 103.357 34.3481 107.077 63.0867C110.766 91.579 135.031 112.905 163.762 112.905H228.096C252.396 112.905 273.959 92.3878 265.37 69.6558C252.251 34.9356 218.757 16.9196 154.662 11.0649Z" fill="#DEC00D"/>
<circle cx="187.15" cy="26.1719" r="15" fill="#FF969D"/>
<path d="M195.269 18.1634C191.744 20.2488 180.283 18.7472 174.804 17.851C174.599 17.8175 174.438 17.6603 174.415 17.4537C173.822 11.9552 184.986 5.49659 195.269 10.7111C205.765 16.0342 203.766 25.6156 201.267 25.6156C199.267 25.6156 196.435 20.6474 195.269 18.1634Z" fill="#2F2F35"/>
<path d="M207.135 9.02755C201.792 9.42451 199.428 13.1626 198.915 14.982C198.257 16.4714 200.97 16.4698 205.08 18.4546C209.19 20.4394 221.007 15.9736 222.035 13.4926C223.062 11.0116 216.897 12.501 215.356 11.5086C213.814 10.5162 213.814 8.53135 207.135 9.02755Z" fill="#2F2F35"/>
<path d="M132.076 54.0784C129.576 72.5784 136.076 98.0784 145.076 109.578C157.875 122.379 172.076 114.912 177.576 109.578H191.576C212.076 109.578 224.576 109.578 232.076 101.578C239.576 93.5775 240.185 48.7883 229.736 39.9497C219.286 31.1111 210.576 33.5784 198.076 33.5784C194.721 33.5784 181.854 39.9497 176.79 39.9497C173.146 39.9497 177.522 33.5784 173.716 33.5784C163.104 33.5784 156.525 33.707 151.076 34.5784C145.628 35.4498 134.576 35.5784 132.076 54.0784Z" fill="#266EB4"/>
<path d="M175.076 50.5781C168.91 60.4115 155.876 80.8781 153.076 84.0781" stroke="black" stroke-width="3"/>
<path d="M169.077 25.081C165.077 27.081 166.41 40.2477 167.577 46.581C169.076 53.5803 173.577 61.0817 182.577 63.0817C191.577 65.0817 201.577 58.0817 203.577 56.5817C205.577 55.0817 206.077 54.0817 206.077 52.0817C206.077 50.4817 203.077 50.415 201.577 50.5817C204.577 50.0817 205.077 48.5817 205.077 46.581C205.077 44.9805 201.41 45.2479 199.577 45.5817C204.577 44.5824 204.077 41.5817 203.577 40.5817C203.177 39.7817 198.41 39.5817 196.077 39.5817C198.244 38.7483 201.277 36.6817 204.077 35.0817C207.577 33.0817 210.188 30.9228 207.113 27.4078C206.096 26.2455 202.596 26.6311 196.577 28.581C191.495 30.2275 188.655 30.7572 183.946 32.9553C182.705 33.5347 179.517 35.9206 177.958 36.3304C177.73 36.3903 177.525 36.2263 177.478 35.9953C177.007 33.6785 176.55 30.4682 176.077 28.581C175.693 27.0472 174.077 22.581 169.077 25.081Z" fill="#F38990"/>
<path d="M179.144 49.116C176.87 42.6038 179.887 35.7887 185.997 33.6545C192.108 31.5203 200.072 29.8629 201.073 31.7616C202.073 33.6604 203.604 35.1595 202.041 36.1551L202.363 37.8411C202.363 37.8411 202.844 37.7545 202.985 37.954C203.663 38.9127 204.563 41.2998 204.215 42.0744C204.079 42.3778 203.844 42.2788 203.637 42.445C203.403 42.6336 204.058 43.8782 204.185 44.0132C204.759 44.2623 205.219 43.6346 205.866 45.4873C206.702 47.8805 207.095 48.1606 205.897 48.916C205.133 49.3983 205.963 50.1833 206.722 50.2392C207.152 50.2709 207.424 50.5754 207.461 50.6823C208.148 52.6489 208.835 53.0219 207.652 54.7839C206.469 56.546 206.169 57.2968 203.904 58.5373C201.64 59.7778 195.268 62.4529 192.583 62.4912C189.899 62.5295 184.769 65.2205 179.144 49.116Z" fill="#F38990"/>
<path fill-rule="evenodd" clip-rule="evenodd" d="M191.886 38.1544L202.041 36.1495L202.389 37.8382L192.229 39.7892L191.886 38.1544Z" fill="#2F2F35"/>
<path fill-rule="evenodd" clip-rule="evenodd" d="M194.172 45.7152L203.682 42.3941L204.238 44.0201L194.704 47.269L194.172 45.7152Z" fill="#2F2F35"/>
<path fill-rule="evenodd" clip-rule="evenodd" d="M196.58 52.1211L205.962 48.8444L206.749 50.2385L197.215 53.4874L196.58 52.1211Z" fill="#2F2F35"/>
<path d="M200.576 75.5781C194.076 87.4115 179.176 111.578 171.576 113.578" stroke="black" stroke-width="3"/>
<circle cx="183.08" cy="21.491" r="1.42643" transform="rotate(2.6545 183.08 21.491)" fill="#2F2F35"/>
<circle cx="191.08" cy="23.491" r="1.42643" transform="rotate(2.6545 191.08 23.491)" fill="#2F2F35"/>
</g>
<defs>
<clipPath id="clip0_187_1788">
<rect width="390" height="100" fill="white" transform="matrix(-1 0 0 1 390.588 0)"/>
</clipPath>
</defs>
</svg>
