<svg width="391" height="100" viewBox="0 0 391 100" fill="none" xmlns="http://www.w3.org/2000/svg">
<g clip-path="url(#clip0_131_9245)">
<path d="M241.172 16.7851C212.611 -10.0575 177.587 2.0764 166.517 12.1308C159.417 17.0061 122.477 52.9381 122.479 77.0689C122.481 126.825 166.517 122.393 204.451 128.554C242.386 134.714 258.234 92.9104 261.573 88.0699C264.911 83.2295 269.733 43.6276 241.172 16.7851Z" fill="#FE4C40"/>
<path d="M178.88 42.7772C166.426 44.7717 150.931 53.4521 144.932 61.4505C144.698 61.7631 144.197 61.6875 144.085 61.3132C142.273 55.2698 139.282 45.1857 137.446 43.8391C135.636 42.5121 120.675 45.8063 112.006 47.9631C111.052 48.2005 110.457 49.1549 110.659 50.1174C116.728 79.0353 129.466 94.5178 145.819 91.6939C159.589 89.3162 167.45 78.2778 169.773 74.502C169.887 74.3162 170.227 74.4558 170.179 74.6684C169.485 77.7258 167.894 84.7949 167.46 87.2321C166.9 90.3768 166.159 99.1251 166.159 99.1251H171.739H211.613C211.767 99.1251 211.892 99.0019 211.89 98.8483C211.862 96.6256 211.53 92.4982 211.892 89.4185C212.252 86.3471 213.881 75.1845 214.959 70.7783C215.002 70.6024 215.242 70.5931 215.305 70.7627C217.07 75.4733 221.531 85.2083 226.882 90.5591C232.185 95.8624 246.976 95.4344 254.692 94.4565C255.268 94.3836 255.62 93.8032 255.436 93.2534C254.523 90.5342 252.15 83.3353 251.848 81.092C251.473 78.3061 252.356 72.503 249.625 72.3564C245.804 72.1513 238.91 70.0797 238.106 68.9547C237.303 67.8296 233.928 59.0228 230.019 54.7876C226.109 50.5525 223.382 48.3485 215.104 43.8401C206.826 39.3317 191.747 40.7164 178.88 42.7772Z" fill="#004A29"/>
<path fill-rule="evenodd" clip-rule="evenodd" d="M206.187 43.6564C204.441 45.9886 201.76 47.6084 198.633 47.9183C194.33 48.3446 190.368 46.1735 188.304 42.6806C188.108 42.7251 187.908 42.758 187.703 42.7783C185.056 43.0406 182.697 41.107 182.434 38.4595C182.172 35.812 184.106 33.4531 186.753 33.1908C187.038 33.1626 187.319 33.1597 187.595 33.1805C189.048 29.5939 192.393 26.9145 196.511 26.5064C202.028 25.9598 206.984 29.6828 208.098 34.9869C210.387 35.0047 212.341 36.747 212.571 39.0759C212.818 41.5689 210.998 43.7901 208.505 44.0371C207.682 44.1186 206.889 43.975 206.187 43.6564Z" fill="#F7C8B6"/>
<path d="M192.033 30.5529C190.6 36.1978 188.249 35.1945 186.313 35.8311C186.235 35.857 186.151 35.7976 186.15 35.7147C186.064 26.3213 192.633 23.6346 198.001 23.8171C206.558 24.1079 208.626 31.3538 208.905 35.2124C208.905 35.2124 208.584 35.4951 207.824 35.7665C207.063 36.0379 204.857 35.9148 202.829 35.0241C202.042 34.6779 201.296 34.4091 200.319 33.6162C200.272 33.5785 200.205 33.6245 200.224 33.6812C200.648 34.914 201.059 35.1109 200.976 35.3943C200.753 36.1569 198.186 35.5435 196.853 34.9609C194.585 34.2669 192.592 32.4005 192.033 30.5529Z" fill="#2F2F35"/>
<circle cx="195.674" cy="38.4324" r="1.42643" transform="rotate(2.6545 195.674 38.4324)" fill="#2F2F35"/>
<circle cx="200.656" cy="38.5808" r="1.42643" transform="rotate(2.6545 200.656 38.5808)" fill="#2F2F35"/>
<path d="M105.787 30.8493C105.787 21.874 112.417 14.7969 120.839 14.7969C129.261 14.7969 139.755 16.1776 140.169 18.9392C140.583 21.7008 141.821 24.1993 139.474 24.7516L139.147 26.9609C139.147 26.9609 139.775 27.0609 139.862 27.3665C140.283 28.8347 140.365 32.1532 139.605 32.9555C139.308 33.2698 139.061 33.0472 138.736 33.1629C138.368 33.2942 138.639 35.1039 138.736 35.3241C139.335 35.8764 140.169 35.3028 140.169 37.8561C140.169 41.1545 140.531 41.6671 138.736 42.0814C137.591 42.3458 138.273 43.6663 139.182 44.0605C139.696 44.2838 139.899 44.7746 139.899 44.9219C139.899 47.6323 140.583 48.3851 138.374 50.0421C136.165 51.699 135.474 52.4926 132.161 53.0449C128.847 53.5972 119.871 54.1495 116.558 53.0449C113.244 51.9403 105.787 53.0449 105.787 30.8493Z" fill="#F7C8B6"/>
<path fill-rule="evenodd" clip-rule="evenodd" d="M126.143 22.8526L139.476 24.7462L139.18 26.97L125.862 25.0076L126.143 22.8526Z" fill="#2F2F35"/>
<path fill-rule="evenodd" clip-rule="evenodd" d="M125.706 33.1211L138.812 33.1211L138.798 35.3572L125.692 35.2577L125.706 33.1211Z" fill="#2F2F35"/>
<path fill-rule="evenodd" clip-rule="evenodd" d="M125.916 42.0234H138.846L139.215 44.0736L126.109 43.9741L125.916 42.0234Z" fill="#2F2F35"/>
<path d="M270.303 81.3683C271.021 75.6738 267.382 70.6529 262.038 69.9787C256.695 69.3045 249.926 69.3405 249.442 71.0595C248.958 72.7785 247.973 74.2645 249.418 74.8029L249.449 76.2308C249.449 76.2308 249.042 76.244 248.962 76.4308C248.578 77.3287 248.26 79.4276 248.678 79.9974C248.841 80.2206 249.016 80.0991 249.213 80.1985C249.436 80.3113 249.119 81.4379 249.04 81.5698C248.616 81.8723 248.132 81.4415 247.928 83.0615C247.664 85.1542 247.393 85.4504 248.499 85.857C249.205 86.1164 248.666 86.8996 248.058 87.077C247.713 87.1775 247.545 87.4726 247.533 87.5661C247.316 89.2857 246.822 89.7086 248.091 90.9367C249.36 92.1649 249.735 92.7236 251.793 93.3393C253.852 93.955 259.502 95.0239 261.693 94.5883C263.884 94.1527 268.526 95.4505 270.303 81.3683Z" fill="#F7C8B6"/>
<path fill-rule="evenodd" clip-rule="evenodd" d="M258.028 74.6634L249.416 74.7974L249.426 76.2321L258.033 76.0531L258.028 74.6634Z" fill="#2F2F35"/>
<path fill-rule="evenodd" clip-rule="evenodd" d="M257.483 81.2137L249.168 80.1646L248.998 81.5845L257.321 82.5704L257.483 81.2137Z" fill="#2F2F35"/>
<path fill-rule="evenodd" clip-rule="evenodd" d="M256.636 86.8477L248.432 85.8126L248.034 87.0838L256.357 88.0698L256.636 86.8477Z" fill="#2F2F35"/>
</g>
<defs>
<clipPath id="clip0_131_9245">
<rect width="390" height="100" fill="white" transform="matrix(-1 0 0 1 390.588 0)"/>
</clipPath>
</defs>
</svg>
