<svg width="85" height="20" viewBox="0 0 85 20" fill="none" xmlns="http://www.w3.org/2000/svg">
<path d="M7.09198 19.364C3.39598 19.364 0.539984 17.18 0.539984 12.28V0.687999H5.07598V12.28C5.07598 14.408 6.11198 15.164 7.48398 15.164C8.82798 15.164 9.89198 14.408 9.89198 12.28V0.687999H14.428V12.28C14.428 14.408 15.492 15.164 16.836 15.164C18.208 15.164 19.244 14.408 19.244 12.28V0.687999H23.78V12.28C23.78 17.18 20.924 19.364 17.228 19.364C15.016 19.364 13.252 18.496 12.16 16.844C11.068 18.496 9.30398 19.364 7.09198 19.364ZM27.1006 19V0.687999H40.6246V4.888H31.6366V7.884H39.0006V11.524H31.6366V14.8H40.6246V19H27.1006ZM43.7803 19V0.687999H50.9763C55.9603 0.687999 58.1723 3.404 58.1723 7.128C58.1723 10.852 55.9603 13.596 50.9763 13.596H48.3163V19H43.7803ZM48.3163 9.396H51.0603C52.9923 9.396 53.5803 8.444 53.5803 7.128C53.5803 5.84 52.9923 4.888 51.0603 4.888H48.3163V9.396ZM60.624 19V0.687999H65.16V19H60.624ZM68.9092 19V0.687999H73.4452V8.164L78.7652 0.687999H84.3652L77.4492 9.648L84.6452 19H78.9052L73.4452 11.3V19H68.9092Z" fill="url(#paint0_linear_298_321)"/>
<defs>
<linearGradient id="paint0_linear_298_321" x1="-1" y1="10" x2="85" y2="10" gradientUnits="userSpaceOnUse">
<stop stop-color="#D19BEB"/>
<stop offset="1" stop-color="#6377DD"/>
</linearGradient>
</defs>
</svg>
