<svg width="38" height="37" viewBox="0 0 38 37" fill="none" xmlns="http://www.w3.org/2000/svg">
<g clip-path="url(#clip0_521_6957)">
<path d="M15.2238 38.8784C15.2237 31.3546 14.2831 25.0064 18.0441 15.6016H20.3929C24.1553 25.0064 23.2153 31.3546 23.2153 38.8784H15.2238Z" fill="url(#paint0_linear_521_6957)"/>
<path d="M19.0145 13.3731C19.0145 13.3731 14.4403 14.1832 9.61444 14.4696C5.69323 14.7023 4.69097 15.6453 2.92236 16.5889C2.40219 16.8664 1.50748 17.8048 0.888302 17.7455C-0.26286 17.6352 0.899511 13.4149 3.67518 11.4657C8.7514 7.9008 14.9819 8.1244 17.4624 8.68162C18.2389 6.11584 19.908 3.96595 23.3526 2.38465C26.7779 0.812208 32.2549 2.48286 29.3593 3.59857C26.7272 4.6127 19.7402 12.4222 19.0145 13.3731Z" fill="url(#paint1_linear_521_6957)"/>
<path d="M8.70108 4.2019C15.1548 3.48786 18.1048 9.02428 18.6424 10.6111C24.9721 2.78599 31.8107 6.56023 34.0509 8.08638C39.1334 12.7736 37.2741 18.8452 35.8195 16.9394C31.7921 11.0081 27.2807 11.8846 25.5913 12.5463C25.9116 12.6351 29.7702 13.2265 31.4736 16.5847C33.8159 21.2022 31.9286 25.4315 30.7495 25.31C29.8063 25.2128 29.5155 23.5338 29.0989 22.3649C28.7626 21.4213 27.8549 19.9098 26.2169 18.7501C22.6125 16.1979 20.7375 17.2936 19.2176 18.4243C18.6065 18.1398 16.1291 15.9701 12.2382 18.4243C8.93676 20.5066 9.28963 25.3135 7.99351 25.3135C6.57863 25.3135 4.50683 21.0675 5.98909 17.2932C7.28607 13.9908 10.0344 12.4222 11.6682 12.1275C9.5263 9.22275 5.97145 8.44906 2.79652 8.08638C2.50088 8.05261 2.11526 7.97729 2.03936 7.70279C1.7812 6.76909 5.14279 4.59558 8.70108 4.2019Z" fill="url(#paint2_linear_521_6957)"/>
</g>
<defs>
<linearGradient id="paint0_linear_521_6957" x1="19.4546" y1="44.0511" x2="19.4546" y2="7.87323" gradientUnits="userSpaceOnUse">
<stop stop-color="#252730"/>
<stop offset="0.660904" stop-color="#446F8E"/>
<stop offset="1" stop-color="#6CA3CA"/>
</linearGradient>
<linearGradient id="paint1_linear_521_6957" x1="23.5455" y1="-12.0064" x2="26.7855" y2="12.7617" gradientUnits="userSpaceOnUse">
<stop stop-color="#476F8E"/>
<stop offset="1" stop-color="#304458"/>
</linearGradient>
<linearGradient id="paint2_linear_521_6957" x1="27.9005" y1="-0.822153" x2="25.6666" y2="25.2618" gradientUnits="userSpaceOnUse">
<stop stop-color="#5A85A6"/>
<stop offset="0.572415" stop-color="#385D7B"/>
<stop offset="1" stop-color="#2D3E50"/>
</linearGradient>
<clipPath id="clip0_521_6957">
<rect width="36.9997" height="37" fill="white" transform="translate(0.308594)"/>
</clipPath>
</defs>
</svg>
