<svg width="163" height="127" viewBox="0 0 163 127" fill="none" xmlns="http://www.w3.org/2000/svg">
<path d="M47.0373 21.8912C49.6663 12.1408 58.9888 5.7444 69.0322 6.8L141.127 14.3775C153.947 15.7249 162.377 28.4035 158.66 40.7466L141.377 98.1441C138.531 107.598 129.365 113.692 119.546 112.66L49.2087 105.267C36.6302 103.945 28.2183 91.6851 31.511 79.4734L47.0373 21.8912Z" fill="#11A40D"/>
<path d="M34.5969 5.02901C30.0961 5.2449 30.5275 12.012 30.8869 16.7863C20.9015 13.9137 16.1509 14.9295 11.8259 19.2114C8.19779 22.8033 12.1249 32.5155 13.0446 34.634C13.1586 34.8966 13.3817 35.0695 13.6647 35.1125C17.0901 35.634 39.5086 39.001 39.6327 37.821C39.767 36.5433 39.0251 23.1176 40.3015 15.0705C41.5778 7.02342 40.2229 4.75915 34.5969 5.02901Z" fill="#FFA1A8"/>
<path fill-rule="evenodd" clip-rule="evenodd" d="M23.5714 22.2235C24.4934 21.4052 25.7905 20.8097 27.1136 20.9488C27.7988 21.0208 28.5041 21.3268 29.142 21.682C29.7987 22.0475 30.4784 22.5194 31.1296 23.0146C32.1524 23.7924 33.1709 24.6797 33.9725 25.3782C34.2358 25.6076 34.8484 26.2148 35.1218 26.4709C35.1672 26.5135 35.1557 26.5901 35.0992 26.6162L33.4239 27.3918C33.2716 27.4623 33.0921 27.4374 32.9653 27.3276C32.8294 27.2099 32.6878 27.0865 32.5413 26.9589C31.743 26.2636 30.7989 25.4413 29.8392 24.7115C29.2287 24.2473 28.6385 23.8416 28.1051 23.5446C27.553 23.2373 27.148 23.0959 26.8908 23.0689C26.3291 23.0098 25.6026 23.271 24.9864 23.8179C24.3662 24.3684 24.0615 25.0243 24.0769 25.5252C24.0966 26.1651 24.4084 26.9687 24.9478 27.7907C25.4181 28.5074 26.7485 29.8291 27.4552 30.4338C27.5209 30.4901 27.4734 30.6031 27.3874 30.594L25.2332 30.3676C24.3082 30.2704 23.8187 29.9557 23.1654 28.9602C22.5219 27.9795 21.983 26.7868 21.9461 25.5908C21.905 24.256 22.6533 23.0382 23.5714 22.2235Z" fill="#252730"/>
<path d="M118.899 50.5801C143.014 54.668 136.404 94.1079 134.082 102.768C132.82 107.478 129.798 113.087 127.305 117.224C125.062 120.944 120.817 122.847 116.497 122.393L67.3753 117.23C64.7001 116.949 62.6944 114.652 62.7761 111.964L63.7638 79.4456C61.5981 86.3945 55.8817 101.18 50.3413 104.732C43.4159 109.171 31.7337 106.446 25.214 102.091C16.9546 96.5732 12.4054 39.6007 12.0907 34.4005C11.7761 29.2003 31.6973 35.8415 31.6973 35.8415C40.4474 39.0159 40.0274 35.286 40.8575 39.6788C41.6875 44.0716 45.1015 70.1442 46.4801 67.7257C49.0251 63.2614 57.3255 46.4749 63.0859 44.9274C68.8462 43.3799 85.4781 44.9145 118.899 50.5801Z" fill="#FCDC1C"/>
<path d="M107.703 106.77L109.245 65.6889C109.28 64.7508 108.554 63.9592 107.616 63.9137L80.6604 62.6069C79.6931 62.56 78.8793 63.3238 78.8648 64.2922L78.2714 103.947C78.2582 104.834 78.9234 105.584 79.8051 105.676L105.812 108.41C106.798 108.513 107.666 107.761 107.703 106.77Z" fill="#F7F7FA"/>
<path fill-rule="evenodd" clip-rule="evenodd" d="M104.046 72.1268L83.0121 70.1461L83.3722 66.7197L104.406 68.7004L104.046 72.1268Z" fill="#BFBFBF"/>
<path fill-rule="evenodd" clip-rule="evenodd" d="M94.1429 78.4753L82.2438 77.4547L82.604 74.0283L94.5031 75.0489L94.1429 78.4753Z" fill="#BFBFBF"/>
<path d="M89.7351 108.492C95.9685 106.532 107.649 92.2857 112.71 85.4077L115.769 112.248L96.6186 110.235C91.7268 110.471 83.5016 110.452 89.7351 108.492Z" fill="#FCDC1C"/>
<path fill-rule="evenodd" clip-rule="evenodd" d="M106.865 95.0018C102.05 100.983 95.4797 107.213 88.7908 109.14L88.0988 106.738C94.0018 105.037 100.16 99.3437 104.917 93.4341C107.272 90.5095 109.232 87.5954 110.596 85.2127C111.278 84.02 111.801 82.9775 112.148 82.1455C112.518 81.2571 112.619 80.7679 112.617 80.6104L115.117 80.5855C115.124 81.3012 114.831 82.2079 114.455 83.108C114.056 84.0645 113.481 85.2032 112.765 86.4541C111.333 88.9585 109.296 91.9812 106.865 95.0018Z" fill="#252730"/>
<path d="M104.825 44.8827C104.132 51.1016 99.2017 55.6508 92.7437 54.9314C86.2856 54.212 81.612 48.5875 82.3047 42.3686C82.9975 36.1498 88.7033 32.5584 95.1613 33.2778C101.619 33.9972 105.517 38.6639 104.825 44.8827Z" fill="#FFA1A8"/>
<path d="M92.4978 37.9027C92.68 38.5523 92.1446 39.2705 91.302 39.5068C90.4594 39.7431 89.6286 39.408 89.4464 38.7583C89.2643 38.1087 89.7997 37.3905 90.6423 37.1542C91.4849 36.9179 92.3156 37.253 92.4978 37.9027Z" fill="#252730"/>
<path d="M105.104 42.2114C105.459 46.0352 103.681 49.1738 103.192 49.9558C103.15 50.0227 103.05 50.0017 103.037 49.924C102.839 48.7686 101.616 43.1863 95.637 36.3966C94.0908 34.6409 91.5629 34.0201 91.1849 33.3959C91.1502 33.3385 91.1762 33.2708 91.2331 33.2353C91.7098 32.9376 94.0911 31.6929 98.6015 33.2038C103.681 34.9052 104.898 39.9989 105.104 42.2114Z" fill="#252730"/>
</svg>
