<svg width="390" height="232" viewBox="0 0 390 232" fill="none" xmlns="http://www.w3.org/2000/svg">
<path fill-rule="evenodd" clip-rule="evenodd" d="M47.5015 44.5001C46.7015 44.9001 46.1681 44.0001 46.0015 43.5001C44.5015 40.4992 48.5015 33.4993 51.5015 29.4993C51.7041 29.2291 51.9035 28.9784 52.099 28.7459C51.4397 28.8178 51.0011 28.7649 51.0011 28.5C51.0011 28.1169 50.7809 28.4676 50.4531 28.9899C49.9252 29.831 49.118 31.1169 48.5011 30.5C47.9947 29.9936 47.36 30.513 46.6621 31.0841C45.9818 31.6409 45.2415 32.2468 44.5011 32C43.829 31.776 43.6588 32.3549 43.4508 33.0622C43.1946 33.9336 42.881 35 41.5011 35C39.6851 35 39.7159 33.9447 39.677 33.9422C39.6624 33.9412 39.6379 34.0896 39.5011 34.5C39.0011 36 37.5011 38.5 37.0011 36C36.5011 33.5 36.5014 32.9996 38.502 30.5C40.5029 28 41.7907 26.9419 46.5011 26C47.2538 25.8495 49.7734 25.7551 52.2328 25.663C53.6168 25.6111 54.9817 25.56 56.002 25.5C55.9105 25.5 55.8889 25.4398 55.822 25.2534C55.767 25.1 55.6812 24.8611 55.5006 24.5C55.2844 24.0675 54.694 23.9156 54.0935 23.7611C53.3057 23.5584 52.5006 23.3512 52.5006 22.5C52.5006 21.8038 51.6392 21.9693 50.7159 22.1465C49.6497 22.3513 48.5011 22.5718 48.5011 21.5C48.5011 20.4578 47.5505 20.6376 46.4986 20.8365C45.5319 21.0193 44.4795 21.2183 44.0006 20.5C43.5314 19.7961 43.3925 19.973 43.1706 20.2558C42.9197 20.5756 42.5625 21.0307 41.5011 20.5C40.4773 19.9881 40.2395 20.5243 39.983 21.1027C39.7384 21.6542 39.4769 22.2441 38.5006 22C37.6298 21.7823 36.5693 22.5126 35.6907 23.1177C34.5516 23.9021 33.7184 24.4759 34.0006 22.5C34.5006 19 35.002 16.5 41.5011 16.5C48.7975 16.5 53.7259 18.3925 55.3702 20.3365C55.2295 20.074 55.0974 19.787 55.002 19.5C54.7526 18.7499 54.3774 18.625 54.002 18.5C53.6267 18.375 53.2512 18.2499 53.0011 17.5C52.721 16.6606 52.2849 16.7607 51.9551 16.8364C51.6956 16.8959 51.502 16.9404 51.502 16.5C51.502 16 50.7517 16 50.0015 16C49.2513 16 48.5011 16 48.5011 15.5C48.5011 15 47.8763 15 47.189 15C46.5017 15 45.752 15 45.502 14.5C45.3701 14.2364 45.3424 14.1465 45.3364 14.1479C45.3196 14.1519 45.4724 14.8682 44.0006 14.5C43.0366 14.2588 42.7698 13.9013 42.5837 13.6519C42.3839 13.3843 42.2771 13.2412 41.5011 13.5C40.002 14 37.5006 11.5 40.5006 9.5C42.5721 8.11905 48.2663 9.36026 52.3833 11.7423C52.2586 11.4486 52.1702 11.1625 52.0921 10.9098C51.929 10.382 51.811 10 51.502 10C50.2626 10 50.2428 9.72708 50.197 9.09371C50.1762 8.80617 50.1501 8.44433 50.002 8C49.7405 7.21552 49.342 6.97807 49.0213 6.78699C48.7288 6.61271 48.5011 6.47701 48.5011 6C48.5011 5.61338 48.1272 5.60026 47.6976 5.58518C47.0159 5.56126 46.1938 5.5324 46.5011 3.99936C47.0011 1.99936 52.0011 1.99936 53.0011 4.49936C53.2534 5.13017 53.7922 5.76103 54.4408 6.52042C55.9493 8.28654 58.0517 10.7479 58.5249 15.521C59.024 8.31599 62.0798 -0.342102 65.5015 6.35348e-05C69.1499 0.364902 68.0064 1.2627 66.9273 2.10994C66.5276 2.42381 66.1366 2.73075 66.0015 3.00107C65.7989 3.40619 66.0067 3.48307 66.2258 3.56414C66.5475 3.6832 66.8938 3.81132 66.0015 5.00107C65.1551 6.1295 65.423 6.62126 65.6376 7.01517C65.8033 7.31941 65.9373 7.56529 65.5015 8.00107C65.1678 8.33472 64.9456 8.50126 64.7975 8.61222C64.6853 8.69629 64.6157 8.74845 64.5725 8.8172C64.502 8.92951 64.502 9.08612 64.502 9.49856V9.5C64.502 9.79835 64.5909 10.0078 64.6759 10.208C64.727 10.3282 64.7766 10.445 64.8047 10.5757C65.8816 9.81573 67.1098 9.10946 68.5015 8.50062C76.5015 5.00062 75.0015 10.0006 74.5015 10.5006C74.1015 10.9006 73.3348 11.0006 73.0015 11.0006C73.0015 11.1673 72.8015 11.6006 72.0015 12.0006C71.2015 12.4006 70.6681 12.5006 70.5015 12.5006C70.1015 13.3006 68.6681 13.5006 68.0015 13.5006C68.3348 13.8336 68.4015 14.6997 66.0015 15.5006C64.5555 15.9832 64.5494 16.0655 64.5179 16.492C64.4971 16.7734 64.4652 17.2046 64.0015 17.9994C64.0015 17.9994 64.5015 17.4994 72.0015 14.4994C78.733 11.8068 80.6311 14.3504 81.3109 15.2615L81.3109 15.2615C81.3885 15.3655 81.4503 15.4482 81.5015 15.4994C82.0015 15.9994 79.0015 17.4994 77.5015 17.4994C76.6474 17.4994 76.2797 17.4994 75.9367 17.5917C75.6773 17.6615 75.4321 17.7841 75.0015 17.9994C74.5015 18.2494 74.1265 18.2494 73.6265 18.2494C73.1265 18.2494 72.5015 18.2494 71.5015 18.4994C70.3527 18.7866 70.1937 19.0738 69.9822 19.4557C69.8255 19.7387 69.6399 20.0738 69.0015 20.4994C68.3438 20.9379 67.59 20.9918 66.9087 21.0406C66.036 21.1031 65.2822 21.1571 65.0015 21.9994C64.7222 22.8371 64.1313 23.5191 63.7509 23.9579C63.4502 24.3049 63.2812 24.5 63.502 24.5C63.5603 24.5 63.605 24.5 63.6495 24.5024C63.7965 24.5101 63.9422 24.5437 64.5701 24.6885C65.3844 24.8763 67.0098 25.2511 70.5015 25.9993C77.5015 27.4993 82.0015 34.4993 81.5015 35.4993C81.0779 36.3465 80.6543 36.1172 79.9268 35.7233C79.7955 35.6522 79.6543 35.5758 79.5015 35.4993C78.9432 35.2202 78.8524 35.2527 78.6202 35.3359C78.4364 35.4018 78.1641 35.4993 77.5015 35.4993C76.5505 35.4993 76.4034 34.8965 76.2957 34.4551C76.2335 34.2003 76.1845 33.9993 76.0015 33.9993C75.7515 33.9993 75.5015 33.6243 75.2515 33.2493C75.0015 32.8743 74.7515 32.4993 74.5015 32.4993H74.5008C73.9977 32.4993 70.0015 32.4993 70.0015 31.4998C70.0015 30.4998 69.5015 30 68.5015 30C68.0449 30 66.9632 29.9999 65.9222 29.9046C67.5252 31.4106 69.0476 33.0688 70.0015 34.4993C72.0015 37.4989 73.5015 40.9993 73.0015 43.4993C72.6015 45.4993 71.1681 45.666 70.5015 45.4993C70.1681 45.3327 69.6015 44.7993 70.0015 43.9993C70.5015 42.9993 69.5015 41.5001 69.0015 40.9993L68.9999 40.9977C68.5004 40.4975 68.0015 39.9977 68.0015 38.4993C68.0015 38.1705 68.0255 37.8657 68.0472 37.5902C68.1246 36.609 68.1726 35.9993 67.0015 35.9993C65.7478 35.9993 65.5419 35.3008 65.2162 34.1957L65.2162 34.1955C65.1522 33.9784 65.0836 33.7456 65.0015 33.4993C64.6015 32.2993 64.2015 32.3793 63.8015 32.4593C63.7015 32.4793 63.6015 32.4993 63.5015 32.4993H63.5003C63.3067 32.4993 62.8907 32.4993 62.4527 32.4133C62.9663 36.467 63.002 43.7415 63.002 48.5C63.002 53.3 65.612 63.3333 66.4453 65C64.1122 67.6667 58.0027 65.9 56.0027 59.5C54.2464 53.8798 54.9321 39.8799 55.6896 31.247C55.631 31.141 55.581 31.014 55.5326 30.891L55.5326 30.8909C55.3963 30.5446 55.2722 30.2291 55.0015 30.4998C54.5015 30.9998 54.5015 31.4998 54.5015 31.9998C54.5015 32.4998 54.0015 32.9998 53.5015 33.4998C53.1015 33.8998 52.6681 33.6665 52.5015 33.4998C53.0015 35.4998 52.0015 36.5004 51.5015 37.0004C51.1682 37.3337 50.8348 36.3338 50.7978 36.2227C50.7956 36.2161 50.7944 36.2127 50.7944 36.2127C50.7943 36.2127 50.7956 36.2173 50.7983 36.227C50.814 36.2817 50.8765 36.5004 51.0015 37.0004C51.4424 38.7642 50.7167 40.139 50.1962 41.125C50.1265 41.257 50.0605 41.3821 50.0015 41.5001C49.7237 42.0557 49.4459 41.8396 49.1681 41.6236C48.9459 41.4508 48.7237 41.2779 48.5015 41.5001C48.297 41.7046 48.2598 42.1599 48.2188 42.6609C48.1596 43.385 48.0925 44.2046 47.5015 44.5001Z" fill="url(#paint0_linear_198_6371)"/>
<path d="M46.5011 3.99936C47.0011 1.99936 52.0011 1.99936 53.0011 4.49936C54.0011 6.99936 59.5011 9.5 58.5011 20C57.7011 28.4 57.1677 28.5 57.0011 27.5C55.0011 28.1667 51.0011 29.3 51.0011 28.5C51.0011 27.5 49.5011 31.5 48.5011 30.5C47.5011 29.5 46.0011 32.5 44.5011 32C43.0011 31.5 44.0011 35 41.5011 35C39.0011 35 40.0011 33 39.5011 34.5C39.0011 36 37.5011 38.5 37.0011 36C36.5011 33.5 36.5014 32.9996 38.502 30.5C40.5029 28 41.7907 26.9419 46.5011 26C47.6774 25.7648 53.1686 25.6667 56.002 25.5C55.8353 25.5 55.9006 25.3 55.5006 24.5C55.0006 23.5 52.5006 24 52.5006 22.5C52.5006 21 48.5011 23.5 48.5011 21.5C48.5011 19.5 45.0006 22 44.0006 20.5C43.0006 19 43.5011 21.5 41.5011 20.5C39.5011 19.5 40.5006 22.5 38.5006 22C36.5006 21.5 33.5006 26 34.0006 22.5C34.5006 19 35.002 16.5 41.5011 16.5C48.7975 16.5 53.7259 18.3925 55.3702 20.3365C55.2295 20.074 55.0974 19.787 55.002 19.5C54.5033 18 53.5015 19 53.0011 17.5C52.5006 16 51.502 17.5 51.502 16.5C51.502 15.5 48.5011 16.5 48.5011 15.5C48.5011 14.5 46.002 15.5 45.502 14.5C45.002 13.5 45.9993 15 44.0006 14.5C42.002 14 43.0002 13 41.5011 13.5C40.002 14 37.5006 11.5 40.5006 9.5C42.5721 8.11905 48.2663 9.36026 52.3833 11.7423C51.9982 10.8352 51.9589 10 51.502 10C49.6999 10 50.4763 9.42303 50.002 8C49.502 6.5 48.5011 7 48.5011 6C48.5011 5 46.0002 6.49872 46.5011 3.99936Z" fill="black"/>
<path d="M46.5011 3.99936C47.0011 1.99936 52.0011 1.99936 53.0011 4.49936C54.0011 6.99936 59.5011 9.5 58.5011 20C57.7011 28.4 57.1677 28.5 57.0011 27.5C55.0011 28.1667 51.0011 29.3 51.0011 28.5C51.0011 27.5 49.5011 31.5 48.5011 30.5C47.5011 29.5 46.0011 32.5 44.5011 32C43.0011 31.5 44.0011 35 41.5011 35C39.0011 35 40.0011 33 39.5011 34.5C39.0011 36 37.5011 38.5 37.0011 36C36.5011 33.5 36.5014 32.9996 38.502 30.5C40.5029 28 41.7907 26.9419 46.5011 26C47.6774 25.7648 53.1686 25.6667 56.002 25.5C55.8353 25.5 55.9006 25.3 55.5006 24.5C55.0006 23.5 52.5006 24 52.5006 22.5C52.5006 21 48.5011 23.5 48.5011 21.5C48.5011 19.5 45.0006 22 44.0006 20.5C43.0006 19 43.5011 21.5 41.5011 20.5C39.5011 19.5 40.5006 22.5 38.5006 22C36.5006 21.5 33.5006 26 34.0006 22.5C34.5006 19 35.002 16.5 41.5011 16.5C48.7975 16.5 53.7259 18.3925 55.3702 20.3365C55.2295 20.074 55.0974 19.787 55.002 19.5C54.5033 18 53.5015 19 53.0011 17.5C52.5006 16 51.502 17.5 51.502 16.5C51.502 15.5 48.5011 16.5 48.5011 15.5C48.5011 14.5 46.002 15.5 45.502 14.5C45.002 13.5 45.9993 15 44.0006 14.5C42.002 14 43.0002 13 41.5011 13.5C40.002 14 37.5006 11.5 40.5006 9.5C42.5721 8.11905 48.2663 9.36026 52.3833 11.7423C51.9982 10.8352 51.9589 10 51.502 10C49.6999 10 50.4763 9.42303 50.002 8C49.502 6.5 48.5011 7 48.5011 6C48.5011 5 46.0002 6.49872 46.5011 3.99936Z" fill="url(#paint1_linear_198_6371)"/>
<path d="M47.5015 44.5001C46.7015 44.9001 46.1681 44.0001 46.0015 43.5001C44.5015 40.4992 48.5015 33.4993 51.5015 29.4993C53.9015 26.2993 55.8348 25.8338 56.5015 26.0011L58.4908 18.8277C58.0547 11.3198 61.5319 -0.396897 65.5015 6.32294e-05C70.5015 0.500063 66.5015 2.00107 66.0015 3.00107C65.5015 4.00107 67.5015 3.00107 66.0015 5.00107C64.5015 7.00107 66.5015 7.00107 65.5015 8.00107C64.5015 9.00107 64.502 8.5 64.502 9.5C64.502 9.97743 64.7298 10.2273 64.8047 10.5757C65.8816 9.81573 67.1098 9.10946 68.5015 8.50062C76.5015 5.00062 75.0015 10.0006 74.5015 10.5006C74.1015 10.9006 73.3348 11.0006 73.0015 11.0006C73.0015 11.1673 72.8015 11.6006 72.0015 12.0006C71.2015 12.4006 70.6681 12.5006 70.5015 12.5006C70.1015 13.3006 68.6681 13.5006 68.0015 13.5006C68.3348 13.8336 68.4015 14.6997 66.0015 15.5006C63.6015 16.3016 65.1681 15.9998 64.0015 17.9994C64.0015 17.9994 64.5015 17.4994 72.0015 14.4994C79.5015 11.4994 81.0015 14.9994 81.5015 15.4994C82.0015 15.9994 79.0015 17.4994 77.5015 17.4994C76.0015 17.4994 76.0015 17.4994 75.0015 17.9994C74.0015 18.4994 73.5015 17.9994 71.5015 18.4994C69.5015 18.9994 70.5015 19.4994 69.0015 20.4994C67.5015 21.4994 65.5015 20.4994 65.0015 21.9994C64.5015 23.4994 63.002 24.5 63.502 24.5C64.002 24.5 63.5015 24.4993 70.5015 25.9993C77.5015 27.4993 82.0015 34.4993 81.5015 35.4993C81.0015 36.4993 80.5015 35.9993 79.5015 35.4993C78.5015 34.9993 79.0015 35.4993 77.5015 35.4993C76.0015 35.4993 76.5015 33.9993 76.0015 33.9993C75.5015 33.9993 75.0015 32.4993 74.5015 32.4993H74.5008C73.9977 32.4993 70.0015 32.4993 70.0015 31.4998C70.0015 30.4998 69.5015 30 68.5015 30C68.0449 30 66.9632 29.9999 65.9222 29.9046C67.5252 31.4106 69.0476 33.0688 70.0015 34.4993C72.0015 37.4989 73.5015 40.9993 73.0015 43.4993C72.6015 45.4993 71.1681 45.666 70.5015 45.4993C70.1681 45.3327 69.6015 44.7993 70.0015 43.9993C70.5015 42.9993 69.5015 41.5001 69.0015 40.9993L68.9999 40.9977C68.5004 40.4975 68.0015 39.9977 68.0015 38.4993C68.0015 36.9993 68.5015 35.9993 67.0015 35.9993C65.5015 35.9993 65.5015 34.9993 65.0015 33.4993C64.5015 31.9993 64.0015 32.4993 63.5015 32.4993H63.5003C62.9985 32.4993 61.002 32.4993 61.002 31C61.002 29.4995 61.0015 28.9993 61.0015 29.4993C61.0015 29.8993 59.6686 29.666 59.002 28.9993C58.6686 28.9993 58.0015 28.1993 58.0015 28.9993C58.0015 29.9993 56.5015 31.4998 56.0015 31.4998C55.5015 31.4998 55.5015 29.9998 55.0015 30.4998C54.5015 30.9998 54.5015 31.4998 54.5015 31.9998C54.5015 32.4998 54.0015 32.9998 53.5015 33.4998C53.1015 33.8998 52.6681 33.6665 52.5015 33.4998C53.0015 35.4998 52.0015 36.5004 51.5015 37.0004C51.0015 37.5004 50.5015 35.0004 51.0015 37.0004C51.5015 39.0004 50.5015 40.5001 50.0015 41.5001C49.5015 42.5001 49.0015 41.0001 48.5015 41.5001C48.0015 42.0001 48.5015 44.0001 47.5015 44.5001Z" fill="black"/>
<path d="M47.5015 44.5001C46.7015 44.9001 46.1681 44.0001 46.0015 43.5001C44.5015 40.4992 48.5015 33.4993 51.5015 29.4993C53.9015 26.2993 55.8348 25.8338 56.5015 26.0011L58.4908 18.8277C58.0547 11.3198 61.5319 -0.396897 65.5015 6.32294e-05C70.5015 0.500063 66.5015 2.00107 66.0015 3.00107C65.5015 4.00107 67.5015 3.00107 66.0015 5.00107C64.5015 7.00107 66.5015 7.00107 65.5015 8.00107C64.5015 9.00107 64.502 8.5 64.502 9.5C64.502 9.97743 64.7298 10.2273 64.8047 10.5757C65.8816 9.81573 67.1098 9.10946 68.5015 8.50062C76.5015 5.00062 75.0015 10.0006 74.5015 10.5006C74.1015 10.9006 73.3348 11.0006 73.0015 11.0006C73.0015 11.1673 72.8015 11.6006 72.0015 12.0006C71.2015 12.4006 70.6681 12.5006 70.5015 12.5006C70.1015 13.3006 68.6681 13.5006 68.0015 13.5006C68.3348 13.8336 68.4015 14.6997 66.0015 15.5006C63.6015 16.3016 65.1681 15.9998 64.0015 17.9994C64.0015 17.9994 64.5015 17.4994 72.0015 14.4994C79.5015 11.4994 81.0015 14.9994 81.5015 15.4994C82.0015 15.9994 79.0015 17.4994 77.5015 17.4994C76.0015 17.4994 76.0015 17.4994 75.0015 17.9994C74.0015 18.4994 73.5015 17.9994 71.5015 18.4994C69.5015 18.9994 70.5015 19.4994 69.0015 20.4994C67.5015 21.4994 65.5015 20.4994 65.0015 21.9994C64.5015 23.4994 63.002 24.5 63.502 24.5C64.002 24.5 63.5015 24.4993 70.5015 25.9993C77.5015 27.4993 82.0015 34.4993 81.5015 35.4993C81.0015 36.4993 80.5015 35.9993 79.5015 35.4993C78.5015 34.9993 79.0015 35.4993 77.5015 35.4993C76.0015 35.4993 76.5015 33.9993 76.0015 33.9993C75.5015 33.9993 75.0015 32.4993 74.5015 32.4993H74.5008C73.9977 32.4993 70.0015 32.4993 70.0015 31.4998C70.0015 30.4998 69.5015 30 68.5015 30C68.0449 30 66.9632 29.9999 65.9222 29.9046C67.5252 31.4106 69.0476 33.0688 70.0015 34.4993C72.0015 37.4989 73.5015 40.9993 73.0015 43.4993C72.6015 45.4993 71.1681 45.666 70.5015 45.4993C70.1681 45.3327 69.6015 44.7993 70.0015 43.9993C70.5015 42.9993 69.5015 41.5001 69.0015 40.9993L68.9999 40.9977C68.5004 40.4975 68.0015 39.9977 68.0015 38.4993C68.0015 36.9993 68.5015 35.9993 67.0015 35.9993C65.5015 35.9993 65.5015 34.9993 65.0015 33.4993C64.5015 31.9993 64.0015 32.4993 63.5015 32.4993H63.5003C62.9985 32.4993 61.002 32.4993 61.002 31C61.002 29.4995 61.0015 28.9993 61.0015 29.4993C61.0015 29.8993 59.6686 29.666 59.002 28.9993C58.6686 28.9993 58.0015 28.1993 58.0015 28.9993C58.0015 29.9993 56.5015 31.4998 56.0015 31.4998C55.5015 31.4998 55.5015 29.9998 55.0015 30.4998C54.5015 30.9998 54.5015 31.4998 54.5015 31.9998C54.5015 32.4998 54.0015 32.9998 53.5015 33.4998C53.1015 33.8998 52.6681 33.6665 52.5015 33.4998C53.0015 35.4998 52.0015 36.5004 51.5015 37.0004C51.0015 37.5004 50.5015 35.0004 51.0015 37.0004C51.5015 39.0004 50.5015 40.5001 50.0015 41.5001C49.5015 42.5001 49.0015 41.0001 48.5015 41.5001C48.0015 42.0001 48.5015 44.0001 47.5015 44.5001Z" fill="url(#paint2_linear_198_6371)"/>
<path d="M47.5015 44.5001C46.7015 44.9001 46.1681 44.0001 46.0015 43.5001C44.5015 40.4992 48.5015 33.4993 51.5015 29.4993C53.4539 26.8962 55.0974 26.1026 56.0015 25.9872C57.4531 25.8538 60.4854 25.6695 61.0015 25.9993C62.1282 26.2042 62.9661 26.9881 63.4446 27.7477C64.2399 28.3856 65.0799 29.1143 65.8995 29.8832C67.5108 31.3949 69.0431 33.0621 70.0015 34.4993C72.0015 37.4989 73.5015 40.9993 73.0015 43.4993C72.6015 45.4993 71.1681 45.666 70.5015 45.4993C70.1681 45.3327 69.6015 44.7993 70.0015 43.9993C70.5015 42.9993 69.5015 41.5001 69.0015 40.9993L68.9999 40.9977C68.5004 40.4975 68.0015 39.9978 68.0015 38.4993C68.0015 36.9993 68.5015 35.9993 67.0015 35.9993C65.5015 35.9993 65.5015 34.9993 65.0015 33.4993C64.5015 31.9993 64.0015 32.4993 63.5015 32.4993H63.5003C62.9984 32.4993 61.002 32.4993 61.002 31C61.002 29.4995 61.0015 28.9993 61.0015 29.4993C61.0015 29.8993 59.5825 29.7832 58.9159 29.1166L58.9135 29.1142C58.6903 28.891 58.0015 28.2021 58.0015 28.9993C58.0015 29.9993 56.5015 31.4998 56.0015 31.4998C55.5015 31.4998 55.5015 29.9998 55.0015 30.4998C54.5015 30.9998 54.5015 31.4998 54.5015 31.9998C54.5015 32.4998 54.0015 32.9998 53.5015 33.4998C53.1015 33.8998 52.6681 33.6665 52.5015 33.4998C53.0015 35.4998 52.0015 36.5004 51.5015 37.0004C51.0015 37.5004 50.5015 35.0004 51.0015 37.0004C51.5015 39.0004 50.5015 40.5001 50.0015 41.5001C49.5015 42.5001 49.0015 41.0001 48.5015 41.5001C48.0015 42.0001 48.5015 44.0001 47.5015 44.5001Z" fill="black"/>
<path d="M47.5015 44.5001C46.7015 44.9001 46.1681 44.0001 46.0015 43.5001C44.5015 40.4992 48.5015 33.4993 51.5015 29.4993C53.4539 26.8962 55.0974 26.1026 56.0015 25.9872C57.4531 25.8538 60.4854 25.6695 61.0015 25.9993C62.1282 26.2042 62.9661 26.9881 63.4446 27.7477C64.2399 28.3856 65.0799 29.1143 65.8995 29.8832C67.5108 31.3949 69.0431 33.0621 70.0015 34.4993C72.0015 37.4989 73.5015 40.9993 73.0015 43.4993C72.6015 45.4993 71.1681 45.666 70.5015 45.4993C70.1681 45.3327 69.6015 44.7993 70.0015 43.9993C70.5015 42.9993 69.5015 41.5001 69.0015 40.9993L68.9999 40.9977C68.5004 40.4975 68.0015 39.9978 68.0015 38.4993C68.0015 36.9993 68.5015 35.9993 67.0015 35.9993C65.5015 35.9993 65.5015 34.9993 65.0015 33.4993C64.5015 31.9993 64.0015 32.4993 63.5015 32.4993H63.5003C62.9984 32.4993 61.002 32.4993 61.002 31C61.002 29.4995 61.0015 28.9993 61.0015 29.4993C61.0015 29.8993 59.5825 29.7832 58.9159 29.1166L58.9135 29.1142C58.6903 28.891 58.0015 28.2021 58.0015 28.9993C58.0015 29.9993 56.5015 31.4998 56.0015 31.4998C55.5015 31.4998 55.5015 29.9998 55.0015 30.4998C54.5015 30.9998 54.5015 31.4998 54.5015 31.9998C54.5015 32.4998 54.0015 32.9998 53.5015 33.4998C53.1015 33.8998 52.6681 33.6665 52.5015 33.4998C53.0015 35.4998 52.0015 36.5004 51.5015 37.0004C51.0015 37.5004 50.5015 35.0004 51.0015 37.0004C51.5015 39.0004 50.5015 40.5001 50.0015 41.5001C49.5015 42.5001 49.0015 41.0001 48.5015 41.5001C48.0015 42.0001 48.5015 44.0001 47.5015 44.5001Z" fill="url(#paint3_linear_198_6371)"/>
<path d="M0 60.7168C0 59.7686 0.768644 59 1.71681 59H388.283C389.231 59 390 59.7686 390 60.7168V230.283C390 231.231 389.231 232 388.283 232H1.71682C0.768649 232 0 231.231 0 230.283V60.7168Z" fill="black"/>
<path d="M314.012 56.1347L311.981 59.7955L297.766 85.4214L286.225 106.227C284.174 109.924 278.863 109.927 276.808 106.231L265.252 85.4421L253.051 63.4927L251.018 59.8344L248.984 56.1762L314.012 56.1347Z" fill="white"/>
<path d="M222.461 58.6821L218.713 58.5625V57.625V55.75L255.261 52L265.927 64.1875L261.928 79C255.121 68.7804 250.203 64.7771 241.989 61.8177C235.754 59.5713 229.085 58.8934 222.461 58.6821Z" fill="white"/>
<path d="M339.395 58.6821L343.143 58.5625V57.625V55.75L306.595 52L295.928 64.1875L299.928 79C306.735 68.7804 311.652 64.7771 319.866 61.8177C326.101 59.5713 332.771 58.8934 339.395 58.6821Z" fill="white"/>
<path d="M344.756 29.8675C344.872 28.9906 345.452 29.1537 347.119 28.4733C347.157 28.458 347.182 28.4214 347.182 28.381V26.9691C347.182 26.7476 346.491 26.5434 346.079 26.4535C346.033 26.4434 345.999 26.4024 345.999 26.3548V23.5797C345.999 23.5245 346.044 23.4797 346.099 23.4797H348.648C348.714 23.4797 348.762 23.4166 348.747 23.352C348.432 21.9761 348.931 19.457 353.334 19.457C357.73 19.457 358.345 21.7815 358.095 23.0574C358.083 23.1214 358.13 23.1827 358.196 23.1827H360.629C360.684 23.1827 360.729 23.2275 360.729 23.2827V26.0559C360.729 26.1048 360.694 26.1465 360.646 26.1546L359.086 26.4148C359.02 26.4258 358.983 26.4966 359.012 26.5569C359.278 27.1253 359.708 28.1393 359.664 28.4475C359.605 28.8619 361.971 28.211 361.971 29.8675C361.971 34.23 360.078 32.2341 360.729 33.5356C360.889 33.8549 362.782 33.3984 363.381 34.8962C365.224 39.5034 366.037 50.0538 363.983 51.6607C363.769 51.8282 363.569 51.9761 363.381 52.1065V58.9008C363.381 58.956 363.337 59.0008 363.281 59.0008H345.626C345.571 59.0008 345.526 58.956 345.526 58.9008V50.7083C344.514 50.2967 343.753 49.6631 343.337 49.2123C342.628 48.4433 342.982 38.9781 343.337 37.3217C343.619 36.0084 344.892 35.1677 345.509 34.9032C345.521 34.8984 345.53 34.8921 345.539 34.8836C345.972 34.4651 346.557 33.6293 345.526 33.5356C344.224 33.4173 344.639 30.7552 344.756 29.8675Z" fill="url(#paint4_linear_198_6371)"/>
<path d="M350.233 50.8292L347.989 51.1628C347.128 51.2337 346.313 51.0924 345.616 50.8385V57.904C345.616 58.4563 346.064 58.904 346.616 58.904H362.48C363.033 58.904 363.48 58.4563 363.48 57.904V52.5852C363.48 52.2995 363.603 52.0274 363.816 51.8377L364.276 51.4288C364.468 51.2581 364.587 51.0199 364.609 50.7638L365.166 44.0368C365.174 43.936 365.167 43.8345 365.145 43.7358L363.655 37.0823C363.553 36.6255 363.148 36.3008 362.68 36.3008H347.552C347 36.3008 346.552 36.7485 346.552 37.3008V44.4003C346.552 44.9526 347 45.4003 347.552 45.4003H350.086C350.638 45.4003 351.086 45.848 351.086 46.4003V49.84C351.086 50.3355 350.723 50.7563 350.233 50.8292Z" fill="url(#paint5_linear_198_6371)"/>
<path d="M359.737 52.7691C360.424 53.3352 361.797 53.1508 364.323 51.21C364.426 51.1304 364.513 51.0293 364.561 50.9078C364.742 50.4499 365.174 49.046 365.274 45.8832C365.377 42.5974 364.553 40.556 364.245 39.9139C364.174 39.7675 364.059 39.65 363.921 39.5646L362.809 38.8764C362.143 38.464 361.283 38.9432 361.283 39.7267V45.4074C361.283 45.8488 360.993 46.2374 360.59 46.4164C359.881 46.7305 358.845 47.3231 358.549 48.192C358.093 49.5293 358.43 50.881 359.608 52.6213C359.645 52.6756 359.687 52.7274 359.737 52.7691Z" fill="url(#paint6_linear_198_6371)"/>
<path d="M113.724 59.8991C114.431 58.9274 113.43 50.3588 112.841 47.196L109.531 45.6504C109.384 47.3793 109.178 53.5213 109.531 56.2581C109.972 59.6792 112.841 61.1138 113.724 59.8991Z" fill="black"/>
<path d="M113.724 59.8991C114.431 58.9274 113.43 50.3588 112.841 47.196L109.531 45.6504C109.384 47.3793 109.178 53.5213 109.531 56.2581C109.972 59.6792 112.841 61.1138 113.724 59.8991Z" fill="url(#paint7_linear_198_6371)"/>
<path d="M131.617 61.7027C132.324 60.731 131.085 51.3331 132.447 47.4502L127.797 45.209C127.649 46.9379 127.443 54.0799 127.797 56.8167C128.238 60.2378 130.734 62.9174 131.617 61.7027Z" fill="black"/>
<path d="M131.617 61.7027C132.324 60.731 131.085 51.3331 132.447 47.4502L127.797 45.209C127.649 46.9379 127.443 54.0799 127.797 56.8167C128.238 60.2378 130.734 62.9174 131.617 61.7027Z" fill="url(#paint8_linear_198_6371)"/>
<path d="M98.1611 31.6299C99.2345 30.914 99.0865 30.2568 98.6393 29.81L98.4709 29.4781C98.2495 29.1463 98.6923 28.4262 99.5225 28.2048C100.353 27.9834 100.629 28.9172 101.736 29.81C102.843 30.7027 103.098 30.1974 106.109 30.5295C109.12 30.8616 109.367 35.1235 111.692 36.1198C114.017 37.116 117.297 36.3965 124.223 36.1198C129.153 35.9228 132.522 37.3337 133.739 37.4998C134.957 37.6658 136.175 39.7137 137.448 39.4923C138.721 39.2709 141.444 41.1251 141.776 41.8446C142.108 42.5642 143.429 45.8059 144.204 47.7431C144.979 49.6803 145.034 52.6205 144.979 53.5547C144.969 53.7256 144.754 53.9013 144.355 53.7256C143.666 53.4223 142.747 53.1914 142.413 51.5536C142.193 50.4705 140.975 47.7039 139.511 45.5083C138.721 44.3224 137.723 43.8468 137.173 43.6415C137.038 43.5911 137.173 46.5996 135.828 47.2018C135.828 48.2421 136.009 53.8542 135.828 55.5547C135.464 58.9716 135.828 60.8202 133.933 60.5837C132.01 60.3437 132.193 51.7199 131.995 48.788C130.404 49.7321 122.389 51.6205 119.05 51.6205C115.71 51.6205 111.602 49.7321 109.465 48.788C109.465 48.788 109.465 62.018 106.676 61.5837C105.029 61.3272 104.738 57.7076 105.036 54.4279C105.334 51.1481 103.779 48.064 103.779 45.9768C103.779 43.8897 103.63 41.2813 103.779 39.4923C103.928 37.7034 104.358 37.4161 98.8421 38.6088C94.966 39.2051 93.4084 37.1162 93.8556 35.4763C94.3029 33.8364 96.8195 32.5248 98.1611 31.6299Z" fill="url(#paint9_linear_198_6371)"/>
<path d="M106.123 36.9229C106.331 37.3646 102.997 37.8409 101.743 38.0128C101.655 38.0248 101.57 38.0401 101.484 38.0593C100.76 38.2194 97.1729 38.9893 96.2893 38.7289C95.8783 38.6078 94.9345 38.11 94.6149 37.8247C93.6058 36.9236 92.9249 35.3362 95.0153 33.9864C97.9765 32.0744 98.3068 32.4522 99.2859 33.1041C99.9975 33.578 105.89 36.4259 106.123 36.9229Z" fill="url(#paint10_linear_198_6371)"/>
<path d="M106.123 36.9229C106.331 37.3646 102.997 37.8409 101.743 38.0128C101.655 38.0248 101.57 38.0401 101.484 38.0593C100.76 38.2194 97.1729 38.9893 96.2893 38.7289C95.8783 38.6078 94.9345 38.11 94.6149 37.8247C93.6058 36.9236 92.9249 35.3362 95.0153 33.9864C97.9765 32.0744 98.3068 32.4522 99.2859 33.1041C99.9975 33.578 105.89 36.4259 106.123 36.9229Z" fill="url(#paint11_linear_198_6371)" fill-opacity="0.2"/>
<defs>
<linearGradient id="paint0_linear_198_6371" x1="57.7512" y1="-0.00976563" x2="57.7512" y2="66.1976" gradientUnits="userSpaceOnUse">
<stop stop-color="#619EC9"/>
<stop offset="0.614435" stop-color="#446F8E"/>
<stop offset="1"/>
</linearGradient>
<linearGradient id="paint1_linear_198_6371" x1="46.2837" y1="2.55664" x2="46.2837" y2="37.0624" gradientUnits="userSpaceOnUse">
<stop stop-color="#619EC9"/>
<stop offset="1"/>
</linearGradient>
<linearGradient id="paint2_linear_198_6371" x1="63.6164" y1="-0.00976563" x2="63.6164" y2="45.5482" gradientUnits="userSpaceOnUse">
<stop stop-color="#619EC9"/>
<stop offset="1"/>
</linearGradient>
<linearGradient id="paint3_linear_198_6371" x1="63.6164" y1="-0.00976706" x2="63.6164" y2="45.5482" gradientUnits="userSpaceOnUse">
<stop stop-color="#619EC9"/>
<stop offset="0.359435" stop-color="#5183A7"/>
<stop offset="1"/>
</linearGradient>
<linearGradient id="paint4_linear_198_6371" x1="354.059" y1="19.457" x2="354.059" y2="59.0008" gradientUnits="userSpaceOnUse">
<stop stop-color="#619EC9"/>
<stop offset="1"/>
</linearGradient>
<linearGradient id="paint5_linear_198_6371" x1="354.099" y1="36.3008" x2="354.099" y2="59.3325" gradientUnits="userSpaceOnUse">
<stop stop-color="#395D76" stop-opacity="0"/>
<stop offset="0.104435" stop-color="#3A5F78" stop-opacity="0.952191"/>
<stop offset="0.267607" stop-color="#3C617B" stop-opacity="0.877494"/>
<stop offset="1" stop-color="#619EC9" stop-opacity="0"/>
</linearGradient>
<linearGradient id="paint6_linear_198_6371" x1="361.152" y1="40.5796" x2="361.152" y2="53.1145" gradientUnits="userSpaceOnUse">
<stop offset="0.0001" stop-color="#315066" stop-opacity="0.674435"/>
<stop offset="1" stop-color="#1A2B36"/>
</linearGradient>
<linearGradient id="paint7_linear_198_6371" x1="111.653" y1="30.8911" x2="111.653" y2="58.3252" gradientUnits="userSpaceOnUse">
<stop stop-color="#619EC9"/>
<stop offset="0.359435" stop-color="#5183A7"/>
<stop offset="1"/>
</linearGradient>
<linearGradient id="paint8_linear_198_6371" x1="129.918" y1="30.4497" x2="129.918" y2="57.8838" gradientUnits="userSpaceOnUse">
<stop stop-color="#619EC9"/>
<stop offset="0.359435" stop-color="#5183A7"/>
<stop offset="1"/>
</linearGradient>
<linearGradient id="paint9_linear_198_6371" x1="117.282" y1="28.1719" x2="117.282" y2="58.5988" gradientUnits="userSpaceOnUse">
<stop stop-color="#619EC9"/>
<stop offset="0.359435" stop-color="#446F8E"/>
<stop offset="1"/>
</linearGradient>
<linearGradient id="paint10_linear_198_6371" x1="102.869" y1="36.0195" x2="100.212" y2="39.6944" gradientUnits="userSpaceOnUse">
<stop stop-color="#5183A7" stop-opacity="0"/>
<stop offset="1" stop-color="#375971"/>
</linearGradient>
<linearGradient id="paint11_linear_198_6371" x1="99.8916" y1="32.5742" x2="99.8916" y2="38.7822" gradientUnits="userSpaceOnUse">
<stop offset="0.559788" stop-opacity="0"/>
<stop offset="1"/>
</linearGradient>
</defs>
</svg>
