<svg width="266" height="445" viewBox="0 0 266 445" fill="none" xmlns="http://www.w3.org/2000/svg">
<path fill-rule="evenodd" clip-rule="evenodd" d="M32.102 0.753906C14.4289 0.753906 0.10199 15.0808 0.10199 32.7539V386.527C0.10199 404.2 14.4289 418.527 32.102 418.527H150.414V418.553H159.257C162.343 418.553 165.286 419.849 167.37 422.124L187.202 443.785C188.611 445.324 191.14 443.947 190.612 441.928L188.101 432.339C186.276 425.367 191.536 418.553 198.743 418.553H209.219V418.527H233.898C251.571 418.527 265.898 404.2 265.898 386.527V32.7539C265.898 15.0808 251.571 0.753906 233.898 0.753906H32.102Z" fill="#F7F7FA"/>
<path fill-rule="evenodd" clip-rule="evenodd" d="M32.102 0.753906C14.4289 0.753906 0.10199 15.0808 0.10199 32.7539V386.527C0.10199 404.2 14.4289 418.527 32.102 418.527H150.414V418.553H159.257C162.343 418.553 165.286 419.849 167.37 422.124L187.202 443.785C188.611 445.324 191.14 443.947 190.612 441.928L188.101 432.339C186.276 425.367 191.536 418.553 198.743 418.553H209.219V418.527H233.898C251.571 418.527 265.898 404.2 265.898 386.527V32.7539C265.898 15.0808 251.571 0.753906 233.898 0.753906H32.102Z" fill="url(#paint0_linear_292_1465)"/>
<mask id="mask0_292_1465" style="mask-type:alpha" maskUnits="userSpaceOnUse" x="0" y="0" width="266" height="445">
<path fill-rule="evenodd" clip-rule="evenodd" d="M32.102 0.753906C14.4289 0.753906 0.10199 15.0808 0.10199 32.7539V386.527C0.10199 404.2 14.4289 418.527 32.102 418.527H150.414V418.553H159.257C162.343 418.553 165.286 419.849 167.37 422.124L187.202 443.785C188.611 445.324 191.14 443.947 190.612 441.928L188.101 432.339C186.276 425.367 191.536 418.553 198.743 418.553H209.219V418.527H233.898C251.571 418.527 265.898 404.2 265.898 386.527V32.7539C265.898 15.0808 251.571 0.753906 233.898 0.753906H32.102Z" fill="#F7F7FA"/>
</mask>
<g mask="url(#mask0_292_1465)">
<mask id="mask1_292_1465" style="mask-type:alpha" maskUnits="userSpaceOnUse" x="30" y="376" width="40" height="44">
<path fill-rule="evenodd" clip-rule="evenodd" d="M41.3736 407.401C40.7024 407.711 40.255 407.013 40.1151 406.626C38.8566 404.3 42.2126 398.875 44.7296 395.775C44.8994 395.566 45.0663 395.371 45.2301 395.192C44.6773 395.247 44.3096 395.206 44.3096 395.001C44.3096 394.704 44.1249 394.976 43.8498 395.381C43.4069 396.032 42.7297 397.029 42.2121 396.551C41.7872 396.159 41.2548 396.561 40.6693 397.004C40.0985 397.435 39.4773 397.905 38.8561 397.714C38.2923 397.54 38.1495 397.989 37.975 398.537C37.76 399.212 37.4969 400.039 36.3392 400.039C34.8159 400.039 34.8414 399.221 34.8088 399.219C34.7965 399.218 34.776 399.333 34.6612 399.651C34.2417 400.814 32.9832 402.751 32.5637 400.814C32.1442 398.876 32.1445 398.488 33.8229 396.551C35.5017 394.613 36.5822 393.793 40.5341 393.063C41.1657 392.947 43.2796 392.873 45.343 392.802C46.5041 392.762 47.6493 392.722 48.5053 392.676C48.4286 392.676 48.4105 392.629 48.3544 392.485C48.3082 392.366 48.2362 392.181 48.0847 391.901C47.9033 391.565 47.4079 391.448 46.9042 391.328C46.2432 391.171 45.5678 391.01 45.5678 390.351C45.5678 389.811 44.845 389.939 44.0703 390.077C43.1758 390.235 42.2121 390.406 42.2121 389.576C42.2121 388.768 41.4146 388.907 40.5321 389.061C39.721 389.203 38.8381 389.357 38.4363 388.8C38.0426 388.255 37.9261 388.392 37.7399 388.611C37.5294 388.859 37.2297 389.212 36.3392 388.8C35.4802 388.404 35.2807 388.819 35.0655 389.268C34.8603 389.695 34.6409 390.152 33.8218 389.963C33.0912 389.794 32.2014 390.36 31.4643 390.829C30.5086 391.437 29.8095 391.882 30.0464 390.351C30.4659 387.638 30.8865 385.7 36.3392 385.7C42.4609 385.7 46.5958 387.167 47.9753 388.674C47.8572 388.47 47.7464 388.248 47.6663 388.025C47.4571 387.444 47.1423 387.347 46.8274 387.25C46.5125 387.153 46.1975 387.057 45.9876 386.475C45.7526 385.825 45.3868 385.902 45.1101 385.961C44.8923 386.007 44.7299 386.042 44.7299 385.7C44.7299 385.313 44.1004 385.313 43.471 385.313C42.8415 385.313 42.2121 385.313 42.2121 384.925C42.2121 384.538 41.6879 384.538 41.1113 384.538C40.5347 384.538 39.9056 384.538 39.6959 384.15C39.5852 383.946 39.562 383.876 39.557 383.877C39.543 383.881 39.6706 384.435 38.4363 384.15C37.6275 383.963 37.4036 383.686 37.2475 383.493C37.0799 383.285 36.9902 383.175 36.3392 383.375C35.0814 383.763 32.9828 381.825 35.4998 380.275C37.3265 379.15 42.5111 380.27 45.9876 382.302C45.8321 382.015 45.7592 381.821 45.7081 381.685C45.6215 381.454 45.5981 381.392 45.3415 381.33C45.1392 381.281 44.9578 381.258 44.7936 381.236C44.2532 381.166 43.898 381.12 43.5928 380.275C43.3734 379.667 43.039 379.483 42.77 379.334C42.5246 379.199 42.3335 379.094 42.3335 378.724C42.3335 378.425 42.0199 378.415 41.6594 378.403C41.0875 378.384 40.3978 378.362 40.6555 377.174C41.075 375.624 45.27 375.624 46.109 377.561C46.3335 378.08 46.8196 378.515 47.3952 379.031C48.5698 380.082 50.117 381.468 50.5737 384.575C50.8258 379.868 52.4518 375.756 55.217 376.011C58.278 376.294 57.3186 376.99 56.4133 377.647C56.0779 377.89 55.7499 378.128 55.6365 378.337C55.4666 378.651 55.6409 378.711 55.8247 378.774C56.0947 378.866 56.3852 378.965 55.6365 379.887C54.9373 380.749 55.015 381.251 55.0783 381.66L55.0801 381.672C56.1633 380.869 57.4598 380.119 58.9925 379.5C65.7044 376.787 64.4459 380.662 64.0264 381.05C63.6908 381.36 63.0476 381.437 62.768 381.437C62.768 381.566 62.6002 381.902 61.929 382.212C61.2578 382.522 60.8103 382.6 60.6705 382.6C60.3349 383.22 59.1323 383.375 58.573 383.375C58.8527 383.633 58.9086 384.304 56.895 384.925C55.6818 385.299 55.6767 385.363 55.6503 385.693C55.6328 385.911 55.6061 386.246 55.217 386.862C55.217 386.862 55.6365 386.474 61.929 384.149C67.5767 382.062 69.1692 384.033 69.7395 384.74C69.8046 384.82 69.8564 384.884 69.8994 384.924C70.3189 385.311 67.8019 386.474 66.5434 386.474C65.822 386.474 65.5141 386.474 65.2246 386.547C65.0092 386.601 64.804 386.696 64.4459 386.862C64.0264 387.055 63.7118 387.055 63.2923 387.055C62.8728 387.055 62.3485 387.055 61.5095 387.249C60.5457 387.472 60.4123 387.694 60.2348 387.99C60.1033 388.21 59.9476 388.469 59.412 388.799C58.8602 389.139 58.2278 389.181 57.6561 389.219C56.924 389.267 56.2916 389.309 56.056 389.962C55.8217 390.611 55.3259 391.14 55.0068 391.48C54.7545 391.749 54.6127 391.9 54.7979 391.9H54.7985C54.8472 391.9 54.8846 391.9 54.9219 391.902C55.0452 391.908 55.1675 391.934 55.6941 392.046C56.3773 392.192 57.7411 392.482 60.6705 393.062C66.5434 394.225 70.3189 399.65 69.8994 400.425C69.544 401.081 69.1887 400.904 68.5783 400.598L68.5782 400.598C68.4681 400.543 68.3497 400.484 68.2214 400.425C67.753 400.209 67.6769 400.234 67.482 400.298C67.3278 400.349 67.0994 400.425 66.5434 400.425C65.7456 400.425 65.6222 399.958 65.5318 399.616C65.4796 399.418 65.4385 399.262 65.2849 399.262C65.0752 399.262 64.8654 398.972 64.6557 398.681C64.4459 398.39 64.2362 398.1 64.0264 398.1H64.0259C63.6038 398.1 60.251 398.1 60.251 397.325C60.251 396.55 59.8315 396.163 58.9925 396.163C58.6095 396.163 57.7019 396.163 56.8285 396.089C58.1734 397.256 59.4507 398.541 60.251 399.65C61.929 401.975 63.1875 404.688 62.768 406.625C62.4324 408.175 61.2298 408.305 60.6705 408.175C60.3908 408.046 59.9154 407.633 60.251 407.013C60.6705 406.238 59.8315 405.076 59.412 404.688L59.4106 404.686C58.9916 404.299 58.573 403.911 58.573 402.75C58.573 402.495 58.5932 402.259 58.6114 402.045C58.6763 401.285 58.7166 400.812 57.734 400.812C56.6822 400.812 56.5094 400.271 56.2362 399.415L56.2362 399.414C56.1825 399.246 56.1249 399.066 56.056 398.875C55.7204 397.945 55.3848 398.007 55.0492 398.069C54.9653 398.084 54.8814 398.1 54.7975 398.1H54.7966C54.7295 398.1 54.6307 398.1 54.5119 398.095C55.6764 401.521 56.6629 406.857 56.6629 410.223C56.6629 415.967 57.2195 419.028 57.2195 419.028C53.4071 421.095 45.7822 419.028 45.7822 419.028C45.7822 419.028 45.7809 403.777 47.8748 396.482C47.8176 396.457 47.7503 396.472 47.6661 396.55C47.2466 396.938 47.2466 397.325 47.2466 397.713C47.2466 398.1 46.8271 398.488 46.4076 398.875C46.072 399.185 45.7084 399.004 45.5686 398.875C45.9881 400.425 45.1491 401.201 44.7296 401.588C44.4499 401.847 44.1702 401.072 44.1392 400.986C44.1374 400.98 44.1364 400.978 44.1363 400.978C44.1363 400.978 44.1374 400.981 44.1397 400.989C44.1528 401.031 44.2052 401.201 44.3101 401.588C44.6801 402.955 44.0712 404.021 43.6345 404.785C43.576 404.887 43.5206 404.984 43.4711 405.076C43.2381 405.506 43.005 405.339 42.7719 405.172C42.5855 405.038 42.3991 404.904 42.2126 405.076C42.0411 405.234 42.0098 405.587 41.9754 405.976C41.9258 406.537 41.8695 407.172 41.3736 407.401Z" fill="url(#paint1_linear_292_1465)"/>
</mask>
<g mask="url(#mask1_292_1465)">
<path fill-rule="evenodd" clip-rule="evenodd" d="M41.3736 407.401C40.7024 407.711 40.255 407.013 40.1151 406.626C38.8566 404.3 42.2126 398.875 44.7296 395.775C44.8994 395.566 45.0663 395.371 45.2301 395.192C44.6773 395.247 44.3096 395.206 44.3096 395.001C44.3096 394.704 44.1249 394.976 43.8498 395.381C43.4069 396.032 42.7297 397.029 42.2121 396.551C41.7872 396.159 41.2548 396.561 40.6693 397.004C40.0985 397.435 39.4773 397.905 38.8561 397.714C38.2923 397.54 38.1495 397.989 37.975 398.537C37.76 399.212 37.4969 400.039 36.3392 400.039C34.8159 400.039 34.8414 399.221 34.8088 399.219C34.7965 399.218 34.776 399.333 34.6612 399.651C34.2417 400.814 32.9832 402.751 32.5637 400.814C32.1442 398.876 32.1445 398.488 33.8229 396.551C35.5017 394.613 36.5822 393.793 40.5341 393.063C41.1657 392.947 43.2796 392.873 45.343 392.802C46.5041 392.762 47.6493 392.722 48.5053 392.676C48.4286 392.676 48.4105 392.629 48.3544 392.485C48.3082 392.366 48.2362 392.181 48.0847 391.901C47.9033 391.565 47.4079 391.448 46.9042 391.328C46.2432 391.171 45.5678 391.01 45.5678 390.351C45.5678 389.811 44.845 389.939 44.0703 390.077C43.1758 390.235 42.2121 390.406 42.2121 389.576C42.2121 388.768 41.4146 388.907 40.5321 389.061C39.721 389.203 38.8381 389.357 38.4363 388.8C38.0426 388.255 37.9261 388.392 37.7399 388.611C37.5294 388.859 37.2297 389.212 36.3392 388.8C35.4802 388.404 35.2807 388.819 35.0655 389.268C34.8603 389.695 34.6409 390.152 33.8218 389.963C33.0912 389.794 32.2014 390.36 31.4643 390.829C30.5086 391.437 29.8095 391.882 30.0464 390.351C30.4659 387.638 30.8865 385.7 36.3392 385.7C42.4609 385.7 46.5958 387.167 47.9753 388.674C47.8572 388.47 47.7464 388.248 47.6663 388.025C47.4571 387.444 47.1423 387.347 46.8274 387.25C46.5125 387.153 46.1975 387.057 45.9876 386.475C45.7526 385.825 45.3868 385.902 45.1101 385.961C44.8923 386.007 44.7299 386.042 44.7299 385.7C44.7299 385.313 44.1004 385.313 43.471 385.313C42.8415 385.313 42.2121 385.313 42.2121 384.925C42.2121 384.538 41.6879 384.538 41.1113 384.538C40.5347 384.538 39.9056 384.538 39.6959 384.15C39.5852 383.946 39.562 383.876 39.557 383.877C39.543 383.881 39.6706 384.435 38.4363 384.15C37.6275 383.963 37.4036 383.686 37.2475 383.493C37.0799 383.285 36.9902 383.175 36.3392 383.375C35.0814 383.763 32.9828 381.825 35.4998 380.275C37.3265 379.15 42.5111 380.27 45.9876 382.302C45.8321 382.015 45.7592 381.821 45.7081 381.685C45.6215 381.454 45.5981 381.392 45.3415 381.33C45.1392 381.281 44.9578 381.258 44.7936 381.236C44.2532 381.166 43.898 381.12 43.5928 380.275C43.3734 379.667 43.039 379.483 42.77 379.334C42.5246 379.199 42.3335 379.094 42.3335 378.724C42.3335 378.425 42.0199 378.415 41.6594 378.403C41.0875 378.384 40.3978 378.362 40.6555 377.174C41.075 375.624 45.27 375.624 46.109 377.561C46.3335 378.08 46.8196 378.515 47.3952 379.031C48.5698 380.082 50.117 381.468 50.5737 384.575C50.8258 379.868 52.4518 375.756 55.217 376.011C58.278 376.294 57.3186 376.99 56.4133 377.647C56.0779 377.89 55.7499 378.128 55.6365 378.337C55.4666 378.651 55.6409 378.711 55.8247 378.774C56.0947 378.866 56.3852 378.965 55.6365 379.887C54.9373 380.749 55.015 381.251 55.0783 381.66L55.0801 381.672C56.1633 380.869 57.4598 380.119 58.9925 379.5C65.7044 376.787 64.4459 380.662 64.0264 381.05C63.6908 381.36 63.0476 381.437 62.768 381.437C62.768 381.566 62.6002 381.902 61.929 382.212C61.2578 382.522 60.8103 382.6 60.6705 382.6C60.3349 383.22 59.1323 383.375 58.573 383.375C58.8527 383.633 58.9086 384.304 56.895 384.925C55.6818 385.299 55.6767 385.363 55.6503 385.693C55.6328 385.911 55.6061 386.246 55.217 386.862C55.217 386.862 55.6365 386.474 61.929 384.149C67.5767 382.062 69.1692 384.033 69.7395 384.74C69.8046 384.82 69.8564 384.884 69.8994 384.924C70.3189 385.311 67.8019 386.474 66.5434 386.474C65.822 386.474 65.5141 386.474 65.2246 386.547C65.0092 386.601 64.804 386.696 64.4459 386.862C64.0264 387.055 63.7118 387.055 63.2923 387.055C62.8728 387.055 62.3485 387.055 61.5095 387.249C60.5457 387.472 60.4123 387.694 60.2348 387.99C60.1033 388.21 59.9476 388.469 59.412 388.799C58.8602 389.139 58.2278 389.181 57.6561 389.219C56.924 389.267 56.2916 389.309 56.056 389.962C55.8031 390.663 55.1345 391.224 54.7351 391.559C54.4719 391.779 54.3257 391.902 54.4923 391.902C54.5061 391.902 54.5191 391.902 54.5316 391.902C54.5585 391.902 54.5828 391.902 54.6072 391.902C54.8349 391.906 55.0619 391.951 57.4137 392.418C58.2206 392.578 59.2776 392.787 60.6705 393.062C66.5443 394.22 70.3189 399.65 69.8994 400.425C69.544 401.081 69.1887 400.904 68.5783 400.598L68.5782 400.598C68.4681 400.543 68.3497 400.484 68.2214 400.425C67.753 400.209 67.6769 400.234 67.482 400.298C67.3278 400.349 67.0994 400.425 66.5434 400.425C65.7456 400.425 65.6222 399.958 65.5318 399.616C65.4796 399.418 65.4385 399.262 65.2849 399.262C65.0752 399.262 64.8654 398.972 64.6557 398.681C64.4459 398.39 64.2362 398.1 64.0264 398.1H64.0259C63.6038 398.1 60.251 398.1 60.251 397.325C60.251 396.55 59.8315 396.163 58.9925 396.163C58.6095 396.163 57.7019 396.163 56.8285 396.089C58.1734 397.256 59.4507 398.541 60.251 399.65C61.929 401.975 63.1875 404.688 62.768 406.625C62.4324 408.175 61.2298 408.305 60.6705 408.175C60.3908 408.046 59.9154 407.633 60.251 407.013C60.6705 406.238 59.8315 405.076 59.412 404.688L59.4106 404.686C58.9916 404.299 58.573 403.911 58.573 402.75C58.573 402.495 58.5932 402.259 58.6114 402.045C58.6763 401.285 58.7166 400.812 57.734 400.812C56.6822 400.812 56.5094 400.271 56.2362 399.415L56.2362 399.414C56.1825 399.246 56.1249 399.066 56.056 398.875C55.865 398.345 55.6739 398.137 55.4828 398.068C56.5452 401.311 57.2195 406.903 57.2195 410.502V419.028C53.4071 421.094 45.7823 419.028 45.7823 419.028C45.7823 419.028 45.0193 406.838 46.2065 399.006C45.9365 399.115 45.6807 398.979 45.5686 398.875C45.9881 400.425 45.1491 401.201 44.7296 401.588C44.4499 401.847 44.1702 401.072 44.1392 400.986C44.1374 400.98 44.1364 400.978 44.1363 400.978C44.1363 400.978 44.1374 400.981 44.1397 400.989C44.1528 401.031 44.2052 401.201 44.3101 401.588C44.6801 402.955 44.0712 404.021 43.6345 404.785C43.576 404.887 43.5206 404.984 43.4711 405.076C43.2381 405.506 43.005 405.339 42.7719 405.172C42.5855 405.038 42.3991 404.904 42.2126 405.076C42.0411 405.234 42.0098 405.587 41.9754 405.976C41.9258 406.537 41.8695 407.172 41.3736 407.401Z" fill="url(#paint2_linear_292_1465)"/>
<path d="M43.5654 385.843C44.9449 386.302 49.3515 389.1 51.3824 390.441L50.9116 392.896C50.9116 392.896 49.6677 393.407 49.3731 393.099L48.9535 392.969C48.8629 392.972 48.7806 392.968 48.7137 392.896C48.355 392.507 47.1936 391.818 47.1936 391.818L26.8969 393.889V386.647C28.0081 386.379 30.5754 385.613 31.9549 384.693C33.6792 383.544 41.8411 385.268 43.5654 385.843Z" fill="#D9D9D9"/>
<path d="M43.5654 385.843C44.9449 386.302 49.3515 389.1 51.3824 390.441L50.9116 392.896C50.9116 392.896 49.6677 393.407 49.3731 393.099L48.9535 392.969C48.8629 392.972 48.7806 392.968 48.7137 392.896C48.355 392.507 47.1936 391.818 47.1936 391.818L26.8969 393.889V386.647C28.0081 386.379 30.5754 385.613 31.9549 384.693C33.6792 383.544 41.8411 385.268 43.5654 385.843Z" fill="url(#paint3_linear_292_1465)"/>
<path d="M58.2907 379.859C50.9142 382.928 48.5748 390.007 49.0011 393.013C50.751 391.757 51.0892 390.964 54.0506 387.936C57.0119 384.907 58.1561 385.984 59.8387 384.84L65.223 381.676L65.5596 378.782C65.7615 377.907 65.6672 376.79 58.2907 379.859Z" fill="#D9D9D9"/>
<path d="M58.2907 379.859C50.9142 382.928 48.5748 390.007 49.0011 393.013C50.751 391.757 51.0892 390.964 54.0506 387.936C57.0119 384.907 58.1561 385.984 59.8387 384.84L65.223 381.676L65.5596 378.782C65.7615 377.907 65.6672 376.79 58.2907 379.859Z" fill="url(#paint4_linear_292_1465)"/>
<path d="M41.3736 407.402C40.7024 407.712 40.255 407.014 40.1151 406.626C38.8566 404.301 42.2126 398.875 44.7296 395.775C46.3676 393.758 47.7466 393.142 48.5051 393.053C49.723 392.95 52.267 392.807 52.7 393.062C53.6453 393.221 54.3483 393.829 54.7498 394.418C55.417 394.912 56.1218 395.477 56.8094 396.073C58.1613 397.244 59.4469 398.536 60.251 399.65C61.929 401.975 63.1875 404.688 62.768 406.626C62.4324 408.176 61.2298 408.305 60.6705 408.176C60.3908 408.047 59.9154 407.633 60.251 407.013C60.6705 406.238 59.8315 405.076 59.412 404.688L59.4107 404.687C58.9916 404.299 58.573 403.912 58.573 402.751C58.573 401.588 58.9925 400.813 57.734 400.813C56.4755 400.813 56.4755 400.038 56.056 398.875C55.6365 397.713 55.217 398.1 54.7975 398.1H54.7966C54.3755 398.1 52.7004 398.1 52.7004 396.938C52.7004 395.775 52.7 395.388 52.7 395.775C52.7 396.085 51.5096 395.995 50.9502 395.478L50.9483 395.477C50.761 395.304 50.183 394.77 50.183 395.388C50.183 396.163 48.9246 397.326 48.5051 397.326C48.0856 397.326 48.0856 396.163 47.6661 396.551C47.2466 396.938 47.2466 397.326 47.2466 397.713C47.2466 398.101 46.8271 398.488 46.4076 398.876L46.4076 398.876C46.072 399.186 45.7084 399.005 45.5686 398.876C45.9881 400.426 45.1491 401.201 44.7296 401.589C44.3101 401.976 43.8906 400.039 44.3101 401.589C44.7296 403.139 43.8906 404.301 43.4711 405.076C43.0516 405.851 42.6321 404.689 42.2126 405.076C41.7931 405.464 42.2126 407.014 41.3736 407.402Z" fill="#252730"/>
<path d="M41.3736 407.402C40.7024 407.712 40.255 407.014 40.1151 406.626C38.8566 404.301 42.2126 398.875 44.7296 395.775C46.3676 393.758 47.7466 393.142 48.5051 393.053C49.723 392.95 52.267 392.807 52.7 393.062C53.6453 393.221 54.3483 393.829 54.7498 394.418C55.417 394.912 56.1218 395.477 56.8094 396.073C58.1613 397.244 59.4469 398.536 60.251 399.65C61.929 401.975 63.1875 404.688 62.768 406.626C62.4324 408.176 61.2298 408.305 60.6705 408.176C60.3908 408.047 59.9154 407.633 60.251 407.013C60.6705 406.238 59.8315 405.076 59.412 404.688L59.4107 404.687C58.9916 404.299 58.573 403.912 58.573 402.751C58.573 401.588 58.9925 400.813 57.734 400.813C56.4755 400.813 56.4755 400.038 56.056 398.875C55.6365 397.713 55.217 398.1 54.7975 398.1H54.7966C54.3755 398.1 52.7004 398.1 52.7004 396.938C52.7004 395.775 52.7 395.388 52.7 395.775C52.7 396.085 51.5096 395.995 50.9502 395.478L50.9483 395.477C50.761 395.304 50.183 394.77 50.183 395.388C50.183 396.163 48.9246 397.326 48.5051 397.326C48.0856 397.326 48.0856 396.163 47.6661 396.551C47.2466 396.938 47.2466 397.326 47.2466 397.713C47.2466 398.101 46.8271 398.488 46.4076 398.876L46.4076 398.876C46.072 399.186 45.7084 399.005 45.5686 398.876C45.9881 400.426 45.1491 401.201 44.7296 401.589C44.3101 401.976 43.8906 400.039 44.3101 401.589C44.7296 403.139 43.8906 404.301 43.4711 405.076C43.0516 405.851 42.6321 404.689 42.2126 405.076C41.7931 405.464 42.2126 407.014 41.3736 407.402Z" fill="url(#paint5_linear_292_1465)"/>
<path d="M58.7862 384.981C53.4351 386.475 49.8676 391.115 48.8997 393.031C50.1613 392.814 52.4525 393.094 53.3292 393.233C53.6653 392.899 54.3044 392.016 54.3805 391.988C54.4566 391.96 54.8361 391.638 55.001 391.55L62.6677 388.39C66.0863 388.601 72.3298 388.215 69.9552 384.98C66.9869 380.938 65.475 383.112 58.7862 384.981Z" fill="#D9D9D9"/>
<path d="M58.7862 384.981C53.4351 386.475 49.8676 391.115 48.8997 393.031C50.1613 392.814 52.4525 393.094 53.3292 393.233C53.6653 392.899 54.3044 392.016 54.3805 391.988C54.4566 391.96 54.8361 391.638 55.001 391.55L62.6677 388.39C66.0863 388.601 72.3298 388.215 69.9552 384.98C66.9869 380.938 65.475 383.112 58.7862 384.981Z" fill="url(#paint6_linear_292_1465)"/>
</g>
<mask id="mask2_292_1465" style="mask-type:alpha" maskUnits="userSpaceOnUse" x="79" y="393" width="16" height="28">
<path d="M80.9928 399.778C81.0737 399.167 81.4783 399.751 82.6408 399.288C82.667 399.278 82.6847 399.252 82.6847 399.224V398.239C82.6847 398.139 82.4789 398.043 82.2562 397.971C82.0294 397.898 81.8596 397.697 81.8596 397.458V396.306C81.8596 396.03 82.0835 395.806 82.3596 395.806H83.707C83.7531 395.806 83.7866 395.762 83.7763 395.717C83.5569 394.757 83.9048 393 86.9759 393C90.0414 393 90.4709 394.621 90.2964 395.511C90.2877 395.556 90.321 395.599 90.3665 395.599H91.6335C91.9097 395.599 92.1335 395.822 92.1335 396.099V397.238C92.1335 397.483 91.9569 397.691 91.7158 397.731L90.9874 397.853C90.9416 397.861 90.9159 397.91 90.9366 397.951C91.1227 398.325 91.4215 398.864 91.3908 399.079C91.3496 399.368 93 398.914 93 400.069C93 403.112 91.6797 401.72 92.1335 402.628C92.2449 402.85 93.0137 402.755 93.4315 403.8C94.7164 407.013 95.2835 414.372 93.8512 415.492C93.7019 415.609 93.5623 415.712 93.4315 415.803V420.542C93.4315 420.581 93.4002 420.612 93.3617 420.612H81.0476C81.0091 420.612 80.9778 420.581 80.9778 420.542V414.828C80.2722 414.541 79.741 414.099 79.4513 413.785C78.9569 413.248 79.2037 406.647 79.4513 405.491C79.6475 404.575 80.5355 403.989 80.9663 403.805C80.9741 403.801 80.9806 403.797 80.9867 403.791C81.2989 403.49 82.2489 402.402 81.5297 402.337C80.6219 402.254 80.9108 400.398 80.9928 399.778Z" fill="url(#paint7_linear_292_1465)"/>
</mask>
<g mask="url(#mask2_292_1465)">
<path d="M80.9928 399.778C81.0737 399.167 81.4783 399.751 82.6408 399.288C82.667 399.278 82.6847 399.252 82.6847 399.224V398.239C82.6847 398.139 82.4789 398.043 82.2562 397.971C82.0294 397.898 81.8596 397.697 81.8596 397.458V396.306C81.8596 396.03 82.0835 395.806 82.3596 395.806H83.707C83.7531 395.806 83.7866 395.762 83.7763 395.717C83.5569 394.757 83.9048 393 86.9759 393C90.0414 393 90.4709 394.621 90.2964 395.511C90.2877 395.556 90.321 395.599 90.3665 395.599H91.6335C91.9097 395.599 92.1335 395.822 92.1335 396.099V397.238C92.1335 397.483 91.9569 397.691 91.7158 397.731L90.9874 397.853C90.9416 397.861 90.9159 397.91 90.9366 397.951C91.1227 398.325 91.4215 398.864 91.3908 399.079C91.3496 399.368 93 398.914 93 400.069C93 403.112 91.6797 401.72 92.1335 402.628C92.2449 402.85 93.0137 402.755 93.4315 403.8C94.7164 407.013 95.2835 414.372 93.8512 415.492C93.7019 415.609 93.5623 415.712 93.4315 415.803V420.542C93.4315 420.581 93.4002 420.612 93.3617 420.612H81.0476C81.0091 420.612 80.9778 420.581 80.9778 420.542V414.828C80.2722 414.541 79.741 414.099 79.4513 413.785C78.9569 413.248 79.2037 406.647 79.4513 405.491C79.6475 404.575 80.5355 403.989 80.9663 403.805C80.9741 403.801 80.9806 403.797 80.9867 403.791C81.2989 403.49 82.2489 402.402 81.5297 402.337C80.6219 402.254 80.9108 400.398 80.9928 399.778Z" fill="url(#paint8_linear_292_1465)"/>
<path d="M84.4742 414.88L82.6971 415.144C82.0968 415.194 81.5283 415.095 81.0419 414.918V419.846C81.0419 420.231 81.3542 420.543 81.7394 420.543H92.8044C93.1896 420.543 93.5019 420.231 93.5019 419.846V416.136C93.5019 415.937 93.5871 415.747 93.7361 415.615L93.9247 415.447C94.1319 415.263 94.2104 414.974 94.1248 414.71L92.4258 409.482L91.1499 406.364C91.0427 406.102 90.7876 405.931 90.5044 405.931H83.2776C82.9412 405.931 82.6523 406.172 82.5914 406.503C82.2167 408.539 82.1648 409.019 82.5937 410.724C82.6559 410.971 82.8511 411.163 83.0987 411.224L84.1912 411.494C84.4154 411.55 84.5971 411.714 84.6823 411.928C85.0993 412.981 85.3734 413.416 85.0005 414.463C84.9197 414.69 84.7125 414.844 84.4742 414.88Z" fill="url(#paint9_linear_292_1465)"/>
<path d="M90.8894 416.265C91.3633 416.673 92.2604 416.733 94.0119 415.397C94.0921 415.336 94.1572 415.257 94.1936 415.163C94.3346 414.798 94.6815 413.69 94.7516 411.462C94.8215 409.243 94.2846 407.838 94.0553 407.345C93.994 407.213 93.8833 407.114 93.7505 407.055L92.4622 406.482C91.9121 406.237 91.3467 406.752 91.5364 407.324C91.9729 408.638 92.2065 409.66 91.7017 411.21C91.6487 411.373 91.5316 411.506 91.3881 411.599C91.0168 411.841 90.2967 412.381 90.061 413.073C89.7432 414.005 89.9779 414.948 90.7997 416.162C90.8253 416.2 90.8547 416.236 90.8894 416.265Z" fill="url(#paint10_linear_292_1465)"/>
</g>
<mask id="mask3_292_1465" style="mask-type:alpha" maskUnits="userSpaceOnUse" x="200" y="391" width="43" height="34">
<path d="M201.189 399.576C199.501 398.645 199.864 398.082 200.72 397.321C201.043 397.034 201.86 396.789 202.771 396.087C203.793 395.299 204.958 393.79 205.646 393.488C205.646 392.413 206.704 391.639 207.299 391.28C207.488 391.165 207.708 391.113 207.929 391.113L208.943 391.113C209.48 391.113 210.005 391.275 210.449 391.577L210.777 391.8C211.172 392.069 211.485 392.439 211.701 392.865C212.903 395.246 215.107 398.952 215.731 399.576C216.587 400.433 217.349 400.813 220.488 400.052C223 399.443 228.563 399.481 230.18 399.576C229.958 399.006 230.37 397.864 233.795 397.864C238.077 397.864 237.159 401.86 239.252 401.86C240.362 401.86 241.332 400.052 241.903 399.576C242.36 399.196 242.793 399.767 242.793 400.052C242.602 402.24 240.14 403.572 237.411 403.572C234.747 403.668 233.32 400.813 232.749 400.052C232.292 399.443 231.29 399.545 230.846 400.052C231.254 404.055 230.846 406.075 229.687 409.238L230.18 414.181L232.364 419.524L233.058 420.838L232.021 422.676L230.846 422.22L231.318 421.01L228.357 415.293L227.814 421.649V422.886H225.343L226.231 421.221L225.911 414.704L224.791 409.238C221.068 409.898 219.018 410.047 215.461 409.728L214.162 412.17L214.446 414.704L215.136 422.886V423.855L213.066 424.383L213.593 422.886L212.687 415.894L211.64 414.181V409.728L211.069 410.518L209.037 414.181V420.062L208.652 421.649L206.636 422.22V421.649L207.302 420.413V413.848C207.302 412.782 208.911 407.617 209.767 406.075L209.357 401.86L207.847 397.864C207.386 397.864 207.141 398.797 206.369 398.769C205.597 398.741 204.353 399.033 203.21 400.052C202.809 400.41 201.881 399.832 201.189 399.576Z" fill="url(#paint11_linear_292_1465)"/>
</mask>
<g mask="url(#mask3_292_1465)">
<path d="M201.189 399.576C199.501 398.645 199.864 398.082 200.72 397.321C201.043 397.034 201.86 396.789 202.771 396.087C203.793 395.299 204.958 393.79 205.646 393.488C205.646 392.413 206.704 391.639 207.299 391.28C207.488 391.165 207.708 391.113 207.929 391.113L208.943 391.113C209.48 391.113 210.005 391.275 210.449 391.577L210.777 391.8C211.172 392.069 211.485 392.439 211.701 392.865C212.903 395.246 215.107 398.952 215.731 399.576C216.587 400.433 217.349 400.813 220.488 400.052C223 399.443 228.563 399.481 230.18 399.576C229.958 399.006 230.37 397.864 233.795 397.864C238.077 397.864 237.159 401.86 239.252 401.86C240.362 401.86 241.332 400.052 241.903 399.576C242.36 399.196 242.793 399.767 242.793 400.052C242.602 402.24 240.14 403.572 237.411 403.572C234.747 403.668 233.32 400.813 232.749 400.052C232.292 399.443 231.29 399.545 230.846 400.052C231.254 404.055 230.846 406.075 229.687 409.238L230.18 414.181L232.364 419.524L233.058 420.838L232.021 422.676L230.846 422.22L231.318 421.01L228.357 415.293L227.814 421.649V422.886H225.343L226.231 421.221L225.911 414.704L224.791 409.238C221.068 409.898 219.018 410.047 215.461 409.728L214.162 412.17L214.446 414.704L215.136 422.886V423.855L213.066 424.383L213.593 422.886L212.687 415.894L211.64 414.181V409.728L211.069 410.518L209.037 414.181V420.062L208.652 421.649L206.636 422.22V421.649L207.302 420.413V413.848C207.302 412.782 208.911 407.617 209.767 406.075L209.357 401.86L207.847 397.864C207.386 397.864 207.141 398.797 206.369 398.769C205.597 398.741 204.353 399.033 203.21 400.052C202.809 400.41 201.881 399.832 201.189 399.576Z" fill="url(#paint12_linear_292_1465)"/>
<path d="M211.53 409.721L209.592 405.291H205.37L203.224 423.494C205.993 423.701 211.53 423.992 211.53 423.494V409.721Z" fill="url(#paint13_linear_292_1465)"/>
<path d="M228.954 410.844C228.91 410.622 230.491 407.589 230.935 406.351L236.049 423.481H230.229L228.954 419.545L228.289 415.444C228.529 414.003 228.999 411.065 228.954 410.844Z" fill="url(#paint14_linear_292_1465)"/>
<path d="M206.905 392.715C206.601 392.943 205.954 393.38 205.447 393.57L205.042 389.442L212.739 388.777L218.44 398.375C218.852 398.881 219.429 400.028 218.44 400.56C217.452 401.092 215.511 400.913 214.814 400.692L209.885 393.702L209.297 392.972V391.316C209.297 391.316 208.002 392.603 207.839 392.595C207.436 392.576 207.06 392.599 206.905 392.715Z" fill="#D9D9D9"/>
<path d="M206.905 392.715C206.601 392.943 205.954 393.38 205.447 393.57L205.042 389.442L212.739 388.777L218.44 398.375C218.852 398.881 219.429 400.028 218.44 400.56C217.452 401.092 215.511 400.913 214.814 400.692L209.885 393.702L209.297 392.972V391.316C209.297 391.316 208.002 392.603 207.839 392.595C207.436 392.576 207.06 392.599 206.905 392.715Z" fill="url(#paint15_linear_292_1465)"/>
<path d="M231.058 400.269C230.726 399.912 230.45 399.692 230.051 399.521L228.982 395.459L243.94 396.243V404.861L234.253 405.431L231.058 400.269Z" fill="url(#paint16_linear_292_1465)"/>
<path d="M207.836 397.866C207.993 397.779 209.815 397.562 209.478 396.118C209.478 396.118 209.274 395.488 208.39 394.881C207.098 393.991 204.462 394.312 203.317 394.031L198.221 397.446L198.799 400.231H204.053C204.347 400.231 206.697 398.654 207.836 397.866Z" fill="url(#paint17_linear_292_1465)"/>
</g>
</g>
<defs>
<linearGradient id="paint0_linear_292_1465" x1="133" y1="-16.001" x2="133" y2="852.999" gradientUnits="userSpaceOnUse">
<stop stop-color="#619EC9"/>
<stop offset="0.400742" stop-color="#619EC9" stop-opacity="0.691125"/>
<stop offset="1" stop-color="#619EC9" stop-opacity="0"/>
</linearGradient>
<linearGradient id="paint1_linear_292_1465" x1="49.973" y1="376" x2="49.973" y2="419.946" gradientUnits="userSpaceOnUse">
<stop stop-color="#619EC9"/>
<stop offset="0.614435" stop-color="#446F8E"/>
<stop offset="1"/>
</linearGradient>
<linearGradient id="paint2_linear_292_1465" x1="49.973" y1="354.5" x2="49.973" y2="419.946" gradientUnits="userSpaceOnUse">
<stop offset="0.101136" stop-color="#324455"/>
<stop offset="0.685737" stop-color="#446F8E"/>
<stop offset="1" stop-color="#252730"/>
</linearGradient>
<linearGradient id="paint3_linear_292_1465" x1="51.3824" y1="381.97" x2="46.6296" y2="410.784" gradientUnits="userSpaceOnUse">
<stop stop-color="#619EC9"/>
<stop offset="1" stop-color="#252730"/>
</linearGradient>
<linearGradient id="paint4_linear_292_1465" x1="65.608" y1="374.182" x2="50.2224" y2="414.692" gradientUnits="userSpaceOnUse">
<stop stop-color="#619EC9"/>
<stop offset="1" stop-color="#252730"/>
</linearGradient>
<linearGradient id="paint5_linear_292_1465" x1="54.8939" y1="372.904" x2="54.8939" y2="408.214" gradientUnits="userSpaceOnUse">
<stop stop-color="#619EC9"/>
<stop offset="0.359435" stop-color="#5183A7"/>
<stop offset="1" stop-color="#252730"/>
</linearGradient>
<linearGradient id="paint6_linear_292_1465" x1="75.6909" y1="382.693" x2="50.9108" y2="400.926" gradientUnits="userSpaceOnUse">
<stop stop-color="#619EC9"/>
<stop offset="0.62381" stop-color="#385B74"/>
<stop offset="1" stop-color="#252730"/>
</linearGradient>
<linearGradient id="paint7_linear_292_1465" x1="86.9294" y1="383.193" x2="86.9294" y2="423.389" gradientUnits="userSpaceOnUse">
<stop stop-color="#619EC9"/>
<stop offset="0.0709693" stop-color="#486C89"/>
<stop offset="1" stop-color="#252730"/>
</linearGradient>
<linearGradient id="paint8_linear_292_1465" x1="86.9294" y1="383.193" x2="86.9294" y2="423.389" gradientUnits="userSpaceOnUse">
<stop stop-color="#619EC9"/>
<stop offset="0.0709693" stop-color="#486C89"/>
<stop offset="1" stop-color="#252730"/>
</linearGradient>
<linearGradient id="paint9_linear_292_1465" x1="86.9587" y1="404.778" x2="86.9587" y2="420.842" gradientUnits="userSpaceOnUse">
<stop stop-color="#395D76" stop-opacity="0"/>
<stop offset="0.226373" stop-color="#3A5F78" stop-opacity="0.952191"/>
<stop offset="0.522146" stop-color="#3C617B" stop-opacity="0.877494"/>
<stop offset="1" stop-color="#619EC9" stop-opacity="0"/>
</linearGradient>
<linearGradient id="paint10_linear_292_1465" x1="92.0279" y1="406.791" x2="91.8768" y2="416.506" gradientUnits="userSpaceOnUse">
<stop offset="0.0001" stop-color="#364759"/>
<stop offset="1" stop-color="#252730"/>
</linearGradient>
<linearGradient id="paint11_linear_292_1465" x1="211.481" y1="385.001" x2="220.188" y2="424.694" gradientUnits="userSpaceOnUse">
<stop stop-color="#619EC9"/>
<stop offset="0.614435" stop-color="#446F8E"/>
<stop offset="1"/>
</linearGradient>
<linearGradient id="paint12_linear_292_1465" x1="220" y1="377.5" x2="221" y2="428" gradientUnits="userSpaceOnUse">
<stop stop-color="#619EC9"/>
<stop offset="0.502278" stop-color="#446F8E"/>
<stop offset="1" stop-color="#252730"/>
</linearGradient>
<linearGradient id="paint13_linear_292_1465" x1="213.051" y1="388.065" x2="205.478" y2="449.164" gradientUnits="userSpaceOnUse">
<stop stop-color="#252730"/>
<stop offset="0.88262" stop-color="#5183A7"/>
<stop offset="1" stop-color="#619EC9"/>
</linearGradient>
<linearGradient id="paint14_linear_292_1465" x1="228.289" y1="450.195" x2="232.169" y2="394.684" gradientUnits="userSpaceOnUse">
<stop stop-color="#619EC9"/>
<stop offset="0.34515" stop-color="#5183A7"/>
<stop offset="1" stop-color="#252730"/>
</linearGradient>
<linearGradient id="paint15_linear_292_1465" x1="222.352" y1="388.777" x2="201.298" y2="397.513" gradientUnits="userSpaceOnUse">
<stop stop-color="#619EC9"/>
<stop offset="0.62381" stop-color="#385B74"/>
<stop offset="1" stop-color="#252730"/>
</linearGradient>
<linearGradient id="paint16_linear_292_1465" x1="228.982" y1="420.982" x2="229.669" y2="394.518" gradientUnits="userSpaceOnUse">
<stop stop-color="#619EC9"/>
<stop offset="0.34515" stop-color="#5183A7"/>
<stop offset="1" stop-color="#252730"/>
</linearGradient>
<linearGradient id="paint17_linear_292_1465" x1="208.315" y1="394.693" x2="197.298" y2="410.728" gradientUnits="userSpaceOnUse">
<stop offset="0.0121864" stop-color="#619EC9" stop-opacity="0"/>
<stop offset="0.369572" stop-color="#385B74"/>
<stop offset="1" stop-color="#252730"/>
</linearGradient>
</defs>
</svg>
