<svg width="168" height="134" viewBox="0 0 168 134" fill="none" xmlns="http://www.w3.org/2000/svg">
<path d="M82.7186 11.5446C155.625 -0.00262884 154.612 61.9319 150.676 89.5986C149.559 97.4502 143.184 103.214 135.351 104.455L61.3735 116.172C53.5404 117.412 45.696 113.901 42.2072 106.778C29.9141 81.6821 9.8123 23.0918 82.7186 11.5446Z" fill="#FF5246"/>
<path d="M44.3967 26.0618L19.6474 23.3349L18.8211 28.0956L45.605 29.4453L45.1887 26.817C45.1251 26.4156 44.8008 26.1063 44.3967 26.0618Z" fill="white"/>
<path d="M14.9116 59.5287L17.6665 23.9495C17.75 22.4487 18.9008 22.0297 19.693 22.0902L43.9336 23.8206C44.4267 23.8549 44.8217 24.2444 44.8456 24.7382C44.8669 25.1789 44.8798 25.6863 44.8497 25.9927C44.8408 26.0831 44.7568 26.1428 44.6664 26.1341C35.3782 25.2492 29.9008 24.9772 20.7472 24.114C20.3992 24.0812 20.0984 24.3597 20.1078 24.7091L20.1687 26.9748C20.1712 27.0683 20.2448 27.1443 20.3381 27.15L45.3741 28.6673C45.8122 28.6939 46.1472 29.0685 46.1246 29.5069L44.4717 61.6816C44.455 62.0075 44.1736 62.2559 43.8482 62.2321L15.449 60.1576C15.1261 60.1341 14.8845 59.8513 14.9116 59.5287Z" fill="#E91F3C"/>
<path d="M73.4347 53.0988C62.6234 56.6281 50.0447 66.5285 45.827 74.4833C45.6621 74.7942 45.2061 74.7976 45.0534 74.4807C42.5883 69.3654 38.5056 60.8252 36.6805 59.8875C34.882 58.9634 22.0201 64.0016 14.6023 67.1413C13.7856 67.487 13.3901 68.4191 13.7056 69.246C23.1817 94.0902 36.706 106.053 50.8744 101.236C62.296 97.3536 66.5712 91.8453 67.861 89.7082C67.9587 89.5463 68.2904 89.6383 68.2806 89.827C68.2019 91.3438 68.0611 94.242 68.0213 96.2779C67.9652 99.1517 67.3413 112.017 71.3705 119.098C75.3997 126.179 109.259 121.024 113.355 112.314C116.932 104.706 114.495 87.0136 113.804 82.6261C113.774 82.4399 114.048 82.3461 114.146 82.5068C116.095 85.6816 118.441 87.4121 122.915 88.7926C129.371 90.785 141.579 90.1042 148.229 88.3227C148.734 88.1874 148.968 87.6216 148.726 87.159C147.53 84.8711 144.403 78.808 143.819 76.8569C143.093 74.4339 143.062 69.152 140.609 69.4069C137.177 69.7636 130.745 68.8951 129.871 68.0085C128.997 67.122 124.751 59.7712 120.673 56.5587C116.595 53.3463 113.856 51.7723 105.848 48.9333C97.8402 46.0943 84.6055 49.452 73.4347 53.0988Z" fill="#097646"/>
<path fill-rule="evenodd" clip-rule="evenodd" d="M66.0636 99.6779C65.5625 92.782 66.0341 85.4856 67.6052 80.0317L70.0075 80.7238C68.5433 85.8065 68.0695 92.7876 68.557 99.4966C69.0467 106.235 70.4895 112.466 72.6888 116.136L70.5443 117.421C68.0426 113.246 66.5626 106.545 66.0636 99.6779Z" fill="#252730"/>
<path fill-rule="evenodd" clip-rule="evenodd" d="M97.8741 50.038C96.6482 52.3604 94.4891 54.1804 91.7483 54.8974C87.9762 55.884 84.1418 54.5096 81.8107 51.6905C81.6423 51.7581 81.4678 51.8158 81.2876 51.863C78.9665 52.4701 76.5928 51.0807 75.9856 48.7596C75.3785 46.4386 76.7679 44.0648 79.089 43.4577C79.3388 43.3923 79.5893 43.3501 79.8381 43.3297C80.6257 39.9295 83.227 37.0703 86.838 36.1258C91.6755 34.8604 96.6155 37.4783 98.3557 42.0465C100.396 41.7405 102.381 43.0165 102.915 45.0577C103.487 47.2433 102.178 49.4785 99.9926 50.0502C99.2713 50.2389 98.5446 50.2228 97.8741 50.038Z" fill="#FFA1A8"/>
<path d="M83.4213 40.3614C82.9412 45.5913 80.7058 45.0293 79.0717 45.8694C79.0053 45.9035 78.9225 45.8624 78.9101 45.7887C77.5078 37.4344 82.9803 34.1147 87.7865 33.5201C95.4492 32.572 98.3136 38.7338 99.106 42.1314C99.106 42.1314 98.8605 42.4284 98.2211 42.7774C97.5818 43.1265 95.5993 43.328 93.6682 42.8207C92.9176 42.6235 92.2154 42.4893 91.2333 41.9209C91.1866 41.8939 91.1329 41.9444 91.1582 41.9921C91.71 43.0304 92.1039 43.1477 92.0699 43.4119C91.9783 44.1226 89.6058 43.9384 88.3362 43.6075C86.2183 43.3093 84.1797 41.9282 83.4213 40.3614Z" fill="#252730"/>
<path d="M89.0736 46.8965C89.1628 47.6986 88.6629 48.4124 87.9571 48.4909C87.2513 48.5694 86.6068 47.9828 86.5176 47.1808C86.4284 46.3787 86.9283 45.6649 87.6341 45.5864C88.3399 45.5079 88.9844 46.0945 89.0736 46.8965Z" fill="#252730"/>
<path d="M93.5307 46.3364C93.6206 47.1441 93.1212 47.8624 92.4154 47.9409C91.7096 48.0194 91.0646 47.4283 90.9748 46.6206C90.8849 45.813 91.3843 45.0946 92.0901 45.0161C92.7959 44.9376 93.4409 45.5287 93.5307 46.3364Z" fill="#252730"/>
<path d="M6.62054 58.3438C5.2787 49.8717 10.2466 42.237 17.9016 41.0246C25.5567 39.8121 35.1028 39.675 36.0908 42.1518C36.947 44.298 38.379 46.8791 36.328 47.7384L36.3606 49.8709C36.3606 49.8709 36.9465 49.8749 37.0718 50.1507C37.6738 51.4761 38.2441 54.5967 37.6739 55.4634C37.4505 55.8029 37.1928 55.6282 36.9151 55.7842C36.5999 55.9612 37.1163 57.6305 37.2382 57.8242C37.8646 58.2595 38.5372 57.5978 38.919 60.008C39.4121 63.1215 39.8181 63.5532 38.2484 64.2026C37.2465 64.6171 38.0645 65.7653 38.949 66.0067C39.4501 66.1434 39.7082 66.5774 39.7302 66.7164C40.1354 69.2749 40.8696 69.887 39.1093 71.7691C37.3489 73.6512 36.84 74.4996 33.9105 75.4981C30.9809 76.4965 22.3292 78.2073 19.7284 77.7443C17.1277 77.2813 9.93886 79.2948 6.62054 58.3438Z" fill="#FFA1A8"/>
<path fill-rule="evenodd" clip-rule="evenodd" d="M23.9288 47.8611L36.3312 47.7289L36.3941 49.8708L23.9957 49.9357L23.9288 47.8611Z" fill="#252730"/>
<path fill-rule="evenodd" clip-rule="evenodd" d="M25.066 57.6171L36.9783 55.7304L37.2999 57.8431L25.3727 59.6359L25.066 57.6171Z" fill="#252730"/>
<path fill-rule="evenodd" clip-rule="evenodd" d="M26.5934 65.9941L38.3462 64.1327L38.988 66.0148L27.0608 67.8076L26.5934 65.9941Z" fill="#252730"/>
<path d="M8.2947 32.366C4.7988 34.8644 5.42762 44.5485 5.70993 50.9471C5.99224 57.3457 8.94912 70.7856 9.67529 69.147L13.1463 48.3925C14.1031 46.4424 16.815 42.849 17.2251 41.3406C17.5758 40.0511 16.7708 34.6871 15.939 33.2202C15.1071 31.7532 12.6646 29.243 8.2947 32.366Z" fill="#FFA1A8"/>
<path d="M160.309 74.5747C160.146 69.4015 156.196 65.443 151.341 65.5963C146.487 65.7496 140.463 66.7365 140.275 68.3358C140.086 69.9351 139.418 71.3977 140.781 71.6733L141.01 72.9408C141.01 72.9408 140.65 73.0098 140.605 73.1876C140.389 74.0415 140.403 75.9557 140.855 76.4043C141.032 76.5801 141.17 76.4473 141.36 76.508C141.574 76.577 141.451 77.625 141.399 77.7538C141.064 78.083 140.573 77.7675 140.619 79.2393C140.679 81.1404 140.48 81.4425 141.522 81.6486C142.187 81.7801 141.818 82.5536 141.301 82.7974C141.009 82.9355 140.901 83.2221 140.903 83.307C140.953 84.8692 140.572 85.3156 141.876 86.2304C143.179 87.1453 143.592 87.5901 145.512 87.8481C147.432 88.1061 152.615 88.2611 154.505 87.5641C156.395 86.867 160.713 87.368 160.309 74.5747Z" fill="#FFA1A8"/>
<path fill-rule="evenodd" clip-rule="evenodd" d="M148.43 70.3364L140.779 71.6706L140.991 72.947L148.631 71.5734L148.43 70.3364Z" fill="#252730"/>
<path fill-rule="evenodd" clip-rule="evenodd" d="M148.869 76.2483L141.315 76.4869L141.364 77.7755L148.916 77.4795L148.869 76.2483Z" fill="#252730"/>
<path fill-rule="evenodd" clip-rule="evenodd" d="M148.911 81.3848L141.458 81.6202L141.283 82.8086L148.835 82.5126L148.911 81.3848Z" fill="#252730"/>
</svg>
