<svg width="176" height="146" viewBox="0 0 176 146" fill="none" xmlns="http://www.w3.org/2000/svg">
<path fill-rule="evenodd" clip-rule="evenodd" d="M166.041 69.9903C163.081 81.0373 154.688 89.1779 144.508 92.308C144.405 92.7511 144.294 93.1941 144.176 93.6369C138.529 114.709 116.87 127.214 95.7982 121.568C89.1966 119.799 83.4358 116.458 78.8106 112.056C75.9741 111.834 73.1178 111.349 70.2705 110.586C62.4072 108.479 55.5465 104.498 50.0402 99.2527C43.9985 103.758 36.0279 105.552 28.1833 103.45C14.58 99.8053 6.50711 85.8227 10.1521 72.2193C13.3999 60.0985 24.8547 52.3684 36.9357 53.4058C36.9687 53.2783 37.0023 53.1508 37.0365 53.0234C43.7547 27.9505 69.5266 13.0711 94.5995 19.7894C104.119 22.3401 112.169 27.6375 118.126 34.6005C125.396 30.0416 134.47 28.4021 143.413 30.7985C160.484 35.3726 170.615 52.9194 166.041 69.9903Z" fill="#FFADCB"/>
<path d="M58.8221 41.2606C59.9656 36.9929 64.3523 34.4602 68.62 35.6038L127.542 51.3917C131.809 52.5353 134.342 56.9219 133.198 61.1897L123.104 98.8608C121.961 103.129 117.574 105.661 113.306 104.518L54.385 88.7297C50.1173 87.5861 47.5846 83.1994 48.7281 78.9317L58.8221 41.2606Z" fill="#71B9FF"/>
<path d="M106.786 53.4585C105.072 59.8565 98.4956 63.6533 92.0977 61.9389C85.6998 60.2246 81.903 53.6484 83.6173 47.2505C85.3316 40.8525 91.9078 37.0557 98.3058 38.7701C104.704 40.4844 108.5 47.0606 106.786 53.4585Z" fill="#FFA1A8"/>
<path d="M103.131 45.8469C99.977 46.7281 91.4366 43.1967 87.3907 41.3708C87.2392 41.3025 87.1469 41.1477 87.1725 40.9834C87.8522 36.6143 97.8109 33.9366 104.673 40.0915C111.678 46.3746 108.151 53.3605 106.221 52.8434C104.677 52.4297 103.517 48.0067 103.131 45.8469Z" fill="#252730"/>
<path d="M114.183 41.2468C109.974 40.4476 107.375 42.8455 106.602 44.1443C105.786 45.1584 107.881 45.7186 110.645 48.102C113.409 50.4854 123.459 49.4818 124.766 47.7784C126.073 46.075 121.003 45.9494 120.018 44.864C119.033 43.7786 119.444 42.2457 114.183 41.2468Z" fill="#252730"/>
<path d="M94.0374 46.4802C93.8037 47.2144 93.1277 47.6548 92.5275 47.4638C91.9273 47.2728 91.6302 46.5227 91.8639 45.7884C92.0975 45.0542 92.7736 44.6138 93.3738 44.8049C93.974 44.9959 94.2711 45.746 94.0374 46.4802Z" fill="#252730"/>
<path d="M99.8328 49.5895C99.6146 50.2752 98.9511 50.6762 98.3509 50.4852C97.7507 50.2941 97.4411 49.5834 97.6593 48.8978C97.8775 48.2121 98.541 47.8111 99.1412 48.0021C99.7414 48.1932 100.051 48.9039 99.8328 49.5895Z" fill="#252730"/>
<path d="M42.7158 56.9135C36.145 72.6244 35.3493 98.4693 40.5644 110.727C48.8206 125.028 64.3196 121.097 67.4002 118.205C69.5516 116.442 67.5899 115.993 82.0407 119.865C100.104 124.705 111.119 127.657 119.616 122.378C128.114 117.099 139.225 77.7769 132.104 67.5217C124.984 57.2666 116.726 57.3841 105.712 54.4329C102.756 53.6407 89.9137 56.2168 85.4513 55.0211C82.2407 54.1609 87.6003 49.5799 84.247 48.6813C74.8961 46.1758 69.0688 44.7358 64.062 44.2172C59.0551 43.6986 49.2865 41.2025 42.7158 56.9135Z" fill="#266EB4"/>
<path fill-rule="evenodd" clip-rule="evenodd" d="M65.2483 77.1067C70.6934 72.2022 76.7064 66.6654 80.5809 63.064L82.283 64.8952C78.4021 68.5024 72.3791 74.0485 66.9214 78.9642C64.1931 81.4217 61.6018 83.7254 59.4884 85.5519C57.4009 87.356 55.7152 88.7513 54.8329 89.3423L53.4417 87.2652C54.1707 86.7769 55.7331 85.4931 57.8537 83.6604C59.9484 81.8501 62.5253 79.5593 65.2483 77.1067Z" fill="#252730"/>
<path fill-rule="evenodd" clip-rule="evenodd" d="M78.2586 102.602C83.3323 95.3637 87.5397 87.4348 89.0508 82.6616L91.4385 83.4216C89.8152 88.5491 85.4454 96.7234 80.2984 104.066C77.7162 107.75 74.911 111.264 72.1192 114.11C69.3493 116.933 66.5015 119.195 63.8253 120.245C62.5419 120.748 60.4208 121.109 58.0636 121.094C55.6876 121.078 52.9949 120.643 50.4003 119.618L51.4646 117.228C53.5785 118.172 55.9624 118.533 58.1013 118.547C60.2591 118.562 62.0423 118.222 62.9381 117.871C65.1162 117.016 67.6617 115.061 70.349 112.321C73.0144 109.604 75.7305 106.208 78.2586 102.602Z" fill="#252730"/>
<path d="M81.9402 44.0008C78.4372 44.7176 76.7422 55.1621 76.3326 60.2948C76.0423 66.0106 77.9661 72.7353 84.5029 76.1423C91.0397 79.5493 100.211 76.2126 102.066 75.468C103.921 74.7235 104.514 74.0546 104.928 72.5101C105.259 71.2744 102.956 70.6021 101.763 70.4204C104.184 70.6551 104.88 69.6001 105.294 68.055C105.625 66.8189 102.738 66.2666 101.253 66.145C105.322 66.408 105.556 63.9871 105.377 63.1113C105.234 62.4107 101.594 61.2698 99.7919 60.787C101.638 60.5918 104.408 59.6234 106.901 58.9671C110.018 58.1468 112.482 57.0199 110.834 53.6688C110.289 52.5607 107.506 52.1342 102.454 52.3947C98.1891 52.6146 95.8862 52.4361 91.7942 53.1591C90.7156 53.3496 87.7605 54.5328 86.4712 54.5265C86.2827 54.5256 86.1584 54.3565 86.1699 54.1684C86.2857 52.2817 86.5967 49.7077 86.6224 48.1525C86.6432 46.8885 86.319 43.1047 81.9402 44.0008Z" fill="#EA7E85"/>
<path d="M84.7423 64.6435C84.3334 59.1435 88.0736 54.5046 93.2346 54.1209C98.3956 53.7372 104.889 54.1052 105.269 55.7787C105.649 57.4521 106.521 58.9267 105.108 59.3721L105.008 60.7409C105.008 60.7409 105.397 60.7736 105.465 60.9568C105.79 61.8374 105.991 63.8672 105.562 64.3935C105.394 64.5996 105.233 64.4745 105.039 64.5601C104.819 64.6574 105.067 65.7541 105.137 65.8846C105.529 66.1958 106.014 65.8062 106.131 67.3709C106.281 69.3921 106.526 69.6898 105.445 70.0254C104.755 70.2396 105.234 71.0177 105.808 71.2179C106.134 71.3313 106.281 71.6228 106.287 71.7131C106.411 73.374 106.864 73.8042 105.586 74.9202C104.308 76.0362 103.921 76.554 101.915 77.0434C99.9095 77.5328 94.4347 78.2802 92.3536 77.7542C90.2725 77.2283 85.7535 78.2449 84.7423 64.6435Z" fill="#EA7E85"/>
<path fill-rule="evenodd" clip-rule="evenodd" d="M96.8534 58.816L105.11 59.3689L105.03 60.7451L96.7794 60.1493L96.8534 58.816Z" fill="#252730"/>
<path fill-rule="evenodd" clip-rule="evenodd" d="M97.0532 65.1263L105.084 64.5292L105.178 65.9002L97.142 66.4362L97.0532 65.1263Z" fill="#252730"/>
<path fill-rule="evenodd" clip-rule="evenodd" d="M97.5864 70.5762L105.51 69.9871L105.829 71.2266L97.7937 71.7627L97.5864 70.5762Z" fill="#252730"/>
</svg>
