<svg width="270" height="423" viewBox="0 0 270 423" fill="none" xmlns="http://www.w3.org/2000/svg">
<path d="M20 0C8.95431 0 0 8.95431 0 20V368C0 379.046 8.95431 388 20 388H76C82.0131 388 86.8178 393.045 86.5742 399.103L85.7029 420.774C85.6193 422.854 88.2356 423.812 89.4948 422.163L109.229 396.321C113.236 391.074 119.432 388 126 388H250C261.046 388 270 379.046 270 368V20C270 8.9543 261.046 0 250 0H20Z" fill="url(#paint0_linear_644_7107)"/>
<g clip-path="url(#clip0_644_7107)">
<path d="M49.2238 389.878C49.2237 382.355 48.2831 376.006 52.0441 366.602H54.3929C58.1553 376.006 57.2153 382.355 57.2153 389.878H49.2238Z" fill="url(#paint1_linear_644_7107)"/>
<path d="M53.0145 364.373C53.0145 364.373 48.4403 365.183 43.6144 365.47C39.6932 365.702 38.691 366.645 36.9224 367.589C36.4022 367.866 35.5075 368.805 34.8883 368.745C33.7371 368.635 34.8995 364.415 37.6752 362.466C42.7514 358.901 48.9819 359.124 51.4624 359.682C52.2389 357.116 53.908 354.966 57.3526 353.385C60.7779 351.812 66.2549 353.483 63.3593 354.599C60.7272 355.613 53.7402 363.422 53.0145 364.373Z" fill="url(#paint2_linear_644_7107)"/>
<path d="M42.7011 355.202C49.1548 354.488 52.1048 360.024 52.6424 361.611C58.9721 353.786 65.8107 357.56 68.0509 359.086C73.1334 363.774 71.2741 369.845 69.8195 367.939C65.7921 362.008 61.2807 362.885 59.5913 363.546C59.9116 363.635 63.7702 364.226 65.4736 367.585C67.8159 372.202 65.9286 376.431 64.7495 376.31C63.8063 376.213 63.5155 374.534 63.0989 373.365C62.7626 372.421 61.8549 370.91 60.2169 369.75C56.6125 367.198 54.7375 368.294 53.2176 369.424C52.6065 369.14 50.1291 366.97 46.2382 369.424C42.9368 371.507 43.2896 376.314 41.9935 376.314C40.5786 376.314 38.5068 372.067 39.9891 368.293C41.2861 364.991 44.0344 363.422 45.6682 363.128C43.5263 360.223 39.9715 359.449 36.7965 359.086C36.5009 359.053 36.1153 358.977 36.0394 358.703C35.7812 357.769 39.1428 355.596 42.7011 355.202Z" fill="url(#paint3_linear_644_7107)"/>
</g>
<g clip-path="url(#clip1_644_7107)">
<mask id="mask0_644_7107" style="mask-type:alpha" maskUnits="userSpaceOnUse" x="198" y="363" width="38" height="31">
<path d="M199.448 371.855C197.983 371.046 198.298 370.557 199.041 369.897C199.321 369.648 200.03 369.436 200.821 368.826C201.708 368.142 202.719 366.832 203.316 366.57C203.316 365.637 204.362 364.326 204.878 364.014C205.298 363.761 206.013 363.646 206.537 363.646C208.012 363.647 208.737 364.696 208.93 365.167C209.974 367.233 211.646 370.965 212.188 371.507C212.931 372.25 213.473 372.928 216.198 372.267C218.378 371.739 223.206 371.772 224.609 371.855C224.417 371.359 224.775 370.368 227.747 370.368C231.463 370.368 230.666 373.836 232.483 373.836C233.446 373.836 234.288 372.267 234.784 371.855C235.18 371.524 235.556 372.019 235.556 372.267C235.391 374.167 233.254 375.323 230.885 375.323C228.573 375.405 227.334 372.928 226.839 372.267C226.443 371.739 225.573 371.827 225.187 372.267C225.542 375.741 225.187 377.495 224.182 380.24L224.609 384.53L226.505 389.167L227.107 390.307L226.207 391.903L225.187 391.507L225.597 390.457L223.027 385.495L222.556 391.012V392.085H220.411L221.182 390.64L220.905 384.984L220.113 381.122C220.013 380.631 219.539 380.311 219.044 380.392C216.552 380.801 214.891 380.901 212.446 380.716C212.075 380.688 211.721 380.879 211.546 381.207L210.842 382.531C210.754 382.696 210.718 382.883 210.739 383.069L210.954 384.984L211.553 392.085V392.926L209.756 393.384L210.214 392.085L209.452 386.212C209.435 386.083 209.392 385.959 209.324 385.848L208.518 384.53V380.665L208.023 381.351L206.376 384.321C206.299 384.458 206.259 384.612 206.259 384.769V389.634L205.925 391.012L204.175 391.507V391.012L204.753 389.938V384.241C204.753 383.316 206.15 378.833 206.893 377.495L206.537 373.836C206.537 373.836 205.753 370.82 205.288 370.408C205.251 370.375 205.202 370.366 205.152 370.37C204.43 370.42 202.69 371.464 201.594 371.902C200.928 372.169 200.049 372.076 199.448 371.855Z" fill="url(#paint4_linear_644_7107)"/>
</mask>
<g mask="url(#mask0_644_7107)">
<path d="M199.448 371.861C197.983 371.052 198.298 370.563 199.041 369.903C199.321 369.654 200.03 369.442 200.821 368.833C201.708 368.148 202.719 366.838 203.316 366.576C203.316 365.643 204.235 364.972 204.751 364.66C204.915 364.561 205.106 364.516 205.298 364.516L206.178 364.516C206.644 364.516 207.099 364.656 207.485 364.918L207.769 365.112C208.112 365.345 208.384 365.666 208.571 366.036C209.615 368.102 211.646 371.355 212.188 371.897C212.931 372.64 213.712 372.557 216.437 371.897C218.617 371.368 223.206 371.778 224.609 371.861C224.417 371.365 224.775 370.375 227.747 370.375C231.463 370.375 230.666 373.843 232.483 373.843C233.446 373.843 234.288 372.274 234.784 371.861C235.18 371.531 235.556 372.026 235.556 372.274C235.391 374.173 233.254 375.329 230.885 375.329C228.573 375.412 227.334 372.934 226.839 372.274C226.443 371.745 225.573 371.833 225.187 372.274C225.542 375.748 225.187 377.501 224.182 380.246L224.609 384.536L226.505 389.174L227.107 390.314L226.207 391.909L225.187 391.514L225.597 390.464L223.027 385.502L222.556 391.018V392.092H220.411L221.182 390.646L220.905 384.99L220.475 382.894C220.173 381.42 218.755 380.479 217.261 380.653C215.833 380.818 214.585 380.853 213.058 380.764C212.316 380.72 211.607 381.099 211.258 381.755L210.976 382.285C210.801 382.614 210.729 382.989 210.771 383.36L210.954 384.99L211.553 392.092V392.933L209.756 393.391L210.214 392.092L209.427 386.023L208.79 384.981C208.612 384.69 208.518 384.356 208.518 384.016V380.672L208.023 381.357L206.492 384.118C206.339 384.392 206.259 384.701 206.259 385.015V389.641L205.925 391.018L204.175 391.514V391.018L204.753 389.945V384.247C204.753 383.322 206.15 378.84 206.893 377.501L206.537 373.843L205.227 370.375C204.826 370.375 204.614 371.184 203.944 371.16C203.274 371.136 202.194 371.389 201.202 372.274C200.854 372.585 200.049 372.082 199.448 371.861Z" fill="url(#paint5_linear_644_7107)"/>
<path d="M208.527 380.656C207.655 379.238 207.124 378.475 206.739 376.811H203.075L201.213 392.609C203.616 392.789 208.421 393.041 208.421 392.609C208.421 392.176 208.527 384.461 208.527 380.656Z" fill="url(#paint6_linear_644_7107)"/>
<path d="M223.548 381.633C223.509 381.441 224.882 378.809 225.267 377.734L229.705 392.601H224.654L223.548 389.186L222.971 385.626C223.179 384.375 223.586 381.826 223.548 381.633Z" fill="url(#paint7_linear_644_7107)"/>
<path d="M204.94 366.017C204.722 366.076 203.948 366.293 203.143 366.646L202.791 363.063L209.471 362.486L214.419 370.816C214.777 371.256 215.277 372.251 214.419 372.713C214.391 372.728 214.362 372.743 214.332 372.757C212.502 373.605 210.643 371.935 209.481 370.286L206.994 366.76L206.534 366.189C206.501 366.149 206.484 366.098 206.484 366.047V365.186C206.484 364.991 206.256 364.887 206.109 365.014C205.752 365.325 205.241 365.774 205.046 365.958C205.016 365.987 204.98 366.007 204.94 366.017Z" fill="url(#paint8_linear_644_7107)"/>
<path d="M225.374 372.456C225.086 372.146 224.846 371.955 224.5 371.807L223.572 368.281L236.554 368.961V376.441L228.147 376.936L225.374 372.456Z" fill="url(#paint9_linear_644_7107)"/>
<path d="M205.215 370.372C205.352 370.296 206.933 370.107 206.641 368.854C206.641 368.854 206.463 368.308 205.697 367.78C204.575 367.008 202.287 367.287 201.294 367.043L196.871 370.007L197.373 372.423C198.786 372.423 201.732 372.266 201.932 372.423C202.38 372.776 204.584 371.711 205.215 370.372Z" fill="url(#paint10_linear_644_7107)"/>
</g>
</g>
<g clip-path="url(#clip2_644_7107)">
<path d="M174.715 369.92C173.415 370.434 173.391 370.734 173.391 372.633C173.391 374.532 174.732 375.227 174.732 375.227C174.732 375.227 172.44 375.888 171.85 378.871C171.26 381.855 172.157 383.291 173.009 384.025L173.106 389.453H184.946V381.855L184.982 381.754C185.251 380.99 185.468 380.371 185.231 378.329C184.983 376.198 182.958 374.803 182.958 374.803C182.958 374.803 183.714 374.532 183.714 372.633C183.714 370.734 183.531 370.143 182.231 369.63V368.593C182.231 368.593 182.958 368.516 183.526 368.022C184.094 367.528 183.954 366.985 183.812 366.714C183.528 366.176 181.849 366.124 181.821 366.123C181.821 365.581 180.968 363.953 178.41 363.953C175.853 363.953 175.284 365.581 175.284 366.123L175.278 366.126C175.152 366.178 173.295 366.181 172.837 366.906C172.497 367.443 172.726 368.293 173.295 368.787C173.863 369.281 174.715 369.378 174.715 369.378V369.92Z" fill="url(#paint11_linear_644_7107)"/>
<path d="M185.348 378.358C185.587 380.32 185.368 380.914 185.098 381.648C184.768 383.278 181.485 383.344 180.62 382.479C179.815 381.674 179.935 380.71 180.62 380.085C181.477 379.303 182.227 379.651 182.513 378.609C182.869 377.306 181.963 376.29 181.963 375.769C181.963 375.248 182.31 374.727 182.819 374.727C183.328 374.727 185.099 376.311 185.348 378.358Z" fill="url(#paint12_linear_644_7107)"/>
<path d="M174.717 375.223C173.911 375.223 172.28 375.755 171.694 378.692C171.109 381.629 171.763 383.275 172.837 384.349C173.911 385.422 176.511 386.128 177.132 384.886C177.669 383.812 177.547 382.678 176.595 382.201C176.091 381.949 174.448 381.665 174.448 379.517C174.448 378.449 174.521 377.711 174.717 377.102C174.912 376.492 175.79 375.223 174.717 375.223Z" fill="url(#paint13_linear_644_7107)"/>
</g>
<defs>
<linearGradient id="paint0_linear_644_7107" x1="134.5" y1="0" x2="134.5" y2="1072.62" gradientUnits="userSpaceOnUse">
<stop stop-color="#4587B6"/>
<stop offset="0.45" stop-color="#7AADD0"/>
<stop offset="1" stop-color="#D8EFFF"/>
</linearGradient>
<linearGradient id="paint1_linear_644_7107" x1="53.4546" y1="395.051" x2="53.4546" y2="358.873" gradientUnits="userSpaceOnUse">
<stop stop-color="#252730"/>
<stop offset="0.660904" stop-color="#446F8E"/>
<stop offset="1" stop-color="#6CA3CA"/>
</linearGradient>
<linearGradient id="paint2_linear_644_7107" x1="57.5455" y1="338.994" x2="60.7855" y2="363.762" gradientUnits="userSpaceOnUse">
<stop stop-color="#476F8E"/>
<stop offset="1" stop-color="#304458"/>
</linearGradient>
<linearGradient id="paint3_linear_644_7107" x1="61.9005" y1="350.178" x2="59.6666" y2="376.262" gradientUnits="userSpaceOnUse">
<stop stop-color="#5A85A6"/>
<stop offset="0.572415" stop-color="#385D7B"/>
<stop offset="1" stop-color="#2D3E50"/>
</linearGradient>
<linearGradient id="paint4_linear_644_7107" x1="208.38" y1="359.202" x2="215.937" y2="393.652" gradientUnits="userSpaceOnUse">
<stop stop-color="#619EC9"/>
<stop offset="0.614435" stop-color="#446F8E"/>
<stop offset="1"/>
</linearGradient>
<linearGradient id="paint5_linear_644_7107" x1="221.071" y1="387.346" x2="211.415" y2="358.764" gradientUnits="userSpaceOnUse">
<stop stop-color="#2B3441"/>
<stop offset="1" stop-color="#5787A9"/>
</linearGradient>
<linearGradient id="paint6_linear_644_7107" x1="207.272" y1="371.671" x2="203.169" y2="414.888" gradientUnits="userSpaceOnUse">
<stop stop-color="#252730"/>
<stop offset="0.887188" stop-color="#5183A7"/>
<stop offset="1" stop-color="#619EC9"/>
</linearGradient>
<linearGradient id="paint7_linear_644_7107" x1="221.798" y1="374.4" x2="237.463" y2="404.594" gradientUnits="userSpaceOnUse">
<stop stop-color="#5183A7"/>
<stop offset="0.553054" stop-color="#252730"/>
</linearGradient>
<linearGradient id="paint8_linear_644_7107" x1="215.399" y1="382.036" x2="219.227" y2="359.814" gradientUnits="userSpaceOnUse">
<stop stop-color="#619EC9"/>
<stop offset="0.138767" stop-color="#385B74"/>
<stop offset="1" stop-color="#252730"/>
</linearGradient>
<linearGradient id="paint9_linear_644_7107" x1="223.572" y1="390.433" x2="224.168" y2="367.465" gradientUnits="userSpaceOnUse">
<stop stop-color="#619EC9"/>
<stop offset="0.34515" stop-color="#5183A7"/>
<stop offset="1" stop-color="#252730"/>
</linearGradient>
<linearGradient id="paint10_linear_644_7107" x1="205" y1="367.593" x2="196.059" y2="381.605" gradientUnits="userSpaceOnUse">
<stop stop-color="#5184A8" stop-opacity="0"/>
<stop offset="0.144868" stop-color="#436D8A" stop-opacity="0.740515"/>
<stop offset="0.233101" stop-color="#385B74"/>
<stop offset="0.346982" stop-color="#334E63"/>
<stop offset="0.480215" stop-color="#2F4455"/>
<stop offset="1" stop-color="#252730"/>
</linearGradient>
<linearGradient id="paint11_linear_644_7107" x1="178.473" y1="362.611" x2="178.496" y2="397.04" gradientUnits="userSpaceOnUse">
<stop offset="0.0052383" stop-color="#2A3340"/>
<stop offset="0.247935" stop-color="#476883"/>
<stop offset="0.389033" stop-color="#3F5B73"/>
<stop offset="0.478602" stop-color="#3D576D"/>
<stop offset="0.725466" stop-color="#2B313D"/>
</linearGradient>
<linearGradient id="paint12_linear_644_7107" x1="184.732" y1="374.127" x2="182.882" y2="381.064" gradientUnits="userSpaceOnUse">
<stop stop-color="#334354"/>
<stop offset="0.929031" stop-color="#486C89"/>
</linearGradient>
<linearGradient id="paint13_linear_644_7107" x1="172.707" y1="373.199" x2="175.482" y2="383.837" gradientUnits="userSpaceOnUse">
<stop stop-color="#334354"/>
<stop offset="1" stop-color="#486C89"/>
</linearGradient>
<clipPath id="clip0_644_7107">
<rect width="36.9997" height="37" fill="white" transform="translate(34.3086 351)"/>
</clipPath>
<clipPath id="clip1_644_7107">
<rect width="44.3996" height="25.9" fill="white" transform="translate(194.922 362.1)"/>
</clipPath>
<clipPath id="clip2_644_7107">
<rect width="18.4998" height="25.9" fill="white" transform="translate(169 362.1)"/>
</clipPath>
</defs>
</svg>
