<svg width="390" height="726" viewBox="0 0 390 726" fill="none" xmlns="http://www.w3.org/2000/svg">
<g clip-path="url(#clip0_213_1901)">
<path d="M181.581 224.738C177.372 225.385 178.446 231.702 179.256 236.153C169.588 234.44 165.224 235.864 161.583 240.315C158.528 244.048 163.178 252.788 164.251 254.688C164.384 254.923 164.611 255.063 164.881 255.076C168.152 255.228 189.552 256.178 189.552 255.056C189.552 253.842 187.529 241.299 187.933 233.611C188.338 225.922 186.841 223.928 181.581 224.738Z" fill="#F38990"/>
<path fill-rule="evenodd" clip-rule="evenodd" d="M172.922 241.985C173.707 241.125 174.868 240.438 176.125 240.438C176.776 240.438 177.469 240.655 178.103 240.926C178.756 241.205 179.442 241.581 180.103 241.982C181.141 242.612 182.185 243.345 183.008 243.923C183.278 244.112 183.913 244.622 184.196 244.836C184.243 244.871 184.239 244.945 184.189 244.975L182.691 245.869C182.555 245.95 182.384 245.945 182.254 245.854C182.114 245.757 181.969 245.655 181.819 245.549C181 244.975 180.032 244.295 179.058 243.704C178.438 243.328 177.843 243.005 177.313 242.779C176.764 242.545 176.369 242.452 176.125 242.452C175.591 242.452 174.934 242.769 174.409 243.344C173.881 243.922 173.659 244.569 173.723 245.038C173.805 245.638 174.177 246.362 174.765 247.081C175.278 247.708 176.659 248.819 177.382 249.317C177.45 249.364 177.416 249.475 177.335 249.475H175.288C174.409 249.475 173.918 249.227 173.206 248.356C172.504 247.498 171.88 246.431 171.727 245.31C171.557 244.06 172.14 242.842 172.922 241.985Z" fill="#2F2F35"/>
<path d="M211.215 240.751C212.083 230.709 220.487 223 230.566 223H292.258C303.645 223 312.589 232.751 311.609 244.095L307.273 294.271C306.405 304.313 298.001 312.022 287.922 312.022H226.23C214.844 312.022 205.899 302.271 206.879 290.927L211.215 240.751Z" fill="#038600"/>
<path d="M265.304 259.217C286.364 260.55 287.519 286.604 285.405 302.521C285.03 305.347 284.046 308.042 282.709 310.559L278.304 318.851C278.023 319.38 277.473 319.71 276.875 319.71H224.28C221.843 319.71 219.784 317.904 219.466 315.489L216.342 291.789C214.993 298.534 211.081 312.993 206.225 316.877C200.156 321.733 189.499 319.71 182.351 316.877C173.626 313.42 164.142 259.418 163.333 254.562C162.524 249.707 181.901 253.98 181.901 253.98C190.437 256.099 189.674 252.635 190.888 256.681C192.102 260.727 198.942 287.339 198.942 282.483C198.942 277.627 207.035 261.441 212.295 259.418C217.556 257.395 233.337 257.194 265.304 259.217Z" fill="#FEE133"/>
<path d="M260.333 313.127L257.724 274.369C257.665 273.484 256.904 272.812 256.018 272.862L230.558 274.296C229.644 274.347 228.955 275.146 229.037 276.057L232.396 313.381C232.471 314.215 233.17 314.855 234.008 314.855H258.718C259.655 314.855 260.396 314.062 260.333 313.127Z" fill="white"/>
<path fill-rule="evenodd" clip-rule="evenodd" d="M249.523 274.796L236.574 275.605V272.368L249.523 271.559V274.796Z" fill="#2F2F35"/>
<path d="M243.616 316.521C249.28 314.063 258.85 299.522 262.927 292.559L268.452 317.48H250.257C245.683 318.184 237.952 318.979 243.616 316.521Z" fill="#FEE133"/>
<path d="M251.512 255.257C251.475 261.169 247.291 265.931 241.151 265.893C235.011 265.855 230.064 261.031 230.101 255.118C230.137 249.206 235.145 245.267 241.285 245.306C247.425 245.344 251.549 249.344 251.512 255.257Z" fill="#F38990"/>
<circle cx="238.191" cy="250.48" r="1.1544" transform="rotate(2.6545 238.191 250.48)" fill="#2F2F35"/>
<path d="M251.512 252.716C252.223 256.274 250.863 259.399 250.48 260.183C250.447 260.25 250.351 260.24 250.331 260.168C250.031 259.102 248.331 253.977 242.041 248.187C240.415 246.689 237.978 246.356 237.561 245.806C237.523 245.756 237.54 245.69 237.59 245.651C238.009 245.324 240.124 243.919 244.512 244.893C249.453 245.991 251.1 250.657 251.512 252.716Z" fill="#2F2F35"/>
<path d="M242.35 316.128C253.825 311.476 263.918 291.203 263.54 287.924" stroke="black" stroke-width="2.02323" stroke-linejoin="bevel"/>
</g>
<circle cx="302.101" cy="98.9136" r="29.2514" fill="#F7B7CE"/>
<path d="M279.868 80.0293L329.511 109.012L318.383 144.69C317.645 147.056 315.454 148.668 312.975 148.668L206.304 148.668C200.877 148.668 198.556 141.773 202.878 138.491L279.868 80.0293Z" fill="#F7B7CE"/>
<circle cx="260.88" cy="93.087" r="10.6398" fill="#FFA1A8"/>
<path d="M266.64 87.4052C264.14 88.8845 256.01 87.8194 252.124 87.1837C251.979 87.1599 251.864 87.0484 251.848 86.9018C251.427 83.0017 259.346 78.4204 266.64 82.1192C274.085 85.8949 272.667 92.6912 270.894 92.6912C269.476 92.6912 267.467 89.1672 266.64 87.4052Z" fill="#2F2F35"/>
<path d="M275.055 80.9247C271.265 81.2063 269.588 83.8577 269.224 85.1483C268.757 86.2047 270.682 86.2036 273.597 87.6115C276.513 89.0193 284.895 85.8516 285.624 84.0918C286.352 82.332 281.979 83.3885 280.886 82.6845C279.793 81.9806 279.793 80.5727 275.055 80.9247Z" fill="#2F2F35"/>
<circle cx="257.993" cy="89.7646" r="1.01179" transform="rotate(2.6545 257.993 89.7646)" fill="#2F2F35"/>
<circle cx="263.667" cy="91.1826" r="1.01179" transform="rotate(2.6545 263.667 91.1826)" fill="#2F2F35"/>
<path d="M217.409 110.763C215.386 125.735 220.647 147.663 227.93 156.97C238.289 167.329 249.781 161.286 254.233 156.97C252.479 156.97 252.29 155.678 265.563 155.678C282.153 155.678 292.269 155.678 298.339 149.204C304.409 142.729 304.901 106.482 296.445 99.3285C287.988 92.1756 280.939 94.1723 270.823 94.1723C268.108 94.1723 257.695 99.3285 253.596 99.3285C250.647 99.3285 254.188 94.1723 251.108 94.1723C242.52 94.1723 237.196 94.2764 232.786 94.9816C228.377 95.6868 219.433 95.7909 217.409 110.763Z" fill="#266EB4"/>
<path d="M252.211 107.93C247.22 115.888 236.672 132.451 234.406 135.041" stroke="#2F2F35" stroke-width="2.42787"/>
<path d="M272.846 128.162C267.586 137.739 255.528 157.297 249.377 158.915C247.71 160.125 243.36 162.181 239.297 160.729" stroke="#2F2F35" stroke-width="2.42787"/>
<path d="M248.057 90.6925C245.22 92.1112 246.166 101.451 246.993 105.943C248.057 110.908 251.249 116.228 257.633 117.647C264.017 119.066 271.11 114.101 272.529 113.037C273.947 111.973 274.302 111.263 274.302 109.845C274.302 108.71 272.174 108.662 271.11 108.781C273.238 108.426 273.593 107.362 273.593 105.943C273.593 104.808 270.992 104.997 269.692 105.234C273.238 104.525 272.883 102.397 272.529 101.687C272.245 101.12 268.864 100.978 267.209 100.978C268.746 100.387 270.897 98.9211 272.883 97.7862C275.366 96.3676 277.218 94.8362 275.037 92.343C274.315 91.5185 271.833 91.792 267.564 93.1752C263.959 94.343 261.945 94.7188 258.604 96.2779C257.724 96.6889 255.463 98.3813 254.357 98.672C254.195 98.7144 254.049 98.5981 254.016 98.4342C253.682 96.7909 253.358 94.5138 253.023 93.1752C252.75 92.0872 251.604 88.9193 248.057 90.6925Z" fill="#EA7E85"/>
<path d="M255.198 107.74C253.585 103.121 255.725 98.2868 260.059 96.773C264.394 95.2592 270.043 94.0835 270.752 95.4304C271.462 96.7772 272.548 97.8405 271.439 98.5467L271.668 99.7426C271.668 99.7426 272.009 99.6812 272.109 99.8227C272.59 100.503 273.228 102.196 272.981 102.745C272.885 102.961 272.718 102.89 272.572 103.008C272.406 103.142 272.87 104.025 272.96 104.121C273.367 104.297 273.694 103.852 274.152 105.166C274.745 106.864 275.024 107.062 274.175 107.598C273.632 107.94 274.221 108.497 274.759 108.537C275.064 108.559 275.257 108.775 275.284 108.851C275.771 110.246 276.258 110.511 275.419 111.76C274.58 113.01 274.367 113.543 272.761 114.423C271.155 115.303 266.635 117.2 264.731 117.227C262.827 117.255 259.187 119.163 255.198 107.74Z" fill="#EA7E85"/>
<path fill-rule="evenodd" clip-rule="evenodd" d="M264.235 99.9656L271.437 98.5434L271.685 99.7413L264.478 101.125L264.235 99.9656Z" fill="#2F2F35"/>
<path fill-rule="evenodd" clip-rule="evenodd" d="M265.859 105.328L272.604 102.972L272.999 104.125L266.236 106.43L265.859 105.328Z" fill="#2F2F35"/>
<path fill-rule="evenodd" clip-rule="evenodd" d="M267.566 109.873L274.221 107.549L274.78 108.538L268.017 110.842L267.566 109.873Z" fill="#2F2F35"/>
<path d="M72.6504 21.3324C69.1336 10.8461 76.9359 0 87.9962 0H182.034C190.973 0 198.22 7.24664 198.22 16.1858V72.8362C198.22 81.7754 190.973 89.022 182.034 89.022H106.995C100.039 89.022 93.861 84.5777 91.6493 77.9827L72.6504 21.3324Z" fill="#0063D8"/>
<ellipse cx="143.723" cy="67.8544" rx="40.278" ry="29.8173" fill="#51A3EC"/>
<path d="M120.845 39.6551C113.561 38.4411 104.255 47.748 103.445 61.5059C103.445 75.6698 105.077 89.2734 131.379 96.557C157.681 103.841 173.449 73.2419 175.472 68.7908C177.495 64.3397 165.761 58.27 163.333 59.0793C160.905 59.8886 157.263 61.5059 152.407 61.5059C147.552 61.5059 142.291 59.4839 138.245 52.605C134.198 45.726 128.129 40.869 120.845 39.6551Z" fill="#A2E2FF"/>
<path d="M150.229 19.2431C150.229 24.2498 154.61 31.193 160.625 31.193C166.64 31.193 173.496 25.0739 173.496 20.0673C173.496 15.0606 167.135 10.1777 161.12 10.1777C155.105 10.1777 150.229 14.2364 150.229 19.2431Z" fill="#EDDC0B"/>
<path d="M186.255 19.9931C186.255 24.9998 190.636 31.943 196.65 31.943C202.665 31.943 209.521 25.8239 209.521 20.8173C209.521 15.8106 203.16 10.9277 197.145 10.9277C191.131 10.9277 186.255 14.9864 186.255 19.9931Z" fill="#EDDC0B"/>
<circle cx="179.498" cy="25.1874" r="18.7636" fill="#FFED0D"/>
<path d="M157.039 21.9912C172.925 25.1726 178.577 37.7327 179.418 43.615C185.047 36.0303 202.31 17.108 207.939 23.4877C217.272 34.0653 201.559 46.7545 187.674 50.132L187.597 50.1384C183.162 50.5076 182.418 50.5695 182.045 61.3902C181.754 69.8127 184.023 78.6376 182.045 83.6111C180.847 86.6217 173.024 89.1839 170.009 88.3411C168.043 87.7915 168.77 85.9821 168.77 84.8768C168.77 83.7714 170.787 61.3506 170.787 54.6353C170.787 49.0117 166.666 49.3795 166.658 49.3803L166.658 49.3803C155.626 50.3738 137.182 18.0144 157.039 21.9912Z" fill="#389935"/>
<path fill-rule="evenodd" clip-rule="evenodd" d="M189.587 33.3017C185.698 37.5778 182.309 42.4353 180.262 45.5577L180.222 45.6143C179.96 45.9552 179.534 46.5976 179.152 47.3627C178.766 48.1359 178.46 48.9686 178.378 49.7054L176.513 49.4982C176.629 48.4495 177.041 47.3907 177.473 46.5249C177.81 45.8497 178.18 45.2519 178.484 44.8145C178.483 44.808 178.481 44.8013 178.48 44.7946C178.431 44.5319 178.356 44.1503 178.255 43.6801C178.051 42.7384 177.74 41.4469 177.312 40.0458C176.437 37.1873 174.111 33.6867 172.37 32.0393L171.619 29.3157C174.12 31.035 178.617 36.3144 179.106 39.497C179.464 40.6669 179.742 41.7606 179.948 42.652C182.03 39.5979 184.935 35.6278 188.198 32.0393C190.191 29.8483 192.333 27.7815 194.518 26.1493C196.695 24.5232 200.14 22.5608 203.893 22.1855L201.594 24.6678C199.722 25.0488 197.706 26.1096 195.641 27.6525C193.584 29.1892 191.531 31.1638 189.587 33.3017Z" fill="#2F2F35"/>
<ellipse cx="125.694" cy="34.6349" rx="8.74276" ry="9.06657" fill="#FFED0D"/>
<circle cx="131.535" cy="32.4036" r="0.961684" transform="rotate(2.6545 131.535 32.4036)" fill="#2F2F35"/>
<path d="M115.975 39.5438C116.981 40.7557 120.084 42.7819 122.026 42.7819C123.969 42.7819 126.61 37.5258 126.986 34.9592C126.986 34.9592 130.548 28.9231 130.548 27.8351C130.548 26.7551 132.814 29.471 131.843 27.8351C130.862 26.1835 126.438 21.4076 119.213 25.9438C111.987 30.4805 114.969 38.3319 115.975 39.5438Z" fill="#2F2F35"/>
<circle cx="126.562" cy="35.3354" r="1.94284" fill="#FFED0D"/>
<circle cx="111.993" cy="32.4188" r="5.5047" fill="#2F2F35"/>
<ellipse cx="103.572" cy="33.391" rx="6.15231" ry="5.82851" fill="#2F2F35"/>
<path d="M179.518 59.8885C179.518 64.8051 175.937 71.6232 171.021 71.6232C166.104 71.6232 160.5 65.6144 160.5 60.6978C160.5 55.7813 165.7 50.9863 170.616 50.9863C175.533 50.9863 179.518 54.972 179.518 59.8885Z" fill="#FFED0D"/>
<g clip-path="url(#clip1_213_1901)">
<path d="M173.033 169.511C173.033 200.904 173.033 214.022 118.81 214.022C64.5879 214.022 64.5879 203.004 64.5879 169.511C64.5879 136.018 88.8641 125 118.81 125C148.757 125 173.033 138.118 173.033 169.511Z" fill="#FF5246"/>
<path d="M60.603 127.626L82.9226 130.948V134.103L59.3848 130.432L59.6824 128.314C59.745 127.869 60.1584 127.56 60.603 127.626Z" fill="white"/>
<path d="M80.1473 162.396L84.5194 130.927C84.5593 130.639 84.357 130.374 84.069 130.337L60.5222 127.297C60.4738 127.291 60.4309 127.328 60.4309 127.377V128.291C60.4309 128.372 60.4931 128.441 60.5739 128.452L81.9725 131.167C82.2334 131.2 82.4316 131.422 82.4316 131.685V133.004C82.4316 133.104 82.3418 133.181 82.2431 133.164L59.3721 129.342C59.0886 129.295 58.82 129.485 58.7713 129.769L53.8423 158.453C53.7927 158.741 53.9901 159.014 54.2797 159.058L79.5528 162.841C79.8401 162.884 80.1074 162.684 80.1473 162.396Z" fill="#E91F3C"/>
<path d="M105.288 160.326C95.2091 161.941 82.6695 168.966 77.8142 175.439C77.6244 175.692 77.2197 175.63 77.1289 175.327C75.6619 170.437 73.242 162.276 71.7559 161.186C70.2914 160.112 58.1834 162.778 51.1675 164.523C50.3951 164.715 49.9137 165.488 50.0772 166.267C54.9889 189.67 65.2973 202.2 78.5322 199.914C89.2014 198.072 93.7642 193.78 95.2076 192.063C95.3169 191.933 95.598 192.062 95.5628 192.228C95.2801 193.564 94.7484 196.119 94.4273 197.922C93.9741 200.467 91.6592 210.892 94.2366 217.749C96.814 224.606 127.55 224.791 132.404 217.63C136.626 211.399 136.92 196.104 136.925 192.235C136.925 192.065 137.182 192.024 137.247 192.181C138.528 195.274 140.365 197.141 144.136 198.996C149.579 201.674 160.495 202.787 166.64 202.14C167.107 202.091 167.393 201.621 167.244 201.176C166.505 198.976 164.585 193.15 164.34 191.334C164.037 189.08 164.751 184.383 162.541 184.265C159.449 184.099 153.87 182.422 153.219 181.512C152.569 180.601 149.838 173.474 146.674 170.046C143.51 166.619 141.303 164.835 134.604 161.187C127.904 157.538 115.701 158.659 105.288 160.326Z" fill="#117649"/>
<path fill-rule="evenodd" clip-rule="evenodd" d="M127.385 161.039C125.972 162.926 123.802 164.237 121.272 164.488C117.79 164.833 114.584 163.076 112.913 160.25C112.755 160.286 112.593 160.312 112.427 160.329C110.284 160.541 108.375 158.976 108.163 156.834C107.95 154.691 109.515 152.782 111.658 152.57C111.888 152.547 112.116 152.545 112.339 152.561C113.515 149.658 116.222 147.489 119.555 147.159C124.02 146.717 128.031 149.73 128.933 154.023C130.785 154.038 132.366 155.448 132.552 157.333C132.752 159.35 131.279 161.148 129.261 161.348C128.595 161.414 127.953 161.297 127.385 161.039Z" fill="#F38990"/>
<path d="M115.932 150.432C114.772 155.001 112.869 154.189 111.303 154.704C111.239 154.725 111.172 154.677 111.171 154.61C111.101 147.008 116.418 144.833 120.761 144.981C127.687 145.217 129.361 151.081 129.586 154.203C129.586 154.203 129.327 154.432 128.711 154.652C128.095 154.871 126.31 154.772 124.669 154.051C124.032 153.771 123.428 153.553 122.637 152.912C122.6 152.881 122.545 152.918 122.561 152.964C122.904 153.962 123.237 154.121 123.17 154.351C122.989 154.968 120.911 154.471 119.833 154C117.997 153.438 116.384 151.928 115.932 150.432Z" fill="#2F2F35"/>
<circle cx="118.877" cy="156.81" r="1.1544" transform="rotate(2.6545 118.877 156.81)" fill="#2F2F35"/>
<circle cx="122.91" cy="156.931" r="1.1544" transform="rotate(2.6545 122.91 156.931)" fill="#2F2F35"/>
<path d="M45.3262 155.59C45.3262 147.892 50.8015 141.822 57.7571 141.822C64.7127 141.822 73.3796 143.007 73.7217 145.375C74.0638 147.744 75.0863 149.887 73.1477 150.36L72.8772 152.255C72.8772 152.255 73.3959 152.341 73.4682 152.603C73.8158 153.862 73.8832 156.708 73.2561 157.397C73.0104 157.666 72.8065 157.475 72.5385 157.574C72.2342 157.687 72.4576 159.239 72.5385 159.428C73.0326 159.902 73.7217 159.41 73.7217 161.6C73.7217 164.429 74.021 164.868 72.5385 165.224C71.5921 165.45 72.156 166.583 72.9061 166.921C73.3311 167.113 73.499 167.534 73.499 167.66C73.499 169.985 74.0638 170.63 72.2392 172.051C70.4146 173.473 69.8444 174.153 67.1075 174.627C64.3706 175.101 56.9582 175.574 54.2213 174.627C51.4844 173.679 45.3262 174.627 45.3262 155.59Z" fill="#F38990"/>
<path fill-rule="evenodd" clip-rule="evenodd" d="M62.137 148.73L73.1489 150.354L72.904 152.261L61.905 150.578L62.137 148.73Z" fill="#2F2F35"/>
<path fill-rule="evenodd" clip-rule="evenodd" d="M61.7771 157.535L72.6011 157.535L72.5896 159.453L61.7656 159.368L61.7771 157.535Z" fill="#2F2F35"/>
<path fill-rule="evenodd" clip-rule="evenodd" d="M61.9492 165.176H72.6282L72.9328 166.934L62.1089 166.849L61.9492 165.176Z" fill="#2F2F35"/>
<path d="M179.276 191.557C179.858 186.948 176.912 182.885 172.588 182.339C168.263 181.794 162.786 181.823 162.394 183.214C162.003 184.605 161.205 185.808 162.374 186.243L162.4 187.399C162.4 187.399 162.071 187.41 162.006 187.561C161.695 188.288 161.438 189.986 161.776 190.447C161.908 190.628 162.049 190.53 162.208 190.61C162.389 190.701 162.133 191.613 162.068 191.72C161.725 191.965 161.334 191.616 161.169 192.927C160.955 194.621 160.736 194.86 161.631 195.189C162.202 195.399 161.766 196.033 161.274 196.177C160.995 196.258 160.859 196.497 160.849 196.573C160.674 197.964 160.274 198.307 161.301 199.3C162.328 200.294 162.631 200.747 164.297 201.245C165.963 201.743 170.535 202.608 172.308 202.256C174.081 201.903 177.839 202.953 179.276 191.557Z" fill="#F38990"/>
<path fill-rule="evenodd" clip-rule="evenodd" d="M169.342 186.133L162.373 186.241L162.381 187.402L169.346 187.258L169.342 186.133Z" fill="#2F2F35"/>
<path fill-rule="evenodd" clip-rule="evenodd" d="M168.901 191.435L162.172 190.586L162.034 191.735L168.77 192.533L168.901 191.435Z" fill="#2F2F35"/>
<path fill-rule="evenodd" clip-rule="evenodd" d="M168.215 195.994L161.576 195.156L161.253 196.185L167.989 196.983L168.215 195.994Z" fill="#2F2F35"/>
<path d="M50.4526 132.799C47.0032 134.523 45.9124 143.156 45.5529 148.906C45.1753 152.848 45.9074 163.597 46.4921 164.795L52.5031 147.686C53.625 146.092 56.5333 142.943 57.1086 141.663C57.6004 140.57 57.64 136.046 57.1086 134.629C56.5772 133.212 54.7645 130.644 50.4526 132.799Z" fill="#F38990"/>
<path d="M97.355 183.854C93.185 192.767 91.7754 208.463 94.841 216.077" stroke="#2F2F35" stroke-width="2.02323" stroke-linejoin="bevel"/>
</g>
<path fill-rule="evenodd" clip-rule="evenodd" d="M47.5015 538.5C46.7015 538.9 46.1681 538 46.0015 537.5C44.5015 534.499 48.5015 527.499 51.5015 523.499C51.7041 523.229 51.9035 522.978 52.099 522.746C51.4397 522.818 51.0011 522.765 51.0011 522.5C51.0011 522.117 50.7809 522.468 50.4531 522.99C49.9252 523.831 49.118 525.117 48.5011 524.5C47.9947 523.994 47.36 524.513 46.6621 525.084C45.9818 525.641 45.2415 526.247 44.5011 526C43.829 525.776 43.6588 526.355 43.4508 527.062C43.1946 527.934 42.881 529 41.5011 529C39.6851 529 39.7159 527.945 39.677 527.942C39.6624 527.941 39.6379 528.09 39.5011 528.5C39.0011 530 37.5011 532.5 37.0011 530C36.5011 527.5 36.5014 527 38.502 524.5C40.5029 522 41.7907 520.942 46.5011 520C47.2538 519.849 49.7734 519.755 52.2328 519.663C53.6168 519.611 54.9817 519.56 56.002 519.5C55.9105 519.5 55.8889 519.44 55.822 519.253C55.767 519.1 55.6812 518.861 55.5006 518.5C55.2844 518.067 54.694 517.916 54.0935 517.761C53.3057 517.558 52.5006 517.351 52.5006 516.5C52.5006 515.804 51.6392 515.969 50.7159 516.147C49.6497 516.351 48.5011 516.572 48.5011 515.5C48.5011 514.458 47.5505 514.638 46.4986 514.836C45.5319 515.019 44.4795 515.218 44.0006 514.5C43.5314 513.796 43.3925 513.973 43.1706 514.256C42.9197 514.576 42.5625 515.031 41.5011 514.5C40.4773 513.988 40.2395 514.524 39.983 515.103C39.7384 515.654 39.4769 516.244 38.5006 516C37.6298 515.782 36.5693 516.513 35.6907 517.118C34.5516 517.902 33.7184 518.476 34.0006 516.5C34.5006 513 35.002 510.5 41.5011 510.5C48.7975 510.5 53.7259 512.392 55.3702 514.337C55.2295 514.074 55.0974 513.787 55.002 513.5C54.7526 512.75 54.3774 512.625 54.002 512.5C53.6267 512.375 53.2512 512.25 53.0011 511.5C52.721 510.661 52.2849 510.761 51.9551 510.836C51.6956 510.896 51.502 510.94 51.502 510.5C51.502 510 50.7517 510 50.0015 510C49.2513 510 48.5011 510 48.5011 509.5C48.5011 509 47.8763 509 47.189 509C46.5017 509 45.752 509 45.502 508.5C45.3701 508.236 45.3424 508.146 45.3364 508.148C45.3196 508.152 45.4724 508.868 44.0006 508.5C43.0366 508.259 42.7698 507.901 42.5837 507.652C42.3839 507.384 42.2771 507.241 41.5011 507.5C40.002 508 37.5006 505.5 40.5006 503.5C42.5721 502.119 48.2663 503.36 52.3833 505.742C52.2586 505.449 52.1702 505.163 52.0921 504.91C51.929 504.382 51.811 504 51.502 504C50.2626 504 50.2428 503.727 50.197 503.094C50.1762 502.806 50.1501 502.444 50.002 502C49.7405 501.216 49.342 500.978 49.0213 500.787C48.7288 500.613 48.5011 500.477 48.5011 500C48.5011 499.613 48.1272 499.6 47.6976 499.585C47.0159 499.561 46.1938 499.532 46.5011 497.999C47.0011 495.999 52.0011 495.999 53.0011 498.499C53.2534 499.13 53.7922 499.761 54.4408 500.52C55.9493 502.287 58.0517 504.748 58.5249 509.521C59.024 502.316 62.0798 493.658 65.5015 494C69.1499 494.365 68.0064 495.263 66.9273 496.11C66.5276 496.424 66.1366 496.731 66.0015 497.001C65.7989 497.406 66.0067 497.483 66.2258 497.564C66.5475 497.683 66.8938 497.811 66.0015 499.001C65.1551 500.13 65.423 500.621 65.6376 501.015C65.8033 501.319 65.9373 501.565 65.5015 502.001C65.1678 502.335 64.9456 502.501 64.7975 502.612C64.6853 502.696 64.6157 502.748 64.5725 502.817C64.502 502.93 64.502 503.086 64.502 503.499V503.5C64.502 503.798 64.5909 504.008 64.6759 504.208C64.727 504.328 64.7766 504.445 64.8047 504.576C65.8816 503.816 67.1098 503.109 68.5015 502.501C76.5015 499.001 75.0015 504.001 74.5015 504.501C74.1015 504.901 73.3348 505.001 73.0015 505.001C73.0015 505.167 72.8015 505.601 72.0015 506.001C71.2015 506.401 70.6681 506.501 70.5015 506.501C70.1015 507.301 68.6681 507.501 68.0015 507.501C68.3348 507.834 68.4015 508.7 66.0015 509.501C64.5555 509.983 64.5494 510.065 64.5179 510.492C64.4971 510.773 64.4652 511.205 64.0015 511.999C64.0015 511.999 64.5015 511.499 72.0015 508.499C78.733 505.807 80.6311 508.35 81.3109 509.261L81.3109 509.262C81.3885 509.365 81.4503 509.448 81.5015 509.499C82.0015 509.999 79.0015 511.499 77.5015 511.499C76.6474 511.499 76.2797 511.499 75.9367 511.592C75.6773 511.661 75.4321 511.784 75.0015 511.999C74.5015 512.249 74.1265 512.249 73.6265 512.249C73.1265 512.249 72.5015 512.249 71.5015 512.499C70.3527 512.787 70.1937 513.074 69.9822 513.456C69.8255 513.739 69.6399 514.074 69.0015 514.499C68.3438 514.938 67.59 514.992 66.9087 515.041C66.036 515.103 65.2822 515.157 65.0015 515.999C64.7222 516.837 64.1313 517.519 63.7509 517.958C63.4502 518.305 63.2812 518.5 63.502 518.5C63.5603 518.5 63.605 518.5 63.6495 518.502C63.7965 518.51 63.9422 518.544 64.5701 518.689C65.3844 518.876 67.0098 519.251 70.5015 519.999C77.5015 521.499 82.0015 528.499 81.5015 529.499C81.0779 530.346 80.6543 530.117 79.9268 529.723C79.7955 529.652 79.6543 529.576 79.5015 529.499C78.9432 529.22 78.8524 529.253 78.6202 529.336C78.4364 529.402 78.1641 529.499 77.5015 529.499C76.5505 529.499 76.4034 528.896 76.2957 528.455C76.2335 528.2 76.1845 527.999 76.0015 527.999C75.7515 527.999 75.5015 527.624 75.2515 527.249C75.0015 526.874 74.7515 526.499 74.5015 526.499H74.5008C73.9977 526.499 70.0015 526.499 70.0015 525.5C70.0015 524.5 69.5015 524 68.5015 524C68.0449 524 66.9632 524 65.9222 523.905C67.5252 525.411 69.0476 527.069 70.0015 528.499C72.0015 531.499 73.5015 534.999 73.0015 537.499C72.6015 539.499 71.1681 539.666 70.5015 539.499C70.1681 539.333 69.6015 538.799 70.0015 537.999C70.5015 536.999 69.5015 535.5 69.0015 534.999L68.9999 534.998C68.5004 534.497 68.0015 533.998 68.0015 532.499C68.0015 532.171 68.0255 531.866 68.0472 531.59C68.1246 530.609 68.1726 529.999 67.0015 529.999C65.7478 529.999 65.5419 529.301 65.2162 528.196L65.2162 528.195C65.1522 527.978 65.0836 527.746 65.0015 527.499C64.6015 526.299 64.2015 526.379 63.8015 526.459C63.7015 526.479 63.6015 526.499 63.5015 526.499H63.5003C63.3067 526.499 62.8907 526.499 62.4527 526.413C62.9663 530.467 63.002 537.741 63.002 542.5C63.002 547.3 65.612 557.333 66.4453 559C64.1122 561.667 58.0027 559.9 56.0027 553.5C54.2464 547.88 54.9321 533.88 55.6896 525.247C55.631 525.141 55.581 525.014 55.5326 524.891L55.5326 524.891C55.3963 524.545 55.2722 524.229 55.0015 524.5C54.5015 525 54.5015 525.5 54.5015 526C54.5015 526.5 54.0015 527 53.5015 527.5C53.1015 527.9 52.6681 527.666 52.5015 527.5C53.0015 529.5 52.0015 530.5 51.5015 531C51.1682 531.334 50.8348 530.334 50.7978 530.223C50.7956 530.216 50.7944 530.213 50.7944 530.213C50.7943 530.213 50.7956 530.217 50.7983 530.227C50.814 530.282 50.8765 530.5 51.0015 531C51.4424 532.764 50.7167 534.139 50.1962 535.125C50.1265 535.257 50.0605 535.382 50.0015 535.5C49.7237 536.056 49.4459 535.84 49.1681 535.624C48.9459 535.451 48.7237 535.278 48.5015 535.5C48.297 535.705 48.2598 536.16 48.2188 536.661C48.1596 537.385 48.0925 538.205 47.5015 538.5Z" fill="url(#paint0_linear_213_1901)"/>
<path d="M46.5011 497.999C47.0011 495.999 52.0011 495.999 53.0011 498.499C54.0011 500.999 59.5011 503.5 58.5011 514C57.7011 522.4 57.1677 522.5 57.0011 521.5C55.0011 522.167 51.0011 523.3 51.0011 522.5C51.0011 521.5 49.5011 525.5 48.5011 524.5C47.5011 523.5 46.0011 526.5 44.5011 526C43.0011 525.5 44.0011 529 41.5011 529C39.0011 529 40.0011 527 39.5011 528.5C39.0011 530 37.5011 532.5 37.0011 530C36.5011 527.5 36.5014 527 38.502 524.5C40.5029 522 41.7907 520.942 46.5011 520C47.6774 519.765 53.1686 519.667 56.002 519.5C55.8353 519.5 55.9006 519.3 55.5006 518.5C55.0006 517.5 52.5006 518 52.5006 516.5C52.5006 515 48.5011 517.5 48.5011 515.5C48.5011 513.5 45.0006 516 44.0006 514.5C43.0006 513 43.5011 515.5 41.5011 514.5C39.5011 513.5 40.5006 516.5 38.5006 516C36.5006 515.5 33.5006 520 34.0006 516.5C34.5006 513 35.002 510.5 41.5011 510.5C48.7975 510.5 53.7259 512.392 55.3702 514.337C55.2295 514.074 55.0974 513.787 55.002 513.5C54.5033 512 53.5015 513 53.0011 511.5C52.5006 510 51.502 511.5 51.502 510.5C51.502 509.5 48.5011 510.5 48.5011 509.5C48.5011 508.5 46.002 509.5 45.502 508.5C45.002 507.5 45.9993 509 44.0006 508.5C42.002 508 43.0002 507 41.5011 507.5C40.002 508 37.5006 505.5 40.5006 503.5C42.5721 502.119 48.2663 503.36 52.3833 505.742C51.9982 504.835 51.9589 504 51.502 504C49.6999 504 50.4763 503.423 50.002 502C49.502 500.5 48.5011 501 48.5011 500C48.5011 499 46.0002 500.499 46.5011 497.999Z" fill="black"/>
<path d="M46.5011 497.999C47.0011 495.999 52.0011 495.999 53.0011 498.499C54.0011 500.999 59.5011 503.5 58.5011 514C57.7011 522.4 57.1677 522.5 57.0011 521.5C55.0011 522.167 51.0011 523.3 51.0011 522.5C51.0011 521.5 49.5011 525.5 48.5011 524.5C47.5011 523.5 46.0011 526.5 44.5011 526C43.0011 525.5 44.0011 529 41.5011 529C39.0011 529 40.0011 527 39.5011 528.5C39.0011 530 37.5011 532.5 37.0011 530C36.5011 527.5 36.5014 527 38.502 524.5C40.5029 522 41.7907 520.942 46.5011 520C47.6774 519.765 53.1686 519.667 56.002 519.5C55.8353 519.5 55.9006 519.3 55.5006 518.5C55.0006 517.5 52.5006 518 52.5006 516.5C52.5006 515 48.5011 517.5 48.5011 515.5C48.5011 513.5 45.0006 516 44.0006 514.5C43.0006 513 43.5011 515.5 41.5011 514.5C39.5011 513.5 40.5006 516.5 38.5006 516C36.5006 515.5 33.5006 520 34.0006 516.5C34.5006 513 35.002 510.5 41.5011 510.5C48.7975 510.5 53.7259 512.392 55.3702 514.337C55.2295 514.074 55.0974 513.787 55.002 513.5C54.5033 512 53.5015 513 53.0011 511.5C52.5006 510 51.502 511.5 51.502 510.5C51.502 509.5 48.5011 510.5 48.5011 509.5C48.5011 508.5 46.002 509.5 45.502 508.5C45.002 507.5 45.9993 509 44.0006 508.5C42.002 508 43.0002 507 41.5011 507.5C40.002 508 37.5006 505.5 40.5006 503.5C42.5721 502.119 48.2663 503.36 52.3833 505.742C51.9982 504.835 51.9589 504 51.502 504C49.6999 504 50.4763 503.423 50.002 502C49.502 500.5 48.5011 501 48.5011 500C48.5011 499 46.0002 500.499 46.5011 497.999Z" fill="url(#paint1_linear_213_1901)"/>
<path d="M47.5015 538.5C46.7015 538.9 46.1681 538 46.0015 537.5C44.5015 534.499 48.5015 527.499 51.5015 523.499C53.9015 520.299 55.8348 519.834 56.5015 520.001L58.4908 512.828C58.0547 505.32 61.5319 493.603 65.5015 494C70.5015 494.5 66.5015 496.001 66.0015 497.001C65.5015 498.001 67.5015 497.001 66.0015 499.001C64.5015 501.001 66.5015 501.001 65.5015 502.001C64.5015 503.001 64.502 502.5 64.502 503.5C64.502 503.977 64.7298 504.227 64.8047 504.576C65.8816 503.816 67.1098 503.109 68.5015 502.501C76.5015 499.001 75.0015 504.001 74.5015 504.501C74.1015 504.901 73.3348 505.001 73.0015 505.001C73.0015 505.167 72.8015 505.601 72.0015 506.001C71.2015 506.401 70.6681 506.501 70.5015 506.501C70.1015 507.301 68.6681 507.501 68.0015 507.501C68.3348 507.834 68.4015 508.7 66.0015 509.501C63.6015 510.302 65.1681 510 64.0015 511.999C64.0015 511.999 64.5015 511.499 72.0015 508.499C79.5015 505.499 81.0015 508.999 81.5015 509.499C82.0015 509.999 79.0015 511.499 77.5015 511.499C76.0015 511.499 76.0015 511.499 75.0015 511.999C74.0015 512.499 73.5015 511.999 71.5015 512.499C69.5015 512.999 70.5015 513.499 69.0015 514.499C67.5015 515.499 65.5015 514.499 65.0015 515.999C64.5015 517.499 63.002 518.5 63.502 518.5C64.002 518.5 63.5015 518.499 70.5015 519.999C77.5015 521.499 82.0015 528.499 81.5015 529.499C81.0015 530.499 80.5015 529.999 79.5015 529.499C78.5015 528.999 79.0015 529.499 77.5015 529.499C76.0015 529.499 76.5015 527.999 76.0015 527.999C75.5015 527.999 75.0015 526.499 74.5015 526.499H74.5008C73.9977 526.499 70.0015 526.499 70.0015 525.5C70.0015 524.5 69.5015 524 68.5015 524C68.0449 524 66.9632 524 65.9222 523.905C67.5252 525.411 69.0476 527.069 70.0015 528.499C72.0015 531.499 73.5015 534.999 73.0015 537.499C72.6015 539.499 71.1681 539.666 70.5015 539.499C70.1681 539.333 69.6015 538.799 70.0015 537.999C70.5015 536.999 69.5015 535.5 69.0015 534.999L68.9999 534.998C68.5004 534.497 68.0015 533.998 68.0015 532.499C68.0015 530.999 68.5015 529.999 67.0015 529.999C65.5015 529.999 65.5015 528.999 65.0015 527.499C64.5015 525.999 64.0015 526.499 63.5015 526.499H63.5003C62.9985 526.499 61.002 526.499 61.002 525C61.002 523.5 61.0015 522.999 61.0015 523.499C61.0015 523.899 59.6686 523.666 59.002 522.999C58.6686 522.999 58.0015 522.199 58.0015 522.999C58.0015 523.999 56.5015 525.5 56.0015 525.5C55.5015 525.5 55.5015 524 55.0015 524.5C54.5015 525 54.5015 525.5 54.5015 526C54.5015 526.5 54.0015 527 53.5015 527.5C53.1015 527.9 52.6681 527.666 52.5015 527.5C53.0015 529.5 52.0015 530.5 51.5015 531C51.0015 531.5 50.5015 529 51.0015 531C51.5015 533 50.5015 534.5 50.0015 535.5C49.5015 536.5 49.0015 535 48.5015 535.5C48.0015 536 48.5015 538 47.5015 538.5Z" fill="black"/>
<path d="M47.5015 538.5C46.7015 538.9 46.1681 538 46.0015 537.5C44.5015 534.499 48.5015 527.499 51.5015 523.499C53.9015 520.299 55.8348 519.834 56.5015 520.001L58.4908 512.828C58.0547 505.32 61.5319 493.603 65.5015 494C70.5015 494.5 66.5015 496.001 66.0015 497.001C65.5015 498.001 67.5015 497.001 66.0015 499.001C64.5015 501.001 66.5015 501.001 65.5015 502.001C64.5015 503.001 64.502 502.5 64.502 503.5C64.502 503.977 64.7298 504.227 64.8047 504.576C65.8816 503.816 67.1098 503.109 68.5015 502.501C76.5015 499.001 75.0015 504.001 74.5015 504.501C74.1015 504.901 73.3348 505.001 73.0015 505.001C73.0015 505.167 72.8015 505.601 72.0015 506.001C71.2015 506.401 70.6681 506.501 70.5015 506.501C70.1015 507.301 68.6681 507.501 68.0015 507.501C68.3348 507.834 68.4015 508.7 66.0015 509.501C63.6015 510.302 65.1681 510 64.0015 511.999C64.0015 511.999 64.5015 511.499 72.0015 508.499C79.5015 505.499 81.0015 508.999 81.5015 509.499C82.0015 509.999 79.0015 511.499 77.5015 511.499C76.0015 511.499 76.0015 511.499 75.0015 511.999C74.0015 512.499 73.5015 511.999 71.5015 512.499C69.5015 512.999 70.5015 513.499 69.0015 514.499C67.5015 515.499 65.5015 514.499 65.0015 515.999C64.5015 517.499 63.002 518.5 63.502 518.5C64.002 518.5 63.5015 518.499 70.5015 519.999C77.5015 521.499 82.0015 528.499 81.5015 529.499C81.0015 530.499 80.5015 529.999 79.5015 529.499C78.5015 528.999 79.0015 529.499 77.5015 529.499C76.0015 529.499 76.5015 527.999 76.0015 527.999C75.5015 527.999 75.0015 526.499 74.5015 526.499H74.5008C73.9977 526.499 70.0015 526.499 70.0015 525.5C70.0015 524.5 69.5015 524 68.5015 524C68.0449 524 66.9632 524 65.9222 523.905C67.5252 525.411 69.0476 527.069 70.0015 528.499C72.0015 531.499 73.5015 534.999 73.0015 537.499C72.6015 539.499 71.1681 539.666 70.5015 539.499C70.1681 539.333 69.6015 538.799 70.0015 537.999C70.5015 536.999 69.5015 535.5 69.0015 534.999L68.9999 534.998C68.5004 534.497 68.0015 533.998 68.0015 532.499C68.0015 530.999 68.5015 529.999 67.0015 529.999C65.5015 529.999 65.5015 528.999 65.0015 527.499C64.5015 525.999 64.0015 526.499 63.5015 526.499H63.5003C62.9985 526.499 61.002 526.499 61.002 525C61.002 523.5 61.0015 522.999 61.0015 523.499C61.0015 523.899 59.6686 523.666 59.002 522.999C58.6686 522.999 58.0015 522.199 58.0015 522.999C58.0015 523.999 56.5015 525.5 56.0015 525.5C55.5015 525.5 55.5015 524 55.0015 524.5C54.5015 525 54.5015 525.5 54.5015 526C54.5015 526.5 54.0015 527 53.5015 527.5C53.1015 527.9 52.6681 527.666 52.5015 527.5C53.0015 529.5 52.0015 530.5 51.5015 531C51.0015 531.5 50.5015 529 51.0015 531C51.5015 533 50.5015 534.5 50.0015 535.5C49.5015 536.5 49.0015 535 48.5015 535.5C48.0015 536 48.5015 538 47.5015 538.5Z" fill="url(#paint2_linear_213_1901)"/>
<path d="M47.5015 538.5C46.7015 538.9 46.1681 538 46.0015 537.5C44.5015 534.499 48.5015 527.499 51.5015 523.499C53.4539 520.896 55.0974 520.103 56.0015 519.987C57.4531 519.854 60.4854 519.67 61.0015 519.999C62.1282 520.204 62.9661 520.988 63.4446 521.748C64.2399 522.386 65.0799 523.114 65.8995 523.883C67.5108 525.395 69.0431 527.062 70.0015 528.499C72.0015 531.499 73.5015 534.999 73.0015 537.499C72.6015 539.499 71.1681 539.666 70.5015 539.499C70.1681 539.333 69.6015 538.799 70.0015 537.999C70.5015 536.999 69.5015 535.5 69.0015 534.999L68.9999 534.998C68.5004 534.497 68.0015 533.998 68.0015 532.499C68.0015 530.999 68.5015 529.999 67.0015 529.999C65.5015 529.999 65.5015 528.999 65.0015 527.499C64.5015 525.999 64.0015 526.499 63.5015 526.499H63.5003C62.9984 526.499 61.002 526.499 61.002 525C61.002 523.5 61.0015 522.999 61.0015 523.499C61.0015 523.899 59.5825 523.783 58.9159 523.117L58.9135 523.114C58.6903 522.891 58.0015 522.202 58.0015 522.999C58.0015 523.999 56.5015 525.5 56.0015 525.5C55.5015 525.5 55.5015 524 55.0015 524.5C54.5015 525 54.5015 525.5 54.5015 526C54.5015 526.5 54.0015 527 53.5015 527.5C53.1015 527.9 52.6681 527.666 52.5015 527.5C53.0015 529.5 52.0015 530.5 51.5015 531C51.0015 531.5 50.5015 529 51.0015 531C51.5015 533 50.5015 534.5 50.0015 535.5C49.5015 536.5 49.0015 535 48.5015 535.5C48.0015 536 48.5015 538 47.5015 538.5Z" fill="black"/>
<path d="M47.5015 538.5C46.7015 538.9 46.1681 538 46.0015 537.5C44.5015 534.499 48.5015 527.499 51.5015 523.499C53.4539 520.896 55.0974 520.103 56.0015 519.987C57.4531 519.854 60.4854 519.67 61.0015 519.999C62.1282 520.204 62.9661 520.988 63.4446 521.748C64.2399 522.386 65.0799 523.114 65.8995 523.883C67.5108 525.395 69.0431 527.062 70.0015 528.499C72.0015 531.499 73.5015 534.999 73.0015 537.499C72.6015 539.499 71.1681 539.666 70.5015 539.499C70.1681 539.333 69.6015 538.799 70.0015 537.999C70.5015 536.999 69.5015 535.5 69.0015 534.999L68.9999 534.998C68.5004 534.497 68.0015 533.998 68.0015 532.499C68.0015 530.999 68.5015 529.999 67.0015 529.999C65.5015 529.999 65.5015 528.999 65.0015 527.499C64.5015 525.999 64.0015 526.499 63.5015 526.499H63.5003C62.9984 526.499 61.002 526.499 61.002 525C61.002 523.5 61.0015 522.999 61.0015 523.499C61.0015 523.899 59.5825 523.783 58.9159 523.117L58.9135 523.114C58.6903 522.891 58.0015 522.202 58.0015 522.999C58.0015 523.999 56.5015 525.5 56.0015 525.5C55.5015 525.5 55.5015 524 55.0015 524.5C54.5015 525 54.5015 525.5 54.5015 526C54.5015 526.5 54.0015 527 53.5015 527.5C53.1015 527.9 52.6681 527.666 52.5015 527.5C53.0015 529.5 52.0015 530.5 51.5015 531C51.0015 531.5 50.5015 529 51.0015 531C51.5015 533 50.5015 534.5 50.0015 535.5C49.5015 536.5 49.0015 535 48.5015 535.5C48.0015 536 48.5015 538 47.5015 538.5Z" fill="url(#paint3_linear_213_1901)"/>
<path d="M0 554.717C0 553.769 0.768644 553 1.71681 553H388.283C389.231 553 390 553.769 390 554.717V724.283C390 725.231 389.231 726 388.283 726H1.71682C0.768649 726 0 725.231 0 724.283V554.717Z" fill="black"/>
<path d="M314.012 550.135L311.981 553.796L297.766 579.421L286.225 600.227C284.174 603.924 278.863 603.927 276.808 600.231L265.252 579.442L253.051 557.493L251.018 553.834L248.984 550.176L314.012 550.135Z" fill="white"/>
<path d="M222.461 552.682L218.713 552.562V551.625V549.75L255.261 546L265.927 558.188L261.928 573C255.121 562.78 250.203 558.777 241.989 555.818C235.754 553.571 229.085 552.893 222.461 552.682Z" fill="white"/>
<path d="M339.395 552.682L343.143 552.562V551.625V549.75L306.595 546L295.928 558.188L299.928 573C306.735 562.78 311.652 558.777 319.866 555.818C326.101 553.571 332.771 552.893 339.395 552.682Z" fill="white"/>
<path d="M344.756 523.867C344.872 522.991 345.452 523.154 347.119 522.473C347.157 522.458 347.182 522.421 347.182 522.381V520.969C347.182 520.748 346.491 520.543 346.079 520.454C346.033 520.443 345.999 520.402 345.999 520.355V517.58C345.999 517.525 346.044 517.48 346.099 517.48H348.648C348.714 517.48 348.762 517.417 348.747 517.352C348.432 515.976 348.931 513.457 353.334 513.457C357.73 513.457 358.345 515.781 358.095 517.057C358.083 517.121 358.13 517.183 358.196 517.183H360.629C360.684 517.183 360.729 517.228 360.729 517.283V520.056C360.729 520.105 360.694 520.147 360.646 520.155L359.086 520.415C359.02 520.426 358.983 520.497 359.012 520.557C359.278 521.125 359.708 522.139 359.664 522.448C359.605 522.862 361.971 522.211 361.971 523.867C361.971 528.23 360.078 526.234 360.729 527.536C360.889 527.855 362.782 527.398 363.381 528.896C365.224 533.503 366.037 544.054 363.983 545.661C363.769 545.828 363.569 545.976 363.381 546.107V552.901C363.381 552.956 363.337 553.001 363.281 553.001H345.626C345.571 553.001 345.526 552.956 345.526 552.901V544.708C344.514 544.297 343.753 543.663 343.337 543.212C342.628 542.443 342.982 532.978 343.337 531.322C343.619 530.008 344.892 529.168 345.509 528.903C345.521 528.898 345.53 528.892 345.539 528.884C345.972 528.465 346.557 527.629 345.526 527.536C344.224 527.417 344.639 524.755 344.756 523.867Z" fill="url(#paint4_linear_213_1901)"/>
<path d="M350.233 544.829L347.989 545.163C347.128 545.234 346.313 545.092 345.616 544.838V551.904C345.616 552.456 346.064 552.904 346.616 552.904H362.48C363.033 552.904 363.48 552.456 363.48 551.904V546.585C363.48 546.299 363.603 546.027 363.816 545.838L364.276 545.429C364.468 545.258 364.587 545.02 364.609 544.764L365.166 538.037C365.174 537.936 365.167 537.834 365.145 537.736L363.655 531.082C363.553 530.626 363.148 530.301 362.68 530.301H347.552C347 530.301 346.552 530.749 346.552 531.301V538.4C346.552 538.953 347 539.4 347.552 539.4H350.086C350.638 539.4 351.086 539.848 351.086 540.4V543.84C351.086 544.336 350.723 544.756 350.233 544.829Z" fill="url(#paint5_linear_213_1901)"/>
<path d="M359.737 546.769C360.424 547.335 361.797 547.151 364.323 545.21C364.426 545.13 364.513 545.029 364.561 544.908C364.742 544.45 365.174 543.046 365.274 539.883C365.377 536.597 364.553 534.556 364.245 533.914C364.174 533.767 364.059 533.65 363.921 533.565L362.809 532.876C362.143 532.464 361.283 532.943 361.283 533.727V539.407C361.283 539.849 360.993 540.237 360.59 540.416C359.881 540.731 358.845 541.323 358.549 542.192C358.093 543.529 358.43 544.881 359.608 546.621C359.645 546.676 359.687 546.727 359.737 546.769Z" fill="url(#paint6_linear_213_1901)"/>
<path d="M113.724 553.899C114.431 552.927 113.43 544.359 112.841 541.196L109.531 539.65C109.384 541.379 109.178 547.521 109.531 550.258C109.972 553.679 112.841 555.114 113.724 553.899Z" fill="black"/>
<path d="M113.724 553.899C114.431 552.927 113.43 544.359 112.841 541.196L109.531 539.65C109.384 541.379 109.178 547.521 109.531 550.258C109.972 553.679 112.841 555.114 113.724 553.899Z" fill="url(#paint7_linear_213_1901)"/>
<path d="M131.617 555.703C132.324 554.731 131.085 545.333 132.447 541.45L127.797 539.209C127.649 540.938 127.443 548.08 127.797 550.817C128.238 554.238 130.734 556.917 131.617 555.703Z" fill="black"/>
<path d="M131.617 555.703C132.324 554.731 131.085 545.333 132.447 541.45L127.797 539.209C127.649 540.938 127.443 548.08 127.797 550.817C128.238 554.238 130.734 556.917 131.617 555.703Z" fill="url(#paint8_linear_213_1901)"/>
<path d="M98.1611 525.63C99.2345 524.914 99.0865 524.257 98.6393 523.81L98.4709 523.478C98.2495 523.146 98.6923 522.426 99.5225 522.205C100.353 521.983 100.629 522.917 101.736 523.81C102.843 524.703 103.098 524.197 106.109 524.53C109.12 524.862 109.367 529.123 111.692 530.12C114.017 531.116 117.297 530.397 124.223 530.12C129.153 529.923 132.522 531.334 133.739 531.5C134.957 531.666 136.175 533.714 137.448 533.492C138.721 533.271 141.444 535.125 141.776 535.845C142.108 536.564 143.429 539.806 144.204 541.743C144.979 543.68 145.034 546.62 144.979 547.555C144.969 547.726 144.754 547.901 144.355 547.726C143.666 547.422 142.747 547.191 142.413 545.554C142.193 544.471 140.975 541.704 139.511 539.508C138.721 538.322 137.723 537.847 137.173 537.642C137.038 537.591 137.173 540.6 135.828 541.202C135.828 542.242 136.009 547.854 135.828 549.555C135.464 552.972 135.828 554.82 133.933 554.584C132.01 554.344 132.193 545.72 131.995 542.788C130.404 543.732 122.389 545.62 119.05 545.62C115.71 545.62 111.602 543.732 109.465 542.788C109.465 542.788 109.465 556.018 106.676 555.584C105.029 555.327 104.738 551.708 105.036 548.428C105.334 545.148 103.779 542.064 103.779 539.977C103.779 537.89 103.63 535.281 103.779 533.492C103.928 531.703 104.358 531.416 98.8421 532.609C94.966 533.205 93.4084 531.116 93.8556 529.476C94.3029 527.836 96.8195 526.525 98.1611 525.63Z" fill="url(#paint9_linear_213_1901)"/>
<path d="M106.123 530.923C106.331 531.365 102.997 531.841 101.743 532.013C101.655 532.025 101.57 532.04 101.484 532.059C100.76 532.219 97.1729 532.989 96.2893 532.729C95.8783 532.608 94.9345 532.11 94.6149 531.825C93.6058 530.924 92.9249 529.336 95.0153 527.986C97.9765 526.074 98.3068 526.452 99.2859 527.104C99.9975 527.578 105.89 530.426 106.123 530.923Z" fill="url(#paint10_linear_213_1901)"/>
<path d="M106.123 530.923C106.331 531.365 102.997 531.841 101.743 532.013C101.655 532.025 101.57 532.04 101.484 532.059C100.76 532.219 97.1729 532.989 96.2893 532.729C95.8783 532.608 94.9345 532.11 94.6149 531.825C93.6058 530.924 92.9249 529.336 95.0153 527.986C97.9765 526.074 98.3068 526.452 99.2859 527.104C99.9975 527.578 105.89 530.426 106.123 530.923Z" fill="url(#paint11_linear_213_1901)" fill-opacity="0.2"/>
<path d="M58.9375 426.898V448.086H56.4531V426.898H58.9375ZM54.625 427.297V447.055H52.1641V436.391H49.1172V434.281H52.1641V427.297H54.625ZM47.2422 432.688C47.2422 436.273 48.5312 439.859 51.5547 441.594L50.0078 443.516C48.0508 442.344 46.75 440.328 46.0234 437.914C45.2734 440.527 43.9258 442.754 41.9219 444.008L40.3281 442.062C43.3984 440.211 44.7344 436.367 44.7344 432.688V431.281H41.0547V429.172H50.6641V431.281H47.2422V432.688ZM80.6378 438.711V440.82H72.2237V448.062H69.6456V440.82H61.3253V438.711H80.6378ZM78.8566 428.094V430.156H72.505C72.6573 432.477 75.4464 434.703 79.63 435.242L78.6925 437.281C75.0831 436.777 72.2706 435.125 70.9816 432.828C69.6925 435.125 66.88 436.777 63.3175 437.281L62.3331 435.242C66.4933 434.703 69.2823 432.477 69.4816 430.156H63.1066V428.094H78.8566ZM89.9631 431.984C89.9397 435.875 91.9787 439.766 95.4241 441.242L93.8772 443.328C91.4397 442.203 89.6467 439.953 88.6741 437.188C87.7014 440.176 85.885 442.613 83.3069 443.82L81.7131 441.641C85.2522 440.117 87.3147 436.062 87.3147 431.984V428.609H89.9631V431.984ZM99.5725 426.898V448.109H96.9475V426.898H99.5725ZM115.762 431.422C115.762 433.742 117.567 436.039 120.895 436.93L119.676 438.945C117.227 438.277 115.469 436.848 114.497 435.008C113.582 437.094 111.813 438.734 109.293 439.484L108.075 437.469C111.379 436.461 113.161 433.977 113.161 431.422V431.305H108.731V429.242H113.161V426.805H115.786V429.242H120.192V431.305H115.762V431.422ZM125.887 426.898V439.719H123.286V434.82H119.559V432.711H123.286V426.898H125.887ZM118.715 440.141C123.192 440.141 125.957 441.57 125.957 444.078C125.957 446.609 123.192 448.062 118.715 448.062C114.262 448.062 111.497 446.609 111.52 444.078C111.497 441.57 114.262 440.141 118.715 440.141ZM118.715 442.133C115.762 442.156 114.098 442.812 114.098 444.078C114.098 445.344 115.762 446.047 118.715 446.047C121.715 446.047 123.356 445.344 123.356 444.078C123.356 442.812 121.715 442.156 118.715 442.133ZM146.509 426.922V442.531H143.908V435.477H138.377V433.414H143.908V431.492H138.377V429.43H143.908V426.922H146.509ZM147.048 445.555V447.664H132.588V441.148H135.213V445.555H147.048ZM132.564 428.328V437.492C135.259 437.457 137.802 437.293 140.65 436.789L140.908 438.898C137.65 439.508 134.791 439.625 131.65 439.648H129.986V428.328H132.564ZM172.707 426.898V439.484H170.105V434.305H166.496V432.172H170.105V426.898H172.707ZM165.535 440.023C170.035 440.023 172.777 441.5 172.777 444.055C172.777 446.609 170.035 448.086 165.535 448.086C161.058 448.086 158.316 446.609 158.34 444.055C158.316 441.5 161.058 440.023 165.535 440.023ZM165.535 442.016C162.582 442.016 160.918 442.719 160.918 444.055C160.918 445.367 162.582 446.07 165.535 446.07C168.488 446.07 170.176 445.367 170.176 444.055C170.176 442.719 168.488 442.016 165.535 442.016ZM162.746 430.531C162.746 433.109 164.457 435.711 167.738 436.812L166.426 438.875C164.07 438.078 162.394 436.461 161.48 434.469C160.543 436.73 158.773 438.535 156.254 439.438L154.894 437.375C158.293 436.203 160.098 433.344 160.098 430.555V430.391H155.691V428.281H167.129V430.391H162.746V430.531ZM182.126 431.656C182.126 433.906 183.485 436.109 186.157 437.023L184.985 438.992C183.04 438.277 181.704 436.953 180.954 435.312C180.204 437.105 178.856 438.559 176.852 439.344L175.634 437.422C178.306 436.367 179.642 434.07 179.665 431.656V431.492H176.173V429.453H179.665V427.133H182.126V429.453H185.571V431.492H182.126V431.656ZM193.704 426.922V439.883H191.22V434.469H189.181V439.789H186.72V427.273H189.181V432.359H191.22V426.922H193.704ZM193.704 440.844V448.086H191.102V442.953H179.196V440.844H193.704ZM221.097 437.914V439.977H201.738V437.914H210.105V436.344H204.222V427.461H218.777V429.477H206.823V430.93H218.261V432.852H206.823V434.352H218.941V436.344H212.706V437.914H221.097ZM211.417 441.148C216.081 441.148 218.73 442.391 218.753 444.594C218.73 446.867 216.081 448.062 211.417 448.062C206.683 448.062 204.034 446.867 204.034 444.594C204.034 442.391 206.683 441.148 211.417 441.148ZM211.417 443.094C208.23 443.094 206.636 443.586 206.636 444.594C206.636 445.625 208.23 446.117 211.417 446.117C214.558 446.117 216.128 445.625 216.152 444.594C216.128 443.586 214.558 443.094 211.417 443.094ZM239.117 426.898V432.125H242.071V434.281H239.117V439.273H236.516V426.898H239.117ZM228.008 440.117V441.945H236.516V440.117H239.117V447.828H225.43V440.117H228.008ZM228.008 445.766H236.516V443.961H228.008V445.766ZM234.992 428.867V430.953H222.43V428.867H227.422V426.734H230.024V428.867H234.992ZM228.711 431.68C231.782 431.68 233.867 433.156 233.891 435.406C233.867 437.656 231.782 439.133 228.711 439.133C225.617 439.133 223.508 437.656 223.508 435.406C223.508 433.156 225.617 431.68 228.711 431.68ZM228.711 433.602C227.094 433.602 226.039 434.281 226.039 435.406C226.039 436.555 227.094 437.211 228.711 437.211C230.328 437.211 231.407 436.555 231.407 435.406C231.407 434.281 230.328 433.602 228.711 433.602ZM266.135 427.508V429.477H263.229V432.688H266.018V434.656H250.456V432.688H253.245V429.477H250.338V427.508H266.135ZM267.917 435.992V438.055H248.604V435.992H267.917ZM265.503 439.484V444.523H253.456V445.953H266.088V447.898H250.901V442.719H262.948V441.383H250.878V439.484H265.503ZM255.846 432.688H260.604V429.477H255.846V432.688ZM287.343 426.922V441.219H284.859V434.305H282.656V439.438H280.218V427.32H282.656V432.195H284.859V426.922H287.343ZM278.156 428.445V434.703H272.648V437.164C275.109 437.129 276.984 436.988 279.14 436.578L279.375 438.617C276.843 439.133 274.711 439.203 271.57 439.203H270.117V432.805H275.648V430.555H270.093V428.445H278.156ZM281.39 440.703C281.39 443.117 284.086 445.391 288.375 445.953L287.32 447.969C284.004 447.488 281.39 445.988 280.101 443.891C278.777 445.988 276.164 447.488 272.859 447.969L271.804 445.953C276.07 445.391 278.765 443.117 278.789 440.703V440.258H281.39V440.703ZM309.161 437.305V439.367H289.848V437.305H298.169V435.359H291.7V433.25H294.489V429.617H291.583V427.531H307.38V429.617H304.473V433.25H307.262V435.359H300.77V437.305H309.161ZM306.817 441.031V447.828H292.122V441.031H306.817ZM294.7 443.07V445.719H304.286V443.07H294.7ZM297.091 433.25H301.848V429.617H297.091V433.25Z" fill="#252730"/>
<defs>
<linearGradient id="paint0_linear_213_1901" x1="57.7512" y1="493.99" x2="57.7512" y2="560.198" gradientUnits="userSpaceOnUse">
<stop stop-color="#619EC9"/>
<stop offset="0.614435" stop-color="#446F8E"/>
<stop offset="1"/>
</linearGradient>
<linearGradient id="paint1_linear_213_1901" x1="46.2837" y1="496.557" x2="46.2837" y2="531.062" gradientUnits="userSpaceOnUse">
<stop stop-color="#619EC9"/>
<stop offset="1"/>
</linearGradient>
<linearGradient id="paint2_linear_213_1901" x1="63.6164" y1="493.99" x2="63.6164" y2="539.548" gradientUnits="userSpaceOnUse">
<stop stop-color="#619EC9"/>
<stop offset="1"/>
</linearGradient>
<linearGradient id="paint3_linear_213_1901" x1="63.6164" y1="493.99" x2="63.6164" y2="539.548" gradientUnits="userSpaceOnUse">
<stop stop-color="#619EC9"/>
<stop offset="0.359435" stop-color="#5183A7"/>
<stop offset="1"/>
</linearGradient>
<linearGradient id="paint4_linear_213_1901" x1="354.059" y1="513.457" x2="354.059" y2="553.001" gradientUnits="userSpaceOnUse">
<stop stop-color="#619EC9"/>
<stop offset="1"/>
</linearGradient>
<linearGradient id="paint5_linear_213_1901" x1="354.099" y1="530.301" x2="354.099" y2="553.333" gradientUnits="userSpaceOnUse">
<stop stop-color="#395D76" stop-opacity="0"/>
<stop offset="0.104435" stop-color="#3A5F78" stop-opacity="0.952191"/>
<stop offset="0.267607" stop-color="#3C617B" stop-opacity="0.877494"/>
<stop offset="1" stop-color="#619EC9" stop-opacity="0"/>
</linearGradient>
<linearGradient id="paint6_linear_213_1901" x1="361.152" y1="534.58" x2="361.152" y2="547.114" gradientUnits="userSpaceOnUse">
<stop offset="0.0001" stop-color="#315066" stop-opacity="0.674435"/>
<stop offset="1" stop-color="#1A2B36"/>
</linearGradient>
<linearGradient id="paint7_linear_213_1901" x1="111.653" y1="524.891" x2="111.653" y2="552.325" gradientUnits="userSpaceOnUse">
<stop stop-color="#619EC9"/>
<stop offset="0.359435" stop-color="#5183A7"/>
<stop offset="1"/>
</linearGradient>
<linearGradient id="paint8_linear_213_1901" x1="129.918" y1="524.45" x2="129.918" y2="551.884" gradientUnits="userSpaceOnUse">
<stop stop-color="#619EC9"/>
<stop offset="0.359435" stop-color="#5183A7"/>
<stop offset="1"/>
</linearGradient>
<linearGradient id="paint9_linear_213_1901" x1="117.282" y1="522.172" x2="117.282" y2="552.599" gradientUnits="userSpaceOnUse">
<stop stop-color="#619EC9"/>
<stop offset="0.359435" stop-color="#446F8E"/>
<stop offset="1"/>
</linearGradient>
<linearGradient id="paint10_linear_213_1901" x1="102.869" y1="530.02" x2="100.212" y2="533.694" gradientUnits="userSpaceOnUse">
<stop stop-color="#5183A7" stop-opacity="0"/>
<stop offset="1" stop-color="#375971"/>
</linearGradient>
<linearGradient id="paint11_linear_213_1901" x1="99.8916" y1="526.574" x2="99.8916" y2="532.782" gradientUnits="userSpaceOnUse">
<stop offset="0.559788" stop-opacity="0"/>
<stop offset="1"/>
</linearGradient>
<clipPath id="clip0_213_1901">
<rect width="315.623" height="80.9291" fill="white" transform="matrix(-1 0 0 1 397.623 223)"/>
</clipPath>
<clipPath id="clip1_213_1901">
<rect width="315.623" height="80.9291" fill="white" transform="matrix(-1 0 0 1 276.623 125)"/>
</clipPath>
</defs>
</svg>
