<svg width="266" height="417" viewBox="0 0 266 417" fill="none" xmlns="http://www.w3.org/2000/svg">
<path fill-rule="evenodd" clip-rule="evenodd" d="M32 0C14.3269 0 0 14.3269 0 32V359C0 376.673 14.3269 391 32 391H162.363C164.267 391.56 166.004 392.632 167.37 394.124L187.202 415.785C188.611 417.324 191.141 415.947 190.612 413.928L188.101 404.339C186.553 398.425 190.103 392.624 195.614 391H234C251.673 391 266 376.673 266 359V32C266 14.3269 251.673 0 234 0H32Z" fill="url(#paint0_linear_333_3833)"/>
<mask id="mask0_333_3833" style="mask-type:alpha" maskUnits="userSpaceOnUse" x="0" y="0" width="266" height="417">
<path fill-rule="evenodd" clip-rule="evenodd" d="M32 0C14.3269 0 0 14.3269 0 32V359C0 376.673 14.3269 391 32 391H162.363C164.267 391.56 166.004 392.632 167.37 394.124L187.202 415.785C188.611 417.324 191.141 415.947 190.612 413.928L188.101 404.339C186.553 398.425 190.103 392.624 195.614 391H234C251.673 391 266 376.673 266 359V32C266 14.3269 251.673 0 234 0H32Z" fill="#F7F7FA"/>
</mask>
<g mask="url(#mask0_333_3833)">
<mask id="mask1_333_3833" style="mask-type:alpha" maskUnits="userSpaceOnUse" x="30" y="348" width="40" height="44">
<path fill-rule="evenodd" clip-rule="evenodd" d="M41.3737 379.401C40.7025 379.711 40.255 379.013 40.1152 378.626C38.8567 376.3 42.2127 370.875 44.7297 367.775C44.8994 367.566 45.0664 367.371 45.2302 367.192C44.6774 367.247 44.3097 367.206 44.3097 367.001C44.3097 366.704 44.125 366.976 43.8499 367.381C43.407 368.032 42.7298 369.029 42.2122 368.551C41.7873 368.159 41.2549 368.561 40.6693 369.004C40.0986 369.435 39.4774 369.905 38.8562 369.714C38.2924 369.54 38.1496 369.989 37.9751 370.537C37.7601 371.212 37.497 372.039 36.3392 372.039C34.8159 372.039 34.8414 371.221 34.8089 371.219C34.7966 371.218 34.7761 371.333 34.6612 371.651C34.2417 372.814 32.9832 374.751 32.5637 372.814C32.1443 370.876 32.1445 370.488 33.823 368.551C35.5017 366.613 36.5823 365.793 40.5342 365.063C41.1658 364.947 43.2797 364.873 45.343 364.802C46.5042 364.762 47.6494 364.722 48.5054 364.676C48.4287 364.676 48.4106 364.629 48.3544 364.485C48.3082 364.366 48.2363 364.181 48.0848 363.901C47.9034 363.565 47.408 363.448 46.9042 363.328C46.2433 363.171 45.5678 363.01 45.5678 362.351C45.5678 361.811 44.845 361.939 44.0704 362.077C43.1759 362.235 42.2122 362.406 42.2122 361.576C42.2122 360.768 41.4147 360.907 40.5321 361.061C39.7211 361.203 38.8382 361.357 38.4364 360.8C38.0427 360.255 37.9261 360.392 37.74 360.611C37.5294 360.859 37.2298 361.212 36.3392 360.8C35.4803 360.404 35.2808 360.819 35.0656 361.268C34.8604 361.695 34.6409 362.152 33.8219 361.963C33.0912 361.794 32.2015 362.36 31.4644 362.829C30.5087 363.437 29.8096 363.882 30.0464 362.351C30.4659 359.638 30.8865 357.7 36.3392 357.7C42.4609 357.7 46.5958 359.167 47.9753 360.674C47.8573 360.47 47.7465 360.248 47.6664 360.025C47.4572 359.444 47.1424 359.347 46.8275 359.25C46.5126 359.153 46.1975 359.057 45.9877 358.475C45.7527 357.825 45.3868 357.902 45.1101 357.961C44.8924 358.007 44.7299 358.042 44.7299 357.7C44.7299 357.313 44.1005 357.313 43.471 357.313C42.8416 357.313 42.2122 357.313 42.2122 356.925C42.2122 356.538 41.688 356.538 41.1114 356.538C40.5348 356.538 39.9057 356.538 39.6959 356.15C39.5852 355.946 39.562 355.876 39.557 355.877C39.5431 355.881 39.6706 356.435 38.4364 356.15C37.6275 355.963 37.4037 355.686 37.2475 355.493C37.0799 355.285 36.9903 355.175 36.3392 355.375C35.0815 355.763 32.9829 353.825 35.4999 352.275C37.3266 351.15 42.5111 352.27 45.9877 354.302C45.8322 354.015 45.7592 353.821 45.7082 353.685C45.6215 353.454 45.5982 353.392 45.3415 353.33C45.1393 353.281 44.9579 353.258 44.7937 353.236C44.2532 353.166 43.8981 353.12 43.5928 352.275C43.3734 351.667 43.0391 351.483 42.7701 351.334C42.5247 351.199 42.3336 351.094 42.3336 350.724C42.3336 350.425 42.0199 350.415 41.6595 350.403C41.0876 350.384 40.3978 350.362 40.6556 349.174C41.0751 347.624 45.2701 347.624 46.1091 349.561C46.3336 350.08 46.8197 350.515 47.3952 351.031C48.5698 352.082 50.1171 353.468 50.5738 356.575C50.8259 351.868 52.4519 347.756 55.2171 348.011C58.278 348.294 57.3187 348.99 56.4133 349.647C56.078 349.89 55.75 350.128 55.6366 350.337C55.4666 350.651 55.6409 350.711 55.8248 350.774C56.0947 350.866 56.3852 350.965 55.6366 351.887C54.9374 352.749 55.0151 353.251 55.0784 353.66L55.0802 353.672C56.1634 352.869 57.4598 352.119 58.9925 351.5C65.7045 348.787 64.446 352.662 64.0265 353.05C63.6909 353.36 63.0477 353.437 62.768 353.437C62.768 353.566 62.6002 353.902 61.929 354.212C61.2578 354.522 60.8104 354.6 60.6705 354.6C60.3349 355.22 59.1324 355.375 58.5731 355.375C58.8527 355.633 58.9086 356.304 56.8951 356.925C55.6819 357.299 55.6768 357.363 55.6503 357.693C55.6329 357.911 55.6062 358.246 55.2171 358.862C55.2171 358.862 55.6366 358.474 61.929 356.149C67.5768 354.062 69.1692 356.033 69.7396 356.74C69.8047 356.82 69.8565 356.884 69.8995 356.924C70.319 357.311 67.802 358.474 66.5435 358.474C65.822 358.474 65.5142 358.474 65.2247 358.547C65.0093 358.601 64.804 358.696 64.446 358.862C64.0265 359.055 63.7119 359.055 63.2924 359.055C62.8729 359.055 62.3485 359.055 61.5095 359.249C60.5457 359.472 60.4123 359.694 60.2349 359.99C60.1034 360.21 59.9477 360.469 59.412 360.799C58.8603 361.139 58.2278 361.181 57.6562 361.219C56.9241 361.267 56.2916 361.309 56.0561 361.962C55.8218 362.611 55.326 363.14 55.0069 363.48C54.7546 363.749 54.6128 363.9 54.798 363.9H54.7985C54.8472 363.9 54.8846 363.9 54.9219 363.902C55.0452 363.908 55.1676 363.934 55.6942 364.046C56.3774 364.192 57.7411 364.482 60.6705 365.062C66.5435 366.225 70.319 371.65 69.8995 372.425C69.5441 373.081 69.1887 372.904 68.5783 372.598L68.5783 372.598C68.4681 372.543 68.3497 372.484 68.2215 372.425C67.7531 372.209 67.6769 372.234 67.4821 372.298C67.3279 372.349 67.0994 372.425 66.5435 372.425C65.7456 372.425 65.6222 371.958 65.5319 371.616C65.4797 371.418 65.4385 371.262 65.285 371.262C65.0752 371.262 64.8655 370.972 64.6558 370.681C64.446 370.39 64.2363 370.1 64.0265 370.1H64.0259C63.6038 370.1 60.251 370.1 60.251 369.325C60.251 368.55 59.8315 368.163 58.9925 368.163C58.6095 368.163 57.7019 368.163 56.8286 368.089C58.1734 369.256 59.4508 370.541 60.251 371.65C61.929 373.975 63.1875 376.688 62.768 378.625C62.4324 380.175 61.2299 380.305 60.6705 380.175C60.3909 380.046 59.9154 379.633 60.251 379.013C60.6705 378.238 59.8315 377.076 59.412 376.688L59.4107 376.686C58.9917 376.299 58.5731 375.911 58.5731 374.75C58.5731 374.495 58.5932 374.259 58.6114 374.045C58.6763 373.285 58.7167 372.812 57.7341 372.812C56.6822 372.812 56.5095 372.271 56.2362 371.415L56.2362 371.414C56.1825 371.246 56.125 371.066 56.0561 370.875C55.7205 369.945 55.3849 370.007 55.0493 370.069C54.9654 370.084 54.8815 370.1 54.7976 370.1H54.7966C54.7296 370.1 54.6307 370.1 54.5119 370.095C55.6765 373.521 56.663 378.857 56.663 382.223C56.663 387.967 57.2195 391.028 57.2195 391.028C53.4071 393.095 45.7823 391.028 45.7823 391.028C45.7823 391.028 45.781 375.777 47.8749 368.482C47.8177 368.457 47.7504 368.472 47.6661 368.55C47.2466 368.938 47.2466 369.325 47.2466 369.713C47.2466 370.1 46.8271 370.488 46.4076 370.875C46.072 371.185 45.7085 371.004 45.5686 370.875C45.9881 372.425 45.1492 373.201 44.7297 373.588C44.45 373.847 44.1703 373.072 44.1392 372.986C44.1374 372.98 44.1365 372.978 44.1364 372.978C44.1363 372.978 44.1374 372.981 44.1397 372.989C44.1528 373.031 44.2053 373.201 44.3102 373.588C44.6801 374.955 44.0713 376.021 43.6346 376.785C43.5761 376.887 43.5207 376.984 43.4712 377.076C43.2381 377.506 43.0051 377.339 42.772 377.172C42.5856 377.038 42.3991 376.904 42.2127 377.076C42.0411 377.234 42.0099 377.587 41.9755 377.976C41.9258 378.537 41.8696 379.172 41.3737 379.401Z" fill="url(#paint1_linear_333_3833)"/>
</mask>
<g mask="url(#mask1_333_3833)">
<path fill-rule="evenodd" clip-rule="evenodd" d="M41.3737 379.401C40.7025 379.711 40.255 379.013 40.1152 378.626C38.8567 376.3 42.2127 370.875 44.7297 367.775C44.8994 367.566 45.0664 367.371 45.2302 367.192C44.6774 367.247 44.3097 367.206 44.3097 367.001C44.3097 366.704 44.125 366.976 43.8499 367.381C43.407 368.032 42.7298 369.029 42.2122 368.551C41.7873 368.159 41.2549 368.561 40.6693 369.004C40.0986 369.435 39.4774 369.905 38.8562 369.714C38.2924 369.54 38.1496 369.989 37.9751 370.537C37.7601 371.212 37.497 372.039 36.3392 372.039C34.8159 372.039 34.8414 371.221 34.8089 371.219C34.7966 371.218 34.7761 371.333 34.6612 371.651C34.2417 372.814 32.9832 374.751 32.5637 372.814C32.1443 370.876 32.1445 370.488 33.823 368.551C35.5017 366.613 36.5823 365.793 40.5342 365.063C41.1658 364.947 43.2797 364.873 45.343 364.802C46.5042 364.762 47.6494 364.722 48.5054 364.676C48.4287 364.676 48.4106 364.629 48.3544 364.485C48.3082 364.366 48.2363 364.181 48.0848 363.901C47.9034 363.565 47.408 363.448 46.9042 363.328C46.2433 363.171 45.5678 363.01 45.5678 362.351C45.5678 361.811 44.845 361.939 44.0704 362.077C43.1759 362.235 42.2122 362.406 42.2122 361.576C42.2122 360.768 41.4147 360.907 40.5321 361.061C39.7211 361.203 38.8382 361.357 38.4364 360.8C38.0427 360.255 37.9261 360.392 37.74 360.611C37.5294 360.859 37.2298 361.212 36.3392 360.8C35.4803 360.404 35.2808 360.819 35.0656 361.268C34.8604 361.695 34.6409 362.152 33.8219 361.963C33.0912 361.794 32.2015 362.36 31.4644 362.829C30.5087 363.437 29.8096 363.882 30.0464 362.351C30.4659 359.638 30.8865 357.7 36.3392 357.7C42.4609 357.7 46.5958 359.167 47.9753 360.674C47.8573 360.47 47.7465 360.248 47.6664 360.025C47.4572 359.444 47.1424 359.347 46.8275 359.25C46.5126 359.153 46.1975 359.057 45.9877 358.475C45.7527 357.825 45.3868 357.902 45.1101 357.961C44.8924 358.007 44.7299 358.042 44.7299 357.7C44.7299 357.313 44.1005 357.313 43.471 357.313C42.8416 357.313 42.2122 357.313 42.2122 356.925C42.2122 356.538 41.688 356.538 41.1114 356.538C40.5348 356.538 39.9057 356.538 39.6959 356.15C39.5852 355.946 39.562 355.876 39.557 355.877C39.5431 355.881 39.6706 356.435 38.4364 356.15C37.6275 355.963 37.4037 355.686 37.2475 355.493C37.0799 355.285 36.9903 355.175 36.3392 355.375C35.0815 355.763 32.9829 353.825 35.4999 352.275C37.3266 351.15 42.5111 352.27 45.9877 354.302C45.8322 354.015 45.7592 353.821 45.7082 353.685C45.6215 353.454 45.5982 353.392 45.3415 353.33C45.1393 353.281 44.9579 353.258 44.7937 353.236C44.2532 353.166 43.8981 353.12 43.5928 352.275C43.3734 351.667 43.0391 351.483 42.7701 351.334C42.5247 351.199 42.3336 351.094 42.3336 350.724C42.3336 350.425 42.0199 350.415 41.6595 350.403C41.0876 350.384 40.3978 350.362 40.6556 349.174C41.0751 347.624 45.2701 347.624 46.1091 349.561C46.3336 350.08 46.8197 350.515 47.3952 351.031C48.5698 352.082 50.1171 353.468 50.5738 356.575C50.8259 351.868 52.4519 347.756 55.2171 348.011C58.278 348.294 57.3187 348.99 56.4133 349.647C56.078 349.89 55.75 350.128 55.6366 350.337C55.4666 350.651 55.6409 350.711 55.8248 350.774C56.0947 350.866 56.3852 350.965 55.6366 351.887C54.9374 352.749 55.0151 353.251 55.0784 353.66L55.0802 353.672C56.1634 352.869 57.4598 352.119 58.9925 351.5C65.7045 348.787 64.446 352.662 64.0265 353.05C63.6909 353.36 63.0477 353.437 62.768 353.437C62.768 353.566 62.6002 353.902 61.929 354.212C61.2578 354.522 60.8104 354.6 60.6705 354.6C60.3349 355.22 59.1324 355.375 58.5731 355.375C58.8527 355.633 58.9086 356.304 56.8951 356.925C55.6819 357.299 55.6768 357.363 55.6503 357.693C55.6329 357.911 55.6062 358.246 55.2171 358.862C55.2171 358.862 55.6366 358.474 61.929 356.149C67.5768 354.062 69.1692 356.033 69.7396 356.74C69.8047 356.82 69.8565 356.884 69.8995 356.924C70.319 357.311 67.802 358.474 66.5435 358.474C65.822 358.474 65.5142 358.474 65.2247 358.547C65.0093 358.601 64.804 358.696 64.446 358.862C64.0265 359.055 63.7119 359.055 63.2924 359.055C62.8729 359.055 62.3485 359.055 61.5095 359.249C60.5457 359.472 60.4123 359.694 60.2349 359.99C60.1034 360.21 59.9477 360.469 59.412 360.799C58.8603 361.139 58.2278 361.181 57.6562 361.219C56.9241 361.267 56.2916 361.309 56.0561 361.962C55.8032 362.663 55.1346 363.224 54.7352 363.559C54.472 363.779 54.3257 363.902 54.4924 363.902C54.5062 363.902 54.5192 363.902 54.5316 363.902C54.5586 363.902 54.5829 363.902 54.6072 363.902C54.8349 363.906 55.062 363.951 57.4138 364.418C58.2206 364.578 59.2776 364.787 60.6705 365.062C66.5444 366.22 70.319 371.65 69.8995 372.425C69.5441 373.081 69.1887 372.904 68.5783 372.598L68.5783 372.598C68.4681 372.543 68.3497 372.484 68.2215 372.425C67.7531 372.209 67.6769 372.234 67.4821 372.298C67.3279 372.349 67.0994 372.425 66.5435 372.425C65.7456 372.425 65.6222 371.958 65.5319 371.616C65.4797 371.418 65.4385 371.262 65.285 371.262C65.0752 371.262 64.8655 370.972 64.6558 370.681C64.446 370.39 64.2363 370.1 64.0265 370.1H64.0259C63.6038 370.1 60.251 370.1 60.251 369.325C60.251 368.55 59.8315 368.163 58.9925 368.163C58.6095 368.163 57.7019 368.163 56.8286 368.089C58.1734 369.256 59.4508 370.541 60.251 371.65C61.929 373.975 63.1875 376.688 62.768 378.625C62.4324 380.175 61.2299 380.305 60.6705 380.175C60.3909 380.046 59.9154 379.633 60.251 379.013C60.6705 378.238 59.8315 377.076 59.412 376.688L59.4107 376.686C58.9917 376.299 58.5731 375.911 58.5731 374.75C58.5731 374.495 58.5932 374.259 58.6114 374.045C58.6763 373.285 58.7167 372.812 57.7341 372.812C56.6822 372.812 56.5095 372.271 56.2362 371.415L56.2362 371.414C56.1825 371.246 56.125 371.066 56.0561 370.875C55.865 370.345 55.674 370.137 55.4829 370.068C56.5453 373.311 57.2196 378.903 57.2196 382.502V391.028C53.4072 393.094 45.7823 391.028 45.7823 391.028C45.7823 391.028 45.0194 378.838 46.2065 371.006C45.9366 371.115 45.6807 370.979 45.5686 370.875C45.9881 372.425 45.1492 373.201 44.7297 373.588C44.45 373.847 44.1703 373.072 44.1392 372.986C44.1374 372.98 44.1365 372.978 44.1364 372.978C44.1363 372.978 44.1374 372.981 44.1397 372.989C44.1528 373.031 44.2053 373.201 44.3102 373.588C44.6801 374.955 44.0713 376.021 43.6346 376.785C43.5761 376.887 43.5207 376.984 43.4712 377.076C43.2381 377.506 43.0051 377.339 42.772 377.172C42.5856 377.038 42.3991 376.904 42.2127 377.076C42.0411 377.234 42.0099 377.587 41.9755 377.976C41.9258 378.537 41.8696 379.172 41.3737 379.401Z" fill="url(#paint2_linear_333_3833)"/>
<path d="M43.5655 357.843C44.945 358.302 49.3516 361.1 51.3825 362.441L50.9117 364.896C50.9117 364.896 49.6678 365.407 49.3732 365.099L48.9536 364.969C48.863 364.972 48.7808 364.968 48.7138 364.896C48.3551 364.507 47.1937 363.818 47.1937 363.818L26.897 365.889V358.647C28.0082 358.379 30.5755 357.613 31.955 356.693C33.6793 355.544 41.8412 357.268 43.5655 357.843Z" fill="#D9D9D9"/>
<path d="M43.5655 357.843C44.945 358.302 49.3516 361.1 51.3825 362.441L50.9117 364.896C50.9117 364.896 49.6678 365.407 49.3732 365.099L48.9536 364.969C48.863 364.972 48.7808 364.968 48.7138 364.896C48.3551 364.507 47.1937 363.818 47.1937 363.818L26.897 365.889V358.647C28.0082 358.379 30.5755 357.613 31.955 356.693C33.6793 355.544 41.8412 357.268 43.5655 357.843Z" fill="url(#paint3_linear_333_3833)"/>
<path d="M58.2906 351.859C50.914 354.928 48.5747 362.007 49.0009 365.013C50.7508 363.757 51.089 362.964 54.0504 359.936C57.0118 356.907 58.156 357.984 59.8386 356.84L65.2229 353.676L65.5594 350.782C65.7613 349.907 65.6671 348.79 58.2906 351.859Z" fill="#D9D9D9"/>
<path d="M58.2906 351.859C50.914 354.928 48.5747 362.007 49.0009 365.013C50.7508 363.757 51.089 362.964 54.0504 359.936C57.0118 356.907 58.156 357.984 59.8386 356.84L65.2229 353.676L65.5594 350.782C65.7613 349.907 65.6671 348.79 58.2906 351.859Z" fill="url(#paint4_linear_333_3833)"/>
<path d="M41.3735 379.402C40.7023 379.712 40.2549 379.014 40.115 378.626C38.8566 376.301 42.2125 370.875 44.7295 367.775C46.3676 365.758 47.7465 365.142 48.505 365.053C49.7229 364.95 52.267 364.807 52.7 365.062C53.6452 365.221 54.3482 365.829 54.7497 366.418C55.417 366.912 56.1217 367.477 56.8094 368.073C58.1612 369.244 59.4469 370.536 60.2509 371.65C61.9289 373.975 63.1874 376.688 62.7679 378.626C62.4323 380.176 61.2297 380.305 60.6704 380.176C60.3907 380.047 59.9153 379.633 60.2509 379.013C60.6704 378.238 59.8314 377.076 59.4119 376.688L59.4106 376.687C58.9915 376.299 58.5729 375.912 58.5729 374.751C58.5729 373.588 58.9924 372.813 57.7339 372.813C56.4754 372.813 56.4754 372.038 56.0559 370.875C55.6364 369.713 55.2169 370.1 54.7974 370.1H54.7965C54.3754 370.1 52.7004 370.1 52.7004 368.938C52.7004 367.775 52.7 367.388 52.7 367.775C52.7 368.085 51.5095 367.995 50.9502 367.478L50.9482 367.477C50.7609 367.304 50.183 366.77 50.183 367.388C50.183 368.163 48.9245 369.326 48.505 369.326C48.0855 369.326 48.0855 368.163 47.666 368.551C47.2465 368.938 47.2465 369.326 47.2465 369.713C47.2465 370.101 46.827 370.488 46.4075 370.876L46.4075 370.876C46.0719 371.186 45.7083 371.005 45.5685 370.876C45.988 372.426 45.149 373.201 44.7295 373.589C44.31 373.976 43.8905 372.039 44.31 373.589C44.7295 375.139 43.8905 376.301 43.471 377.076C43.0515 377.851 42.632 376.689 42.2125 377.076C41.793 377.464 42.2125 379.014 41.3735 379.402Z" fill="#252730"/>
<path d="M41.3735 379.402C40.7023 379.712 40.2549 379.014 40.115 378.626C38.8566 376.301 42.2125 370.875 44.7295 367.775C46.3676 365.758 47.7465 365.142 48.505 365.053C49.7229 364.95 52.267 364.807 52.7 365.062C53.6452 365.221 54.3482 365.829 54.7497 366.418C55.417 366.912 56.1217 367.477 56.8094 368.073C58.1612 369.244 59.4469 370.536 60.2509 371.65C61.9289 373.975 63.1874 376.688 62.7679 378.626C62.4323 380.176 61.2297 380.305 60.6704 380.176C60.3907 380.047 59.9153 379.633 60.2509 379.013C60.6704 378.238 59.8314 377.076 59.4119 376.688L59.4106 376.687C58.9915 376.299 58.5729 375.912 58.5729 374.751C58.5729 373.588 58.9924 372.813 57.7339 372.813C56.4754 372.813 56.4754 372.038 56.0559 370.875C55.6364 369.713 55.2169 370.1 54.7974 370.1H54.7965C54.3754 370.1 52.7004 370.1 52.7004 368.938C52.7004 367.775 52.7 367.388 52.7 367.775C52.7 368.085 51.5095 367.995 50.9502 367.478L50.9482 367.477C50.7609 367.304 50.183 366.77 50.183 367.388C50.183 368.163 48.9245 369.326 48.505 369.326C48.0855 369.326 48.0855 368.163 47.666 368.551C47.2465 368.938 47.2465 369.326 47.2465 369.713C47.2465 370.101 46.827 370.488 46.4075 370.876L46.4075 370.876C46.0719 371.186 45.7083 371.005 45.5685 370.876C45.988 372.426 45.149 373.201 44.7295 373.589C44.31 373.976 43.8905 372.039 44.31 373.589C44.7295 375.139 43.8905 376.301 43.471 377.076C43.0515 377.851 42.632 376.689 42.2125 377.076C41.793 377.464 42.2125 379.014 41.3735 379.402Z" fill="url(#paint5_linear_333_3833)"/>
<path d="M58.7864 356.981C53.4354 358.475 49.8678 363.115 48.8999 365.031C50.1616 364.814 52.4527 365.094 53.3294 365.233C53.6656 364.899 54.3047 364.016 54.3808 363.988C54.4569 363.96 54.8364 363.638 55.0013 363.55L62.668 360.39C66.0865 360.601 72.33 360.215 69.9554 356.98C66.9872 352.938 65.4752 355.112 58.7864 356.981Z" fill="#D9D9D9"/>
<path d="M58.7864 356.981C53.4354 358.475 49.8678 363.115 48.8999 365.031C50.1616 364.814 52.4527 365.094 53.3294 365.233C53.6656 364.899 54.3047 364.016 54.3808 363.988C54.4569 363.96 54.8364 363.638 55.0013 363.55L62.668 360.39C66.0865 360.601 72.33 360.215 69.9554 356.98C66.9872 352.938 65.4752 355.112 58.7864 356.981Z" fill="url(#paint6_linear_333_3833)"/>
</g>
<mask id="mask2_333_3833" style="mask-type:alpha" maskUnits="userSpaceOnUse" x="79" y="365" width="16" height="28">
<path d="M80.9931 371.778C81.074 371.167 81.4786 371.751 82.6411 371.288C82.6673 371.278 82.685 371.252 82.685 371.224V370.239C82.685 370.139 82.4793 370.043 82.2565 369.971C82.0297 369.898 81.8599 369.697 81.8599 369.458V368.306C81.8599 368.03 82.0838 367.806 82.3599 367.806H83.7073C83.7534 367.806 83.7869 367.762 83.7766 367.717C83.5572 366.757 83.9051 365 86.9762 365C90.0417 365 90.4712 366.621 90.2967 367.511C90.288 367.556 90.3213 367.599 90.3668 367.599H91.6338C91.91 367.599 92.1338 367.822 92.1338 368.099V369.238C92.1338 369.483 91.9572 369.691 91.7161 369.731L90.9877 369.853C90.9419 369.861 90.9162 369.91 90.9369 369.951C91.123 370.325 91.4218 370.864 91.3911 371.079C91.3499 371.368 93.0003 370.914 93.0003 372.069C93.0003 375.112 91.68 373.72 92.1338 374.628C92.2452 374.85 93.014 374.755 93.4318 375.8C94.7167 379.013 95.2838 386.372 93.8515 387.492C93.7022 387.609 93.5626 387.712 93.4318 387.803V392.542C93.4318 392.581 93.4005 392.612 93.362 392.612H81.0479C81.0094 392.612 80.9782 392.581 80.9782 392.542V386.828C80.2725 386.541 79.7413 386.099 79.4516 385.785C78.9572 385.248 79.204 378.647 79.4516 377.491C79.6479 376.575 80.5358 375.989 80.9666 375.805C80.9744 375.801 80.9809 375.797 80.987 375.791C81.2992 375.49 82.2492 374.402 81.53 374.337C80.6222 374.254 80.9111 372.398 80.9931 371.778Z" fill="url(#paint7_linear_333_3833)"/>
</mask>
<g mask="url(#mask2_333_3833)">
<path d="M80.9931 371.778C81.074 371.167 81.4786 371.751 82.6411 371.288C82.6673 371.278 82.685 371.252 82.685 371.224V370.239C82.685 370.139 82.4793 370.043 82.2565 369.971C82.0297 369.898 81.8599 369.697 81.8599 369.458V368.306C81.8599 368.03 82.0838 367.806 82.3599 367.806H83.7073C83.7534 367.806 83.7869 367.762 83.7766 367.717C83.5572 366.757 83.9051 365 86.9762 365C90.0417 365 90.4712 366.621 90.2967 367.511C90.288 367.556 90.3213 367.599 90.3668 367.599H91.6338C91.91 367.599 92.1338 367.822 92.1338 368.099V369.238C92.1338 369.483 91.9572 369.691 91.7161 369.731L90.9877 369.853C90.9419 369.861 90.9162 369.91 90.9369 369.951C91.123 370.325 91.4218 370.864 91.3911 371.079C91.3499 371.368 93.0003 370.914 93.0003 372.069C93.0003 375.112 91.68 373.72 92.1338 374.628C92.2452 374.85 93.014 374.755 93.4318 375.8C94.7167 379.013 95.2838 386.372 93.8515 387.492C93.7022 387.609 93.5626 387.712 93.4318 387.803V392.542C93.4318 392.581 93.4005 392.612 93.362 392.612H81.0479C81.0094 392.612 80.9782 392.581 80.9782 392.542V386.828C80.2725 386.541 79.7413 386.099 79.4516 385.785C78.9572 385.248 79.204 378.647 79.4516 377.491C79.6479 376.575 80.5358 375.989 80.9666 375.805C80.9744 375.801 80.9809 375.797 80.987 375.791C81.2992 375.49 82.2492 374.402 81.53 374.337C80.6222 374.254 80.9111 372.398 80.9931 371.778Z" fill="url(#paint8_linear_333_3833)"/>
<path d="M84.4747 386.88L82.6976 387.144C82.0972 387.194 81.5288 387.095 81.0423 386.918V391.846C81.0423 392.231 81.3546 392.543 81.7398 392.543H92.8049C93.1901 392.543 93.5023 392.231 93.5023 391.846V388.136C93.5023 387.937 93.5876 387.747 93.7365 387.615L93.9252 387.447C94.1323 387.263 94.2109 386.974 94.1252 386.71L92.4262 381.482L91.1504 378.364C91.0431 378.102 90.788 377.931 90.5048 377.931H83.278C82.9417 377.931 82.6527 378.172 82.5918 378.503C82.2171 380.539 82.1652 381.019 82.5941 382.724C82.6563 382.971 82.8516 383.163 83.0992 383.224L84.1916 383.494C84.4159 383.55 84.5976 383.714 84.6827 383.928C85.0998 384.981 85.3739 385.416 85.0009 386.463C84.9201 386.69 84.7129 386.844 84.4747 386.88Z" fill="url(#paint9_linear_333_3833)"/>
<path d="M90.8894 388.265C91.3633 388.673 92.2605 388.733 94.012 387.397C94.0921 387.336 94.1573 387.257 94.1937 387.163C94.3347 386.798 94.6815 385.69 94.7517 383.462C94.8216 381.243 94.2847 379.838 94.0553 379.345C93.9941 379.213 93.8834 379.114 93.7505 379.055L92.4622 378.482C91.9122 378.237 91.3467 378.752 91.5365 379.324C91.9729 380.638 92.2066 381.66 91.7018 383.21C91.6488 383.373 91.5317 383.506 91.3882 383.599C91.0169 383.841 90.2968 384.381 90.0611 385.073C89.7433 386.005 89.978 386.948 90.7997 388.162C90.8254 388.2 90.8547 388.236 90.8894 388.265Z" fill="url(#paint10_linear_333_3833)"/>
</g>
<mask id="mask3_333_3833" style="mask-type:alpha" maskUnits="userSpaceOnUse" x="200" y="363" width="43" height="34">
<path d="M201.189 371.576C199.501 370.645 199.864 370.082 200.72 369.321C201.043 369.034 201.86 368.789 202.771 368.087C203.793 367.299 204.958 365.79 205.646 365.488C205.646 364.413 206.704 363.639 207.299 363.28C207.489 363.165 207.708 363.113 207.929 363.113L208.943 363.113C209.48 363.113 210.005 363.275 210.449 363.577L210.777 363.8C211.172 364.069 211.485 364.439 211.701 364.865C212.903 367.246 215.107 370.952 215.731 371.576C216.587 372.433 217.349 372.813 220.488 372.052C223 371.443 228.563 371.481 230.18 371.576C229.958 371.006 230.37 369.864 233.795 369.864C238.077 369.864 237.159 373.86 239.252 373.86C240.362 373.86 241.332 372.052 241.903 371.576C242.36 371.196 242.793 371.767 242.793 372.052C242.602 374.24 240.14 375.572 237.411 375.572C234.747 375.668 233.32 372.813 232.749 372.052C232.292 371.443 231.29 371.545 230.846 372.052C231.254 376.055 230.846 378.075 229.687 381.238L230.18 386.181L232.364 391.524L233.058 392.838L232.021 394.676L230.846 394.22L231.318 393.01L228.357 387.293L227.814 393.649V394.886H225.343L226.231 393.221L225.911 386.704L224.791 381.238C221.068 381.898 219.018 382.047 215.461 381.728L214.162 384.17L214.446 386.704L215.136 394.886V395.855L213.066 396.383L213.593 394.886L212.687 387.894L211.64 386.181V381.728L211.069 382.518L209.037 386.181V392.062L208.652 393.649L206.636 394.22V393.649L207.302 392.413V385.848C207.302 384.782 208.911 379.617 209.767 378.075L209.357 373.86L207.847 369.864C207.386 369.864 207.142 370.797 206.37 370.769C205.597 370.741 204.353 371.033 203.21 372.052C202.809 372.41 201.881 371.832 201.189 371.576Z" fill="url(#paint11_linear_333_3833)"/>
</mask>
<g mask="url(#mask3_333_3833)">
<path d="M201.189 371.576C199.501 370.645 199.864 370.082 200.72 369.321C201.043 369.034 201.86 368.789 202.771 368.087C203.793 367.299 204.958 365.79 205.646 365.488C205.646 364.413 206.704 363.639 207.299 363.28C207.489 363.165 207.708 363.113 207.929 363.113L208.943 363.113C209.48 363.113 210.005 363.275 210.449 363.577L210.777 363.8C211.172 364.069 211.485 364.439 211.701 364.865C212.903 367.246 215.107 370.952 215.731 371.576C216.587 372.433 217.349 372.813 220.488 372.052C223 371.443 228.563 371.481 230.18 371.576C229.958 371.006 230.37 369.864 233.795 369.864C238.077 369.864 237.159 373.86 239.252 373.86C240.362 373.86 241.332 372.052 241.903 371.576C242.36 371.196 242.793 371.767 242.793 372.052C242.602 374.24 240.14 375.572 237.411 375.572C234.747 375.668 233.32 372.813 232.749 372.052C232.292 371.443 231.29 371.545 230.846 372.052C231.254 376.055 230.846 378.075 229.687 381.238L230.18 386.181L232.364 391.524L233.058 392.838L232.021 394.676L230.846 394.22L231.318 393.01L228.357 387.293L227.814 393.649V394.886H225.343L226.231 393.221L225.911 386.704L224.791 381.238C221.068 381.898 219.018 382.047 215.461 381.728L214.162 384.17L214.446 386.704L215.136 394.886V395.855L213.066 396.383L213.593 394.886L212.687 387.894L211.64 386.181V381.728L211.069 382.518L209.037 386.181V392.062L208.652 393.649L206.636 394.22V393.649L207.302 392.413V385.848C207.302 384.782 208.911 379.617 209.767 378.075L209.357 373.86L207.847 369.864C207.386 369.864 207.142 370.797 206.37 370.769C205.597 370.741 204.353 371.033 203.21 372.052C202.809 372.41 201.881 371.832 201.189 371.576Z" fill="url(#paint12_linear_333_3833)"/>
<path d="M211.53 381.721L209.592 377.291H205.37L203.225 395.494C205.993 395.701 211.53 395.992 211.53 395.494V381.721Z" fill="url(#paint13_linear_333_3833)"/>
<path d="M228.954 382.844C228.91 382.622 230.491 379.589 230.935 378.351L236.049 395.481H230.229L228.954 391.545L228.289 387.444C228.529 386.003 228.998 383.065 228.954 382.844Z" fill="url(#paint14_linear_333_3833)"/>
<path d="M206.905 364.715C206.601 364.943 205.954 365.38 205.448 365.57L205.042 361.442L212.739 360.777L218.441 370.375C218.853 370.881 219.429 372.028 218.441 372.56C217.453 373.092 215.512 372.913 214.815 372.692L209.885 365.702L209.297 364.972V363.316C209.297 363.316 208.002 364.603 207.839 364.595C207.436 364.576 207.06 364.599 206.905 364.715Z" fill="#D9D9D9"/>
<path d="M206.905 364.715C206.601 364.943 205.954 365.38 205.448 365.57L205.042 361.442L212.739 360.777L218.441 370.375C218.853 370.881 219.429 372.028 218.441 372.56C217.453 373.092 215.512 372.913 214.815 372.692L209.885 365.702L209.297 364.972V363.316C209.297 363.316 208.002 364.603 207.839 364.595C207.436 364.576 207.06 364.599 206.905 364.715Z" fill="url(#paint15_linear_333_3833)"/>
<path d="M231.058 372.269C230.726 371.912 230.45 371.692 230.051 371.521L228.982 367.459L243.94 368.243V376.861L234.253 377.431L231.058 372.269Z" fill="url(#paint16_linear_333_3833)"/>
<path d="M207.836 369.866C207.993 369.779 209.816 369.562 209.478 368.118C209.478 368.118 209.274 367.488 208.391 366.881C207.098 365.991 204.462 366.312 203.318 366.031L198.222 369.446L198.8 372.231H204.053C204.347 372.231 206.698 370.654 207.836 369.866Z" fill="url(#paint17_linear_333_3833)"/>
</g>
</g>
<defs>
<linearGradient id="paint0_linear_333_3833" x1="133" y1="0" x2="133" y2="1056" gradientUnits="userSpaceOnUse">
<stop stop-color="#4587B6"/>
<stop offset="0.45" stop-color="#7AADD0"/>
<stop offset="1" stop-color="#D8EFFF"/>
</linearGradient>
<linearGradient id="paint1_linear_333_3833" x1="49.973" y1="348" x2="49.973" y2="391.946" gradientUnits="userSpaceOnUse">
<stop stop-color="#619EC9"/>
<stop offset="0.614435" stop-color="#446F8E"/>
<stop offset="1"/>
</linearGradient>
<linearGradient id="paint2_linear_333_3833" x1="49.973" y1="326.5" x2="49.973" y2="391.946" gradientUnits="userSpaceOnUse">
<stop offset="0.101136" stop-color="#324455"/>
<stop offset="0.685737" stop-color="#446F8E"/>
<stop offset="1" stop-color="#252730"/>
</linearGradient>
<linearGradient id="paint3_linear_333_3833" x1="51.3825" y1="353.97" x2="46.6297" y2="382.784" gradientUnits="userSpaceOnUse">
<stop stop-color="#619EC9"/>
<stop offset="1" stop-color="#252730"/>
</linearGradient>
<linearGradient id="paint4_linear_333_3833" x1="65.6078" y1="346.182" x2="50.2223" y2="386.692" gradientUnits="userSpaceOnUse">
<stop stop-color="#619EC9"/>
<stop offset="1" stop-color="#252730"/>
</linearGradient>
<linearGradient id="paint5_linear_333_3833" x1="54.8939" y1="344.904" x2="54.8939" y2="380.214" gradientUnits="userSpaceOnUse">
<stop stop-color="#619EC9"/>
<stop offset="0.359435" stop-color="#5183A7"/>
<stop offset="1" stop-color="#252730"/>
</linearGradient>
<linearGradient id="paint6_linear_333_3833" x1="75.6912" y1="354.693" x2="50.9111" y2="372.926" gradientUnits="userSpaceOnUse">
<stop stop-color="#619EC9"/>
<stop offset="0.62381" stop-color="#385B74"/>
<stop offset="1" stop-color="#252730"/>
</linearGradient>
<linearGradient id="paint7_linear_333_3833" x1="86.9297" y1="355.193" x2="86.9297" y2="395.389" gradientUnits="userSpaceOnUse">
<stop stop-color="#619EC9"/>
<stop offset="0.0709693" stop-color="#486C89"/>
<stop offset="1" stop-color="#252730"/>
</linearGradient>
<linearGradient id="paint8_linear_333_3833" x1="86.9297" y1="355.193" x2="86.9297" y2="395.389" gradientUnits="userSpaceOnUse">
<stop stop-color="#619EC9"/>
<stop offset="0.0709693" stop-color="#486C89"/>
<stop offset="1" stop-color="#252730"/>
</linearGradient>
<linearGradient id="paint9_linear_333_3833" x1="86.9591" y1="376.778" x2="86.9591" y2="392.842" gradientUnits="userSpaceOnUse">
<stop stop-color="#395D76" stop-opacity="0"/>
<stop offset="0.226373" stop-color="#3A5F78" stop-opacity="0.952191"/>
<stop offset="0.522146" stop-color="#3C617B" stop-opacity="0.877494"/>
<stop offset="1" stop-color="#619EC9" stop-opacity="0"/>
</linearGradient>
<linearGradient id="paint10_linear_333_3833" x1="92.028" y1="378.791" x2="91.8769" y2="388.506" gradientUnits="userSpaceOnUse">
<stop offset="0.0001" stop-color="#364759"/>
<stop offset="1" stop-color="#252730"/>
</linearGradient>
<linearGradient id="paint11_linear_333_3833" x1="211.481" y1="357.001" x2="220.188" y2="396.694" gradientUnits="userSpaceOnUse">
<stop stop-color="#619EC9"/>
<stop offset="0.614435" stop-color="#446F8E"/>
<stop offset="1"/>
</linearGradient>
<linearGradient id="paint12_linear_333_3833" x1="220" y1="349.5" x2="221" y2="400" gradientUnits="userSpaceOnUse">
<stop stop-color="#619EC9"/>
<stop offset="0.502278" stop-color="#446F8E"/>
<stop offset="1" stop-color="#252730"/>
</linearGradient>
<linearGradient id="paint13_linear_333_3833" x1="213.051" y1="360.065" x2="205.479" y2="421.164" gradientUnits="userSpaceOnUse">
<stop stop-color="#252730"/>
<stop offset="0.88262" stop-color="#5183A7"/>
<stop offset="1" stop-color="#619EC9"/>
</linearGradient>
<linearGradient id="paint14_linear_333_3833" x1="228.289" y1="422.195" x2="232.169" y2="366.684" gradientUnits="userSpaceOnUse">
<stop stop-color="#619EC9"/>
<stop offset="0.34515" stop-color="#5183A7"/>
<stop offset="1" stop-color="#252730"/>
</linearGradient>
<linearGradient id="paint15_linear_333_3833" x1="222.353" y1="360.777" x2="201.299" y2="369.513" gradientUnits="userSpaceOnUse">
<stop stop-color="#619EC9"/>
<stop offset="0.62381" stop-color="#385B74"/>
<stop offset="1" stop-color="#252730"/>
</linearGradient>
<linearGradient id="paint16_linear_333_3833" x1="228.982" y1="392.982" x2="229.669" y2="366.518" gradientUnits="userSpaceOnUse">
<stop stop-color="#619EC9"/>
<stop offset="0.34515" stop-color="#5183A7"/>
<stop offset="1" stop-color="#252730"/>
</linearGradient>
<linearGradient id="paint17_linear_333_3833" x1="208.316" y1="366.693" x2="197.298" y2="382.728" gradientUnits="userSpaceOnUse">
<stop offset="0.0121864" stop-color="#619EC9" stop-opacity="0"/>
<stop offset="0.369572" stop-color="#385B74"/>
<stop offset="1" stop-color="#252730"/>
</linearGradient>
</defs>
</svg>
