<svg width="390" height="304" viewBox="0 0 390 304" fill="none" xmlns="http://www.w3.org/2000/svg">
<g clip-path="url(#clip0_218_1869)">
<path d="M181.581 224.738C177.372 225.385 178.446 231.702 179.256 236.153C169.588 234.44 165.224 235.864 161.583 240.315C158.528 244.048 163.178 252.788 164.251 254.688C164.384 254.923 164.611 255.063 164.881 255.076C168.152 255.228 189.552 256.178 189.552 255.056C189.552 253.842 187.529 241.299 187.933 233.611C188.338 225.922 186.841 223.928 181.581 224.738Z" fill="#F38990"/>
<path fill-rule="evenodd" clip-rule="evenodd" d="M172.922 241.985C173.707 241.125 174.868 240.438 176.125 240.438C176.776 240.438 177.469 240.655 178.103 240.926C178.756 241.205 179.442 241.581 180.103 241.982C181.141 242.612 182.185 243.345 183.008 243.923C183.278 244.112 183.913 244.622 184.196 244.836C184.243 244.871 184.239 244.945 184.189 244.975L182.691 245.869C182.555 245.95 182.384 245.945 182.254 245.854C182.114 245.757 181.969 245.655 181.819 245.549C181 244.975 180.032 244.295 179.058 243.704C178.438 243.328 177.843 243.005 177.313 242.779C176.764 242.545 176.369 242.452 176.125 242.452C175.591 242.452 174.934 242.769 174.409 243.344C173.881 243.922 173.659 244.569 173.723 245.038C173.805 245.638 174.177 246.362 174.765 247.081C175.278 247.708 176.659 248.819 177.382 249.317C177.45 249.364 177.416 249.475 177.335 249.475H175.288C174.409 249.475 173.918 249.227 173.206 248.356C172.504 247.498 171.88 246.431 171.727 245.31C171.557 244.06 172.14 242.842 172.922 241.985Z" fill="#2F2F35"/>
<path d="M211.215 240.751C212.083 230.709 220.487 223 230.566 223H292.258C303.645 223 312.589 232.751 311.609 244.095L307.273 294.271C306.405 304.313 298.001 312.022 287.922 312.022H226.23C214.844 312.022 205.899 302.271 206.879 290.927L211.215 240.751Z" fill="#038600"/>
<path d="M265.304 259.217C286.364 260.55 287.519 286.604 285.405 302.521C285.03 305.347 284.046 308.042 282.709 310.559L278.304 318.851C278.023 319.38 277.473 319.71 276.875 319.71H224.28C221.843 319.71 219.784 317.904 219.466 315.489L216.342 291.789C214.993 298.534 211.081 312.993 206.225 316.877C200.156 321.733 189.499 319.71 182.351 316.877C173.626 313.42 164.142 259.418 163.333 254.562C162.524 249.707 181.901 253.98 181.901 253.98C190.437 256.099 189.674 252.635 190.888 256.681C192.102 260.727 198.942 287.339 198.942 282.483C198.942 277.627 207.035 261.441 212.295 259.418C217.556 257.395 233.337 257.194 265.304 259.217Z" fill="#FEE133"/>
<path d="M260.333 313.127L257.724 274.369C257.665 273.484 256.904 272.812 256.018 272.862L230.558 274.296C229.644 274.347 228.955 275.146 229.037 276.057L232.396 313.381C232.471 314.215 233.17 314.855 234.008 314.855H258.718C259.655 314.855 260.396 314.062 260.333 313.127Z" fill="white"/>
<path fill-rule="evenodd" clip-rule="evenodd" d="M249.523 274.796L236.574 275.605V272.368L249.523 271.559V274.796Z" fill="#2F2F35"/>
<path d="M243.616 316.521C249.28 314.063 258.85 299.522 262.927 292.559L268.452 317.48H250.257C245.683 318.184 237.952 318.979 243.616 316.521Z" fill="#FEE133"/>
<path d="M251.512 255.257C251.475 261.169 247.291 265.931 241.151 265.893C235.011 265.855 230.064 261.031 230.101 255.118C230.137 249.206 235.145 245.267 241.285 245.306C247.425 245.344 251.549 249.344 251.512 255.257Z" fill="#F38990"/>
<circle cx="238.191" cy="250.48" r="1.1544" transform="rotate(2.6545 238.191 250.48)" fill="#2F2F35"/>
<path d="M251.512 252.716C252.223 256.274 250.863 259.399 250.48 260.183C250.447 260.25 250.351 260.24 250.331 260.168C250.031 259.102 248.331 253.977 242.041 248.187C240.415 246.689 237.978 246.356 237.561 245.806C237.523 245.756 237.54 245.69 237.59 245.651C238.009 245.324 240.124 243.919 244.512 244.893C249.453 245.991 251.1 250.657 251.512 252.716Z" fill="#2F2F35"/>
<path d="M242.35 316.128C253.825 311.476 263.918 291.203 263.54 287.924" stroke="black" stroke-width="2.02323" stroke-linejoin="bevel"/>
</g>
<circle cx="302.101" cy="98.9136" r="29.2514" fill="#F7B7CE"/>
<path d="M279.868 80.0293L329.511 109.012L318.383 144.69C317.645 147.056 315.454 148.668 312.975 148.668L206.304 148.668C200.877 148.668 198.556 141.773 202.878 138.491L279.868 80.0293Z" fill="#F7B7CE"/>
<circle cx="260.88" cy="93.087" r="10.6398" fill="#FFA1A8"/>
<path d="M266.64 87.4052C264.14 88.8845 256.01 87.8194 252.124 87.1837C251.979 87.1599 251.864 87.0484 251.848 86.9018C251.427 83.0017 259.346 78.4204 266.64 82.1192C274.085 85.8949 272.667 92.6912 270.894 92.6912C269.476 92.6912 267.467 89.1672 266.64 87.4052Z" fill="#2F2F35"/>
<path d="M275.055 80.9247C271.265 81.2063 269.588 83.8577 269.224 85.1483C268.757 86.2047 270.682 86.2036 273.597 87.6115C276.513 89.0193 284.895 85.8516 285.624 84.0918C286.352 82.332 281.979 83.3885 280.886 82.6845C279.793 81.9806 279.793 80.5727 275.055 80.9247Z" fill="#2F2F35"/>
<circle cx="257.993" cy="89.7646" r="1.01179" transform="rotate(2.6545 257.993 89.7646)" fill="#2F2F35"/>
<circle cx="263.667" cy="91.1826" r="1.01179" transform="rotate(2.6545 263.667 91.1826)" fill="#2F2F35"/>
<path d="M217.409 110.763C215.386 125.735 220.647 147.663 227.93 156.97C238.289 167.329 249.781 161.286 254.233 156.97C252.479 156.97 252.29 155.678 265.563 155.678C282.153 155.678 292.269 155.678 298.339 149.204C304.409 142.729 304.901 106.482 296.445 99.3285C287.988 92.1756 280.939 94.1723 270.823 94.1723C268.108 94.1723 257.695 99.3285 253.596 99.3285C250.647 99.3285 254.188 94.1723 251.108 94.1723C242.52 94.1723 237.196 94.2764 232.786 94.9816C228.377 95.6868 219.433 95.7909 217.409 110.763Z" fill="#266EB4"/>
<path d="M252.211 107.93C247.22 115.888 236.672 132.451 234.406 135.041" stroke="#2F2F35" stroke-width="2.42787"/>
<path d="M272.846 128.162C267.586 137.739 255.528 157.297 249.377 158.915C247.71 160.125 243.36 162.181 239.297 160.729" stroke="#2F2F35" stroke-width="2.42787"/>
<path d="M248.057 90.6925C245.22 92.1112 246.166 101.451 246.993 105.943C248.057 110.908 251.249 116.228 257.633 117.647C264.017 119.066 271.11 114.101 272.529 113.037C273.947 111.973 274.302 111.263 274.302 109.845C274.302 108.71 272.174 108.662 271.11 108.781C273.238 108.426 273.593 107.362 273.593 105.943C273.593 104.808 270.992 104.997 269.692 105.234C273.238 104.525 272.883 102.397 272.529 101.687C272.245 101.12 268.864 100.978 267.209 100.978C268.746 100.387 270.897 98.9211 272.883 97.7862C275.366 96.3676 277.218 94.8362 275.037 92.343C274.315 91.5185 271.833 91.792 267.564 93.1752C263.959 94.343 261.945 94.7188 258.604 96.2779C257.724 96.6889 255.463 98.3813 254.357 98.672C254.195 98.7144 254.049 98.5981 254.016 98.4342C253.682 96.7909 253.358 94.5138 253.023 93.1752C252.75 92.0872 251.604 88.9193 248.057 90.6925Z" fill="#EA7E85"/>
<path d="M255.198 107.74C253.585 103.121 255.725 98.2868 260.059 96.773C264.394 95.2592 270.043 94.0835 270.752 95.4304C271.462 96.7772 272.548 97.8405 271.439 98.5467L271.668 99.7426C271.668 99.7426 272.009 99.6812 272.109 99.8227C272.59 100.503 273.228 102.196 272.981 102.745C272.885 102.961 272.718 102.89 272.572 103.008C272.406 103.142 272.87 104.025 272.96 104.121C273.367 104.297 273.694 103.852 274.152 105.166C274.745 106.864 275.024 107.062 274.175 107.598C273.632 107.94 274.221 108.497 274.759 108.537C275.064 108.559 275.257 108.775 275.284 108.851C275.771 110.246 276.258 110.511 275.419 111.76C274.58 113.01 274.367 113.543 272.761 114.423C271.155 115.303 266.635 117.2 264.731 117.227C262.827 117.255 259.187 119.163 255.198 107.74Z" fill="#EA7E85"/>
<path fill-rule="evenodd" clip-rule="evenodd" d="M264.235 99.9656L271.437 98.5434L271.685 99.7413L264.478 101.125L264.235 99.9656Z" fill="#2F2F35"/>
<path fill-rule="evenodd" clip-rule="evenodd" d="M265.859 105.328L272.604 102.972L272.999 104.125L266.236 106.43L265.859 105.328Z" fill="#2F2F35"/>
<path fill-rule="evenodd" clip-rule="evenodd" d="M267.566 109.873L274.221 107.549L274.78 108.538L268.017 110.842L267.566 109.873Z" fill="#2F2F35"/>
<path d="M72.6504 21.3324C69.1336 10.8461 76.9359 0 87.9962 0H182.034C190.973 0 198.22 7.24664 198.22 16.1858V72.8362C198.22 81.7754 190.973 89.022 182.034 89.022H106.995C100.039 89.022 93.861 84.5777 91.6493 77.9827L72.6504 21.3324Z" fill="#0063D8"/>
<ellipse cx="143.723" cy="67.8544" rx="40.278" ry="29.8173" fill="#51A3EC"/>
<path d="M120.845 39.6551C113.561 38.4411 104.255 47.748 103.445 61.5059C103.445 75.6698 105.077 89.2734 131.379 96.557C157.681 103.841 173.449 73.2419 175.472 68.7908C177.495 64.3397 165.761 58.27 163.333 59.0793C160.905 59.8886 157.263 61.5059 152.407 61.5059C147.552 61.5059 142.291 59.4839 138.245 52.605C134.198 45.726 128.129 40.869 120.845 39.6551Z" fill="#A2E2FF"/>
<path d="M150.229 19.2431C150.229 24.2498 154.61 31.193 160.625 31.193C166.64 31.193 173.496 25.0739 173.496 20.0673C173.496 15.0606 167.135 10.1777 161.12 10.1777C155.105 10.1777 150.229 14.2364 150.229 19.2431Z" fill="#EDDC0B"/>
<path d="M186.255 19.9931C186.255 24.9998 190.636 31.943 196.65 31.943C202.665 31.943 209.521 25.8239 209.521 20.8173C209.521 15.8106 203.16 10.9277 197.145 10.9277C191.131 10.9277 186.255 14.9864 186.255 19.9931Z" fill="#EDDC0B"/>
<circle cx="179.498" cy="25.1874" r="18.7636" fill="#FFED0D"/>
<path d="M157.039 21.9912C172.925 25.1726 178.577 37.7327 179.418 43.615C185.047 36.0303 202.31 17.108 207.939 23.4877C217.272 34.0653 201.559 46.7545 187.674 50.132L187.597 50.1384C183.162 50.5076 182.418 50.5695 182.045 61.3902C181.754 69.8127 184.023 78.6376 182.045 83.6111C180.847 86.6217 173.024 89.1839 170.009 88.3411C168.043 87.7915 168.77 85.9821 168.77 84.8768C168.77 83.7714 170.787 61.3506 170.787 54.6353C170.787 49.0117 166.666 49.3795 166.658 49.3803L166.658 49.3803C155.626 50.3738 137.182 18.0144 157.039 21.9912Z" fill="#389935"/>
<path fill-rule="evenodd" clip-rule="evenodd" d="M189.587 33.3017C185.698 37.5778 182.309 42.4353 180.262 45.5577L180.222 45.6143C179.96 45.9552 179.534 46.5976 179.152 47.3627C178.766 48.1359 178.46 48.9686 178.378 49.7054L176.513 49.4982C176.629 48.4495 177.041 47.3907 177.473 46.5249C177.81 45.8497 178.18 45.2519 178.484 44.8145C178.483 44.808 178.481 44.8013 178.48 44.7946C178.431 44.5319 178.356 44.1503 178.255 43.6801C178.051 42.7384 177.74 41.4469 177.312 40.0458C176.437 37.1873 174.111 33.6867 172.37 32.0393L171.619 29.3157C174.12 31.035 178.617 36.3144 179.106 39.497C179.464 40.6669 179.742 41.7606 179.948 42.652C182.03 39.5979 184.935 35.6278 188.198 32.0393C190.191 29.8483 192.333 27.7815 194.518 26.1493C196.695 24.5232 200.14 22.5608 203.893 22.1855L201.594 24.6678C199.722 25.0488 197.706 26.1096 195.641 27.6525C193.584 29.1892 191.531 31.1638 189.587 33.3017Z" fill="#2F2F35"/>
<ellipse cx="125.694" cy="34.6349" rx="8.74276" ry="9.06657" fill="#FFED0D"/>
<circle cx="131.535" cy="32.4036" r="0.961684" transform="rotate(2.6545 131.535 32.4036)" fill="#2F2F35"/>
<path d="M115.975 39.5438C116.981 40.7557 120.084 42.7819 122.026 42.7819C123.969 42.7819 126.61 37.5258 126.986 34.9592C126.986 34.9592 130.548 28.9231 130.548 27.8351C130.548 26.7551 132.814 29.471 131.843 27.8351C130.862 26.1835 126.438 21.4076 119.213 25.9438C111.987 30.4805 114.969 38.3319 115.975 39.5438Z" fill="#2F2F35"/>
<circle cx="126.562" cy="35.3354" r="1.94284" fill="#FFED0D"/>
<circle cx="111.993" cy="32.4188" r="5.5047" fill="#2F2F35"/>
<ellipse cx="103.572" cy="33.391" rx="6.15231" ry="5.82851" fill="#2F2F35"/>
<path d="M179.518 59.8885C179.518 64.8051 175.937 71.6232 171.021 71.6232C166.104 71.6232 160.5 65.6144 160.5 60.6978C160.5 55.7813 165.7 50.9863 170.616 50.9863C175.533 50.9863 179.518 54.972 179.518 59.8885Z" fill="#FFED0D"/>
<g clip-path="url(#clip1_218_1869)">
<path d="M173.033 169.511C173.033 200.904 173.033 214.022 118.81 214.022C64.5879 214.022 64.5879 203.004 64.5879 169.511C64.5879 136.018 88.8641 125 118.81 125C148.757 125 173.033 138.118 173.033 169.511Z" fill="#FF5246"/>
<path d="M60.603 127.626L82.9226 130.948V134.103L59.3848 130.432L59.6824 128.314C59.745 127.869 60.1584 127.56 60.603 127.626Z" fill="white"/>
<path d="M80.1473 162.396L84.5194 130.927C84.5593 130.639 84.357 130.374 84.069 130.337L60.5222 127.297C60.4738 127.291 60.4309 127.328 60.4309 127.377V128.291C60.4309 128.372 60.4931 128.441 60.5739 128.452L81.9725 131.167C82.2334 131.2 82.4316 131.422 82.4316 131.685V133.004C82.4316 133.104 82.3418 133.181 82.2431 133.164L59.3721 129.342C59.0886 129.295 58.82 129.485 58.7713 129.769L53.8423 158.453C53.7927 158.741 53.9901 159.014 54.2797 159.058L79.5528 162.841C79.8401 162.884 80.1074 162.684 80.1473 162.396Z" fill="#E91F3C"/>
<path d="M105.288 160.326C95.2091 161.941 82.6695 168.966 77.8142 175.439C77.6244 175.692 77.2197 175.63 77.1289 175.327C75.6619 170.437 73.242 162.276 71.7559 161.186C70.2914 160.112 58.1834 162.778 51.1675 164.523C50.3951 164.715 49.9137 165.488 50.0772 166.267C54.9889 189.67 65.2973 202.2 78.5322 199.914C89.2014 198.072 93.7642 193.78 95.2076 192.063C95.3169 191.933 95.598 192.062 95.5628 192.228C95.2801 193.564 94.7484 196.119 94.4273 197.922C93.9741 200.467 91.6592 210.892 94.2366 217.749C96.814 224.606 127.55 224.791 132.404 217.63C136.626 211.399 136.92 196.104 136.925 192.235C136.925 192.065 137.182 192.024 137.247 192.181C138.528 195.274 140.365 197.141 144.136 198.996C149.579 201.674 160.495 202.787 166.64 202.14C167.107 202.091 167.393 201.621 167.244 201.176C166.505 198.976 164.585 193.15 164.34 191.334C164.037 189.08 164.751 184.383 162.541 184.265C159.449 184.099 153.87 182.422 153.219 181.512C152.569 180.601 149.838 173.474 146.674 170.046C143.51 166.619 141.303 164.835 134.604 161.187C127.904 157.538 115.701 158.659 105.288 160.326Z" fill="#117649"/>
<path fill-rule="evenodd" clip-rule="evenodd" d="M127.385 161.039C125.972 162.926 123.802 164.237 121.272 164.488C117.79 164.833 114.584 163.076 112.913 160.25C112.755 160.286 112.593 160.312 112.427 160.329C110.284 160.541 108.375 158.976 108.163 156.834C107.95 154.691 109.515 152.782 111.658 152.57C111.888 152.547 112.116 152.545 112.339 152.561C113.515 149.658 116.222 147.489 119.555 147.159C124.02 146.717 128.031 149.73 128.933 154.023C130.785 154.038 132.366 155.448 132.552 157.333C132.752 159.35 131.279 161.148 129.261 161.348C128.595 161.414 127.953 161.297 127.385 161.039Z" fill="#F38990"/>
<path d="M115.932 150.432C114.772 155.001 112.869 154.189 111.303 154.704C111.239 154.725 111.172 154.677 111.171 154.61C111.101 147.008 116.418 144.833 120.761 144.981C127.687 145.217 129.361 151.081 129.586 154.203C129.586 154.203 129.327 154.432 128.711 154.652C128.095 154.871 126.31 154.772 124.669 154.051C124.032 153.771 123.428 153.553 122.637 152.912C122.6 152.881 122.545 152.918 122.561 152.964C122.904 153.962 123.237 154.121 123.17 154.351C122.989 154.968 120.911 154.471 119.833 154C117.997 153.438 116.384 151.928 115.932 150.432Z" fill="#2F2F35"/>
<circle cx="118.877" cy="156.81" r="1.1544" transform="rotate(2.6545 118.877 156.81)" fill="#2F2F35"/>
<circle cx="122.91" cy="156.931" r="1.1544" transform="rotate(2.6545 122.91 156.931)" fill="#2F2F35"/>
<path d="M45.3262 155.59C45.3262 147.892 50.8015 141.822 57.7571 141.822C64.7127 141.822 73.3796 143.007 73.7217 145.375C74.0638 147.744 75.0863 149.887 73.1477 150.36L72.8772 152.255C72.8772 152.255 73.3959 152.341 73.4682 152.603C73.8158 153.862 73.8832 156.708 73.2561 157.397C73.0104 157.666 72.8065 157.475 72.5385 157.574C72.2342 157.687 72.4576 159.239 72.5385 159.428C73.0326 159.902 73.7217 159.41 73.7217 161.6C73.7217 164.429 74.021 164.868 72.5385 165.224C71.5921 165.45 72.156 166.583 72.9061 166.921C73.3311 167.113 73.499 167.534 73.499 167.66C73.499 169.985 74.0638 170.63 72.2392 172.051C70.4146 173.473 69.8444 174.153 67.1075 174.627C64.3706 175.101 56.9582 175.574 54.2213 174.627C51.4844 173.679 45.3262 174.627 45.3262 155.59Z" fill="#F38990"/>
<path fill-rule="evenodd" clip-rule="evenodd" d="M62.137 148.73L73.1489 150.354L72.904 152.261L61.905 150.578L62.137 148.73Z" fill="#2F2F35"/>
<path fill-rule="evenodd" clip-rule="evenodd" d="M61.7771 157.535L72.6011 157.535L72.5896 159.453L61.7656 159.368L61.7771 157.535Z" fill="#2F2F35"/>
<path fill-rule="evenodd" clip-rule="evenodd" d="M61.9492 165.176H72.6282L72.9328 166.934L62.1089 166.849L61.9492 165.176Z" fill="#2F2F35"/>
<path d="M179.276 191.557C179.858 186.948 176.912 182.885 172.588 182.339C168.263 181.794 162.786 181.823 162.394 183.214C162.003 184.605 161.205 185.808 162.374 186.243L162.4 187.399C162.4 187.399 162.071 187.41 162.006 187.561C161.695 188.288 161.438 189.986 161.776 190.447C161.908 190.628 162.049 190.53 162.208 190.61C162.389 190.701 162.133 191.613 162.068 191.72C161.725 191.965 161.334 191.616 161.169 192.927C160.955 194.621 160.736 194.86 161.631 195.189C162.202 195.399 161.766 196.033 161.274 196.177C160.995 196.258 160.859 196.497 160.849 196.573C160.674 197.964 160.274 198.307 161.301 199.3C162.328 200.294 162.631 200.747 164.297 201.245C165.963 201.743 170.535 202.608 172.308 202.256C174.081 201.903 177.839 202.953 179.276 191.557Z" fill="#F38990"/>
<path fill-rule="evenodd" clip-rule="evenodd" d="M169.342 186.133L162.373 186.241L162.381 187.402L169.346 187.258L169.342 186.133Z" fill="#2F2F35"/>
<path fill-rule="evenodd" clip-rule="evenodd" d="M168.901 191.435L162.172 190.586L162.034 191.735L168.77 192.533L168.901 191.435Z" fill="#2F2F35"/>
<path fill-rule="evenodd" clip-rule="evenodd" d="M168.215 195.994L161.576 195.156L161.253 196.185L167.989 196.983L168.215 195.994Z" fill="#2F2F35"/>
<path d="M50.4526 132.799C47.0032 134.523 45.9124 143.156 45.5529 148.906C45.1753 152.848 45.9074 163.597 46.4921 164.795L52.5031 147.686C53.625 146.092 56.5333 142.943 57.1086 141.663C57.6004 140.57 57.64 136.046 57.1086 134.629C56.5772 133.212 54.7645 130.644 50.4526 132.799Z" fill="#F38990"/>
<path d="M97.355 183.854C93.185 192.767 91.7754 208.463 94.841 216.077" stroke="#2F2F35" stroke-width="2.02323" stroke-linejoin="bevel"/>
</g>
<defs>
<clipPath id="clip0_218_1869">
<rect width="315.623" height="80.9291" fill="white" transform="matrix(-1 0 0 1 397.623 223)"/>
</clipPath>
<clipPath id="clip1_218_1869">
<rect width="315.623" height="80.9291" fill="white" transform="matrix(-1 0 0 1 276.623 125)"/>
</clipPath>
</defs>
</svg>
