<svg width="177" height="148" viewBox="0 0 177 148" fill="none" xmlns="http://www.w3.org/2000/svg">
<path d="M142.444 102.372C152.72 66.5365 141.98 32.0182 95.7616 18.7653C49.5435 5.5125 23.0523 28.9668 12.9037 64.3595C7.82931 82.0558 18.0615 100.515 35.7578 105.589L103.654 125.058C120.13 129.783 137.316 120.256 142.04 103.78L142.444 102.372Z" fill="#016ED8"/>
<path d="M100.874 36.3112C99.2102 42.1147 101.986 51.6206 108.966 53.622C115.946 55.6234 125.935 50.8119 127.6 45.0084C129.264 39.2049 123.505 31.4283 116.525 29.4269C109.546 27.4255 102.538 30.5077 100.874 36.3112Z" fill="#EDDC0B"/>
<path d="M142.428 49.1686C140.764 54.9721 143.54 64.478 150.52 66.4794C157.499 68.4808 167.489 63.6693 169.153 57.8658C170.818 52.0623 165.059 44.2857 158.079 42.2843C151.1 40.2829 144.092 43.3651 142.428 49.1686Z" fill="#EDDC0B"/>
<path d="M154.643 59.186C151.199 71.1981 138.658 78.1405 126.633 74.6924C114.608 71.2442 107.652 58.7112 111.096 46.6991C114.541 34.687 127.081 27.7445 139.107 31.1927C151.132 34.6408 158.088 47.1739 154.643 59.186Z" fill="#FFED0D"/>
<path d="M107.867 41.7625C125.244 50.7362 127.628 67.176 126.649 74.2742C135.702 67.3554 162.023 51.1657 166.435 60.4337C173.749 75.8003 151.298 85.2808 134.063 84.5756L133.972 84.5574C128.703 83.5097 127.819 83.3339 123.789 95.7524C120.652 105.419 119.437 123.34 117.304 125.329C115.171 127.318 104.035 126.205 101.561 123.936C99.7459 122.27 99.6263 120.626 100.203 118.614C100.78 116.601 110.738 91.9605 112.97 84.1764C114.839 77.6578 109.935 76.7132 109.926 76.7114C96.7939 74.1921 86.1462 30.5455 107.867 41.7625Z" fill="#11A40D"/>
<path fill-rule="evenodd" clip-rule="evenodd" d="M141.877 65.7054C135.943 69.3681 130.396 73.8709 126.983 76.8092L126.917 76.8615C126.501 77.1696 125.792 77.7723 125.095 78.5322C124.39 79.3001 123.757 80.1632 123.417 80.99L121.322 80.1293C121.806 78.9525 122.636 77.8623 123.425 77.0024C124.04 76.3318 124.668 75.7619 125.166 75.3561C125.167 75.3481 125.168 75.34 125.169 75.3318C125.199 75.011 125.239 74.5438 125.277 73.9649C125.354 72.8056 125.423 71.2051 125.391 69.4384C125.327 65.8858 123.834 61.1406 122.381 58.6218C122.339 58.5495 122.316 58.4695 122.313 58.3861L122.198 55.2062C122.194 55.1088 122.317 55.0647 122.376 55.1426C124.393 57.8259 127.539 62.8768 127.655 69.3992C127.682 70.8745 127.641 72.2349 127.584 73.3365C131.015 70.4891 135.706 66.8539 140.685 63.7801C143.726 61.9034 146.898 60.2204 149.976 59.0554C152.97 57.9221 158.137 57.0415 162.549 57.7583C162.646 57.7741 162.662 57.9047 162.573 57.9449L158.797 59.6404C158.72 59.6748 158.637 59.6891 158.553 59.6835C156.282 59.5322 153.636 60.0906 150.78 61.1716C147.882 62.2684 144.843 63.8741 141.877 65.7054Z" fill="#252730"/>
<path d="M64.9261 53.8231C56.03 49.7022 38.7628 52.0268 33.0137 68.1711C28.1603 85.0971 23.2548 105.121 51.2466 119.66C79.2385 134.198 112.066 107.023 116.178 102.446C120.29 97.8682 115.972 92.5345 112.591 92.6115C109.21 92.6886 95.3544 96.3793 89.1463 94.5992C82.9382 92.819 78.1926 90.0201 78.8593 79.1185C79.5414 67.9639 73.8223 57.9439 64.9261 53.8231Z" fill="#88C4FF"/>
<path fill-rule="evenodd" clip-rule="evenodd" d="M79.4802 85.92C80.244 88.1606 81.9349 90.4142 85.8843 92.3925C89.7265 94.3172 95.4703 94.3553 100.469 93.8229C102.929 93.561 105.135 93.1699 106.728 92.8439C107.523 92.6811 108.163 92.535 108.602 92.4301C108.821 92.3776 108.99 92.3355 109.103 92.3069C109.16 92.2925 109.203 92.2815 109.23 92.2743L109.261 92.2663L109.268 92.2645L109.269 92.2642C109.269 92.2642 109.269 92.2642 109.592 93.472C109.916 94.6798 109.916 94.6799 109.915 94.6799L109.901 94.6838L109.863 94.6937C109.83 94.7023 109.782 94.7146 109.72 94.7303C109.597 94.7616 109.416 94.8065 109.185 94.8617C108.723 94.9722 108.056 95.1243 107.231 95.2932C105.583 95.6306 103.295 96.0365 100.736 96.3091C95.6965 96.8457 89.3062 96.9028 84.7637 94.6274C80.3284 92.4057 78.1213 89.6874 77.1114 86.7249C76.2344 84.1524 76.3072 81.482 76.37 79.1733C76.3771 78.9153 76.384 78.6618 76.3894 78.4135L78.8913 78.4696C78.8858 78.7198 78.8795 78.9682 78.8732 79.2149C78.813 81.5853 78.7568 83.7979 79.4802 85.92Z" fill="#252730"/>
<path d="M81.3551 53.0872C79.7648 58.633 74.1357 61.8844 68.7821 60.3493C63.4285 58.8141 60.3777 53.0739 61.9679 47.528C63.5582 41.9821 69.1873 38.7308 74.5409 40.2659C79.8945 41.801 82.9453 47.5413 81.3551 53.0872Z" fill="#FFA1A8"/>
<path d="M79.8805 50.7316C79.4186 51.1333 78.6627 51.0211 78.1922 50.4811C77.7217 49.9411 77.7148 49.1778 78.1768 48.7761C78.6387 48.3744 79.3946 48.4866 79.8651 49.0266C80.3355 49.5666 80.3425 50.33 79.8805 50.7316Z" fill="#252730"/>
<path d="M59.3283 52.6549C60.0592 54.317 62.8556 57.5475 65.0094 58.1651C67.1633 58.7827 71.761 53.8011 72.9928 51.078C72.9928 51.078 78.8591 45.5251 79.2046 44.3201C79.5476 43.124 81.1979 46.8525 80.6404 44.7318C80.0775 42.5908 76.6897 35.8948 67.2377 38.6217C57.7848 41.3489 58.5975 50.9928 59.3283 52.6549Z" fill="#252730"/>
<path d="M74.5603 51.9753C74.2195 53.1637 72.9787 53.8505 71.7888 53.5093C70.5989 53.1681 69.9105 51.9281 70.2513 50.7397C70.592 49.5513 71.8329 48.8645 73.0228 49.2057C74.2127 49.5469 74.9011 50.7869 74.5603 51.9753Z" fill="#FFA1A8"/>
<path d="M63.2757 45.2473C62.3102 48.6145 58.7949 50.5605 55.4241 49.594C52.0533 48.6274 50.1034 45.1143 51.0689 41.7471C52.0345 38.38 55.5497 36.4339 58.9205 37.4005C62.2913 38.3671 64.2412 41.8802 63.2757 45.2473Z" fill="#252730"/>
<path d="M54.3523 43.8537C53.33 47.4189 49.4472 49.4333 45.6798 48.3531C41.9125 47.2728 39.6872 43.5069 40.7095 39.9417C41.7318 36.3765 45.6145 34.3621 49.3819 35.4423C53.1493 36.5226 55.3746 40.2885 54.3523 43.8537Z" fill="#252730"/>
<path d="M105.42 99.6237C105.038 94.4613 108.554 90.1112 113.402 89.7561C118.251 89.4011 124.351 89.753 124.707 91.3239C125.062 92.8949 125.881 94.2798 124.554 94.6964L124.459 95.9809C124.459 95.9809 124.825 96.012 124.888 96.184C125.193 97.0108 125.381 98.9161 124.978 99.4096C124.82 99.6029 124.669 99.4852 124.487 99.5655C124.28 99.6565 124.513 100.686 124.579 100.809C124.946 101.101 125.402 100.736 125.511 102.205C125.651 104.102 125.882 104.381 124.866 104.695C124.217 104.896 124.667 105.626 125.206 105.815C125.512 105.922 125.65 106.195 125.656 106.28C125.771 107.839 126.197 108.243 124.996 109.289C123.794 110.336 123.431 110.821 121.546 111.278C119.662 111.736 114.519 112.432 112.564 111.936C110.609 111.44 106.364 112.39 105.42 99.6237Z" fill="#FFA1A8"/>
<path fill-rule="evenodd" clip-rule="evenodd" d="M116.795 94.1669L124.552 94.6938L124.476 95.9855L116.725 95.4184L116.795 94.1669Z" fill="#252730"/>
<path fill-rule="evenodd" clip-rule="evenodd" d="M116.982 100.091L124.527 99.5388L124.614 100.826L117.065 101.321L116.982 100.091Z" fill="#252730"/>
<path fill-rule="evenodd" clip-rule="evenodd" d="M117.482 105.207L124.926 104.662L125.225 105.826L117.676 106.321L117.482 105.207Z" fill="#252730"/>
</svg>
