<svg width="90" height="104" viewBox="0 0 90 104" fill="none" xmlns="http://www.w3.org/2000/svg">
<g clip-path="url(#clip0_198_5300)">
<path d="M13.1058 18.0139C10.6445 18.3926 11.2725 22.0871 11.7458 24.6904C6.09165 23.6884 3.53927 24.5211 1.40945 27.1244C-0.377147 29.3082 2.34239 34.4195 2.97024 35.5307C3.04805 35.6685 3.18067 35.7506 3.33869 35.7579C5.25155 35.8467 17.7679 36.4022 17.7679 35.7465C17.7679 35.0365 16.5846 27.7001 16.8213 23.2035C17.0579 18.7068 16.1824 17.5406 13.1058 18.0139Z" fill="#F38990"/>
<path fill-rule="evenodd" clip-rule="evenodd" d="M8.04038 28.1025C8.49989 27.5995 9.17843 27.1973 9.91368 27.1973C10.2944 27.1973 10.6997 27.3247 11.0709 27.4831C11.4529 27.6461 11.8538 27.8662 12.2403 28.1007C12.8474 28.4691 13.4585 28.898 13.9394 29.2356C14.0974 29.3465 14.4691 29.6448 14.6342 29.7698C14.6616 29.7906 14.6597 29.8333 14.6302 29.851L13.7542 30.374C13.6745 30.4216 13.5745 30.4183 13.4984 30.3652C13.4169 30.3084 13.332 30.2488 13.2441 30.1871C12.7651 29.851 12.1988 29.4536 11.6291 29.1079C11.2667 28.8881 10.9189 28.6991 10.6086 28.5668C10.2874 28.4297 10.0566 28.3754 9.91368 28.3754C9.60154 28.3754 9.21735 28.5609 8.91024 28.8971C8.60113 29.2355 8.47158 29.6136 8.509 29.8881C8.55679 30.2386 8.77457 30.6623 9.11851 31.0829C9.41841 31.4497 10.226 32.0993 10.6493 32.3908C10.6887 32.4179 10.6691 32.4828 10.6214 32.4828H9.42423C8.91024 32.4828 8.62298 32.3381 8.20644 31.8287C7.7961 31.3268 7.43097 30.7024 7.34164 30.0472C7.24194 29.3159 7.58287 28.6033 8.04038 28.1025Z" fill="#2F2F35"/>
<path d="M30.4379 27.382C30.9453 21.509 35.8608 17 41.7556 17H77.8374C84.4972 17 89.7285 22.7028 89.1552 29.3379L86.6193 58.6845C86.1119 64.5574 81.1964 69.0664 75.3016 69.0664H39.2198C32.56 69.0664 27.3287 63.3636 27.902 56.7285L30.4379 27.382Z" fill="#038600"/>
<path d="M62.0712 38.1851C74.3885 38.9647 75.0643 54.203 73.8277 63.5122C73.6082 65.1649 73.0331 66.741 72.2509 68.2135L69.6746 73.0629C69.5104 73.3722 69.1888 73.5655 68.8386 73.5655H38.0774C36.6523 73.5655 35.448 72.5094 35.2617 71.0967L33.4345 57.2355C32.6456 61.18 30.3578 69.6368 27.5179 71.9088C23.9679 74.7488 17.735 73.5655 13.5546 71.9088C8.45129 69.8864 2.90463 38.3025 2.4313 35.4625C1.95797 32.6225 13.2909 35.1218 13.2909 35.1218C18.2836 36.3612 17.8373 34.3353 18.5473 36.7018C19.2572 39.0683 23.2579 54.6324 23.2579 51.7924C23.2579 48.9524 27.9912 39.4858 31.0678 38.3025C34.1445 37.1191 43.3746 37.0018 62.0712 38.1851Z" fill="#FEE133"/>
<path d="M59.1644 69.7163L57.6386 47.0475C57.6038 46.5299 57.1588 46.1368 56.6409 46.166L41.7499 47.0049C41.2155 47.035 40.8123 47.5018 40.8602 48.0349L42.8249 69.8647C42.8688 70.3527 43.2778 70.7265 43.7678 70.7265H58.2199C58.7677 70.7265 59.2012 70.2629 59.1644 69.7163Z" fill="white"/>
<path fill-rule="evenodd" clip-rule="evenodd" d="M52.8409 47.2976L45.2676 47.771V45.8776L52.8409 45.4043V47.2976Z" fill="#2F2F35"/>
<path d="M49.3856 71.7006C52.6985 70.2631 58.2956 61.7583 60.68 57.6855L63.9114 72.2612H53.2698C50.5947 72.6733 46.0728 73.1381 49.3856 71.7006Z" fill="#FEE133"/>
<path d="M54.0083 35.8606C53.9868 39.3187 51.5399 42.1039 47.9488 42.0816C44.3577 42.0593 41.464 39.2378 41.4855 35.7798C41.507 32.3217 44.4356 30.0181 48.0267 30.0405C51.6178 30.0628 54.0298 32.4026 54.0083 35.8606Z" fill="#F38990"/>
<circle cx="46.2174" cy="33.069" r="0.675174" transform="rotate(2.6545 46.2174 33.069)" fill="#2F2F35"/>
<path d="M54.0084 34.3768C54.4247 36.458 53.629 38.2857 53.4052 38.7438C53.3861 38.783 53.3298 38.7772 53.318 38.7353C53.1426 38.1117 52.1481 35.1141 48.4694 31.7277C47.5182 30.852 46.0929 30.6568 45.8491 30.3356C45.8267 30.3061 45.8371 30.2674 45.8663 30.2446C46.1111 30.0534 47.348 29.2317 49.9144 29.8016C52.8043 30.4433 53.7676 33.1727 54.0084 34.3768Z" fill="#2F2F35"/>
<path d="M48.6465 71.4706C55.3578 68.7496 61.261 56.8923 61.04 54.9746" stroke="black" stroke-width="1.18333" stroke-linejoin="bevel"/>
<rect x="13.5" y="64.5" width="63" height="28" rx="14" fill="#F0F0F5"/>
<rect x="13.5" y="64.5" width="63" height="28" rx="14" stroke="#038600"/>
<path d="M32.2966 80.2109V84.043H30.9959V81.2422H25.0779V80.2109H32.2966ZM32.2966 73.4492V79.707H30.9959V78.3008H28.5115C28.0076 78.8633 27.2459 79.2031 26.367 79.2031C24.7732 79.2031 23.5662 78.125 23.5662 76.6016C23.5662 75.1016 24.7732 74.0234 26.367 74.0352C27.24 74.0293 28.0017 74.3574 28.4998 74.9141H30.9959V73.4492H32.2966ZM26.367 75.1367C25.4529 75.1367 24.8084 75.7227 24.8084 76.6016C24.8084 77.5156 25.4529 78.0898 26.367 78.1016C27.2341 78.0898 27.8904 77.5156 27.9021 76.6016C27.8904 75.7227 27.2341 75.1367 26.367 75.1367ZM29.0623 77.2461H30.9959V75.9805H29.074C29.115 76.1797 29.1443 76.3848 29.1443 76.6016C29.1443 76.8242 29.115 77.041 29.0623 77.2461ZM43.5204 74.9609V76.0391H42.0321V77.1875H43.5204V78.2773H42.0321V79.8594H40.7313V73.4609H42.0321V74.9609H43.5204ZM38.9149 74.1055V77.1523H35.3876V78.2656C37.1864 78.2539 38.4169 78.1895 39.8641 77.9492L40.0048 78.9922C38.4227 79.2734 37.0516 79.3438 34.954 79.332H34.0868V76.168H37.6376V75.1367H34.0751V74.1055H38.9149ZM38.5751 80.0586C40.7548 80.0703 42.1259 80.8086 42.1376 82.0625C42.1259 83.3047 40.7548 84.0195 38.5751 84.0195C36.3485 84.0195 34.9891 83.3047 34.9891 82.0625C34.9891 80.8086 36.3485 80.0703 38.5751 80.0586ZM38.5751 81.0781C37.0985 81.0781 36.2548 81.4297 36.2665 82.0625C36.2548 82.6953 37.0985 83.0352 38.5751 83.0352C40.0399 83.0352 40.8485 82.6953 40.8485 82.0625C40.8485 81.4297 40.0399 81.0781 38.5751 81.0781ZM55.7491 73.4492V84.043H54.4952V78.6055H53.3585V83.5508H52.1398V73.7305H53.3585V77.5508H54.4952V73.4492H55.7491ZM51.2374 74.7852C51.2374 77.6445 50.3351 80.1055 47.3234 81.8281L46.5734 80.9258C48.8292 79.6191 49.7843 77.9434 49.9718 75.8281H47.0655V74.7852H51.2374ZM58.5588 73.918V75.2656H61.0315V73.918H62.3205V78.5352H57.2698V73.918H58.5588ZM58.5588 77.5039H61.0315V76.25H58.5588V77.5039ZM65.262 73.4492V75.5938H66.7385V76.6484H65.262V78.875H63.9612V73.4492H65.262ZM65.262 79.2969V82.0742H59.637V82.918H65.5901V83.9492H58.3479V81.125H63.9612V80.3164H58.3362V79.2969H65.262Z" fill="#038600"/>
</g>
<defs>
<clipPath id="clip0_198_5300">
<rect width="90" height="104" rx="16" fill="white"/>
</clipPath>
</defs>
</svg>
