<svg width="90" height="104" viewBox="0 0 90 104" fill="none" xmlns="http://www.w3.org/2000/svg">
<path d="M81.9785 39.5C81.9785 58.8951 81.9785 67 48.4785 67C14.9785 67 14.9785 60.1929 14.9785 39.5C14.9785 18.8071 29.977 12 48.4785 12C66.9801 12 81.9785 20.1049 81.9785 39.5Z" fill="#FF5246"/>
<path d="M12.5144 13.625L26.3039 15.6776V17.6268L11.7617 15.3585L11.9456 14.05C11.9843 13.7749 12.2397 13.5841 12.5144 13.625Z" fill="white"/>
<path d="M24.5909 35.1066L27.2921 15.6638C27.3168 15.4861 27.1918 15.3224 27.0138 15.2994L12.466 13.4213C12.4361 13.4175 12.4096 13.4408 12.4096 13.471V14.0353C12.4096 14.0857 12.448 14.1284 12.498 14.1347L25.7186 15.8122C25.8798 15.8327 26.0022 15.97 26.0022 16.1325V16.9476C26.0022 17.0094 25.9467 17.0564 25.8857 17.0462L11.7555 14.6848C11.5803 14.6556 11.4144 14.7734 11.3843 14.9484L8.33904 32.6702C8.3084 32.8485 8.43033 33.0172 8.60926 33.044L24.2236 35.3813C24.4011 35.4079 24.5662 35.2844 24.5909 35.1066Z" fill="#E91F3C"/>
<path d="M40.1278 33.8222C33.901 34.8194 26.1537 39.1596 23.154 43.1588C23.0367 43.3151 22.7867 43.2774 22.7306 43.0902C21.8243 40.0685 20.3292 35.0265 19.411 34.3532C18.5062 33.6896 11.0256 35.3367 6.69101 36.4151C6.21379 36.5338 5.91637 37.011 6.01738 37.4923C9.05195 51.9512 15.4207 59.6925 23.5976 58.2805C30.1893 57.1423 33.0083 54.4908 33.9001 53.43C33.9676 53.3497 34.1413 53.429 34.1196 53.5317C33.9449 54.3574 33.6164 55.9357 33.418 57.0496C33.138 58.622 31.7078 65.063 33.3002 69.2994C34.8925 73.5357 53.8823 73.6499 56.8807 69.2254C59.4895 65.3759 59.671 55.9266 59.6741 53.5361C59.6743 53.4313 59.8328 53.4058 59.8729 53.5026C60.6647 55.4135 61.7995 56.5669 64.129 57.7131C67.4919 59.3679 74.2365 60.0554 78.0328 59.6558C78.3212 59.6254 78.4982 59.3352 78.4059 59.0603C77.9495 57.7007 76.763 54.1012 76.612 52.9796C76.4245 51.5867 76.8658 48.6851 75.5005 48.6118C73.5899 48.5092 70.143 47.4735 69.7412 46.9109C69.3394 46.3484 67.652 41.945 65.6973 39.8274C63.7426 37.7098 62.379 36.6079 58.2399 34.3537C54.1007 32.0994 46.5617 32.7918 40.1278 33.8222Z" fill="#117649"/>
<path fill-rule="evenodd" clip-rule="evenodd" d="M53.7752 34.2589C52.9025 35.4256 51.5614 36.236 49.9972 36.391C47.8464 36.6042 45.8662 35.5195 44.8339 33.7742C44.7368 33.7962 44.6371 33.8125 44.5354 33.8226C43.2116 33.9537 42.0322 32.987 41.901 31.6632C41.7698 30.3394 42.7366 29.16 44.0604 29.0288C44.2016 29.0148 44.3411 29.0133 44.478 29.0234C45.2042 27.2295 46.8768 25.8892 48.9364 25.6851C51.6945 25.4118 54.172 27.2727 54.7298 29.9241C55.8746 29.9324 56.8521 30.8037 56.9675 31.9686C57.091 33.2151 56.1807 34.3257 54.9342 34.4492C54.5229 34.49 54.1263 34.4182 53.7752 34.2589Z" fill="#F38990"/>
<path d="M46.7039 27.712C45.9874 30.5345 44.812 30.0328 43.8442 30.3511C43.8048 30.3641 43.7631 30.3343 43.7627 30.2929C43.7194 25.5962 47.0042 24.2529 49.6879 24.3441C53.9665 24.4895 55.0007 28.1124 55.1399 30.0418C55.1399 30.0418 54.9797 30.1831 54.5993 30.3188C54.2189 30.4545 53.1158 30.3929 52.1022 29.9476C51.7083 29.7745 51.3353 29.6401 50.8468 29.2437C50.8236 29.2248 50.7898 29.2478 50.7995 29.2761C51.0116 29.8926 51.2172 29.991 51.1756 30.1327C51.0638 30.514 49.7805 30.2073 49.1139 29.916C47.98 29.569 46.9833 28.6358 46.7039 27.712Z" fill="#2F2F35"/>
<circle cx="48.5193" cy="31.6517" r="0.713215" transform="rotate(2.6545 48.5193 31.6517)" fill="#2F2F35"/>
<circle cx="51.0134" cy="31.722" r="0.713215" transform="rotate(2.6545 51.0134 31.722)" fill="#2F2F35"/>
<path d="M3.08008 30.8968C3.08008 26.1408 6.46289 22.3906 10.7602 22.3906C15.0576 22.3906 20.4122 23.1223 20.6235 24.5857C20.8349 26.049 21.4666 27.3729 20.2689 27.6656L20.1018 28.8363C20.1018 28.8363 20.4222 28.8893 20.4669 29.0512C20.6817 29.8292 20.7233 31.5877 20.3359 32.0128C20.1841 32.1794 20.0581 32.0614 19.8925 32.1227C19.7045 32.1923 19.8426 33.1513 19.8925 33.268C20.1978 33.5606 20.6235 33.2566 20.6235 34.6097C20.6235 36.3575 20.8084 36.6291 19.8925 36.8486C19.3078 36.9887 19.6562 37.6884 20.1197 37.8973C20.3822 38.0157 20.4859 38.2757 20.4859 38.3538C20.4859 39.79 20.8349 40.1889 19.7076 41.067C18.5803 41.945 18.2281 42.3655 16.5371 42.6581C14.8462 42.9508 10.2666 43.2435 8.5757 42.6581C6.88478 42.0728 3.08008 42.6581 3.08008 30.8968Z" fill="#F38990"/>
<path fill-rule="evenodd" clip-rule="evenodd" d="M13.4651 26.6565L20.2685 27.6599L20.1172 28.8383L13.3217 27.7984L13.4651 26.6565Z" fill="#2F2F35"/>
<path fill-rule="evenodd" clip-rule="evenodd" d="M13.2434 32.1016L19.9307 32.1016L19.9236 33.2865L13.2363 33.2337L13.2434 32.1016Z" fill="#2F2F35"/>
<path fill-rule="evenodd" clip-rule="evenodd" d="M13.3516 36.8203H19.9493L20.1375 37.9067L13.4502 37.854L13.3516 36.8203Z" fill="#2F2F35"/>
<path d="M85.8399 53.1158C86.1992 50.2685 84.3793 47.7581 81.7076 47.421C79.0358 47.0839 75.6515 47.1019 75.4096 47.9614C75.1676 48.8209 74.6749 49.5639 75.3974 49.8331L75.4129 50.547C75.4129 50.547 75.2097 50.5536 75.1697 50.647C74.9774 51.096 74.8187 52.1454 75.0274 52.4303C75.1092 52.542 75.1964 52.4812 75.2948 52.5309C75.4064 52.5873 75.2481 53.1506 75.2083 53.2165C74.9964 53.3678 74.7546 53.1524 74.6524 53.9624C74.5204 55.0087 74.385 55.1569 74.9378 55.3601C75.2907 55.4899 75.0213 55.8814 74.7174 55.9701C74.5452 56.0204 74.4611 56.1679 74.4552 56.2147C74.3467 57.0745 74.0996 57.2859 74.7341 57.9C75.3687 58.5141 75.5559 58.7934 76.5851 59.1013C77.6143 59.4091 80.4394 59.9436 81.5348 59.7258C82.6303 59.508 84.9516 60.1569 85.8399 53.1158Z" fill="#F38990"/>
<path fill-rule="evenodd" clip-rule="evenodd" d="M79.7037 49.7692L75.3981 49.8362L75.4032 50.5535L79.7066 50.464L79.7037 49.7692Z" fill="#2F2F35"/>
<path fill-rule="evenodd" clip-rule="evenodd" d="M79.4292 53.0424L75.2716 52.5178L75.1865 53.2278L79.3481 53.7208L79.4292 53.0424Z" fill="#2F2F35"/>
<path fill-rule="evenodd" clip-rule="evenodd" d="M79.0059 55.8555L74.904 55.3379L74.7049 55.9735L78.8665 56.4665L79.0059 55.8555Z" fill="#2F2F35"/>
<path d="M6.2514 16.8165C4.12022 17.8814 3.44635 23.2155 3.22422 26.7679C2.99091 29.203 3.44322 35.844 3.80444 36.5844L7.51824 26.014C8.21134 25.029 10.0082 23.0836 10.3636 22.2931C10.6675 21.6173 10.6919 18.8228 10.3636 17.9473C10.0353 17.0718 8.91538 15.4852 6.2514 16.8165Z" fill="#F38990"/>
<path d="M35.2259 48.3633C32.6496 53.8702 31.7787 63.5675 33.6727 68.2718" stroke="#2F2F35" stroke-width="1.25" stroke-linejoin="bevel"/>
<rect x="13.5" y="64.5" width="63" height="28" rx="14" fill="#F0F0F5"/>
<rect x="13.5" y="64.5" width="63" height="28" rx="14" stroke="#FF5246"/>
<path d="M31.8162 73.4492V76.0273H33.2459V77.1172H31.8162V79.6836H30.5154V73.4492H31.8162ZM31.8162 80.1055V82.3906H26.0623V83.0703H32.1912V83.9492H24.7615V81.582H30.5154V80.9844H24.738V80.1055H31.8162ZM23.3318 78.6172C24.1287 78.6172 25.0427 78.6172 26.0037 78.582V78.0547C24.8142 77.9375 24.0818 77.457 24.0818 76.6719C24.0818 75.8164 25.0779 75.3125 26.6365 75.3125C28.1951 75.3125 29.1912 75.8164 29.1912 76.6719C29.1912 77.4453 28.4763 77.9258 27.3045 78.0547V78.5352C28.2068 78.5 29.115 78.4238 29.9646 78.3125L30.0701 79.1328C27.8084 79.5195 25.324 79.5312 23.4724 79.5312L23.3318 78.6172ZM29.6834 74.1641V75.0547H23.6013V74.1641H26.0037V73.3672H27.3045V74.1641H29.6834ZM26.6365 76.1328C25.8162 76.1445 25.324 76.3203 25.3357 76.6719C25.324 77.0469 25.8162 77.2578 26.6365 77.2578C27.4568 77.2578 27.949 77.0469 27.949 76.6719C27.949 76.3203 27.4568 76.1445 26.6365 76.1328ZM43.3446 78.5234V79.5664H33.6766V78.5234H37.872V77.5156H34.8602V73.9297H42.1727V74.9492H36.161V76.4844H42.2313V77.5156H39.1493V78.5234H43.3446ZM38.493 80.1758C40.7782 80.1758 42.1493 80.8672 42.161 82.1094C42.1493 83.3398 40.7782 84.043 38.493 84.043C36.1845 84.043 34.8016 83.3398 34.8016 82.1094C34.8016 80.8672 36.1845 80.1758 38.493 80.1758ZM38.493 81.1719C36.9462 81.1719 36.1141 81.5 36.1259 82.1094C36.1141 82.7188 36.9462 83.0352 38.493 83.0352C40.0048 83.0352 40.8485 82.7188 40.8602 82.1094C40.8485 81.5 40.0048 81.1719 38.493 81.1719ZM50.6515 76.4609C50.6515 78.1953 51.671 80.0234 53.382 80.7383L52.6671 81.7695C51.4132 81.2305 50.4991 80.1172 50.0187 78.7695C49.5265 80.2227 48.6007 81.4414 47.3585 82.0273L46.6085 81.0078C48.2843 80.2344 49.3273 78.2656 49.3273 76.4609V75.5703H46.9952V74.4922H52.9718V75.5703H50.6515V76.4609ZM55.4679 73.4492V84.043H54.1554V73.4492H55.4679ZM65.7893 73.4609V81.4766H64.4768V80.5508H62.4026V79.6367H64.4768V73.4609H65.7893ZM66.0354 82.7773V83.832H58.2659V80.7031H59.5666V82.7773H66.0354ZM56.8596 78.2188C58.8166 78.207 61.4416 78.1836 63.6916 77.9023L63.762 78.8398C62.8889 78.9863 61.9866 79.0859 61.0901 79.1445V81.1836H59.7893V79.2148C58.7991 79.2559 57.8557 79.2617 57.0237 79.2617L56.8596 78.2188ZM60.3166 73.8477C61.8635 73.8477 62.9416 74.6094 62.9534 75.7227C62.9416 76.8594 61.8635 77.5859 60.3166 77.5859C58.7463 77.5859 57.6682 76.8594 57.6682 75.7227C57.6682 74.6094 58.7463 73.8477 60.3166 73.8477ZM60.3166 74.8086C59.4729 74.8086 58.8987 75.1484 58.8987 75.7227C58.8987 76.2969 59.4729 76.6367 60.3166 76.6367C61.1252 76.6367 61.6995 76.2969 61.7112 75.7227C61.6995 75.1484 61.1252 74.8086 60.3166 74.8086Z" fill="#FF5246"/>
</svg>
