<svg width="90" height="104" viewBox="0 0 90 104" fill="none" xmlns="http://www.w3.org/2000/svg">
<circle cx="66.9099" cy="34.6208" r="17.9841" fill="#F7B7CE"/>
<path d="M53.2414 23.0108L83.7624 40.8297L76.8207 68.3675C76.4307 69.9147 75.0391 70.999 73.4434 70.999L7.02961 70.999C3.80233 70.999 2.31067 66.9892 4.75333 64.88L53.2414 23.0108Z" fill="#F7B7CE"/>
<circle cx="41.5688" cy="31.0414" r="6.54144" fill="#FFA1A8"/>
<path d="M45.1099 27.5471C43.5727 28.4565 38.5747 27.8017 36.1854 27.4109C36.0959 27.3962 36.0255 27.3277 36.0157 27.2376C35.7571 24.8397 40.6258 22.0231 45.1099 24.2972C49.6873 26.6185 48.8154 30.797 47.7255 30.797C46.8536 30.797 45.6185 28.6304 45.1099 27.5471Z" fill="#2F2F35"/>
<path d="M50.284 23.5635C47.9538 23.7366 46.9232 25.3667 46.6991 26.1602C46.4121 26.8097 47.5953 26.809 49.3878 27.6746C51.1803 28.5401 56.3336 26.5926 56.7817 25.5106C57.2299 24.4287 54.5412 25.0782 53.869 24.6454C53.1968 24.2126 53.1968 23.3471 50.284 23.5635Z" fill="#2F2F35"/>
<circle cx="39.7938" cy="28.9979" r="0.62206" transform="rotate(2.6545 39.7938 28.9979)" fill="#2F2F35"/>
<circle cx="43.284" cy="29.869" r="0.62206" transform="rotate(2.6545 43.284 29.869)" fill="#2F2F35"/>
<path d="M14.8428 41.9084C13.5989 51.1132 16.833 64.5948 21.311 70.3168C27.6796 76.6858 34.7453 72.9705 37.482 70.3168C36.404 70.3168 36.2879 69.523 44.4479 69.523C54.6479 69.523 60.8674 69.523 64.5991 65.5423C68.3308 61.5616 68.6336 39.2762 63.4344 34.8785C58.2353 30.4807 53.9015 31.7084 47.682 31.7084C46.0127 31.7084 39.6106 34.8785 37.0908 34.8785C35.2778 34.8785 37.4548 31.7084 35.5613 31.7084C30.2811 31.7084 27.0077 31.7723 24.2966 32.2059C21.5856 32.6395 16.0867 32.7035 14.8428 41.9084Z" fill="#266EB4"/>
<path d="M36.2393 40.166C33.171 45.0587 26.6861 55.2421 25.293 56.8343" stroke="#2F2F35" stroke-width="1.49268"/>
<path d="M48.9255 52.6055C45.6913 58.4933 38.2777 70.5177 34.4962 71.5128C33.4712 72.2564 30.7966 73.5204 28.2988 72.6281" stroke="#2F2F35" stroke-width="1.49268"/>
<path d="M33.6859 29.5691C31.9415 30.4413 32.523 36.1832 33.0318 38.9451C33.6857 41.9975 35.6485 45.2688 39.5734 46.141C43.4983 47.0132 47.8592 43.9605 48.7314 43.3064C49.6036 42.6522 49.8217 42.2161 49.8217 41.344C49.8217 40.6462 48.5134 40.6171 47.8592 40.6898C49.1675 40.4718 49.3856 39.8176 49.3856 38.9451C49.3856 38.2471 47.7865 38.3638 46.987 38.5093C49.1675 38.0735 48.9495 36.7649 48.7314 36.3288C48.557 35.98 46.4783 35.8927 45.4607 35.8927C46.4056 35.5293 47.7284 34.6281 48.9495 33.9303C50.4758 33.0581 51.6146 32.1166 50.2733 30.5838C49.8298 30.0769 48.3034 30.245 45.6787 31.0954C43.4626 31.8134 42.2241 32.0444 40.1703 33.003C39.629 33.2557 38.2391 34.2962 37.5589 34.4749C37.4595 34.501 37.3701 34.4295 37.3496 34.3287C37.1443 33.3184 36.9448 31.9184 36.7388 31.0954C36.5713 30.4265 35.8664 28.4788 33.6859 29.5691Z" fill="#EA7E85"/>
<path d="M38.0767 40.052C37.0848 37.212 38.4005 34.24 41.0654 33.3093C43.7303 32.3786 47.2034 31.6558 47.6397 32.4838C48.0759 33.3119 48.7438 33.9656 48.0621 34.3998L48.2026 35.135C48.2026 35.135 48.4124 35.0973 48.4739 35.1843C48.7693 35.6023 49.1618 36.6434 49.0102 36.9811C48.9508 37.1135 48.8481 37.0703 48.7582 37.1428C48.6561 37.225 48.9417 37.7678 48.997 37.8266C49.2474 37.9353 49.448 37.6616 49.7302 38.4695C50.0947 39.5132 50.266 39.6353 49.7438 39.9648C49.4104 40.1751 49.7724 40.5174 50.1034 40.5418C50.2909 40.5556 50.4094 40.6884 50.4257 40.735C50.7252 41.5927 51.0248 41.7553 50.5089 42.5237C49.9929 43.2922 49.8622 43.6196 48.8746 44.1606C47.8871 44.7015 45.1082 45.8682 43.9375 45.8849C42.7669 45.9015 40.5295 47.0751 38.0767 40.052Z" fill="#EA7E85"/>
<path fill-rule="evenodd" clip-rule="evenodd" d="M43.6334 35.273L48.0616 34.3987L48.2136 35.1351L43.7826 35.9859L43.6334 35.273Z" fill="#2F2F35"/>
<path fill-rule="evenodd" clip-rule="evenodd" d="M44.6294 38.5688L48.7764 37.1204L49.0191 37.8295L44.8611 39.2464L44.6294 38.5688Z" fill="#2F2F35"/>
<path fill-rule="evenodd" clip-rule="evenodd" d="M45.6797 41.3633L49.7711 39.9343L50.1144 40.5423L45.9564 41.9591L45.6797 41.3633Z" fill="#2F2F35"/>
<rect x="13.5" y="64.5" width="63" height="28" rx="14" fill="#F0F0F5"/>
<rect x="13.5" y="64.5" width="63" height="28" rx="14" stroke="#DE80A2"/>
<path d="M27.4451 75.6055C27.4451 76.918 28.3474 78.207 30.0349 78.7344L29.367 79.7539C28.1658 79.3613 27.2927 78.5703 26.8123 77.5625C26.3318 78.6582 25.4353 79.5312 24.1755 79.9648L23.5076 78.9336C25.2068 78.3711 26.1209 77 26.1326 75.6055V75.3008H23.8474V74.2578H29.6716V75.3008H27.4451V75.6055ZM32.2498 73.4609V81.1484H30.9373V73.4609H32.2498ZM32.5427 82.7773V83.832H25.242V80.4453H26.5545V82.7773H32.5427ZM43.3563 81.7344V82.8125H33.6766V81.7344H37.8485V80.0117H34.8251V76.543H40.9188V75.2305H34.8016V74.1758H42.2079V77.5742H36.1259V78.9453H42.454V80.0117H39.1376V81.7344H43.3563ZM50.6515 76.4609C50.6515 78.1953 51.671 80.0234 53.382 80.7383L52.6671 81.7695C51.4132 81.2305 50.4991 80.1172 50.0187 78.7695C49.5265 80.2227 48.6007 81.4414 47.3585 82.0273L46.6085 81.0078C48.2843 80.2344 49.3273 78.2656 49.3273 76.4609V75.5703H46.9952V74.4922H52.9718V75.5703H50.6515V76.4609ZM55.4679 73.4492V84.043H54.1554V73.4492H55.4679ZM65.7893 73.4609V81.4766H64.4768V80.5508H62.4026V79.6367H64.4768V73.4609H65.7893ZM66.0354 82.7773V83.832H58.2659V80.7031H59.5666V82.7773H66.0354ZM56.8596 78.2188C58.8166 78.207 61.4416 78.1836 63.6916 77.9023L63.762 78.8398C62.8889 78.9863 61.9866 79.0859 61.0901 79.1445V81.1836H59.7893V79.2148C58.7991 79.2559 57.8557 79.2617 57.0237 79.2617L56.8596 78.2188ZM60.3166 73.8477C61.8635 73.8477 62.9416 74.6094 62.9534 75.7227C62.9416 76.8594 61.8635 77.5859 60.3166 77.5859C58.7463 77.5859 57.6682 76.8594 57.6682 75.7227C57.6682 74.6094 58.7463 73.8477 60.3166 73.8477ZM60.3166 74.8086C59.4729 74.8086 58.8987 75.1484 58.8987 75.7227C58.8987 76.2969 59.4729 76.6367 60.3166 76.6367C61.1252 76.6367 61.6995 76.2969 61.7112 75.7227C61.6995 75.1484 61.1252 74.8086 60.3166 74.8086Z" fill="#DE80A2"/>
</svg>
