<svg width="90" height="104" viewBox="0 0 90 104" fill="none" xmlns="http://www.w3.org/2000/svg">
<path d="M2.70126 29.1154C0.539099 22.6683 5.33607 16 12.136 16H69.9515C75.4474 16 79.9027 20.4553 79.9027 25.9512V60.7805C79.9027 66.2764 75.4474 70.7317 69.9515 70.7317H23.8168C19.5402 70.7317 15.7418 67.9993 14.382 63.9446L2.70126 29.1154Z" fill="#0063D8"/>
<ellipse cx="46.3962" cy="57.7168" rx="24.7634" ry="18.332" fill="#51A3EC"/>
<path d="M32.3304 40.3798C27.8523 39.6334 22.1304 45.3554 21.6328 53.8139C21.6328 62.522 22.6359 70.8857 38.8067 75.3637C54.9774 79.8418 64.6718 61.0293 65.9157 58.2927C67.1596 55.5561 59.945 51.8244 58.4523 52.322C56.9596 52.8196 54.7206 53.8139 51.7353 53.8139C48.7499 53.8139 45.5157 52.5708 43.0279 48.3415C40.5401 44.1122 36.8084 41.1261 32.3304 40.3798Z" fill="#A2E2FF"/>
<path d="M50.3945 27.8294C50.3945 30.9075 53.088 35.1763 56.786 35.1763C60.484 35.1763 64.6992 31.4142 64.6992 28.336C64.6992 25.2579 60.7883 22.2559 57.0903 22.2559C53.3923 22.2559 50.3945 24.7512 50.3945 27.8294Z" fill="#EDDC0B"/>
<path d="M72.5449 28.2903C72.5449 31.3685 75.2384 35.6372 78.9364 35.6372C82.6344 35.6372 86.8496 31.8751 86.8496 28.797C86.8496 25.7188 82.9387 22.7168 79.2407 22.7168C75.5427 22.7168 72.5449 25.2121 72.5449 28.2903Z" fill="#EDDC0B"/>
<circle cx="68.3876" cy="31.4833" r="11.5361" fill="#FFED0D"/>
<path d="M54.5809 29.5169C64.3477 31.4729 67.823 39.1949 68.3397 42.8115C71.8005 38.1483 82.4139 26.5147 85.8747 30.437C91.6129 36.9402 81.9525 44.7417 73.4158 46.8182L73.3685 46.8221C70.6419 47.0491 70.1844 47.0872 69.9548 53.7398C69.7761 58.9181 71.1708 64.3438 69.9548 67.4015C69.2187 69.2525 64.409 70.8277 62.555 70.3095C61.3461 69.9717 61.7936 68.8592 61.7936 68.1797C61.7936 67.5001 63.0331 53.7155 63.0331 49.5869C63.0331 46.1294 60.5001 46.3556 60.4951 46.356L60.4949 46.356C53.7123 46.9668 42.3724 27.072 54.5809 29.5169Z" fill="#389935"/>
<path fill-rule="evenodd" clip-rule="evenodd" d="M74.5915 36.473C72.2007 39.102 70.1171 42.0884 68.8587 44.0081L68.834 44.0429C68.6733 44.2525 68.411 44.6475 68.1763 45.1179C67.9391 45.5932 67.7505 46.1052 67.7001 46.5582L66.5536 46.4308C66.6252 45.7861 66.8785 45.1351 67.1441 44.6028C67.3512 44.1876 67.5784 43.8201 67.7655 43.5512C67.7647 43.5472 67.764 43.5431 67.7632 43.539C67.733 43.3775 67.6871 43.1429 67.6246 42.8537C67.4994 42.2748 67.3082 41.4808 67.0447 40.6194C66.5072 38.8619 65.0769 36.7097 64.0064 35.6969L63.5449 34.0224C65.0826 35.0794 67.8472 38.3252 68.1479 40.2819C68.3679 41.0012 68.5391 41.6737 68.6654 42.2217C69.9454 40.344 71.7317 37.9031 73.738 35.6969C74.9631 34.3498 76.28 33.0791 77.6233 32.0756C78.9616 31.0759 81.0797 29.8694 83.387 29.6387L81.974 31.1648C80.8229 31.399 79.5835 32.0512 78.3137 32.9998C77.049 33.9446 75.7868 35.1586 74.5915 36.473Z" fill="#2F2F35"/>
<ellipse cx="35.3107" cy="37.2949" rx="5.37515" ry="5.57423" fill="#FFED0D"/>
<circle cx="38.9031" cy="35.9246" r="0.591254" transform="rotate(2.6545 38.9031 35.9246)" fill="#2F2F35"/>
<path d="M29.3368 40.3137C29.9554 41.0588 31.8628 42.3045 33.0572 42.3045C34.2515 42.3045 35.8754 39.073 36.1064 37.4951C36.1064 37.4951 38.2963 33.784 38.2963 33.1151C38.2963 32.4511 39.6897 34.1209 39.0924 33.1151C38.4895 32.0997 35.7699 29.1634 31.3276 31.9523C26.8848 34.7415 28.7181 39.5687 29.3368 40.3137Z" fill="#2F2F35"/>
<circle cx="35.8449" cy="37.7257" r="1.19448" fill="#FFED0D"/>
<circle cx="26.8863" cy="35.9332" r="3.38435" fill="#2F2F35"/>
<ellipse cx="21.7102" cy="36.5307" rx="3.78251" ry="3.58343" fill="#2F2F35"/>
<path d="M68.4036 52.8189C68.4036 55.8416 66.202 60.0335 63.1792 60.0335C60.1565 60.0335 56.7109 56.3392 56.7109 53.3164C56.7109 50.2937 59.9077 47.3457 62.9304 47.3457C65.9532 47.3457 68.4036 49.7961 68.4036 52.8189Z" fill="#FFED0D"/>
<rect x="13.5" y="64.5" width="63" height="28" rx="14" fill="#F0F0F5"/>
<rect x="13.5" y="64.5" width="63" height="28" rx="14" stroke="#0063D8"/>
<path d="M32.2966 80.2109V84.043H30.9959V81.2422H25.0779V80.2109H32.2966ZM32.2966 73.4492V79.707H30.9959V78.3008H28.5115C28.0076 78.8633 27.2459 79.2031 26.367 79.2031C24.7732 79.2031 23.5662 78.125 23.5662 76.6016C23.5662 75.1016 24.7732 74.0234 26.367 74.0352C27.24 74.0293 28.0017 74.3574 28.4998 74.9141H30.9959V73.4492H32.2966ZM26.367 75.1367C25.4529 75.1367 24.8084 75.7227 24.8084 76.6016C24.8084 77.5156 25.4529 78.0898 26.367 78.1016C27.2341 78.0898 27.8904 77.5156 27.9021 76.6016C27.8904 75.7227 27.2341 75.1367 26.367 75.1367ZM29.0623 77.2461H30.9959V75.9805H29.074C29.115 76.1797 29.1443 76.3848 29.1443 76.6016C29.1443 76.8242 29.115 77.041 29.0623 77.2461ZM43.5204 74.9609V76.0391H42.0321V77.1875H43.5204V78.2773H42.0321V79.8594H40.7313V73.4609H42.0321V74.9609H43.5204ZM38.9149 74.1055V77.1523H35.3876V78.2656C37.1864 78.2539 38.4169 78.1895 39.8641 77.9492L40.0048 78.9922C38.4227 79.2734 37.0516 79.3438 34.954 79.332H34.0868V76.168H37.6376V75.1367H34.0751V74.1055H38.9149ZM38.5751 80.0586C40.7548 80.0703 42.1259 80.8086 42.1376 82.0625C42.1259 83.3047 40.7548 84.0195 38.5751 84.0195C36.3485 84.0195 34.9891 83.3047 34.9891 82.0625C34.9891 80.8086 36.3485 80.0703 38.5751 80.0586ZM38.5751 81.0781C37.0985 81.0781 36.2548 81.4297 36.2665 82.0625C36.2548 82.6953 37.0985 83.0352 38.5751 83.0352C40.0399 83.0352 40.8485 82.6953 40.8485 82.0625C40.8485 81.4297 40.0399 81.0781 38.5751 81.0781ZM55.7491 73.4492V84.043H54.4952V78.6055H53.3585V83.5508H52.1398V73.7305H53.3585V77.5508H54.4952V73.4492H55.7491ZM51.2374 74.7852C51.2374 77.6445 50.3351 80.1055 47.3234 81.8281L46.5734 80.9258C48.8292 79.6191 49.7843 77.9434 49.9718 75.8281H47.0655V74.7852H51.2374ZM58.5588 73.918V75.2656H61.0315V73.918H62.3205V78.5352H57.2698V73.918H58.5588ZM58.5588 77.5039H61.0315V76.25H58.5588V77.5039ZM65.262 73.4492V75.5938H66.7385V76.6484H65.262V78.875H63.9612V73.4492H65.262ZM65.262 79.2969V82.0742H59.637V82.918H65.5901V83.9492H58.3479V81.125H63.9612V80.3164H58.3362V79.2969H65.262Z" fill="#0063D8"/>
</svg>
