<svg width="185" height="80" viewBox="0 0 185 80" fill="none" xmlns="http://www.w3.org/2000/svg">
<g clip-path="url(#clip0_604_13950)">
<path fill-rule="evenodd" clip-rule="evenodd" d="M145 6L141.326 0.780163C140.594 -0.260054 139.406 -0.260055 138.674 0.780163L135 6L145 6Z" fill="#252730"/>
</g>
<rect y="6" width="185" height="74" rx="16" fill="#252730"/>
<path d="M25.3465 19.5078V27.5117H24.2332V25.3438H22.5457V24.4531H24.2332V23.1523H22.5457V22.2383H24.2332V19.5078H25.3465ZM16.6043 21.6289V20.7266H19.0652V19.4961H20.1668V20.7266H22.5105V21.6289H16.6043ZM17.1902 24.1484C17.1902 22.9473 18.1863 22.127 19.6043 22.1328C21.0164 22.127 22.0242 22.9473 22.0301 24.1484C22.0242 25.3555 21.0164 26.1758 19.6043 26.1758C18.1863 26.1758 17.1902 25.3555 17.1902 24.1484ZM18.2332 24.1484C18.2273 24.8633 18.7898 25.3086 19.6043 25.3086C20.407 25.3086 20.9754 24.8633 20.9871 24.1484C20.9754 23.457 20.407 23.0117 19.6043 23C18.7898 23.0117 18.2273 23.457 18.2332 24.1484ZM18.491 29.7734V26.8086H19.616V28.8711H25.5809V29.7734H18.491ZM35.934 19.4961V29.9961H34.8676V24.6055H33.6137V29.4805H32.559V19.6953H33.6137V23.668H34.8676V19.4961H35.934ZM26.723 27.0312C28.2582 26.1699 28.973 24.3594 28.973 22.2734V21.5938H27.0043V20.6914H31.8793V21.5938H30.0512V22.2734C30.0512 24.1602 30.7602 25.8711 32.2894 26.6562L31.6332 27.5117C30.6019 26.9492 29.9105 25.9707 29.5355 24.7637C29.1781 26.1406 28.4867 27.2422 27.4144 27.875L26.723 27.0312ZM46.1871 23.2812C45.982 22.1855 45.0738 21.5762 43.9957 21.582C42.5309 21.5762 41.4469 22.7012 41.441 24.7578C41.4469 26.8262 42.5367 27.9395 43.9957 27.9336C45.0621 27.9395 45.9645 27.3418 46.1871 26.2578L47.4879 26.2695C47.2184 27.9453 45.8531 29.1172 43.984 29.1172C41.775 29.1172 40.1637 27.4707 40.1637 24.7578C40.1637 22.0449 41.7867 20.3984 43.984 20.3984C45.777 20.3984 47.2008 21.459 47.4879 23.2812H46.1871ZM49.9309 25.2266V29H48.677V20.5156H49.9074V23.6797H49.9895C50.2883 22.9883 50.8859 22.5547 51.8762 22.5547C53.1828 22.5547 54.0559 23.3633 54.0559 24.957V29H52.802V25.1094C52.802 24.1719 52.298 23.6328 51.4543 23.6328C50.5695 23.6328 49.9309 24.2129 49.9309 25.2266ZM55.1746 27.207C55.1687 25.7539 56.4051 25.3789 57.5535 25.2969C57.9754 25.2734 58.9305 25.2207 59.2234 25.209L59.2176 24.6992C59.2234 23.9785 58.7781 23.5625 57.9285 23.5625C57.1902 23.5625 56.7449 23.9023 56.616 24.3711H55.3738C55.4852 23.3164 56.4695 22.5547 57.9754 22.5547C58.9891 22.5547 60.4656 22.9238 60.4715 24.7695V29H59.2527V28.1328H59.2059C58.9598 28.6074 58.3738 29.1406 57.3191 29.1406C56.1121 29.1406 55.1687 28.4492 55.1746 27.207ZM56.3934 27.2188C56.3934 27.8281 56.8973 28.1387 57.6004 28.1445C58.6199 28.1387 59.2293 27.459 59.2293 26.7031L59.2234 26.123C58.9363 26.1406 58.0281 26.2051 57.7293 26.2227C56.909 26.2812 56.3934 26.5918 56.3934 27.2188ZM64.8598 22.6367V23.6328H63.559V27.125C63.5648 27.8457 63.9164 27.9746 64.3207 27.9805C64.5023 27.9805 64.7777 27.9629 64.9535 27.9453V29.0352C64.7836 29.0586 64.5141 29.082 64.1684 29.082C63.1898 29.082 62.3051 28.543 62.3168 27.3828V23.6328H61.3793V22.6367H62.3168V21.1133H63.559V22.6367H64.8598ZM71.8144 23.1992C71.498 22.1973 70.7305 21.5762 69.6113 21.582C68.1816 21.5762 67.0859 22.7012 67.0801 24.7578C67.0859 26.8086 68.1699 27.9395 69.6699 27.9336C71.0234 27.9395 71.9199 27.0781 71.9434 25.7188H69.8574V24.6523H73.1973V25.6133C73.1973 27.7637 71.7207 29.1172 69.6582 29.1172C67.3613 29.1172 65.8027 27.4473 65.8027 24.7578C65.8027 22.0508 67.4082 20.3984 69.5996 20.3984C71.4336 20.3984 72.8516 21.541 73.1387 23.1992H71.8144ZM74.5855 29V20.5156H77.609C79.5836 20.5156 80.5504 21.6992 80.5504 23.2695C80.5504 24.834 79.5777 26.0234 77.609 26.0234H75.8746V29H74.5855ZM75.8746 24.9219H77.4801C78.7281 24.9277 79.2496 24.2246 79.2496 23.2695C79.2496 22.3086 78.7281 21.623 77.4801 21.6172H75.8746V24.9219ZM81.3879 21.6289V20.5156H87.9621V21.6289H85.3254V29H84.0363V21.6289H81.3879ZM96.8738 19.4961V23.6797H98.5027V24.6055H96.8738V29.9844H95.7605V19.4961H96.8738ZM88.7059 27.1836C91.3367 25.8711 92.7664 23.9727 92.9949 21.5234H89.2332V20.5977H94.1316C94.1199 23.6328 92.784 26.3457 89.327 28.0508L88.7059 27.1836ZM110.561 19.4961V30.0195H109.447V24.5586H107.279V23.6562H109.447V19.4961H110.561ZM101.795 27.125C103.383 26.3926 104.426 24.5996 104.42 22.8711V22.1797H102.088V21.2891H104.432V19.707H105.545V21.2891H107.818V22.1797H105.521V22.8711C105.521 24.5293 106.594 26.2344 108.205 26.9492L107.584 27.8047C106.383 27.2773 105.457 26.1758 104.988 24.8574C104.531 26.252 103.611 27.4238 102.404 27.9805L101.795 27.125ZM120.785 19.4961V30.0195H119.671V19.4961H120.785ZM112.652 21.3477V20.4453H117.574V24.2773H113.8V26.5742C115.505 26.5684 116.988 26.4863 118.746 26.1992L118.851 27.1133C116.994 27.4238 115.412 27.4941 113.554 27.5H112.664V23.3867H116.437V21.3477H112.652ZM130.587 19.4609V21.9219H132.122V22.8359H130.587V25.2383H129.474V19.4609H130.587ZM122.349 21.2656V20.3867H124.927V19.4023H126.04V20.3867H128.607V21.2656H122.349ZM122.923 23.3867C122.917 22.3262 123.937 21.6641 125.478 21.6641C127.019 21.6641 128.021 22.3262 128.021 23.3867C128.021 24.4531 127.019 25.1035 125.478 25.0977C123.937 25.1035 122.917 24.4531 122.923 23.3867ZM123.802 26.5625V25.7305H130.587V28.168H124.915V29.0469H130.95V29.8906H123.825V27.3828H129.486V26.5625H123.802ZM124.001 23.3867C123.989 23.9551 124.57 24.2891 125.478 24.2891C126.38 24.2891 126.966 23.9551 126.978 23.3867C126.966 22.8184 126.38 22.4668 125.478 22.4609C124.57 22.4668 123.989 22.8184 124.001 23.3867ZM140.817 20.4219C140.811 21.8164 142.516 23.123 144.579 23.3984L144.145 24.3125C142.428 24.0371 140.922 23.1465 140.237 21.9102C139.551 23.1465 138.045 24.0371 136.34 24.3125L135.895 23.3984C137.952 23.123 139.651 21.834 139.657 20.4219V19.8477H140.817V20.4219ZM135.438 26.2578V25.3438H145.012V26.2578H140.746V29.9961H139.657V26.2578H135.438ZM152.183 26.4336C152.183 27.3359 152.629 28.291 153.584 28.8594C154.545 28.2441 155.019 27.2422 155.019 26.4336V25.9297H156.109V26.4336C156.103 27.5234 156.824 28.5781 158.195 29.0234L157.644 29.8438C156.607 29.4863 155.898 28.7832 155.535 27.9277C155.201 28.7715 154.574 29.5391 153.613 29.9375C152.605 29.5566 151.966 28.8125 151.644 27.957C151.263 28.7832 150.572 29.4805 149.582 29.8438L149.019 29.0234C150.367 28.543 151.099 27.4473 151.105 26.4336V25.9297H152.183V26.4336ZM148.75 22.5664C148.755 21.0957 149.939 20.0879 151.55 20.082C153.156 20.0879 154.339 21.0957 154.339 22.5664C154.339 24.0195 153.156 25.0273 151.55 25.0273C149.939 25.0273 148.755 24.0195 148.75 22.5664ZM149.839 22.5664C149.834 23.4805 150.554 24.1016 151.55 24.1016C152.535 24.1016 153.25 23.4805 153.25 22.5664C153.25 21.6465 152.535 21.0254 151.55 21.0312C150.554 21.0254 149.834 21.6465 149.839 22.5664ZM156.132 25.4844V19.5078H157.246V25.4844H156.132ZM167.306 22.5664V23.457H160.075V19.8711H161.177V22.5664H167.306ZM158.798 25.6719V24.7812H168.407V25.6719H158.798ZM159.993 29.75V26.668H161.107V28.8359H167.376V29.75H159.993ZM22.0824 38.0938V39.6758H24.7074V38.0938H25.809V40.0977H28.1059V37.4961H29.2191V43.5781H28.1059V41.0234H25.809V43.0391H20.9691V38.0938H22.0824ZM22.0824 42.1484H24.7074V40.5547H22.0824V42.1484ZM22.2934 47.8672V44.0703H29.2191V47.8672H22.2934ZM23.3949 46.9648H28.1293V44.9609H23.3949V46.9648ZM34.1816 37.9766C35.7637 37.9707 36.9062 38.8555 36.9121 40.1562C36.9062 41.4453 35.7637 42.3359 34.1816 42.3242C32.6055 42.3359 31.4687 41.4453 31.4746 40.1562C31.4687 38.8555 32.6055 37.9707 34.1816 37.9766ZM30.7246 43.1445C32.6641 43.1445 35.3418 43.1035 37.6387 42.7578L37.7207 43.5898C36.7598 43.7715 35.7695 43.8828 34.8027 43.9473V47.668H33.6895V44.0117C32.6699 44.0586 31.709 44.0645 30.877 44.0703L30.7246 43.1445ZM32.5527 40.1562C32.541 40.918 33.2266 41.4219 34.1816 41.4102C35.1602 41.4219 35.8457 40.918 35.8457 40.1562C35.8457 39.3887 35.1602 38.873 34.1816 38.8789C33.2266 38.873 32.541 39.3887 32.5527 40.1562ZM38.3652 47.9961V37.5078H39.4668V47.9961H38.3652ZM52.8254 37.4961V47.9961H51.759V42.6172H50.4113V47.457H49.3684V37.707H50.4113V41.7031H51.759V37.4961H52.8254ZM44.3293 45.3242V38.7383H45.4426V44.3457C46.4094 44.334 47.4699 44.2578 48.6652 44.0234L48.7824 44.9961C47.341 45.2539 46.1398 45.3301 45.009 45.3242H44.3293ZM63.1434 37.4961V47.9961H62.077V37.4961H63.1434ZM54.2254 42.0312C54.2254 39.7578 55.116 38.334 56.4871 38.3398C57.7645 38.334 58.6258 39.5469 58.7547 41.5156H59.9441V37.6953H61.0105V47.4805H59.9441V42.418H58.7605C58.6609 44.4688 57.7879 45.7402 56.4871 45.7344C55.116 45.7402 54.2254 44.3105 54.2254 42.0312ZM55.2566 42.0312C55.2566 43.7012 55.7312 44.6855 56.4871 44.6797C57.2605 44.6855 57.741 43.7012 57.741 42.0312C57.741 40.3555 57.2605 39.377 56.4871 39.3828C55.7312 39.377 55.2566 40.3555 55.2566 42.0312ZM68.1645 40.168C68.1645 42.0898 69.2426 44.0059 70.848 44.7266L70.1684 45.6172C68.9789 45.0195 68.0766 43.8359 67.6137 42.4004C67.1508 43.9121 66.2367 45.1895 65.0238 45.8164L64.3207 44.9141C65.9496 44.1348 67.0336 42.1133 67.0395 40.168V38.375H68.1645V40.168ZM69.6879 41.8906V40.9883H72.0316V37.4961H73.1332V48.0195H72.0316V41.8906H69.6879ZM86.234 37.4961V43.7422H85.1207V41.082H83.1637V40.168H85.1207V37.4961H86.234ZM77.4801 42.793C79.109 42.2246 80.1109 40.8066 80.1051 39.3594V39.125H77.8316V38.2227H83.4918V39.125H81.2418V39.3477C81.2359 40.6777 82.1852 41.9727 83.773 42.5117L83.1988 43.3906C82.0211 42.9863 81.1539 42.1426 80.6969 41.1055C80.2398 42.2773 79.3199 43.2207 78.066 43.6836L77.4801 42.793ZM79.1676 46.0156C79.1617 44.7676 80.5094 44.041 82.7184 44.0352C84.9156 44.041 86.2633 44.7676 86.2691 46.0156C86.2633 47.2637 84.9156 47.9902 82.7184 47.9961C80.5094 47.9902 79.1617 47.2637 79.1676 46.0156ZM80.2691 46.0156C80.2633 46.7246 81.1773 47.1289 82.7184 47.1172C84.2477 47.1289 85.1617 46.7246 85.1676 46.0156C85.1617 45.3008 84.2477 44.8965 82.7184 44.9023C81.1773 44.8965 80.2633 45.3008 80.2691 46.0156ZM90.9269 39.8047C90.9269 40.9883 91.6769 42.1426 93.0129 42.6172L92.4855 43.4609C91.4953 43.0801 90.8039 42.3594 90.4289 41.4805C90.0598 42.4355 89.3566 43.2207 88.3371 43.6367L87.8098 42.8164C89.1398 42.2773 89.8664 41.0762 89.8723 39.8047V39.7109H88.0441V38.8203H89.8723V37.6133H90.9269V38.8203H92.7316V39.7109H90.9269V39.8047ZM89.5676 45.3594V44.457H96.7043V47.9961H95.6027V45.3594H89.5676ZM93.3879 43.8828V37.6836H94.4543V40.25H95.6496V37.5078H96.7043V43.9297H95.6496V41.1641H94.4543V43.8828H93.3879ZM101.444 38.2461C103.102 38.2402 104.298 39.2656 104.304 40.7422C104.298 42.2188 103.102 43.2441 101.444 43.25C99.7918 43.2441 98.5789 42.2188 98.5848 40.7422C98.5789 39.2656 99.7918 38.2402 101.444 38.2461ZM98.0809 44.832C99.991 44.832 102.639 44.8145 104.936 44.4805L105.018 45.2891C102.645 45.7461 100.096 45.7578 98.2215 45.7578L98.0809 44.832ZM99.6863 40.7422C99.6746 41.6738 100.425 42.2773 101.444 42.2773C102.464 42.2773 103.214 41.6738 103.214 40.7422C103.214 39.8223 102.464 39.207 101.444 39.207C100.425 39.207 99.6746 39.8223 99.6863 40.7422ZM105.593 48.0195V37.4961H106.706V48.0195H105.593ZM120.697 43.4141V44.3164H116.432V47.9844H115.342V44.3164H111.123V43.4141H120.697ZM111.662 41.7383C113.619 41.4688 115.248 40.3027 115.283 39.0078H112.014V38.1172H119.795V39.0078H116.549C116.566 40.3027 118.184 41.4688 120.17 41.7383L119.76 42.6172C118.037 42.3477 116.549 41.498 115.91 40.3027C115.266 41.498 113.783 42.3477 112.084 42.6172L111.662 41.7383ZM131.004 45.7578V46.6836H121.394V45.7578H123.691V43.0156C122.83 42.541 122.302 41.791 122.308 40.8477C122.302 39.1953 123.925 38.1113 126.175 38.1055C128.431 38.1113 130.054 39.1953 130.054 40.8477C130.054 41.7734 129.55 42.5176 128.707 42.9922V45.7578H131.004ZM123.386 40.8477C123.386 41.9727 124.529 42.7051 126.175 42.7109C127.81 42.7051 128.97 41.9727 128.976 40.8477C128.97 39.7168 127.81 38.9961 126.175 38.9961C124.529 38.9961 123.386 39.7168 123.386 40.8477ZM124.793 45.7578H127.582V43.4258C127.154 43.5254 126.679 43.5781 126.175 43.5781C125.683 43.5781 125.214 43.5254 124.793 43.4258V45.7578ZM143.483 37.4961V47.9961H142.417V42.6172H141.069V47.457H140.026V37.707H141.069V41.7031H142.417V37.4961H143.483ZM134.987 45.3242V38.7383H136.1V44.3457C137.067 44.334 138.128 44.2578 139.323 44.0234L139.44 44.9961C137.999 45.2539 136.798 45.3301 135.667 45.3242H134.987ZM154.34 42.6172V43.5195H144.766V42.6172H147.063V41.2051C146.248 40.877 145.791 40.3496 145.797 39.6523C145.791 38.4043 147.239 37.6777 149.547 37.6836C151.85 37.6777 153.291 38.4043 153.297 39.6523C153.291 40.3496 152.834 40.877 152.02 41.2109V42.6172H154.34ZM145.903 46.0977C145.903 44.8965 147.262 44.2344 149.547 44.2344C151.803 44.2344 153.163 44.8965 153.168 46.0977C153.163 47.3105 151.803 47.9727 149.547 47.9727C147.262 47.9727 145.903 47.3105 145.903 46.0977ZM146.946 39.6523C146.94 40.3555 147.913 40.748 149.547 40.7539C151.17 40.748 152.155 40.3555 152.149 39.6523C152.155 38.9492 151.17 38.5449 149.547 38.5391C147.913 38.5449 146.94 38.9492 146.946 39.6523ZM147.028 46.0977C147.022 46.7539 147.942 47.1289 149.547 47.1172C151.129 47.1289 152.055 46.7539 152.055 46.0977C152.055 45.4531 151.129 45.0898 149.547 45.0898C147.942 45.0898 147.022 45.4531 147.028 46.0977ZM148.188 42.6172H150.918V41.498C150.508 41.5625 150.045 41.5977 149.547 41.5977C149.055 41.5977 148.598 41.5625 148.188 41.5039V42.6172ZM159.818 37.6719C162.186 37.666 163.562 38.3047 163.568 39.4766C163.562 40.6543 162.186 41.293 159.818 41.293C157.451 41.293 156.062 40.6543 156.068 39.4766C156.062 38.3047 157.451 37.666 159.818 37.6719ZM155.037 42.8281V41.9375H164.611V42.8281H155.037ZM156.186 44.4688V43.6367H163.404V46.0977H157.287V47.0352H163.697V47.8906H156.197V45.2891H162.303V44.4688H156.186ZM157.229 39.4766C157.223 40.127 158.148 40.4609 159.818 40.4609C161.5 40.4609 162.426 40.127 162.42 39.4766C162.426 38.8555 161.5 38.4922 159.818 38.4922C158.148 38.4922 157.223 38.8555 157.229 39.4766ZM70.1008 63.7578V64.6836H60.4914V63.7578H62.7883V61.0156C61.927 60.541 61.3996 59.791 61.4055 58.8477C61.3996 57.1953 63.0227 56.1113 65.2727 56.1055C67.5285 56.1113 69.1516 57.1953 69.1516 58.8477C69.1516 59.7734 68.6477 60.5176 67.8039 60.9922V63.7578H70.1008ZM62.4836 58.8477C62.4836 59.9727 63.6262 60.7051 65.2727 60.7109C66.9074 60.7051 68.0676 59.9727 68.0734 58.8477C68.0676 57.7168 66.9074 56.9961 65.2727 56.9961C63.6262 56.9961 62.4836 57.7168 62.4836 58.8477ZM63.8898 63.7578H66.6789V61.4258C66.2512 61.5254 65.7766 61.5781 65.2727 61.5781C64.7805 61.5781 64.3117 61.5254 63.8898 61.4258V63.7578ZM80.5008 57.0312V57.9453H79.0125V59.2812H80.5008V60.2188H79.0125V61.7188H77.8992V55.4961H79.0125V57.0312H80.5008ZM70.9266 58.6133C70.9148 57.1426 72.1102 56.1055 73.7156 56.1055C75.327 56.1055 76.5047 57.1426 76.5164 58.6133C76.5047 60.0957 75.327 61.1211 73.7156 61.1211C72.1102 61.1211 70.9148 60.0957 70.9266 58.6133ZM72.0164 58.6133C72.0047 59.5566 72.7312 60.1836 73.7156 60.1719C74.7 60.1836 75.4207 59.5566 75.4266 58.6133C75.4207 57.6758 74.7 57.0605 73.7156 57.0547C72.7312 57.0605 72.0047 57.6758 72.0164 58.6133ZM72.075 63.0898V62.1875H79.0125V65.9961H77.8992V63.0898H72.075ZM89.9867 55.5078V62H88.932V59.2344H87.7367V61.8477H86.6937V55.6602H87.7367V58.332H88.932V55.5078H89.9867ZM80.975 57.5234V56.6328H83.0961V55.543H84.1977V56.6328H86.2836V57.5234H80.975ZM81.3852 59.8086C81.3852 58.7012 82.3227 57.9922 83.6352 57.9922C84.977 57.9922 85.9086 58.7012 85.9086 59.8086C85.9086 60.8809 84.977 61.6133 83.6352 61.6133C82.3227 61.6133 81.3852 60.8809 81.3852 59.8086ZM81.6781 65.0234C83.0082 64.6016 83.7582 63.5703 83.7641 62.6211V62.3047H84.8539V62.6211C84.848 63.4766 85.2816 64.3672 86.2191 64.8945C87.1684 64.3203 87.6312 63.3711 87.6312 62.6211V62.3047H88.7328V62.6211C88.727 63.6289 89.4594 64.6367 90.8187 65.0234L90.2914 65.8672C89.2484 65.5273 88.5395 64.8477 88.1703 64.0156C87.848 64.8301 87.2211 65.5859 86.2484 65.9609C85.2406 65.5977 84.6078 64.8887 84.2855 64.0625C83.9047 64.8535 83.1957 65.5215 82.2055 65.8672L81.6781 65.0234ZM82.3812 59.8086C82.3812 60.4062 82.891 60.7871 83.6352 60.793C84.391 60.7871 84.9066 60.4062 84.9008 59.8086C84.9066 59.1816 84.391 58.8066 83.6352 58.8125C82.891 58.8066 82.3812 59.1816 82.3812 59.8086ZM93.5898 61.7891V62.9023H98.5234V61.7891H99.6367V65.8672H92.4883V61.7891H93.5898ZM91.3047 61.1328V60.207H100.879V61.1328H91.3047ZM91.8203 58.6836C93.8535 58.4199 95.5176 57.3008 95.5234 56.0586V55.6133H96.6602V56.0586C96.666 57.2656 98.3418 58.4375 100.352 58.6836L99.9531 59.5625C98.2539 59.3281 96.7715 58.5195 96.0977 57.4004C95.418 58.5254 93.9297 59.3281 92.2422 59.5625L91.8203 58.6836ZM93.5898 64.9766H98.5234V63.7695H93.5898V64.9766ZM110.295 55.4961V65.9961H109.181V55.4961H110.295ZM102.22 63.3242V56.5156H103.322V62.3633C104.857 62.3574 106.468 62.2227 108.15 61.8828L108.302 62.8203C106.445 63.2012 104.757 63.3301 103.099 63.3242H102.22ZM120.027 55.4961V59.5625H121.714V60.4766H120.027V66.0195H118.913V55.4961H120.027ZM112.292 63.4062V56.5039H117.202V57.4062H113.405V62.4805C115.169 62.4746 116.488 62.3984 117.988 62.1289L118.128 63.0664C116.482 63.3594 115.087 63.4121 113.136 63.4062H112.292ZM123.313 65.082C122.856 65.0762 122.475 64.707 122.481 64.25C122.475 63.793 122.856 63.418 123.313 63.418C123.764 63.418 124.139 63.793 124.145 64.25C124.139 64.707 123.764 65.0762 123.313 65.082Z" fill="#F0F0F5"/>
<defs>
<clipPath id="clip0_604_13950">
<rect width="80" height="5.99999" fill="white" transform="translate(185 6) rotate(-180)"/>
</clipPath>
</defs>
</svg>
