<svg width="96" height="70" viewBox="0 0 96 70" fill="none" xmlns="http://www.w3.org/2000/svg">
<path fill-rule="evenodd" clip-rule="evenodd" d="M95.7241 20.3636C95.7241 27.6415 91.9061 34.0277 86.1638 37.6285C86.1737 37.9178 86.1786 38.2083 86.1786 38.5C86.1786 52.3824 74.9247 63.6364 61.0423 63.6364C56.693 63.6364 52.6018 62.5318 49.0338 60.5879C47.2536 60.9182 45.4181 61.0909 43.5423 61.0909C38.3618 61.0909 33.489 59.7739 29.2404 57.4563C26.2687 61.2204 21.6649 63.6364 16.4968 63.6364C7.53473 63.6364 0.269531 56.3712 0.269531 47.4091C0.269531 39.4238 6.03739 32.7856 13.6342 31.4335C13.6335 31.3497 13.6332 31.2658 13.6332 31.1818C13.6332 14.6635 27.0239 1.27273 43.5423 1.27273C49.8139 1.27273 55.6346 3.20305 60.4428 6.50198C64.1611 2.50223 69.4686 0 75.3604 0C86.607 0 95.7241 9.11711 95.7241 20.3636Z" fill="#FFADCB"/>
<path d="M25.0859 20.3643C25.0859 17.5527 27.3652 15.2734 30.1768 15.2734H68.995C71.8067 15.2734 74.0859 17.5527 74.0859 20.3643V45.1825C74.0859 47.9942 71.8067 50.2734 68.995 50.2734H30.1768C27.3652 50.2734 25.0859 47.9942 25.0859 45.1825V20.3643Z" fill="#71B9FF"/>
<path d="M56.5795 19.9601C56.5795 24.1751 53.1625 27.5921 48.9475 27.5921C44.7325 27.5921 41.3156 24.1751 41.3156 19.9601C41.3156 15.7451 44.7325 12.3281 48.9475 12.3281C53.1625 12.3281 56.5795 15.7451 56.5795 19.9601Z" fill="#FFA1A8"/>
<path d="M53.0779 15.8829C51.2845 16.944 45.4533 16.18 42.6657 15.724C42.5613 15.7069 42.479 15.627 42.4677 15.5218C42.1659 12.7242 47.8463 9.43808 53.0779 12.0912C58.4184 14.7996 57.4012 19.6746 56.1296 19.6746C55.1124 19.6746 53.6713 17.1468 53.0779 15.8829Z" fill="#252730"/>
<path d="M59.1145 11.2352C56.3959 11.4371 55.1934 13.3391 54.9319 14.2648C54.5972 15.0226 55.9776 15.0218 58.0689 16.0316C60.1602 17.0415 66.1727 14.7693 66.6955 13.507C67.2183 12.2446 64.0814 13.0024 63.2971 12.4975C62.5129 11.9926 62.5129 10.9827 59.1145 11.2352Z" fill="#252730"/>
<path d="M47.5915 17.7705C47.5688 18.2603 47.2258 18.6423 46.8254 18.6238C46.425 18.6052 46.1188 18.1931 46.1415 17.7033C46.1642 17.2135 46.5072 16.8315 46.9076 16.85C47.308 16.8686 47.6142 17.2807 47.5915 17.7705Z" fill="#252730"/>
<path d="M51.6685 18.7294C51.6473 19.1868 51.3055 19.5426 50.9051 19.524C50.5047 19.5055 50.1974 19.1196 50.2186 18.6622C50.2398 18.2048 50.5815 17.849 50.9819 17.8676C51.3823 17.8862 51.6897 18.272 51.6685 18.7294Z" fill="#252730"/>
<path d="M17.7629 32.639C16.3116 43.3784 20.0792 59.3958 25.3038 66.0717C32.7341 73.5024 41.6134 68.5329 43.0308 66.2479C44.0629 64.8102 42.7831 64.8573 52.3035 64.8573C64.2039 64.8573 71.4603 64.8573 75.8141 60.213C80.1679 55.5686 80.5212 29.568 74.4553 24.4371C68.3894 19.3063 63.3332 20.7385 56.0768 20.7385C54.1292 20.7385 46.6598 24.4371 43.7199 24.4371C41.6047 24.4371 44.1446 20.7385 41.9354 20.7385C35.775 20.7385 31.9559 20.8132 28.7928 21.319C25.6298 21.8249 19.2141 21.8996 17.7629 32.639Z" fill="#266EB4"/>
<path fill-rule="evenodd" clip-rule="evenodd" d="M34.9396 41.3406C37.4789 37.4291 40.263 33.0354 42.0514 30.1836L43.3992 31.0288C41.6079 33.8853 38.8191 38.2864 36.274 42.2069C35.0017 44.1668 33.7883 46.0097 32.7901 47.4804C31.8041 48.9332 30.9978 50.0685 30.5527 50.5771L29.3555 49.5295C29.7232 49.1092 30.4721 48.0628 31.4738 46.587C32.4632 45.1293 33.6698 43.2967 34.9396 41.3406Z" fill="#252730"/>
<path fill-rule="evenodd" clip-rule="evenodd" d="M47.1337 54.8683C49.0603 49.5835 50.3406 44.0168 50.4833 40.834L52.0762 40.9079C51.9229 44.327 50.5832 50.0713 48.6288 55.4323C47.6482 58.122 46.5027 60.7439 45.2554 62.9532C44.0178 65.1451 42.6398 67.004 41.1677 68.0903C40.4618 68.6112 39.2174 69.1823 37.7659 69.561C36.3029 69.9427 34.5762 70.1191 32.8125 69.9163L33.0731 68.272C34.5279 68.504 36.0527 68.3334 37.3698 67.9898C38.6985 67.6431 39.7387 67.1409 40.2314 66.7773C41.4295 65.8932 42.672 64.2718 43.8727 62.1453C45.0635 60.0361 46.1738 57.5015 47.1337 54.8683Z" fill="#252730"/>
<path d="M39.7466 18.2424C37.7114 19.26 38.3898 25.9591 38.9834 29.1815C39.7463 32.7428 42.0364 36.5594 46.6156 37.577C51.1948 38.5946 56.2827 35.0331 57.3003 34.2699C58.3179 33.5067 58.5723 32.9979 58.5723 31.9803C58.5723 31.1662 57.0459 31.1323 56.2827 31.2171C57.8091 30.9627 58.0635 30.1995 58.0635 29.1815C58.0635 28.3672 56.1979 28.5032 55.2651 28.6731C57.8091 28.1646 57.5547 26.6379 57.3003 26.1291C57.0968 25.722 54.6715 25.6203 53.4843 25.6203C54.5867 25.1963 56.1301 24.1448 57.5547 23.3307C59.3355 22.3131 60.6642 21.2147 59.0993 19.4262C58.5819 18.8349 56.8009 19.031 53.7387 20.0232C51.1531 20.8609 49.7082 21.1304 47.312 22.2488C46.6804 22.5436 45.0588 23.7576 44.2653 23.966C44.1492 23.9965 44.045 23.9131 44.0211 23.7955C43.7815 22.6168 43.5488 20.9834 43.3084 20.0232C43.113 19.2428 42.2905 16.9704 39.7466 18.2424Z" fill="#EA7E85"/>
<path d="M44.8705 30.471C43.7133 27.1576 45.2483 23.6901 48.3574 22.6042C51.4666 21.5184 55.5187 20.6751 56.0277 21.6412C56.5367 22.6072 57.3159 23.37 56.5205 23.8765L56.6845 24.7344C56.6845 24.7344 56.9292 24.6903 57.001 24.7918C57.3456 25.2796 57.8036 26.4942 57.6268 26.8882C57.5575 27.0426 57.4376 26.9923 57.3327 27.0768C57.2136 27.1728 57.5468 27.806 57.6114 27.8747C57.9035 28.0015 58.1375 27.6821 58.4667 28.6247C58.892 29.8424 59.0919 29.9849 58.4826 30.3693C58.0937 30.6146 58.516 31.0141 58.9021 31.0425C59.1209 31.0586 59.2592 31.2136 59.2782 31.268C59.6277 32.2686 59.9772 32.4583 59.3752 33.3549C58.7733 34.2514 58.6207 34.6334 57.4685 35.2646C56.3164 35.8957 53.0742 37.2568 51.7084 37.2763C50.3425 37.2958 47.7322 38.665 44.8705 30.471Z" fill="#EA7E85"/>
<path fill-rule="evenodd" clip-rule="evenodd" d="M51.3537 24.8932L56.5202 23.8731L56.6975 24.7323L51.5279 25.725L51.3537 24.8932Z" fill="#252730"/>
<path fill-rule="evenodd" clip-rule="evenodd" d="M52.5169 28.7404L57.3552 27.0506L57.6383 27.8779L52.7872 29.531L52.5169 28.7404Z" fill="#252730"/>
<path fill-rule="evenodd" clip-rule="evenodd" d="M53.7422 32.002L58.5157 30.3348L58.9162 31.0441L54.0651 32.6971L53.7422 32.002Z" fill="#252730"/>
</svg>
