<svg width="96" height="70" viewBox="0 0 96 70" fill="none" xmlns="http://www.w3.org/2000/svg">
<path d="M52.7716 0C99.7449 0 92.9429 38.8268 87.7146 55.8243C86.2309 60.6481 81.65 63.6364 76.6032 63.6364H28.9401C23.8932 63.6364 19.3124 60.6481 17.8286 55.8243C12.6003 38.8268 5.79839 0 52.7716 0Z" fill="#FF5246"/>
<path d="M27.241 5.30907L11.9568 1.1314L10.9635 4.04135L27.6636 7.556L27.6636 5.8626C27.6636 5.60395 27.4905 5.37727 27.241 5.30907Z" fill="white"/>
<path d="M5.37766 23.4091L10.6511 1.32084C10.853 0.385813 11.618 0.237058 12.1099 0.353937L27.1735 3.85467C27.4801 3.92533 27.6896 4.20947 27.6554 4.52218C27.6249 4.80132 27.5826 5.12154 27.5331 5.31112C27.5185 5.36705 27.4598 5.39617 27.4038 5.38175C21.654 3.90093 18.2384 3.1847 12.571 1.73087C12.3556 1.67561 12.1388 1.82073 12.1099 2.04126L11.9227 3.4714C11.9149 3.5304 11.9536 3.58552 12.0117 3.59836L27.5965 7.04439C27.8692 7.1047 28.0424 7.37351 27.9846 7.64681L23.7427 27.705C23.6998 27.9081 23.4982 28.0362 23.296 27.9889L5.65286 23.8579C5.45222 23.811 5.32853 23.6092 5.37766 23.4091Z" fill="#E91F3C"/>
<path d="M42.8629 25.0446C35.7164 26.1867 26.8247 31.1572 23.3819 35.7371C23.2473 35.9161 22.9604 35.8728 22.8959 35.6585C21.8557 32.1979 20.1398 26.4238 19.086 25.6527C18.0476 24.8928 9.46198 26.7791 4.48712 28.0141C3.93941 28.15 3.59806 28.6965 3.71399 29.2477C7.1968 45.8063 14.5063 54.6717 23.891 53.0547C31.4564 51.7512 34.6918 48.7147 35.7153 47.4998C35.7928 47.4078 35.9921 47.4987 35.9672 47.6163C35.7667 48.5618 35.3897 50.3694 35.162 51.6451C34.8406 53.4458 33.1678 61.47 34.9953 66.3215C36.8229 71.173 58.6177 71.3038 62.059 66.2368C65.0647 61.8112 65.2944 50.4487 65.2965 47.6221C65.2966 47.5021 65.4779 47.4704 65.5239 47.5813C66.4327 49.7707 67.735 51.0919 70.4093 52.4049C74.269 54.3 82.0098 55.0873 86.3668 54.6296C86.6978 54.5949 86.9011 54.2625 86.7951 53.9477C86.2712 52.3907 84.9095 48.2685 84.7362 46.984C84.521 45.3888 85.0275 42.0659 83.4605 41.9819C81.2677 41.8645 77.3117 40.6783 76.8505 40.034C76.3893 39.3898 74.4527 34.347 72.2093 31.9219C69.9659 29.4968 68.4009 28.2348 63.6503 25.6532C58.8998 23.0717 50.2471 23.8646 42.8629 25.0446Z" fill="#097646"/>
<path fill-rule="evenodd" clip-rule="evenodd" d="M33.5937 53.5873C33.9651 49.2032 34.9879 44.6641 36.5184 41.3926L37.9594 42.0667C36.5331 45.1156 35.5403 49.4563 35.1789 53.7216C34.8159 58.0054 35.1025 62.0653 36.1194 64.5913L34.6436 65.1854C33.4868 62.3122 33.2237 57.953 33.5937 53.5873Z" fill="#252730"/>
<path fill-rule="evenodd" clip-rule="evenodd" d="M58.5296 25.5538C57.5279 26.8914 55.9896 27.8204 54.1956 27.9982C51.7265 28.2428 49.4533 26.9973 48.2688 24.9933C48.1562 25.019 48.0407 25.0379 47.9228 25.0496C46.4035 25.2002 45.0499 24.0906 44.8993 22.5713C44.7488 21.052 45.8584 19.6983 47.3776 19.5478C47.5412 19.5316 47.7028 19.53 47.8612 19.5419C48.6948 17.4832 50.6144 15.9451 52.978 15.7109C56.1445 15.3971 58.9888 17.5343 59.6278 20.5788C60.9407 20.5896 62.0612 21.5892 62.1936 22.9253C62.3354 24.3559 61.2905 25.6306 59.8599 25.7723C59.3878 25.8191 58.9326 25.7367 58.5296 25.5538Z" fill="#FFA1A8"/>
<path d="M50.4093 18.035C49.5868 21.2743 48.2378 20.6986 47.1271 21.0639C47.0819 21.0788 47.034 21.0446 47.0336 20.9971C46.9838 15.6066 50.7539 14.0649 53.834 14.1696C58.7446 14.3365 59.9315 18.4945 60.0914 20.7088C60.0914 20.7088 59.9075 20.8711 59.4709 21.0268C59.0343 21.1825 57.7682 21.1119 56.6049 20.6008C56.1528 20.4021 55.7248 20.2478 55.1641 19.7929C55.1374 19.7712 55.0986 19.7976 55.1098 19.8301C55.3533 20.5376 55.5892 20.6506 55.5415 20.8132C55.4131 21.2508 53.9403 20.8989 53.1753 20.5645C51.8738 20.1662 50.7299 19.0952 50.4093 18.035Z" fill="#252730"/>
<path d="M53.3105 22.7039C53.2867 23.2169 52.9015 23.6158 52.45 23.5948C51.9986 23.5739 51.6519 23.1411 51.6757 22.6281C51.6995 22.1151 52.0847 21.7162 52.5361 21.7371C52.9876 21.758 53.3343 22.1909 53.3105 22.7039Z" fill="#252730"/>
<path d="M56.1696 22.7963C56.1456 23.3129 55.7602 23.7147 55.3088 23.6938C54.8574 23.6729 54.5108 23.2371 54.5348 22.7205C54.5587 22.2039 54.9441 21.8021 55.3955 21.8231C55.847 21.844 56.1935 22.2797 56.1696 22.7963Z" fill="#252730"/>
<path d="M0.347656 21.6884C0.347656 16.2299 4.23015 11.9258 9.16226 11.9258C14.0944 11.9258 20.108 12.7899 20.4825 14.445C20.8069 15.8792 21.4501 17.644 20.0754 17.9799L19.8836 19.3236C19.8836 19.3236 20.2515 19.3844 20.3027 19.5702C20.5492 20.4632 20.597 22.4814 20.1523 22.9693C19.9781 23.1604 19.8336 23.025 19.6435 23.0954C19.4277 23.1753 19.5862 24.2759 19.6435 24.4098C19.9939 24.7457 20.4825 24.3968 20.4825 25.9497C20.4825 27.9557 20.6947 28.2674 19.6435 28.5194C18.9724 28.6802 19.3723 29.4832 19.9042 29.723C20.2055 29.8588 20.3246 30.1573 20.3246 30.2469C20.3246 31.8953 20.7251 32.3531 19.4313 33.3608C18.1375 34.3685 17.7332 34.8511 15.7925 35.187C13.8518 35.5229 8.24361 35.737 6.65504 35.187C5.06648 34.6371 0.347656 35.187 0.347656 21.6884Z" fill="#FFA1A8"/>
<path fill-rule="evenodd" clip-rule="evenodd" d="M12.2689 16.8248L20.0773 17.9764L19.9037 19.3289L12.1044 18.1354L12.2689 16.8248Z" fill="#252730"/>
<path fill-rule="evenodd" clip-rule="evenodd" d="M12.0121 23.0703L19.6872 23.0703L19.679 24.4302L12.0039 24.3697L12.0121 23.0703Z" fill="#252730"/>
<path fill-rule="evenodd" clip-rule="evenodd" d="M12.1406 28.4883H19.7129L19.9289 29.7351L12.2538 29.6746L12.1406 28.4883Z" fill="#252730"/>
<path d="M3.98552 5.52876C1.53954 6.75106 0.970731 12.9004 0.511193 16.9502C0.0516541 21 0.572204 29.7418 1.19175 28.7841L5.43949 16.0848C6.23497 14.9544 8.29723 12.9658 8.70515 12.0586C9.0539 11.283 9.08196 7.83142 8.70515 6.8266C8.32835 5.82178 7.043 4.0009 3.98552 5.52876Z" fill="#FFA1A8"/>
<path d="M95.329 47.1922C95.7413 43.9244 93.6526 41.0431 90.5862 40.6562C87.5199 40.2693 83.6357 40.29 83.358 41.2764C83.0803 42.2629 82.5148 43.1157 83.3441 43.4246L83.3618 44.244C83.3618 44.244 83.1285 44.2516 83.0826 44.3588C82.8619 44.874 82.6798 46.0785 82.9194 46.4055C83.0133 46.5336 83.1134 46.4639 83.2262 46.5209C83.3543 46.5857 83.1727 47.2321 83.1269 47.3078C82.8837 47.4814 82.6063 47.2342 82.489 48.1639C82.3375 49.3648 82.182 49.5348 82.8165 49.768C83.2216 49.917 82.9123 50.3664 82.5635 50.4682C82.3659 50.5259 82.2694 50.6952 82.2626 50.7488C82.1381 51.7357 81.8545 51.9783 82.5828 52.6831C83.311 53.3879 83.5259 53.7085 84.7071 54.0618C85.8883 54.4152 89.1307 55.0285 90.388 54.7786C91.6453 54.5286 94.3094 55.2733 95.329 47.1922Z" fill="#FFA1A8"/>
<path fill-rule="evenodd" clip-rule="evenodd" d="M88.2861 43.3446L83.3445 43.4215L83.3503 44.2448L88.2893 44.1421L88.2861 43.3446Z" fill="#252730"/>
<path fill-rule="evenodd" clip-rule="evenodd" d="M87.9715 47.1048L83.1998 46.5028L83.1021 47.3176L87.8784 47.8834L87.9715 47.1048Z" fill="#252730"/>
<path fill-rule="evenodd" clip-rule="evenodd" d="M87.4883 50.3379L82.7805 49.7439L82.552 50.4734L87.3283 51.0392L87.4883 50.3379Z" fill="#252730"/>
</svg>
