<svg width="96" height="70" viewBox="0 0 96 70" fill="none" xmlns="http://www.w3.org/2000/svg">
<path d="M23.425 11.014C24.4403 4.66824 29.9148 0 36.3413 0L82.4724 0C90.6754 0 96.8542 7.46325 95.323 15.5221L88.2028 52.9974C87.0301 59.1696 81.6348 63.6364 75.3522 63.6364L30.3453 63.6364C22.2967 63.6364 16.1574 56.4368 17.429 48.4892L23.425 11.014Z" fill="#11A40D"/>
<path d="M14.427 1.16936C11.5929 1.60538 12.3161 5.85943 12.8611 8.85706C6.35052 7.70328 3.41155 8.66216 0.959142 11.6598C-1.09805 14.1743 2.03339 20.0597 2.75633 21.3393C2.84593 21.4979 2.99863 21.5925 3.18059 21.6009C5.38318 21.7031 19.7953 22.3428 19.7953 21.5877C19.7953 20.7702 18.4328 12.3227 18.7053 7.14494C18.9778 1.96722 17.9697 0.624341 14.427 1.16936Z" fill="#FFA1A8"/>
<path fill-rule="evenodd" clip-rule="evenodd" d="M8.59417 12.7865C9.12327 12.2073 9.90459 11.7441 10.7512 11.7441C11.1896 11.7441 11.6563 11.8909 12.0837 12.0733C12.5236 12.2609 12.9851 12.5144 13.4302 12.7844C14.1293 13.2086 14.8329 13.7025 15.3867 14.0912C15.5686 14.2189 15.9966 14.5624 16.1867 14.7063C16.2183 14.7302 16.2161 14.7795 16.1821 14.7998L15.1734 15.4021C15.0817 15.4568 14.9664 15.453 14.8789 15.3919C14.785 15.3265 14.6872 15.2578 14.586 15.1868C14.0345 14.7998 13.3824 14.3422 12.7265 13.9442C12.3092 13.691 11.9087 13.4735 11.5513 13.3211C11.1815 13.1633 10.9158 13.1007 10.7512 13.1007C10.3918 13.1007 9.9494 13.3144 9.59577 13.7015C9.23985 14.0911 9.09067 14.5265 9.13376 14.8425C9.18879 15.2461 9.43956 15.734 9.83559 16.2183C10.1809 16.6406 11.1108 17.3886 11.5983 17.7243C11.6436 17.7555 11.6211 17.8302 11.5661 17.8302H10.1876C9.59577 17.8302 9.26501 17.6636 8.78538 17.077C8.31289 16.4992 7.89245 15.7802 7.78959 15.0257C7.67479 14.1837 8.06736 13.3632 8.59417 12.7865Z" fill="#252730"/>
<path d="M70.8136 24.389C86.3469 25.3721 84.7873 50.7723 83.894 56.4077C83.4082 59.4724 81.8691 63.223 80.5661 66.0071C79.3944 68.5104 76.8342 69.9977 74.0702 69.9977H42.6387C40.9269 69.9977 39.5047 68.6776 39.3776 66.9705L37.8396 46.3248C36.9313 50.8667 34.297 60.6044 31.0268 63.2205C26.9392 66.4907 19.3645 65.5431 14.9487 63.2205C9.35445 60.2781 2.68564 24.5241 2.14062 21.254C1.59559 17.9838 14.645 20.8617 14.645 20.8617C20.3939 22.2887 19.88 19.9561 20.6975 22.681C21.5151 25.4059 25.41 41.6795 26.1216 40.0572C27.4353 37.0626 31.5719 25.8867 35.1145 24.5241C38.6572 23.1615 49.2852 23.0264 70.8136 24.389Z" fill="#FCDC1C"/>
<path d="M67.4662 60.6952L65.7094 34.593C65.6692 33.997 65.1569 33.5443 64.5605 33.5779L47.414 34.5439C46.7987 34.5786 46.3344 35.1161 46.3897 35.73L48.6519 60.8661C48.7025 61.428 49.1734 61.8585 49.7376 61.8585H66.3787C67.0095 61.8585 67.5086 61.3246 67.4662 60.6952Z" fill="#F7F7FA"/>
<path fill-rule="evenodd" clip-rule="evenodd" d="M62.846 39.0147L49.4023 39.1603V36.9679L62.846 36.8223V39.0147Z" fill="#BFBFBF"/>
<path fill-rule="evenodd" clip-rule="evenodd" d="M57.0009 43.6905L49.4023 43.8361V41.6436L57.0009 41.498V43.6905Z" fill="#BFBFBF"/>
<path d="M56.2069 62.9796C60.0215 61.3244 66.4664 51.5314 69.212 46.8418L72.9328 63.6251H60.6793C57.5991 64.0996 52.3923 64.6349 56.2069 62.9796Z" fill="#FCDC1C"/>
<path fill-rule="evenodd" clip-rule="evenodd" d="M66.1506 53.3036C63.5013 57.409 59.7575 61.7892 55.6524 63.4535L55.0547 61.9792C58.6775 60.5104 62.1962 56.4974 64.8139 52.441C66.1094 50.4334 67.1563 48.4587 67.8606 46.8601C68.2131 46.0599 68.4746 45.3654 68.6389 44.8157C68.8144 44.2288 68.8455 43.9125 68.834 43.8129L70.4145 43.6309C70.4666 44.0834 70.3409 44.6767 70.1632 45.2714C69.9743 45.9033 69.6862 46.6622 69.3165 47.5014C68.5763 49.1817 67.4886 51.2301 66.1506 53.3036Z" fill="#252730"/>
<path d="M61.5267 21.7229C61.502 25.7048 58.6844 28.9118 54.5494 28.8861C50.4144 28.8604 47.0825 25.6116 47.1072 21.6298C47.132 17.6479 50.5041 14.9955 54.6391 15.0212C58.7741 15.0469 61.5515 17.7411 61.5267 21.7229Z" fill="#FFA1A8"/>
<path d="M53.2591 18.1225C53.4176 18.5216 53.1265 19.0117 52.609 19.2173C52.0914 19.4229 51.5434 19.2661 51.3848 18.8671C51.2263 18.468 51.5174 17.9779 52.035 17.7723C52.5525 17.5667 53.1006 17.7235 53.2591 18.1225Z" fill="#252730"/>
<path d="M61.5226 20.0119C62.0019 22.4083 61.0857 24.5129 60.828 25.0403C60.806 25.0854 60.7411 25.0788 60.7275 25.0305C60.5256 24.3124 59.3805 20.8609 55.1446 16.9615C54.0493 15.9532 52.4081 15.7285 52.1274 15.3586C52.1016 15.3246 52.1136 15.28 52.1472 15.2538C52.4291 15.0337 53.8534 14.0875 56.8084 14.7437C60.1361 15.4826 61.2453 18.6254 61.5226 20.0119Z" fill="#252730"/>
</svg>
