<svg width="96" height="70" viewBox="0 0 96 70" fill="none" xmlns="http://www.w3.org/2000/svg">
<path d="M86.1786 42.9545C86.1786 19.2314 73.5541 0 42.9573 0C12.3604 0 0.269531 18.994 0.269531 42.4242C0.269531 54.1394 9.76652 63.6364 21.4817 63.6364H66.4294C77.3366 63.6364 86.1786 54.7943 86.1786 43.8871V42.9545Z" fill="#016ED8"/>
<path d="M49.1615 9.83735C49.1615 13.6793 52.527 19.0073 57.1476 19.0073C61.7682 19.0073 67.0352 14.3117 67.0352 10.4698C67.0352 6.6278 62.1485 2.88086 57.5279 2.88086C52.9072 2.88086 49.1615 5.99539 49.1615 9.83735Z" fill="#EDDC0B"/>
<path d="M76.8373 10.4135C76.8373 14.2555 80.2027 19.5835 84.8234 19.5835C89.444 19.5835 94.7109 14.8879 94.7109 11.0459C94.7109 7.20397 89.8243 3.45703 85.2037 3.45703C80.583 3.45703 76.8373 6.57156 76.8373 10.4135Z" fill="#EDDC0B"/>
<path d="M86.0668 14.3986C86.0668 22.3507 79.6133 28.7972 71.6525 28.7972C63.6918 28.7972 57.2383 22.3507 57.2383 14.3986C57.2383 6.44647 63.6918 0 71.6525 0C79.6133 0 86.0668 6.44647 86.0668 14.3986Z" fill="#FFED0D"/>
<path d="M54.3967 11.9456C66.6003 14.3869 70.9426 24.0251 71.5883 28.539C75.9126 22.7187 89.1739 8.19839 93.4982 13.0939C100.668 21.2108 88.5974 30.9482 77.9308 33.5399L77.8717 33.5448C74.4648 33.8281 73.8932 33.8757 73.6063 42.1791C73.383 48.6423 75.7831 59.818 74.8275 61.4089C73.8719 62.9998 66.8643 64.2725 64.9531 63.318C63.5503 62.6174 63.1888 61.6326 63.1888 60.3006C63.1888 58.9685 64.9578 42.1487 64.9578 36.9956C64.9578 32.6802 61.7924 32.9626 61.7863 32.9631C53.3115 33.7255 39.1423 8.89394 54.3967 11.9456Z" fill="#11A40D"/>
<path fill-rule="evenodd" clip-rule="evenodd" d="M79.4021 20.6249C76.4148 23.9063 73.8114 27.6337 72.2389 30.0298L72.2081 30.0732C72.0072 30.3348 71.6796 30.8277 71.3863 31.4149C71.0899 32.0082 70.8542 32.6472 70.7913 33.2126L69.3587 33.0536C69.4482 32.2489 69.7646 31.4364 70.0965 30.772C70.3554 30.2538 70.6392 29.7951 70.8729 29.4595C70.872 29.4545 70.8711 29.4494 70.8701 29.4442C70.8324 29.2426 70.7751 28.9498 70.6969 28.5889C70.5404 27.8664 70.3016 26.8753 69.9724 25.8001C69.3103 23.6381 67.5647 20.9973 66.2338 19.7115C66.1956 19.6746 66.1673 19.6297 66.1509 19.5792L65.5228 17.6542C65.5035 17.5953 65.5711 17.5467 65.6205 17.584C67.325 18.8717 70.1353 21.4096 71.3508 25.379C71.6257 26.2768 71.8396 27.116 71.9974 27.8C73.5967 25.4565 75.8287 22.4099 78.3357 19.6562C79.8663 17.9749 81.5118 16.3889 83.1903 15.1364C84.8231 13.9179 87.8292 12.4729 90.6539 12.1375C90.716 12.1301 90.7486 12.2072 90.7009 12.2476L88.6886 13.947C88.6478 13.9814 88.5992 14.0049 88.547 14.0162C87.1311 14.322 85.6104 15.1277 84.053 16.2899C82.4727 17.4691 80.8956 18.9844 79.4021 20.6249Z" fill="#252730"/>
<path d="M30.2428 26.8537C24.0781 25.8933 13.9232 30.3441 13.2383 41.2282C13.2383 52.4333 13.7499 65.5429 33.4229 69.5262C53.096 73.5096 68.4104 51.1281 70.1228 47.6068C71.8353 44.0855 68.2585 41.5802 66.2036 42.2204C64.1487 42.8606 56.3207 47.5486 52.2109 47.5486C48.1011 47.5486 44.7072 46.6689 43.2028 39.8833C41.6635 32.9402 36.4075 27.814 30.2428 26.8537Z" fill="#88C4FF"/>
<path fill-rule="evenodd" clip-rule="evenodd" d="M44.7752 43.9349C45.6354 45.1715 47.0651 46.2535 49.8279 46.7709C52.5159 47.2743 56.0361 46.2901 59.0005 45.0877C60.4592 44.496 61.7405 43.8697 62.6572 43.391C63.1151 43.1519 63.4809 42.9503 63.7311 42.8091C63.8561 42.7385 63.9522 42.6831 64.0164 42.6457C64.0484 42.627 64.0725 42.6129 64.0883 42.6036L64.1056 42.5933L64.1094 42.591L64.1101 42.5906C64.1101 42.5906 64.11 42.5906 64.5198 43.2727C64.9295 43.9548 64.9294 43.9549 64.9292 43.955L64.921 43.9599L64.8995 43.9727C64.8809 43.9836 64.8539 43.9995 64.8188 44.02C64.7487 44.0608 64.6462 44.1199 64.5145 44.1943C64.251 44.3429 63.87 44.5529 63.395 44.8009C62.4461 45.2964 61.1175 45.946 59.5997 46.5617C56.6113 47.7739 52.7123 48.9297 49.5345 48.3346C46.4316 47.7535 44.6047 46.4778 43.4673 44.8428C42.4796 43.423 42.0557 41.7767 41.6892 40.3534C41.6483 40.1944 41.608 40.0381 41.5678 39.8852L43.1081 39.4807C43.1486 39.6347 43.1883 39.7878 43.2278 39.9398C43.6067 41.4003 43.9604 42.7637 44.7752 43.9349Z" fill="#252730"/>
<path d="M40.1665 23.5227C40.1665 27.1941 37.2934 30.1704 33.7493 30.1704C30.2051 30.1704 27.332 27.1941 27.332 23.5227C27.332 19.8513 30.2051 16.875 33.7493 16.875C37.2934 16.875 40.1665 19.8513 40.1665 23.5227Z" fill="#FFA1A8"/>
<path d="M38.8488 22.3405C38.6367 22.6673 38.1546 22.7312 37.7721 22.4834C37.3896 22.2356 37.2515 21.7699 37.4636 21.4432C37.6757 21.1164 38.1577 21.0524 38.5403 21.3002C38.9228 21.548 39.0609 22.0138 38.8488 22.3405Z" fill="#252730"/>
<path d="M26.6173 27.1221C27.3559 28.0107 29.6331 29.4963 31.059 29.4963C32.4848 29.4963 34.4235 25.6425 34.6994 23.7607C34.6994 23.7607 37.3138 19.3349 37.3138 18.5372C37.3138 17.7453 38.9773 19.7367 38.2643 18.5372C37.5445 17.3262 34.2976 13.8245 28.994 17.1505C23.6899 20.4768 25.8786 26.2335 26.6173 27.1221Z" fill="#252730"/>
<path d="M35.8136 24.0358C35.8136 24.8226 35.175 25.4603 34.3872 25.4603C33.5995 25.4603 32.9609 24.8226 32.9609 24.0358C32.9609 23.2491 33.5995 22.6113 34.3872 22.6113C35.175 22.6113 35.8136 23.2491 35.8136 24.0358Z" fill="#FFA1A8"/>
<path d="M27.7294 21.8974C27.7294 24.1265 25.9204 25.9335 23.6889 25.9335C21.4574 25.9335 19.6484 24.1265 19.6484 21.8974C19.6484 19.6683 21.4574 17.8613 23.6889 17.8613C25.9204 17.8613 27.7294 19.6683 27.7294 21.8974Z" fill="#252730"/>
<path d="M22.0278 22.6094C22.0278 24.9696 20.0059 26.8829 17.5119 26.8829C15.0179 26.8829 12.9961 24.9696 12.9961 22.6094C12.9961 20.2493 15.0179 18.3359 17.5119 18.3359C20.0059 18.3359 22.0278 20.2493 22.0278 22.6094Z" fill="#252730"/>
<path d="M63.0488 47.7665C61.9098 44.6756 63.2974 41.3979 66.201 40.3303C69.1046 39.2626 72.8977 38.4079 73.391 39.3064C73.8842 40.205 74.6281 40.9085 73.889 41.3962L74.0564 42.1986C74.0564 42.1986 74.2856 42.1534 74.3546 42.2476C74.686 42.6999 75.1353 43.8324 74.9753 44.2049C74.9126 44.3509 74.7993 44.3055 74.7021 44.3865C74.5917 44.4784 74.9146 45.0673 74.9763 45.1308C75.2527 45.2451 75.4676 44.9418 75.7916 45.8212C76.2102 46.9571 76.4001 47.0877 75.8338 47.4579C75.4724 47.6942 75.8753 48.0624 76.2385 48.083C76.4442 48.0947 76.5766 48.2379 76.5953 48.2887C76.9392 49.2221 77.2705 49.3947 76.7191 50.2454C76.1677 51.0961 76.0304 51.4569 74.958 52.0672C73.8856 52.6775 70.8614 54.0054 69.5787 54.0451C68.296 54.0847 65.8655 55.4104 63.0488 47.7665Z" fill="#FFA1A8"/>
<path fill-rule="evenodd" clip-rule="evenodd" d="M69.0487 42.4331L73.8863 41.3948L74.0663 42.1983L69.2253 43.2109L69.0487 42.4331Z" fill="#252730"/>
<path fill-rule="evenodd" clip-rule="evenodd" d="M70.204 46.0256L74.7224 44.3642L75.0014 45.1361L70.4704 46.7632L70.204 46.0256Z" fill="#252730"/>
<path fill-rule="evenodd" clip-rule="evenodd" d="M71.4062 49.0645L75.8641 47.4253L76.2515 48.0846L71.7204 49.7117L71.4062 49.0645Z" fill="#252730"/>
</svg>
