<svg width="40" height="40" viewBox="0 0 40 40" fill="none" xmlns="http://www.w3.org/2000/svg">
<rect width="40" height="40" rx="20" fill="white"/>
<path d="M29.6083 10.9113C29.5495 10.8059 29.4753 10.7067 29.3857 10.6171C29.1186 10.35 28.7664 10.2199 28.4163 10.2268L13.332 10.2268C12.5957 10.2268 11.9987 10.8237 11.9987 11.5601C11.9987 12.2965 12.5956 12.8934 13.332 12.8934L25.2237 12.8935L10.6112 27.506C10.0905 28.0267 10.0905 28.8709 10.6112 29.3916C11.1319 29.9123 11.9761 29.9123 12.4968 29.3916L27.1098 14.7786V26.6712C27.1098 27.4076 27.7068 28.0046 28.4432 28.0046C29.1796 28.0046 29.7765 27.4076 29.7765 26.6712V11.5602C29.7765 11.3246 29.7154 11.1034 29.6083 10.9113Z" fill="#CCCCCC" stroke="#CCCCCC" stroke-width="2.15054" stroke-miterlimit="10" stroke-linecap="round"/>
</svg>
