<svg width="22" height="16" viewBox="0 0 22 16" fill="none" xmlns="http://www.w3.org/2000/svg">
<g opacity="0.3">
<path d="M8.06643 1.8162C8.30604 1.68857 8.2889 1.35321 8.01925 1.32172C7.66705 1.28059 7.30366 1.28734 6.93185 1.29425C6.78916 1.2969 6.64524 1.29958 6.50023 1.29958C3.14161 1.29958 0.00138539 5.12022 0.00138539 8.98622C0.00138539 9.4448 0 9.96875 0 9.96875C0 12.7855 2.28407 15.0689 5.10077 15.0689C6.4382 15.0689 7.65539 14.5541 8.56499 13.7118C8.56908 13.7102 8.57316 13.7085 8.57724 13.7069C8.63568 13.6833 8.69362 13.6599 8.75098 13.6371C8.72565 13.6271 8.70036 13.617 8.67511 13.6068C9.61682 12.6814 10.2009 11.3933 10.2009 9.96875C10.2009 7.15205 7.66088 5.19571 4.84417 5.19571C4.81665 5.19571 4.78917 5.19593 4.76175 5.19637C5.46294 3.88233 6.81469 2.48296 8.06643 1.8162Z" fill="#0090A5"/>
<path d="M19.5235 1.8162C19.7631 1.68857 19.746 1.35321 19.4764 1.32172C19.1242 1.28059 18.7608 1.28734 18.389 1.29425C18.2463 1.2969 18.1023 1.29958 17.9573 1.29958C14.5987 1.29958 11.4585 5.12022 11.4585 8.98622C11.4585 9.4448 11.4571 9.96875 11.4571 9.96875C11.4571 12.7855 13.7412 15.0689 16.5579 15.0689C17.8953 15.0689 19.1125 14.5541 20.0221 13.7118C20.0262 13.7102 20.0303 13.7085 20.0343 13.7069C20.0928 13.6833 20.1507 13.6599 20.2081 13.6371C20.1828 13.6271 20.1575 13.617 20.1322 13.6068C21.0739 12.6814 21.658 11.3933 21.658 9.96875C21.658 7.15205 19.118 5.19571 16.3013 5.19571C16.2738 5.19571 16.2463 5.19593 16.2189 5.19637C16.9201 3.88233 18.2718 2.48296 19.5235 1.8162Z" fill="#0090A5"/>
</g>
</svg>
