<svg width="18" height="18" viewBox="0 0 18 18" fill="none" xmlns="http://www.w3.org/2000/svg">
<g opacity="0.6">
<path fill-rule="evenodd" clip-rule="evenodd" d="M1.5 9C1.5 4.85786 4.85786 1.5 9 1.5C13.1421 1.5 16.5 4.85786 16.5 9C16.5 13.1421 13.1421 16.5 9 16.5C4.85786 16.5 1.5 13.1421 1.5 9ZM9 2.72449C5.53413 2.72449 2.72449 5.53413 2.72449 9C2.72449 12.4659 5.53413 15.2755 9 15.2755C12.4659 15.2755 15.2755 12.4659 15.2755 9C15.2755 5.53413 12.4659 2.72449 9 2.72449Z" fill="#1FA8BD"/>
<path fill-rule="evenodd" clip-rule="evenodd" d="M10.7615 6.04676C11.2626 6.50785 11.5574 7.19182 11.4547 8.00794C11.3462 8.86952 10.7034 9.30862 10.3018 9.58297C10.2697 9.60489 10.2392 9.62575 10.2106 9.6457C9.76976 9.95302 9.59218 10.1275 9.59218 10.5C9.59218 10.8314 9.32355 11.1 8.99218 11.1C8.66081 11.1 8.39218 10.8314 8.39218 10.5C8.39218 9.46908 9.07039 8.97776 9.52427 8.66132C10.0322 8.30717 10.2256 8.16312 10.2641 7.858C10.3169 7.43859 10.173 7.13593 9.94893 6.92978C9.71053 6.71039 9.36289 6.58651 9.01761 6.60116C8.28564 6.63222 7.725 7.18689 7.725 7.80102C7.725 8.13239 7.45637 8.40102 7.125 8.40102C6.79363 8.40102 6.525 8.13239 6.525 7.80102C6.525 6.4239 7.71951 5.45515 8.96675 5.40224C9.61108 5.3749 10.2748 5.59889 10.7615 6.04676Z" fill="#1FA8BD"/>
<path d="M9.60015 12.3001C9.60015 12.6314 9.33152 12.9001 9.00015 12.9001C8.66878 12.9001 8.40015 12.6314 8.40015 12.3001C8.40015 11.9687 8.66878 11.7001 9.00015 11.7001C9.33152 11.7001 9.60015 11.9687 9.60015 12.3001Z" fill="#1FA8BD"/>
</g>
</svg>
