<svg width="24" height="24" viewBox="0 0 24 24" fill="none" xmlns="http://www.w3.org/2000/svg">
<rect width="24" height="24" rx="12" fill="#569ED1"/>
<path fill-rule="evenodd" clip-rule="evenodd" d="M12.6499 17.0004C12.6499 17.5527 13.0976 18.0004 13.6499 18.0004H16.9999C17.5522 18.0004 17.9999 17.5527 17.9999 17.0004V13.6504C17.9999 13.0981 17.5522 12.6504 16.9999 12.6504H13.6499C13.0976 12.6504 12.6499 13.0981 12.6499 13.6504V17.0004ZM12.65 10.35C12.65 10.9023 13.0977 11.35 13.65 11.35H17C17.5523 11.35 18 10.9023 18 10.35V7C18 6.44771 17.5523 6 17 6H13.65C13.0977 6 12.65 6.44772 12.65 7V10.35ZM6 17.0004C6 17.5527 6.44772 18.0004 7 18.0004H10.35C10.9023 18.0004 11.35 17.5527 11.35 17.0004V13.6504C11.35 13.0981 10.9023 12.6504 10.35 12.6504H7C6.44771 12.6504 6 13.0981 6 13.6504V17.0004ZM6 10.35C6 10.9023 6.44772 11.35 7 11.35H10.35C10.9023 11.35 11.35 10.9023 11.35 10.35V7C11.35 6.44771 10.9023 6 10.35 6H7C6.44771 6 6 6.44772 6 7V10.35Z" fill="#B4E0FF"/>
</svg>
