<svg width="16" height="16" viewBox="0 0 16 16" fill="none" xmlns="http://www.w3.org/2000/svg">
<path d="M12.2179 14.7988C12.0488 14.8929 11.842 14.8881 11.6775 14.7862L11.5925 14.7337C11.5379 14.7 11.4593 14.6516 11.3639 14.593C11.1728 14.4756 10.9141 14.3175 10.6434 14.1538C10.1989 13.8851 9.75553 13.6225 9.51035 13.4886C9.02385 13.588 8.51833 13.6403 8.00003 13.6403C4.26004 13.6403 1.13337 10.8902 1.13337 7.38658C1.13337 3.88295 4.26004 1.13281 8.00003 1.13281C11.74 1.13281 14.8667 3.88295 14.8667 7.38658C14.8667 9.28895 13.936 10.9794 12.4917 12.1177V14.3328C12.4917 14.5263 12.3869 14.7046 12.2179 14.7988Z" fill="#A9ABB8"/>
</svg>
